<?xml version="1.0" encoding="UTF-8"?>
<!DOCTYPE svg PUBLIC "-//W3C//DTD SVG 1.1//EN" "http://www.w3.org/Graphics/SVG/1.1/DTD/svg11.dtd">
<!-- Creator: CorelDRAW X7 -->
<svg xmlns="http://www.w3.org/2000/svg" xml:space="preserve" width="297mm" height="210mm" version="1.1" style="shape-rendering:geometricPrecision; text-rendering:geometricPrecision; image-rendering:optimizeQuality; fill-rule:evenodd; clip-rule:evenodd"
viewBox="0 0 29700 21000"
 xmlns:xlink="http://www.w3.org/1999/xlink">
 <defs>
  <style type="text/css">
   <![CDATA[
    .fil27 {fill:none}
    .fil19 {fill:#91642A}
    .fil28 {fill:#B0762A}
    .fil30 {fill:#B86E0D}
    .fil23 {fill:#C9842B}
    .fil25 {fill:#CF8627}
    .fil16 {fill:#D17600}
    .fil9 {fill:#D99F53}
    .fil20 {fill:#DB7F07}
    .fil10 {fill:#E0A75C}
    .fil11 {fill:#E8B36D}
    .fil15 {fill:#EB8500}
    .fil24 {fill:#EB9D36}
    .fil12 {fill:#EDB974}
    .fil17 {fill:#EDEDED}
    .fil7 {fill:#F09824}
    .fil14 {fill:#F0B17E}
    .fil26 {fill:#F0F0F0}
    .fil8 {fill:#F7D2A1}
    .fil5 {fill:#FADFBB}
    .fil29 {fill:#FCC185}
    .fil6 {fill:#FF9100}
    .fil3 {fill:#FFA530}
    .fil21 {fill:#FFAF47}
    .fil22 {fill:#FFBB61}
    .fil13 {fill:#FFBD66}
    .fil4 {fill:#FFC578}
    .fil18 {fill:#FFCC99}
    .fil0 {fill:#FFD7A3}
    .fil2 {fill:#FFEACF}
    .fil1 {fill:white}
   ]]>
  </style>
 </defs>
 <g id="Слой_x0020_1">
  <metadata id="CorelCorpID_0Corel-Layer"/>
  <polygon class="fil0" points="0,21000 29700,21000 29700,0 0,0 "/>
  <g id="_544137968">
   <rect class="fil1" x="2259" y="7038" width="3891" height="881" rx="467" ry="516"/>
   <ellipse class="fil1" cx="4797" cy="7014" rx="653" ry="435"/>
   <ellipse class="fil1" cx="3732" cy="6806" rx="908" ry="604"/>
   <ellipse class="fil1" cx="2914" cy="7120" rx="346" ry="230"/>
  </g>
  <g id="_544137152">
   <path class="fil1" d="M3008 6689l-3008 0 0 826 3008 0c227,0 413,-186 413,-413l0 0c0,-227 -186,-413 -413,-413z"/>
   <ellipse class="fil1" cx="1888" cy="6667" rx="740" ry="407"/>
   <path class="fil1" d="M682 5907c-262,0 -501,54 -682,142l0 847c181,88 420,142 682,142 567,0 1028,-253 1028,-566 0,-312 -461,-565 -1028,-565z"/>
   <path class="fil1" d="M0 6934c89,-40 147,-100 147,-168 0,-68 -58,-129 -147,-169l0 337z"/>
  </g>
  <g id="_511899688">
   <path class="fil1" d="M2481 5745l-2481 0 0 1111 2481 0c306,0 556,-250 556,-555l0 0c0,-306 -250,-556 -556,-556z"/>
   <ellipse class="fil1" cx="1412" cy="5715" rx="785" ry="548"/>
   <path class="fil1" d="M132 4693c-44,0 -89,2 -132,5l0 1511c43,4 88,6 132,6 602,0 1090,-341 1090,-761 0,-421 -488,-761 -1090,-761z"/>
  </g>
  <g id="_511898776">
   <path class="fil1" d="M9787 7504l-2622 -202c-210,-16 -398,142 -417,352l0 0c-19,210 137,394 347,410l2622 202c210,17 397,-142 416,-351l0 0c19,-210 -137,-395 -346,-411z"/>
   <path class="fil1" d="M9028 7046c-314,-24 -584,124 -603,332 -19,208 220,396 534,420 313,24 583,-125 602,-332 19,-208 -220,-396 -533,-420z"/>
   <path class="fil1" d="M8131 6649c-436,-34 -811,173 -838,461 -26,289 306,550 742,583 436,34 811,-173 837,-461 27,-289 -305,-550 -741,-583z"/>
   <path class="fil1" d="M7026 7190c-198,77 -292,279 -211,452 82,172 309,250 506,174 198,-77 293,-279 211,-452 -82,-173 -308,-250 -506,-174z"/>
  </g>
  <g id="_511898200">
   <rect class="fil1" x="13429" y="7178" width="7214" height="1351" rx="866" ry="791"/>
   <ellipse class="fil1" cx="15937" cy="7141" rx="1211" ry="666"/>
   <ellipse class="fil1" cx="17912" cy="6823" rx="1682" ry="926"/>
   <ellipse class="fil1" cx="19428" cy="7303" rx="641" ry="352"/>
  </g>
  <g id="_511897624">
   <rect class="fil1" x="14057" y="5868" width="7649" height="1818" rx="918" ry="1065"/>
   <ellipse class="fil1" cx="16717" cy="5818" rx="1284" ry="896"/>
   <ellipse class="fil1" cx="18811" cy="5390" rx="1784" ry="1245"/>
   <ellipse class="fil1" cx="20418" cy="6036" rx="679" ry="474"/>
  </g>
  <g id="_511897048">
   <rect class="fil1" x="17832" y="7717" width="5841" height="1094" rx="701" ry="641"/>
   <ellipse class="fil1" cx="21642" cy="7687" rx="981" ry="540"/>
   <ellipse class="fil1" cx="20043" cy="7430" rx="1362" ry="750"/>
   <ellipse class="fil1" cx="18815" cy="7818" rx="519" ry="285"/>
  </g>
  <g id="_511896472">
   <rect class="fil1" x="16134" y="5753" width="6972" height="1818" rx="837" ry="1065"/>
   <ellipse class="fil1" cx="20682" cy="5704" rx="1170" ry="896"/>
   <ellipse class="fil1" cx="18773" cy="5276" rx="1626" ry="1245"/>
   <ellipse class="fil1" cx="17308" cy="5921" rx="619" ry="474"/>
  </g>
  <g id="_511895752">
   <path class="fil1" d="M23481 5593l6219 0 0 1729 -6219 0c-476,0 -865,-389 -865,-864l0 0c0,-476 389,-865 865,-865z"/>
   <ellipse class="fil1" cx="25452" cy="5546" rx="1369" ry="853"/>
   <ellipse class="fil1" cx="27684" cy="5139" rx="1902" ry="1185"/>
   <path class="fil1" d="M29398 5302c108,0 210,14 302,41l0 820c-92,26 -194,41 -302,41 -400,0 -724,-202 -724,-451 0,-249 324,-451 724,-451z"/>
  </g>
  <g id="_541214632">
   <path class="fil1" d="M24570 3796l5130 0 0 2327 -5130 0c-640,0 -1163,-524 -1163,-1164l0 0c0,-639 523,-1163 1163,-1163z"/>
   <ellipse class="fil1" cx="26413" cy="3733" rx="1452" ry="1147"/>
   <path class="fil1" d="M28780 1591c332,0 644,63 920,175l0 2837c-276,112 -588,176 -920,176 -1114,0 -2016,-714 -2016,-1594 0,-880 902,-1594 2016,-1594z"/>
  </g>
  <g id="_541214032">
   <path class="fil1" d="M29700 5627l-2479 0c-475,0 -864,389 -864,864l0 0c0,476 389,865 864,865l2479 0 0 -1729z"/>
   <path class="fil1" d="M29444 3988c-1051,0 -1902,530 -1902,1184 0,654 851,1185 1902,1185 87,0 172,-4 256,-11l0 -2348c-84,-7 -169,-10 -256,-10z"/>
   <ellipse class="fil1" cx="27730" cy="5786" rx="724" ry="451"/>
  </g>
  <path class="fil2" d="M0 19861l29700 0 0 -12510c-7055,-666 -9964,314 -16059,395 -6692,90 -10960,-773 -13641,-367l0 12482z"/>
  <g id="_541213264">
   <rect class="fil3" transform="matrix(-0.00723786 0.126304 -0.182699 -0.0104696 16297.8 8517.21)" width="2233" height="1524" rx="275" ry="275"/>
   <path class="fil4" d="M16311 8779l19 -24c10,-12 27,-18 46,-17 0,0 0,0 0,0l14 1 -1 9c0,7 7,13 17,14l110 6c22,2 41,-10 41,-26l8 -134c1,-16 -16,-30 -38,-31l-110 -7c-10,0 -18,5 -18,12l-1 10 -14 -1c0,0 0,0 0,0 -18,-1 -35,-10 -43,-22l-17 -26c-15,-24 -47,-40 -82,-42 -1,0 -1,0 -1,0l-233 -13c0,0 0,0 0,0 -26,-2 -50,5 -66,19 -15,-16 -38,-25 -64,-27 0,0 0,0 0,0l-314 -18c-41,-2 -74,20 -76,49l-12 204c-2,29 30,55 70,57l315 18c25,2 49,-5 65,-19 15,15 39,25 64,27 0,0 0,0 0,0l234 13c0,0 0,0 0,0 35,2 69,-10 87,-32l0 0zm-105 -255l-15 260 -158 -9 15 -260 158 9z"/>
   <rect class="fil3" transform="matrix(-0.00536378 0.0936007 -0.110165 -0.00631302 16567.3 8570.5)" width="2233" height="1524" rx="275" ry="275"/>
  </g>
  <path class="fil1" d="M2059 8024c-241,191 -527,204 -795,474 4,175 221,199 12,523 434,-259 561,-71 962,-245 -60,-250 -361,-281 -179,-752z"/>
  <path class="fil1" d="M11190 9125c322,-186 447,-459 873,-652 207,48 154,264 623,143 -477,356 -300,526 -661,871 -278,-121 -200,-420 -835,-362z"/>
  <path class="fil5" d="M0 20491l29700 0 0 -12095c-6557,-410 -7647,1092 -11506,514 -2826,-424 -5036,-236 -8296,134 -4290,487 -7353,-931 -9898,-179l0 11626z"/>
  <g id="_541212064">
   <rect class="fil6" transform="matrix(0.0689839 0.178131 -0.257667 0.0997852 2631.31 10772.5)" width="2233" height="1524" rx="275" ry="275"/>
   <path class="fil3" d="M2812 11124l12 -45c6,-22 26,-42 53,-52 0,0 0,0 0,0l19 -8 6 14c3,10 17,14 31,8l156 -60c30,-12 48,-40 40,-62l-74 -189c-8,-22 -40,-31 -71,-19l-156 60c-13,6 -21,18 -17,28l5 13 -20 8c0,0 0,0 0,0 -26,10 -55,9 -73,-3l-39 -25c-36,-24 -90,-26 -140,-7 0,0 0,0 0,0l-330 128c0,0 0,0 0,0 -36,14 -65,39 -79,68 -29,-12 -68,-11 -103,3 0,0 0,0 0,0l-444 172c-57,22 -90,73 -74,114l111 288c17,41 75,57 132,35l444 -172c36,-14 65,-39 78,-68 30,12 69,11 104,-3 0,0 0,0 0,0l330 -127c0,0 0,0 0,0 50,-20 89,-58 99,-99l0 0zm-302 -285l142 367 -223 86 -142 -366 223 -87z"/>
   <rect class="fil6" transform="matrix(0.0511221 0.132008 -0.15537 0.0601693 3035.08 10677.3)" width="2233" height="1524" rx="275" ry="275"/>
  </g>
  <g id="_541211512">
   <rect class="fil3" transform="matrix(0.191152 -0.112929 0.163352 0.276502 23287.9 10943.3)" width="2233" height="1524" rx="275" ry="275"/>
   <path class="fil7" d="M23656 10669l-53 -5c-26,-3 -53,-22 -70,-50 0,0 0,0 0,0l-12 -21 14 -9c11,-6 13,-23 4,-37l-99 -168c-19,-33 -55,-48 -79,-34l-202 120c-24,14 -28,52 -9,85l99 168c9,14 24,21 35,15l14 -9 13 21c0,0 0,0 0,0 17,28 21,61 10,85l-21 50c-20,45 -13,107 19,161 0,0 0,0 0,0l209 354c0,0 0,0 0,0 23,39 57,67 93,77 -8,37 0,81 23,119 0,0 0,0 0,0l281 476c36,61 101,89 146,63l308 -183c45,-26 52,-96 16,-157l-282 -476c-22,-39 -57,-67 -92,-78 8,-36 -1,-80 -23,-118 0,0 0,0 0,0l-209 -354c0,0 0,0 0,0 -32,-54 -83,-90 -133,-95l0 0zm-268 401l393 -232 141 239 -393 232 -141 -239z"/>
   <rect class="fil6" transform="matrix(0.141658 -0.0836885 0.098499 0.166727 23102.1 10498.4)" width="2233" height="1524" rx="275" ry="275"/>
  </g>
  <path class="fil1" d="M26598 11475c171,-330 438,-468 611,-902 -57,-205 -271,-142 -172,-616 -333,493 -511,324 -839,701 133,272 429,180 400,817z"/>
  <path class="fil8" d="M0 20211l29700 0 0 -9441c-354,-92 -1296,-214 -2193,-208 -1101,8 -2876,662 -4002,725 -1864,104 -3125,-648 -5170,-635 -2220,15 -4011,654 -5165,748 -2169,175 -4566,-572 -6061,-636 -3360,-142 -4284,439 -7109,440l0 9007z"/>
  <path class="fil9" d="M0 20783l29700 0c0,-2315 0,-5674 0,-7989 -799,-272 -2131,610 -4241,229 -2303,-416 -3478,879 -5761,752 -4424,-246 -4868,-1335 -8777,-675 -4223,712 -5730,-1169 -10921,-821l0 8504z"/>
  <path class="fil10" d="M5 20670l29695 0 0 -7505c-800,-251 -2131,573 -4236,216 -2303,-390 -3477,826 -5761,707 -4424,-232 -4868,-1254 -8777,-634 -4224,669 -5731,-1100 -10926,-771l0 5998 5 1989z"/>
  <path class="fil11" d="M29695 21000c0,-2157 0,-5129 0,-7205 -799,-256 -2131,572 -4241,214 -2303,-390 -3477,826 -5761,707 -4424,-231 -4868,-1254 -8777,-634 -4221,669 -5729,-1097 -10916,-772l0 7690 29695 0z"/>
  <path class="fil12" d="M35 21000l29665 0 0 -6376c-803,-188 -2127,490 -4206,191 -2303,-331 -3477,701 -5761,600 -4424,-196 -4868,-1064 -8777,-538 -4228,568 -5734,-936 -10941,-654l20 6777z"/>
  <g id="_541216112">
   <path class="fil13" d="M9078 2468c-105,-160 -337,-325 -752,-92 403,-513 932,-140 752,92z"/>
   <path class="fil13" d="M10273 1647c-56,-85 -179,-173 -400,-49 214,-273 495,-74 400,49z"/>
   <path class="fil13" d="M9084 2468c95,-145 306,-295 682,-83 -365,-466 -845,-128 -682,83z"/>
   <path class="fil13" d="M10276 1647c51,-77 162,-157 363,-44 -195,-248 -450,-68 -363,44z"/>
   <path class="fil13" d="M9078 2468c591,-904 0,0 0,0z"/>
   <path class="fil13" d="M10273 1647c314,-481 0,0 0,0z"/>
   <path class="fil13" d="M13014 3340c-136,-242 -435,-489 -970,-138 519,-772 1201,-211 970,138z"/>
   <path class="fil13" d="M13021 3340c123,-219 394,-443 880,-125 -472,-700 -1090,-192 -880,125z"/>
   <path class="fil13" d="M13014 3340c762,-1358 0,0 0,0z"/>
  </g>
  <path class="fil14" d="M8024 10798c169,0 312,112 360,266 -31,39 -50,88 -50,142 0,44 13,85 35,120 -58,133 -191,226 -345,226 -209,0 -377,-169 -377,-377 0,-208 168,-377 377,-377z"/>
  <path class="fil15" d="M6931 9594l1166 1209 -290 259 -1330 -1257c-128,-359 -133,-748 -260,-1106 -192,-715 -144,-1839 483,-1473 379,220 402,646 231,2368z"/>
  <path class="fil16" d="M5200 17686l728 0c0,394 1236,114 1028,787l-1047 0c-236,0 -473,0 -709,0 -55,-220 -111,-524 0,-787z"/>
  <path class="fil17" d="M5169 12174l1472 29c0,754 -35,1640 -88,2533 -58,973 -625,2129 -625,2950 -340,0 -389,0 -729,0l388 -2927 -418 -2585z"/>
  <path class="fil15" d="M4674 17690l729 0c0,428 1236,124 1028,857l-1047 0c-236,0 -473,0 -709,0 -56,-239 -112,-571 -1,-857z"/>
  <path class="fil1" d="M4674 12230l1457 -23c0,753 -50,1640 -103,2533 -58,973 -625,2129 -625,2950 -340,0 -389,0 -729,0l388 -2927 -388 -2533z"/>
  <path class="fil6" d="M4645 7452c49,-33 31,-30 79,-59 1383,-819 2187,-161 2251,125 256,1131 -868,2193 -334,4686 -720,-8 -1246,38 -1967,31 -320,-2230 -285,-2951 -155,-4433 12,-142 63,-257 126,-350z"/>
  <path class="fil14" d="M5620 6262l763 0c0,243 -3,485 -37,757 -154,150 -479,183 -710,0 83,-234 -81,-544 -16,-757z"/>
  <path class="fil18" d="M5991 4822c-744,-88 -839,315 -848,842 -5,337 215,528 383,822 99,173 530,310 747,308 223,-3 339,-154 372,-396 27,-207 79,-386 66,-629 -35,-666 24,-859 -720,-947z"/>
  <path class="fil19" d="M6698 5493c2,-392 -315,-433 -440,-445 -585,-56 -771,349 -719,719 -243,-129 -227,380 -46,335 17,226 24,342 143,494 -32,45 -289,79 -390,-49 141,-69 59,-223 42,-259 -96,-207 -295,-722 -145,-1121 86,-228 176,-378 612,-474 324,-72 715,171 761,213 126,117 197,314 182,587z"/>
  <rect class="fil6" x="7864" y="11064" width="4981" height="254" rx="166" ry="127"/>
  <rect class="fil20" x="11815" y="11026" width="1030" height="330" rx="34" ry="165"/>
  <rect class="fil20" x="7864" y="11026" width="1030" height="330" rx="34" ry="165"/>
  <path class="fil21" d="M14079 10647c879,0 1593,288 1593,644 0,355 -714,2546 -1593,2546 -880,0 -1593,-2191 -1593,-2546 0,-356 713,-644 1593,-644z"/>
  <path class="fil22" d="M14079 10647c879,0 1593,288 1593,644 0,355 -714,2546 -1593,2546l0 -3190z"/>
  <ellipse class="fil23" cx="14079" cy="11218" rx="1593" ry="570"/>
  <g id="_511937000">
   <rect class="fil3" transform="matrix(0.300483 -0.110086 0.15924 0.434649 12814.6 11003.2)" width="2233" height="1524" rx="275" ry="275"/>
   <path class="fil7" d="M13408 10711l-74 -22c-36,-10 -69,-44 -86,-89 0,0 0,0 0,0l-12 -33 23 -8c17,-6 24,-30 15,-52l-96 -264c-19,-51 -65,-82 -103,-68l-319 116c-37,14 -53,67 -34,119l97 263c8,23 28,37 45,31l23 -9 12 33c0,0 0,0 0,0 16,45 13,92 -8,124l-43 64c-40,59 -46,150 -15,234 0,0 0,0 1,0l203 557c0,0 0,0 0,0 22,60 63,109 111,133 -21,50 -20,114 2,174 0,0 0,0 0,0l274 749c35,96 120,152 190,127l485 -178c70,-26 98,-124 63,-219l-274 -749c-22,-60 -64,-110 -112,-134 22,-49 21,-113 -1,-174 0,0 0,0 0,0l-204 -556c0,0 0,0 0,0 -31,-85 -94,-150 -163,-169l0 0zm-485 498l618 -227 138 377 -618 226 -138 -376z"/>
   <rect class="fil6" transform="matrix(0.22268 -0.081582 0.0960198 0.262088 12667.5 10324)" width="2233" height="1524" rx="275" ry="275"/>
  </g>
  <path class="fil18" d="M7955 10798c191,0 301,72 349,228 -32,39 -35,134 -35,184 0,49 13,110 35,146 -59,134 -166,204 -349,204 -183,0 -381,-170 -381,-381 0,-210 190,-381 381,-381z"/>
  <path class="fil3" d="M6246 9630l1555 1204 -224 388 -1831 -980c-269,-347 -493,-688 -761,-1034 -468,-714 -757,-1994 61,-1820 494,105 207,182 1200,2242z"/>
  <path class="fil14" d="M17831 12974c55,153 1847,-307 2115,-1815 12,-66 456,-162 -418,-170 -346,-4 22,1139 -1566,1663 -77,26 -167,48 -185,34 -40,-32 13,174 54,288z"/>
  <path class="fil14" d="M17626 12689c-122,53 -109,142 -145,183 60,24 106,-46 147,49 41,96 -4,274 -131,329 -9,4 -17,7 -26,9 102,138 288,194 453,123 191,-82 280,-304 197,-495 -82,-191 -372,-250 -495,-198z"/>
  <path class="fil15" d="M16084 13484c-803,261 -950,739 -801,1199 150,459 491,1021 1756,565 1266,-456 1300,-1604 1150,-2063 -149,-460 -1303,38 -2105,299z"/>
  <g id="_511877464">
   <rect class="fil16" transform="matrix(0.358727 -0.131425 0.190106 0.518899 15821.1 14939.2)" width="2233" height="1524" rx="275" ry="275"/>
   <path class="fil7" d="M16530 14590l-89 -25c-43,-13 -82,-54 -102,-107 0,0 0,0 0,0l-14 -40 27 -10c20,-7 28,-35 18,-62l-115 -314c-23,-62 -78,-98 -123,-82l-380 139c-45,17 -64,81 -41,142l115 315c10,27 34,43 54,35l27 -10 15 40c0,0 0,0 0,0 19,53 16,110 -9,147l-52 77c-48,71 -54,179 -17,280 0,0 0,0 0,0l243 664c0,0 0,0 0,0 26,72 75,131 133,160 -26,59 -25,135 1,207 0,0 0,0 0,0l328 894c42,114 143,182 226,152l580 -213c83,-30 116,-147 75,-261l-328 -895c-26,-71 -75,-130 -133,-159 26,-59 25,-136 -1,-208 0,0 0,0 0,0l-244 -664c0,0 0,0 0,0 -37,-101 -112,-179 -194,-202l0 0zm-580 594l738 -270 165 449 -738 271 -165 -450z"/>
   <rect class="fil6" transform="matrix(0.265843 -0.0973955 0.114632 0.31289 15645.6 14128.3)" width="2233" height="1524" rx="275" ry="275"/>
  </g>
  <g id="_511876912">
   <rect class="fil16" x="17232" y="14255" width="853" height="842" rx="105" ry="152"/>
   <path class="fil16" d="M18018 14171l-74 -54c-37,-26 -60,-78 -60,-135 0,0 0,0 0,0l0 -42 30 0c21,0 38,-24 38,-53l0 -334c0,-66 -39,-119 -87,-119l-406 0c-48,0 -87,53 -87,119l0 334c0,29 17,53 38,53l30 0 0 42c0,0 0,0 0,0 0,57 -23,109 -60,135l-74 54c-69,51 -113,149 -113,257 0,0 0,0 0,0l0 707c0,1 0,1 0,1 0,76 26,148 70,195 -44,47 -70,119 -70,195 0,0 0,0 0,0l0 953c0,121 72,219 160,220l618 0c88,-1 160,-99 160,-220l0 -953c0,-76 -26,-148 -70,-195 44,-47 70,-119 70,-196 0,0 0,0 0,0l0 -707c0,0 0,0 0,0 0,-108 -43,-206 -113,-257l0 0zm-749 359l786 0 0 479 -786 0 0 -479z"/>
   <rect class="fil3" x="17346" y="13434" width="632" height="508" rx="78" ry="92"/>
  </g>
  <g id="_511876360">
   <rect class="fil3" transform="matrix(0.292169 0.0683413 -0.0988557 0.422623 14292.8 10794.1)" width="2233" height="1524" rx="275" ry="275"/>
   <path class="fil6" d="M14909 10870l-48 -54c-23,-27 -31,-71 -21,-114 0,-1 0,-1 0,-1l8 -32 22 6c16,3 34,-12 39,-34l60 -255c11,-51 -9,-99 -46,-107l-310 -73c-36,-8 -76,26 -87,76l-60 256c-5,22 3,43 19,47l23 5 -8 32c0,0 0,0 0,0 -10,43 -37,79 -69,93l-67 28c-62,26 -113,94 -132,176 0,0 0,0 0,0l-127 541c0,0 0,0 0,0 -13,59 -7,118 19,162 -42,28 -75,79 -89,137 0,0 0,0 0,0l-170 728c-22,93 16,181 83,197l472 111c68,15 141,-47 162,-140l171 -728c13,-59 7,-118 -19,-162 42,-28 75,-79 89,-137 0,0 0,0 0,0l126 -541c0,0 0,0 0,0 19,-83 4,-166 -40,-217l0 0zm-637 141l601 140 -86 366 -601 -140 86 -366z"/>
   <rect class="fil3" transform="matrix(0.216519 0.0506458 -0.0596088 0.254837 14527.1 10186.1)" width="2233" height="1524" rx="275" ry="275"/>
  </g>
  <g id="_511875808">
   <rect class="fil6" transform="matrix(-0.312087 -0.135916 0.196602 -0.451434 14993.2 12696.3)" width="2233" height="1524" rx="275" ry="275"/>
   <path class="fil16" d="M14321 12486l42 70c20,35 21,86 0,132 0,0 0,0 0,0l-15 34 -24 -10c-17,-8 -39,5 -49,29l-119 273c-24,54 -11,112 28,129l331 144c40,17 90,-13 114,-67l119 -273c10,-23 5,-49 -13,-56l-24 -11 15 -34c0,0 0,0 0,0 21,-46 58,-81 97,-89l80 -18c75,-17 145,-82 184,-170 0,0 0,0 0,0l251 -578c0,0 0,0 0,0 28,-62 32,-130 13,-184 53,-23 99,-72 127,-135 0,0 0,0 0,0l338 -778c43,-99 20,-205 -53,-236l-504 -220c-72,-31 -166,23 -209,122l-339 778c-27,63 -31,131 -12,185 -53,22 -100,72 -127,135 0,0 0,0 0,0l-251 578c0,0 -1,0 -1,0 -38,88 -37,184 1,249l0 1zm740 -27l-642 -280 170 -391 642 280 -170 391z"/>
   <rect class="fil6" transform="matrix(-0.231279 -0.100723 0.118549 -0.272209 14607.6 13327.1)" width="2233" height="1524" rx="275" ry="275"/>
  </g>
  <g id="_511882392">
   <rect class="fil3" transform="matrix(0.367711 0.103665 -0.149952 0.531894 16501.6 14709.4)" width="2233" height="1524" rx="275" ry="275"/>
   <path class="fil3" d="M17281 14842l-57 -73c-28,-35 -36,-92 -21,-146 0,0 0,0 0,0l12 -41 28 8c20,6 43,-12 51,-40l91 -322c17,-63 -6,-125 -52,-138l-390 -110c-46,-13 -98,28 -116,91l-91 322c-8,28 2,55 23,61l28 8 -11 40c0,0 0,0 0,0 -16,55 -52,99 -94,114l-87 32c-80,30 -149,113 -178,217 0,0 0,0 0,0l-192 681c0,0 0,0 0,0 -21,73 -16,150 14,207 -55,33 -99,95 -120,169 0,0 0,0 0,0l-259 917c-32,116 10,230 95,255l594 167c85,24 181,-51 214,-168l259 -916c20,-74 15,-151 -15,-208 56,-33 100,-95 121,-169 0,0 0,0 0,0l192 -681c0,0 0,0 0,0 29,-103 14,-210 -39,-277l0 0zm-819 142l757 213 -130 461 -756 -214 129 -460z"/>
   <rect class="fil6" transform="matrix(0.2725 0.0768235 -0.0904192 0.320726 16834.4 13949.3)" width="2233" height="1524" rx="275" ry="275"/>
  </g>
  <path class="fil6" d="M16596 13063c-1663,365 -1674,891 -1513,1750 99,530 -438,893 -288,1682 151,789 522,1465 287,1725 -248,276 297,-35 1004,244 706,280 1467,56 1833,-124 330,-162 1062,30 1011,-84 -462,-1032 3,-786 3,-2132 0,-1346 -627,-1726 -564,-2284 149,-1321 -508,-1054 -1773,-777zm-501 510c-744,242 -881,686 -742,1112 138,426 454,948 1628,525 1174,-423 1205,-1488 1066,-1914 -138,-426 -1208,35 -1952,277z"/>
  <path class="fil24" d="M6535 5790c-634,-11 -649,-162 -936,-421l1235 0c419,307 335,433 -299,421z"/>
  <path class="fil25" d="M5965 4395c480,0 869,436 869,974l-1738 0c0,-538 389,-974 869,-974z"/>
  <path class="fil7" d="M19495 13937l950 0c-215,1001 -973,2782 -771,4214 -240,-31 -204,-26 -444,-57 -181,-1376 36,-3162 265,-4157z"/>
  <path class="fil3" d="M20022 13937l1186 0c158,1011 204,2830 906,4094 -234,58 -200,49 -434,106 -663,-1219 -1515,-3189 -1658,-4200z"/>
  <path class="fil26" d="M20092 10295c-339,-104 -748,607 -830,798l834 461c66,-144 326,-706 232,-1003 -47,-149 -80,-207 -236,-256z"/>
  <path class="fil1" d="M20451 10235l-232 0c-777,0 -607,1169 -653,2166 -31,686 -283,1100 -71,1536l1713 0c270,-272 13,-1020 28,-1437 44,-1189 268,-2265 -785,-2265z"/>
  <path class="fil18" d="M21016 7821c-243,-76 -660,-45 -917,217 -187,192 -222,334 -239,620 -12,192 -77,281 -117,429 -28,107 85,330 117,472 29,133 52,157 172,231 150,90 175,311 98,492 -110,260 685,372 591,-20 -24,-101 8,-412 55,-417 612,-73 792,-848 763,-1009 -14,-78 129,-811 -523,-1015z"/>
  <path class="fil27" d="M19624 8114c-105,-18 -59,271 7,278 66,7 128,-59 138,-149 10,-90 134,-343 75,-251"/>
  <path class="fil28" d="M21279 7843c-437,-246 -940,-34 -1234,-58 -328,-27 -155,751 -448,802 330,195 455,-503 535,-394 145,200 -4,395 359,447 -51,-23 -107,-37 -100,-247 6,-211 125,298 390,358 -98,-97 -125,-236 -96,-275 83,-13 171,7 223,60 51,54 270,150 145,394 -147,287 237,222 -195,779 -120,156 -190,248 -20,450 -34,-124 13,-300 318,-415 461,-175 990,-1414 123,-1901z"/>
  <path class="fil29" d="M18381 13339c20,177 2860,228 2869,-2185 0,-203 -27,-437 -295,-413 -281,25 -304,290 -342,633 -70,626 -188,1510 -2009,1658 -176,14 -253,40 -223,307z"/>
  <path class="fil26" d="M20934 10431c-351,27 -469,834 -475,1040l939 121c8,-158 43,-772 -152,-1011 -98,-120 -151,-162 -312,-150z"/>
  <path class="fil24" d="M22006 17828c-91,130 -291,110 -401,170 -172,94 -202,233 -369,348 -346,238 -264,836 146,652l870 -389c-28,-344 -96,-578 -246,-781z"/>
  <path class="fil25" d="M19655 18004c-134,77 -309,-36 -437,-27 -198,14 -264,128 -466,163 -417,71 -542,618 -81,618l977 0c109,-210 115,-505 7,-754z"/>
  <path class="fil29" d="M18361 12848c-62,15 -117,43 -164,81 60,37 106,96 124,169 36,147 -54,295 -200,331 -10,2 -20,4 -29,5 84,167 275,260 465,214 221,-54 356,-277 302,-498 -54,-221 -277,-356 -498,-302z"/>
  <path class="fil14" d="M20099 9813c30,30 70,115 76,143 15,83 3,113 276,-90 26,-19 -70,-10 -174,-18 -68,-5 -142,-27 -178,-35z"/>
  <polygon class="fil15" points="26503,14188 28650,14393 26996,14848 24516,14318 "/>
  <g id="_537869376">
   <rect class="fil24" transform="matrix(-0.297857 0.109723 -0.158714 -0.43085 28054.7 15571.5)" width="2233" height="1524" rx="275" ry="275"/>
   <path class="fil25" d="M27466 15863l74 21c36,10 69,44 85,88 0,0 0,0 0,0l12 33 -23 8c-16,6 -23,29 -14,52l96 261c19,51 64,82 102,68l316 -117c37,-13 52,-66 33,-118l-96 -260c-8,-23 -28,-36 -44,-30l-23 8 -12 -33c0,0 -1,0 -1,0 -16,-44 -13,-91 8,-122l43 -64c39,-59 45,-148 14,-232 0,0 0,0 0,-1l-203 -551c0,0 0,0 -1,0 -21,-60 -62,-108 -110,-132 21,-50 20,-113 -2,-173 0,0 0,0 0,0l-273 -742c-35,-95 -119,-151 -188,-125l-482 177c-69,25 -96,123 -61,217l273 743c22,59 63,108 111,132 -21,49 -21,113 1,172 0,0 0,0 0,0l203 552c0,0 1,0 1,0 30,84 93,149 161,168l0 0zm481 -495l-612 226 -138 -374 613 -225 137 373z"/>
   <rect class="fil24" transform="matrix(-0.220734 0.0813128 -0.0957029 -0.259798 28201.7 16244.9)" width="2233" height="1524" rx="275" ry="275"/>
  </g>
  <g id="_504008544">
   <rect class="fil3" transform="matrix(-0.319942 -0.00677285 0.00979693 -0.462797 26646.9 15761.9)" width="2233" height="1524" rx="275" ry="275"/>
   <path class="fil7" d="M25987 15818l62 47c30,23 48,67 47,114 0,1 0,1 0,1l-1 35 -24 -1c-18,0 -32,19 -33,43l-6 281c-1,55 31,100 71,101l339 7c40,1 74,-43 75,-98l6 -280c1,-25 -13,-44 -31,-45l-24 0 0 -36c0,0 0,0 0,0 1,-47 21,-90 52,-112l64 -44c59,-41 97,-123 99,-213 0,0 0,0 0,0l12 -592c0,0 0,0 0,-1 2,-63 -19,-124 -55,-164 38,-39 61,-99 62,-163 0,0 0,0 0,0l17 -797c2,-102 -56,-186 -130,-187l-517 -11c-74,-2 -136,80 -138,181l-17 798c-1,64 19,125 55,165 -38,38 -61,98 -62,162 0,0 0,0 0,0l-13 592c0,0 0,1 0,1 -2,90 33,173 90,216l0 0zm634 -287l-658 -14 8 -400 659 13 -9 401z"/>
   <rect class="fil6" transform="matrix(-0.237101 -0.00501917 0.00590743 -0.279061 26536.8 16448.1)" width="2233" height="1524" rx="275" ry="275"/>
  </g>
  <g id="_510751824">
   <rect class="fil30" transform="matrix(0.31389 0.0472356 -0.0683263 0.454042 26315.7 13831.6)" width="2233" height="1524" rx="275" ry="275"/>
   <path class="fil16" d="M26972 13860l-55 -54c-27,-26 -39,-72 -32,-119 0,0 0,0 0,0l5 -34 24 3c18,3 35,-14 38,-38l42 -275c8,-54 -18,-102 -57,-108l-333 -51c-40,-5 -78,34 -86,88l-42 275c-3,23 8,45 25,47l24 4 -5 34c0,0 0,1 0,1 -7,46 -32,86 -66,103l-68 36c-63,32 -111,108 -124,196 0,0 0,1 0,1l-87 581c0,0 0,0 0,0 -10,63 2,125 33,169 -42,33 -72,89 -82,152 0,0 0,0 0,0l-118 782c-15,100 32,190 105,201l507 76c73,11 144,-61 159,-161l118 -782c9,-63 -3,-125 -33,-169 42,-33 72,-89 81,-152 0,0 0,0 0,0l88 -581c0,0 0,-1 0,-1 13,-88 -10,-175 -61,-224l0 0zm-660 202l645 97 -59 393 -645 -97 59 -393z"/>
   <rect class="fil30" transform="matrix(0.232615 0.035005 -0.0411999 0.273782 26511 13170.5)" width="2233" height="1524" rx="275" ry="275"/>
  </g>
  <g id="_513750720">
   <rect class="fil24" transform="matrix(0.295468 -0.116002 0.167798 0.427395 25130.2 14057.3)" width="2233" height="1524" rx="275" ry="275"/>
   <path class="fil25" d="M25712 13754l-74 -20c-36,-9 -70,-42 -87,-86 0,0 0,0 0,0l-13 -33 23 -9c16,-6 23,-29 14,-52l-102 -258c-20,-51 -66,-81 -103,-66l-314 123c-37,14 -51,68 -31,118l102 259c8,23 29,35 45,29l23 -9 13 33c0,0 0,0 0,0 17,44 15,91 -5,122l-42 65c-38,60 -41,149 -9,233 0,0 0,0 0,0l215 547c0,0 0,0 0,0 23,59 65,107 113,130 -20,49 -18,113 6,172 0,0 0,0 0,0l289 737c37,94 122,148 191,121l477 -187c68,-27 94,-125 57,-219l-289 -737c-23,-59 -65,-107 -113,-130 20,-49 18,-113 -6,-172 0,0 0,0 0,0l-214 -547c0,0 0,0 -1,0 -32,-83 -96,-147 -165,-164l0 0zm-470 505l608 -239 145 370 -608 239 -145 -370z"/>
   <rect class="fil24" transform="matrix(0.218963 -0.0859662 0.10118 0.257714 24968.9 13387.1)" width="2233" height="1524" rx="275" ry="275"/>
  </g>
  <g id="_510791872">
   <rect class="fil30" transform="matrix(-0.314819 -0.0405818 0.0587015 -0.455386 27637.8 16301.6)" width="2233" height="1524" rx="275" ry="275"/>
   <path class="fil16" d="M26981 16287l56 53c27,26 41,71 35,118 0,0 0,0 0,0l-5 35 -24 -4c-17,-2 -34,16 -37,39l-36 276c-6,54 20,102 60,108l333 43c40,5 78,-35 85,-89l35 -276c3,-24 -8,-45 -25,-47l-25 -3 5 -35c0,0 0,0 0,0 6,-47 30,-87 63,-105l67 -37c63,-34 109,-111 121,-199 0,0 0,-1 0,-1l75 -582c0,0 0,-1 0,-1 8,-62 -6,-125 -37,-168 41,-34 70,-91 78,-154 0,0 0,0 0,0l101 -784c13,-100 -35,-189 -108,-198l-509 -66c-73,-9 -143,64 -156,164l-101 785c-8,63 6,125 37,168 -41,34 -70,91 -78,154 0,0 0,0 0,0l-75 583c0,0 0,0 0,0 -12,89 14,175 65,223l0 0zm656 -216l-648 -83 51 -394 648 83 -51 394z"/>
   <rect class="fil30" transform="matrix(-0.233304 -0.030074 0.0353963 -0.274592 27456.5 16966.7)" width="2233" height="1524" rx="275" ry="275"/>
  </g>
  <g id="_510792400">
   <rect class="fil3" x="27473" y="14165" width="715" height="705" rx="88" ry="127"/>
   <path class="fil7" d="M28132 14095l-63 -46c-31,-22 -50,-65 -50,-113 0,0 0,0 0,0l0 -35 25 0c18,0 32,-20 32,-44l0 -280c0,-55 -33,-100 -73,-100l-339 0c-41,0 -73,45 -73,100l0 280c0,24 14,44 31,44l25 0 0 35c0,0 0,0 0,0 0,48 -19,91 -50,114l-62 45c-58,42 -95,125 -95,215 0,0 0,0 0,0l0 593c0,0 0,0 0,0 0,64 22,124 59,163 -37,40 -59,100 -59,164 0,0 0,0 0,0l0 798c0,101 61,184 135,184l517 0c74,0 134,-83 134,-184l0 -798c0,-64 -22,-124 -58,-164 36,-39 58,-99 58,-163 0,0 0,0 0,0l0 -593c0,0 0,0 0,0 0,-90 -36,-173 -94,-215l0 0zm-628 300l658 0 0 401 -658 0 0 -401z"/>
   <rect class="fil6" x="27569" y="13477" width="530" height="425" rx="65" ry="77"/>
  </g>
  <polygon class="fil6" points="26949,14731 28188,14493 27804,18203 26625,18430 "/>
  <polygon class="fil3" points="24503,14312 26996,14698 26996,18758 24978,18472 "/>
  <g id="_510122592">
   <g>
    <path class="fil1" d="M25187 16272l84 73 -55 129c-28,60 41,133 84,161 41,28 102,40 158,48l81 -153 82 54 -164 -272 -270 -40zm53 346l202 336c38,49 102,69 167,77l173 27 -35 -293 -330 -54c-51,-5 -119,-27 -177,-93zm966 -408l-85 25 -102 -146c-45,-70 -127,-59 -162,-40 -34,18 -60,66 -80,112l117 188 -68 36 280 47 100 -222zm-320 -204l-346 -58c-52,0 -85,45 -108,98l-65 142 269 182 126 -267c16,-44 52,-92 124,-97zm160 1198l-2 -97 154 12c73,8 82,-76 74,-122 -8,-45 -44,-104 -81,-157l-194 -28 -16 -90 -109 226 174 256zm257 -148l134 -280c12,-49 -20,-112 -62,-172l-110 -165 -226 117 208 313c34,47 68,115 56,187z"/>
   </g>
   <g>
   </g>
   <g>
   </g>
   <g>
   </g>
   <g>
   </g>
   <g>
   </g>
   <g>
   </g>
   <g>
   </g>
   <g>
   </g>
   <g>
   </g>
   <g>
   </g>
   <g>
   </g>
   <g>
   </g>
   <g>
   </g>
   <g>
   </g>
   <g>
   </g>
  </g>
  <g id="_510123672">
   <path class="fil21" d="M14079 13837c-880,0 -1593,-2191 -1593,-2546 0,-13 1,-26 3,-39 49,299 742,536 1590,536l0 2049z"/>
   <path class="fil22" d="M15669 11252c1,13 3,26 3,39 0,355 -714,2546 -1593,2546l0 -2049c847,0 1540,-237 1590,-536z"/>
  </g>
  <path class="fil1" d="M9199 17594c515,69 940,-159 1561,0 144,256 -148,479 433,767 -851,0 -872,381 -1603,476 -130,-414 279,-719 -391,-1243z"/>
  <path class="fil1" d="M11193 18925c366,-70 574,-287 1039,-329 181,114 59,301 541,340 -567,179 -456,398 -910,605 -223,-205 -51,-463 -670,-616z"/>
  <path class="fil1" d="M8032 18423c220,163 441,167 695,397 -380,100 -408,174 -694,272 0,-223 224,-258 -1,-669z"/>
  <path class="fil1" d="M26748 10784c294,24 591,-55 931,0 37,90 -179,168 113,269 -508,0 -593,133 -1047,167 1,-146 303,-252 3,-436z"/>
  <polygon class="fil6" points="26996,14698 28636,14387 28175,18489 26996,18758 "/>
 </g>
</svg>
