<?xml version="1.0" encoding="UTF-8"?>
<!DOCTYPE svg PUBLIC "-//W3C//DTD SVG 1.1//EN" "http://www.w3.org/Graphics/SVG/1.1/DTD/svg11.dtd">
<!-- Creator: CorelDRAW X7 -->
<svg xmlns="http://www.w3.org/2000/svg" xml:space="preserve" width="297mm" height="210mm" version="1.1" style="shape-rendering:geometricPrecision; text-rendering:geometricPrecision; image-rendering:optimizeQuality; fill-rule:evenodd; clip-rule:evenodd"
viewBox="0 0 29700 21000"
 xmlns:xlink="http://www.w3.org/1999/xlink"
 enable-background="new 0 68.5 768 955.5">
 <defs>
  <style type="text/css">
   <![CDATA[
    .fil5 {fill:#00CCFF}
    .fil1 {fill:#9933CC}
    .fil28 {fill:#A8793B}
    .fil21 {fill:#BD6B00}
    .fil18 {fill:#BF7515}
    .fil12 {fill:#CF8627}
    .fil14 {fill:#CF892D}
    .fil26 {fill:#D67900}
    .fil9 {fill:#DB9437}
    .fil30 {fill:#E0E0E0}
    .fil31 {fill:#E38203}
    .fil17 {fill:#E3AC64}
    .fil27 {fill:#E6E6E6}
    .fil19 {fill:#E8901C}
    .fil25 {fill:#EB8500}
    .fil10 {fill:#EB9D36}
    .fil15 {fill:#EDEDED}
    .fil4 {fill:#EFA543}
    .fil22 {fill:#F0B17E}
    .fil29 {fill:#F2F2F2}
    .fil16 {fill:#F5C280}
    .fil3 {fill:#F9AC46}
    .fil8 {fill:#F9B75F}
    .fil6 {fill:#FCBA65}
    .fil24 {fill:#FF9100}
    .fil32 {fill:#FFA530}
    .fil20 {fill:#FFA836}
    .fil7 {fill:#FFC476}
    .fil23 {fill:#FFCE9D}
    .fil33 {fill:#FFCE9D}
    .fil2 {fill:#FFE5C4}
    .fil0 {fill:white}
    .fil13 {fill:#CF8627;fill-rule:nonzero}
    .fil11 {fill:#EB9D36;fill-rule:nonzero}
   ]]>
  </style>
 </defs>
 <g id="Слой_x0020_1">
  <metadata id="CorelCorpID_0Corel-Layer"/>
  <rect class="fil0" x="-6183" y="-2896" width="6181" height="27446"/>
  <polygon class="fil1" points="0,0 29700,0 29700,21000 0,21000 "/>
  <polygon class="fil2" points="0,0 29700,0 29700,21000 0,21000 "/>
  <g id="_371088440">
   <path class="fil3" d="M29700 11635c-901,-125 -1594,-898 -1594,-1833 0,-935 693,-1708 1594,-1833l0 3666z"/>
   <circle class="fil3" cx="27017" cy="10659" r="1474"/>
   <path class="fil3" d="M29064 8901c224,0 439,42 636,118l0 3280c-197,76 -412,118 -636,118 -971,0 -1758,-787 -1758,-1758 0,-971 787,-1758 1758,-1758z"/>
   <circle class="fil3" cx="27130" cy="11403" r="1162"/>
   <path class="fil3" d="M29700 12748c-432,-438 -698,-1040 -698,-1704 0,-664 266,-1265 698,-1703l0 3407z"/>
   <path class="fil4" d="M28760 10316c351,0 676,112 940,304l0 2600c-264,191 -589,304 -940,304 -886,0 -1604,-718 -1604,-1604 0,-886 718,-1604 1604,-1604z"/>
  </g>
  <g id="_371087288">
   <path class="fil3" d="M24084 10096c333,0 645,88 915,242l0 3218c-270,154 -582,242 -915,242 -1023,0 -1851,-829 -1851,-1851 0,-1022 828,-1851 1851,-1851z"/>
   <circle class="fil4" cx="21144" cy="12804" r="1474"/>
   <circle class="fil3" cx="23191" cy="12804" r="1758"/>
   <circle class="fil3" cx="21257" cy="13549" r="1162"/>
   <path class="fil5" d="M24999 14832c-166,-239 -263,-529 -263,-841 0,-313 97,-602 263,-841l0 1682z"/>
   <path class="fil4" d="M24999 15553c-1072,-252 -1871,-1214 -1871,-2363 0,-1149 799,-2112 1871,-2363l0 4726z"/>
   <circle class="fil4" cx="22886" cy="14065" r="1604"/>
  </g>
  <g id="_371095328">
   <path class="fil3" d="M422 8676c-147,0 -289,24 -422,69l0 2501c133,45 275,69 422,69 729,0 1320,-590 1320,-1319 0,-729 -591,-1320 -1320,-1320z"/>
   <circle class="fil3" cx="2518" cy="10607" r="1051"/>
   <path class="fil3" d="M1059 9353c-446,0 -837,233 -1059,583l0 1343c222,349 613,582 1059,582 692,0 1254,-562 1254,-1254 0,-692 -562,-1254 -1254,-1254z"/>
   <circle class="fil3" cx="2437" cy="11138" r="829"/>
   <path class="fil3" d="M0 12495c646,-251 1103,-879 1103,-1613 0,-735 -457,-1362 -1103,-1613l0 3226z"/>
   <circle class="fil3" cx="1276" cy="11506" r="1144"/>
  </g>
  <g id="_371097512">
   <path class="fil4" d="M25072 8410c338,0 655,89 929,245l0 3265c-274,156 -591,245 -929,245 -1037,0 -1877,-841 -1877,-1878 0,-1037 840,-1877 1877,-1877z"/>
   <circle class="fil4" cx="22090" cy="11157" r="1496"/>
   <circle class="fil3" cx="24167" cy="11157" r="1784"/>
   <circle class="fil3" cx="22205" cy="11912" r="1179"/>
   <path class="fil5" d="M26001 13213c-168,-242 -267,-536 -267,-853 0,-317 99,-611 267,-852l0 1705z"/>
   <path class="fil3" d="M26001 13945c-1088,-256 -1898,-1232 -1898,-2397 0,-1166 810,-2142 1898,-2397l0 4794z"/>
   <circle class="fil4" cx="23858" cy="12436" r="1627"/>
  </g>
  <g id="_380514872">
   <path class="fil4" d="M19954 9434c-338,0 -655,89 -928,245l0 3264c273,156 590,246 928,246 1037,0 1877,-841 1877,-1878 0,-1037 -840,-1877 -1877,-1877z"/>
   <circle class="fil3" cx="22936" cy="12181" r="1496"/>
   <circle class="fil3" cx="20860" cy="12181" r="1784"/>
   <circle class="fil3" cx="22821" cy="12935" r="1179"/>
   <path class="fil5" d="M19026 14237c168,-242 267,-536 267,-853 0,-317 -99,-611 -267,-853l0 1706z"/>
   <path class="fil3" d="M19026 14968c1087,-255 1897,-1231 1897,-2397 0,-1165 -810,-2141 -1897,-2396l0 4793z"/>
   <circle class="fil4" cx="21168" cy="13460" r="1627"/>
  </g>
  <g id="_375257576">
   <path class="fil4" d="M28164 8482c-338,0 -655,89 -928,245l0 3264c273,156 590,246 928,246 635,0 1196,-316 1536,-798l0 -2160c-340,-482 -901,-797 -1536,-797z"/>
   <path class="fil3" d="M29700 10847c-32,122 -49,250 -49,382 0,132 17,260 49,382l0 -764z"/>
   <path class="fil3" d="M29070 9445c-985,0 -1784,799 -1784,1784 0,985 799,1783 1784,1783 222,0 434,-40 630,-114l0 -3338c-196,-74 -408,-115 -630,-115z"/>
   <path class="fil5" d="M27236 13285c168,-242 267,-536 267,-853 0,-317 -99,-611 -267,-853l0 1706z"/>
   <path class="fil3" d="M27236 14016c1087,-255 1897,-1231 1897,-2396 0,-1166 -810,-2142 -1897,-2397l0 4793z"/>
   <path class="fil4" d="M29378 10880c-898,0 -1627,729 -1627,1628 0,898 729,1627 1627,1627 111,0 218,-11 322,-32l0 -3191c-104,-21 -211,-32 -322,-32z"/>
  </g>
  <ellipse class="fil3" cx="26326" cy="9965" rx="1539" ry="1353"/>
  <g id="_375258440">
   <path class="fil4" d="M5283 8823c330,0 640,87 908,240l0 3190c-268,152 -578,240 -908,240 -1013,0 -1834,-822 -1834,-1835 0,-1013 821,-1835 1834,-1835z"/>
   <circle class="fil3" cx="2369" cy="11508" r="1461"/>
   <circle class="fil3" cx="4398" cy="11508" r="1743"/>
   <circle class="fil3" cx="2482" cy="12245" r="1152"/>
   <path class="fil5" d="M6191 13517c-165,-236 -261,-524 -261,-833 0,-310 96,-597 261,-834l0 1667z"/>
   <path class="fil3" d="M6191 14232c-1063,-250 -1855,-1204 -1855,-2343 0,-1138 792,-2092 1855,-2342l0 4685z"/>
   <circle class="fil4" cx="4097" cy="12757" r="1590"/>
  </g>
  <path class="fil4" d="M8861 8551c-330,0 -640,87 -908,239l0 3190c268,153 578,240 908,240 1013,0 1834,-821 1834,-1835 0,-1013 -821,-1834 -1834,-1834z"/>
  <circle class="fil3" cx="9746" cy="11235" r="1743"/>
  <circle class="fil3" cx="11663" cy="11973" r="1152"/>
  <path class="fil5" d="M7953 13244c165,-236 261,-523 261,-833 0,-310 -96,-597 -261,-833l0 1666z"/>
  <path class="fil3" d="M7953 13959c1063,-249 1855,-1203 1855,-2342 0,-1139 -792,-2093 -1855,-2342l0 4684z"/>
  <circle class="fil4" cx="10047" cy="12485" r="1590"/>
  <ellipse class="fil3" cx="7399" cy="9950" rx="1688" ry="1322"/>
  <path class="fil6" d="M3015 12157l1013 6136c871,251 809,472 2845,189 1924,-267 21032,-1628 22827,-3796l0 -872c-1997,-5138 -21650,-4645 -26685,-1657z"/>
  <path class="fil7" d="M29700 16180c-228,31 -473,49 -738,49 -1413,0 -16549,430 -16549,-1392 0,-4203 13901,-5327 17287,-5113l0 6456z"/>
  <path class="fil8" d="M0 19054c361,889 1520,-91 5211,-91 2324,0 16407,1402 24489,1236l0 -5466c-5660,-2462 -21601,-4947 -29700,-3526l0 7847z"/>
  <path class="fil6" d="M29700 18968c-584,314 -648,491 -2385,491 -1890,0 -21453,1436 -21453,-988 0,-5650 18449,-8075 23838,-5865l0 6362z"/>
  <g id="_376886680">
   <polygon class="fil9" points="157,13732 396,13564 635,13732 635,15270 157,15270 "/>
   <polygon class="fil9" points="1588,13732 1826,13564 2065,13732 2065,15270 1588,15270 "/>
   <polygon class="fil9" points="3018,13732 3257,13564 3496,13732 3496,15270 3018,15270 "/>
   <polygon class="fil9" points="4449,13732 4688,13564 4926,13732 4926,15270 4449,15270 "/>
   <polygon class="fil9" points="5880,13732 6118,13564 6357,13732 6357,15270 5880,15270 "/>
   <polygon class="fil9" points="7310,13732 7549,13564 7787,13732 7787,15270 7310,15270 "/>
   <polygon class="fil9" points="8741,13732 8979,13564 9218,13732 9218,15270 8741,15270 "/>
   <polygon class="fil9" points="10171,13732 10410,13564 10649,13732 10649,15270 10171,15270 "/>
   <polygon class="fil9" points="11602,13732 11841,13564 12079,13732 12079,15270 11602,15270 "/>
   <polygon class="fil9" points="13033,13732 13271,13564 13510,13732 13510,15270 13033,15270 "/>
   <polygon class="fil9" points="14463,13732 14702,13564 14940,13732 14940,15270 14463,15270 "/>
   <polygon class="fil9" points="15894,13732 16132,13564 16371,13732 16371,15270 15894,15270 "/>
   <polygon class="fil9" points="17324,13732 17563,13564 17802,13732 17802,15270 17324,15270 "/>
   <polygon class="fil9" points="18755,13732 18994,13564 19232,13732 19232,15270 18755,15270 "/>
   <polygon class="fil9" points="20186,13732 20424,13564 20663,13732 20663,15270 20186,15270 "/>
   <polygon class="fil9" points="21616,13732 21855,13564 22093,13732 22093,15270 21616,15270 "/>
   <polygon class="fil9" points="23047,13732 23285,13564 23524,13732 23524,15270 23047,15270 "/>
   <polygon class="fil9" points="24477,13732 24716,13564 24955,13732 24955,15270 24477,15270 "/>
   <polygon class="fil9" points="25908,13732 26147,13564 26385,13732 26385,15270 25908,15270 "/>
   <polygon class="fil9" points="27339,13732 27577,13564 27816,13732 27816,15270 27339,15270 "/>
   <polygon class="fil9" points="28769,13732 29008,13564 29246,13732 29246,15270 28769,15270 "/>
   <polygon class="fil9" points="635,13732 873,13564 1112,13732 1112,15270 635,15270 "/>
   <polygon class="fil9" points="2065,13732 2304,13564 2542,13732 2542,15270 2065,15270 "/>
   <polygon class="fil9" points="3496,13732 3734,13564 3973,13732 3973,15270 3496,15270 "/>
   <polygon class="fil9" points="4926,13732 5165,13564 5404,13732 5404,15270 4926,15270 "/>
   <polygon class="fil9" points="6357,13732 6596,13564 6834,13732 6834,15270 6357,15270 "/>
   <polygon class="fil9" points="7787,13732 8026,13564 8265,13732 8265,15270 7787,15270 "/>
   <polygon class="fil9" points="9218,13732 9457,13564 9695,13732 9695,15270 9218,15270 "/>
   <polygon class="fil9" points="10649,13732 10887,13564 11126,13732 11126,15270 10649,15270 "/>
   <polygon class="fil9" points="12079,13732 12318,13564 12557,13732 12557,15270 12079,15270 "/>
   <polygon class="fil9" points="13510,13732 13749,13564 13987,13732 13987,15270 13510,15270 "/>
   <polygon class="fil9" points="14940,13732 15179,13564 15418,13732 15418,15270 14940,15270 "/>
   <polygon class="fil9" points="16371,13732 16610,13564 16848,13732 16848,15270 16371,15270 "/>
   <polygon class="fil9" points="17802,13732 18040,13564 18279,13732 18279,15270 17802,15270 "/>
   <polygon class="fil9" points="19232,13732 19471,13564 19710,13732 19710,15270 19232,15270 "/>
   <polygon class="fil9" points="20663,13732 20901,13564 21140,13732 21140,15270 20663,15270 "/>
   <polygon class="fil9" points="22093,13732 22332,13564 22571,13732 22571,15270 22093,15270 "/>
   <polygon class="fil9" points="23524,13732 23763,13564 24001,13732 24001,15270 23524,15270 "/>
   <polygon class="fil9" points="24955,13732 25193,13564 25432,13732 25432,15270 24955,15270 "/>
   <polygon class="fil9" points="26385,13732 26624,13564 26862,13732 26862,15270 26385,15270 "/>
   <polygon class="fil9" points="27816,13732 28054,13564 28293,13732 28293,15270 27816,15270 "/>
   <polygon class="fil9" points="29246,13732 29485,13564 29700,13715 29700,15270 29246,15270 "/>
   <polygon class="fil9" points="0,13621 157,13732 157,15270 0,15270 "/>
   <polygon class="fil9" points="1112,13732 1349,13564 1588,13732 1588,15270 1112,15270 "/>
   <polygon class="fil9" points="2542,13732 2780,13564 3018,13732 3018,15270 2542,15270 "/>
   <polygon class="fil9" points="3973,13732 4210,13564 4449,13732 4449,15270 3973,15270 "/>
   <polygon class="fil9" points="5404,13732 5641,13564 5880,13732 5880,15270 5404,15270 "/>
   <polygon class="fil9" points="6834,13732 7072,13564 7310,13732 7310,15270 6834,15270 "/>
   <polygon class="fil9" points="8265,13732 8502,13564 8741,13732 8741,15270 8265,15270 "/>
   <polygon class="fil9" points="9695,13732 9933,13564 10171,13732 10171,15270 9695,15270 "/>
   <polygon class="fil9" points="11126,13732 11363,13564 11602,13732 11602,15270 11126,15270 "/>
   <polygon class="fil9" points="12557,13732 12794,13564 13033,13732 13033,15270 12557,15270 "/>
   <polygon class="fil9" points="13987,13732 14225,13564 14463,13732 14463,15270 13987,15270 "/>
   <polygon class="fil9" points="15418,13732 15655,13564 15894,13732 15894,15270 15418,15270 "/>
   <polygon class="fil9" points="16848,13732 17086,13564 17324,13732 17324,15270 16848,15270 "/>
   <polygon class="fil9" points="18279,13732 18516,13564 18755,13732 18755,15270 18279,15270 "/>
   <polygon class="fil9" points="19710,13732 19947,13564 20186,13732 20186,15270 19710,15270 "/>
   <polygon class="fil9" points="21140,13732 21378,13564 21616,13732 21616,15270 21140,15270 "/>
   <polygon class="fil9" points="22571,13732 22808,13564 23047,13732 23047,15270 22571,15270 "/>
   <polygon class="fil9" points="24001,13732 24239,13564 24477,13732 24477,15270 24001,15270 "/>
   <polygon class="fil9" points="25432,13732 25669,13564 25908,13732 25908,15270 25432,15270 "/>
   <polygon class="fil9" points="26862,13732 27100,13564 27339,13732 27339,15270 26862,15270 "/>
   <polygon class="fil9" points="28293,13732 28531,13564 28769,13732 28769,15270 28293,15270 "/>
  </g>
  <g id="_374576528">
   <g>
    <g>
     <ellipse class="fil10" cx="2211" cy="6920" rx="1939" ry="2012"/>
     <ellipse class="fil10" cx="1967" cy="5458" rx="1427" ry="1481"/>
     <path class="fil10" d="M1283 6721c885,0 1602,745 1602,1662 0,918 -717,1662 -1602,1662 -525,0 -991,-262 -1283,-667l0 -1989c292,-405 758,-668 1283,-668z"/>
     <path class="fil10" d="M174 3605c958,0 1734,806 1734,1799 0,993 -776,1799 -1734,1799 -59,0 -117,-3 -174,-9l0 -3580c57,-6 115,-9 174,-9z"/>
     <path class="fil11" d="M174 3597c481,0 917,202 1232,529 316,327 511,779 511,1278 0,499 -195,951 -511,1278 -315,327 -751,530 -1232,530 -59,0 -117,-3 -174,-9l0 -18c57,6 115,9 174,9 476,0 908,-200 1220,-524 312,-324 505,-772 505,-1266 0,-494 -193,-942 -505,-1266 -312,-324 -744,-524 -1220,-524 -59,0 -117,3 -174,9l0 -18c57,-5 115,-8 174,-8z"/>
     <path class="fil11" d="M174 3593c237,0 462,49 668,137 214,92 406,226 567,393 161,167 291,367 379,589 85,213 132,447 132,692 0,245 -47,479 -132,693 -88,221 -218,421 -379,588 -161,167 -353,301 -567,393 -206,89 -431,137 -668,137 -57,0 -114,-2 -169,-8l-5 0 0 -8 5 0c56,6 112,9 169,9 236,0 460,-49 665,-137 213,-91 404,-225 565,-392 160,-166 289,-365 377,-585 85,-213 132,-446 132,-690 0,-244 -47,-477 -132,-690 -88,-220 -217,-419 -377,-585 -161,-167 -352,-301 -565,-392 -205,-88 -429,-137 -665,-137 -57,0 -113,3 -169,9l-5 0 0 -7 5 -1c56,-5 112,-8 169,-8zm-174 3588l5 1c56,5 112,8 169,8 233,0 455,-48 658,-135 211,-90 400,-223 559,-388 159,-164 287,-361 374,-580 84,-210 130,-441 130,-683 0,-242 -46,-473 -130,-683 -87,-219 -215,-416 -374,-580 -159,-165 -348,-297 -559,-388 -203,-87 -425,-135 -658,-135 -57,0 -113,3 -169,8l-5 1 0 -8 5 0c56,-6 112,-9 169,-9 234,0 458,49 661,136 212,91 402,224 561,390 160,165 288,362 376,582 84,211 131,443 131,686 0,243 -47,475 -131,686 -88,220 -216,417 -376,583 -159,165 -349,298 -561,389 -203,88 -427,136 -661,136 -57,0 -113,-3 -169,-9l-5 0 0 -8z"/>
     <path class="fil10" d="M199 5953c426,0 818,152 1128,406l0 2967c-310,254 -702,406 -1128,406 -67,0 -134,-4 -199,-12l0 -3755c65,-8 132,-12 199,-12z"/>
    </g>
    <g>
     <g>
      <path class="fil12" d="M809 5952l350 184c424,1143 1211,3280 682,5053 -514,1724 -551,5475 798,6335l-2639 0 0 -5802c1635,-1538 670,-4404 809,-5770z"/>
      <path class="fil13" d="M813 5944l350 185 3 1 1 3c212,572 515,1392 699,2292 184,899 248,1878 -16,2766 -289,968 -427,2574 -254,3949 135,1071 459,2002 1048,2377l25 16 -30 0 -2639 0 0 -17 2610 0c-578,-389 -898,-1313 -1031,-2374 -174,-1377 -35,-2987 254,-3956 264,-885 199,-1861 16,-2758 -183,-896 -485,-1714 -697,-2286l-336 -176c-36,380 11,874 63,1423 137,1433 309,3236 -879,4345l0 -24c1168,-1105 998,-2895 862,-4320 -53,-555 -101,-1056 -62,-1439l1 -13 12 6z"/>
      <path class="fil12" d="M2639 6335c-160,223 -321,426 -362,618 -54,255 38,455 -105,764 -77,256 -414,342 -409,581l-330 -341c68,-85 307,8 526,-234 412,-456 -134,-878 680,-1388z"/>
      <path class="fil12" d="M1434 5494c-11,196 -35,313 -3,458 41,159 200,291 215,571 8,164 -277,294 -213,461l-185 -270c7,-76 247,-35 244,-284 -3,-319 -275,-379 -58,-936z"/>
     </g>
     <path class="fil10" d="M174 7103c580,0 1050,535 1050,1195 0,660 -470,1195 -1050,1195 -59,0 -117,-6 -174,-16l0 -2357c57,-11 115,-17 174,-17z"/>
     <path class="fil11" d="M174 7094c293,0 557,135 749,353 191,218 309,519 309,851 0,332 -118,633 -309,851 -192,218 -456,353 -749,353 -59,0 -117,-6 -174,-16l0 -18c57,11 115,16 174,16 287,0 547,-132 736,-347 188,-214 305,-511 305,-839 0,-328 -117,-624 -305,-839 -189,-214 -449,-347 -736,-347 -59,0 -117,6 -174,17l0 -18c57,-11 115,-17 174,-17z"/>
     <path class="fil11" d="M174 7091c144,0 281,32 407,91 130,62 247,151 345,263 97,111 176,244 230,392 52,142 80,298 80,461 0,164 -28,319 -80,461 -54,148 -133,281 -230,392 -98,112 -215,202 -345,263 -126,59 -263,92 -407,92 -58,0 -115,-6 -171,-16l-3 0 0 -8 4 1c56,10 112,15 170,15 143,0 279,-32 403,-91 130,-61 246,-150 343,-261 97,-110 175,-242 229,-389 51,-141 80,-296 80,-459 0,-162 -29,-317 -80,-459 -54,-146 -132,-278 -229,-389 -97,-111 -213,-200 -343,-261 -124,-58 -260,-91 -403,-91 -58,0 -114,6 -170,16l-4 1 0 -8 3 -1c56,-10 113,-15 171,-15zm-174 2373l4 1c55,10 112,16 170,16 140,0 274,-32 396,-90 127,-60 241,-147 337,-256 96,-109 173,-239 225,-384 51,-140 79,-292 79,-453 0,-160 -28,-313 -79,-452 -52,-145 -129,-275 -225,-384 -96,-109 -210,-197 -337,-257 -122,-57 -256,-89 -396,-89 -58,0 -115,5 -170,16l-4 0 0 -7 3 -1c56,-10 113,-16 171,-16 142,0 276,32 399,90 128,61 243,149 340,259 96,109 174,240 227,386 51,140 79,294 79,455 0,161 -28,315 -79,455 -53,146 -131,277 -227,387 -97,109 -212,198 -340,258 -123,58 -257,90 -399,90 -58,0 -115,-5 -171,-16l-3 0 0 -8z"/>
     <path class="fil10" d="M0 4451c650,98 1149,678 1149,1379 0,701 -499,1282 -1149,1380l0 -2759z"/>
     <path class="fil11" d="M0 4442c296,44 560,188 762,396 244,254 396,605 396,992 0,388 -152,738 -396,992 -202,209 -466,352 -762,397l0 -18c291,-44 551,-186 749,-391 242,-251 391,-597 391,-980 0,-382 -149,-729 -391,-979 -198,-206 -458,-347 -749,-391l0 -18z"/>
    </g>
   </g>
   <path class="fil10" d="M326 5254c467,0 846,378 846,845 0,467 -379,846 -846,846 -62,-928 -140,-846 0,-1691z"/>
  </g>
  <g id="_374572208">
   <g>
    <g>
     <ellipse class="fil10" cx="27482" cy="6920" rx="1939" ry="2012"/>
     <ellipse class="fil10" cx="27726" cy="5458" rx="1427" ry="1481"/>
     <path class="fil10" d="M28410 6721c-885,0 -1602,745 -1602,1662 0,918 717,1662 1602,1662 529,0 998,-266 1290,-676l0 -1971c-292,-410 -761,-677 -1290,-677z"/>
     <path class="fil10" d="M29519 3605c-957,0 -1734,806 -1734,1799 0,993 777,1799 1734,1799 61,0 122,-3 181,-10l0 -3578c-59,-6 -120,-10 -181,-10z"/>
     <path class="fil11" d="M29519 3597c-481,0 -917,202 -1232,529 -315,327 -510,779 -510,1278 0,499 195,951 510,1278 315,327 751,530 1232,530 61,0 122,-4 181,-10l0 -18c-59,7 -120,10 -181,10 -476,0 -907,-200 -1220,-524 -312,-324 -505,-772 -505,-1266 0,-494 193,-942 505,-1266 313,-324 744,-524 1220,-524 61,0 122,3 181,10l0 -18c-59,-6 -120,-9 -181,-9z"/>
     <path class="fil11" d="M29519 3600c-235,0 -460,49 -665,137 -213,91 -404,225 -564,392 -161,166 -290,365 -378,585 -85,213 -132,446 -132,690 0,244 47,477 132,690 88,220 217,419 378,585 160,167 351,301 564,392 205,88 430,137 665,137 57,0 113,-3 169,-9l12 -1 0 8 -11 1c-56,6 -113,8 -170,8 -236,0 -462,-48 -668,-137 -214,-92 -406,-226 -567,-393 -161,-167 -291,-367 -379,-588 -85,-214 -132,-448 -132,-693 0,-245 47,-479 132,-692 88,-222 218,-422 379,-589 161,-167 353,-301 567,-393 206,-88 432,-137 668,-137 57,0 114,3 169,8l12 1 0 8 -12 -1c-56,-6 -112,-9 -169,-9zm181 3588l-12 1c-55,6 -112,9 -169,9 -234,0 -457,-48 -661,-136 -212,-91 -402,-224 -561,-389 -160,-166 -288,-363 -376,-583 -84,-211 -131,-443 -131,-686 0,-243 47,-475 131,-686 88,-220 216,-417 376,-582 159,-166 349,-299 561,-390 204,-87 427,-136 661,-136 57,0 114,3 169,9l12 1 0 8 -12 -2c-56,-5 -112,-8 -169,-8 -233,0 -455,48 -658,135 -211,91 -400,223 -559,388 -159,164 -286,361 -374,580 -84,210 -130,441 -130,683 0,242 46,473 130,683 88,219 215,416 374,580 159,165 348,298 559,388 203,87 425,135 658,135 57,0 113,-3 169,-8l12 -1 0 7z"/>
     <path class="fil10" d="M29494 5953c-426,0 -818,152 -1128,406l0 2967c310,254 702,406 1128,406 70,0 138,-4 206,-12l0 -3755c-68,-7 -136,-12 -206,-12z"/>
    </g>
    <g>
     <g>
      <path class="fil12" d="M28884 5952l-350 184c-424,1143 -1211,3280 -682,5053 514,1724 551,5475 -798,6335l2646 0 0 -5796c-1645,-1535 -676,-4408 -816,-5776z"/>
      <path class="fil13" d="M28880 5944l-350 185 -3 1 -1 3c-212,572 -515,1392 -699,2292 -184,899 -248,1878 17,2766 288,968 426,2574 253,3949 -135,1071 -459,2002 -1048,2377l-25 16 30 0 2646 0 0 -17 -2617 0c579,-389 898,-1313 1031,-2374 174,-1377 35,-2987 -254,-3956 -263,-885 -199,-1861 -16,-2758 183,-896 485,-1714 697,-2286l336 -176c36,380 -11,874 -63,1423 -137,1436 -309,3243 886,4352l0 -25c-1176,-1104 -1005,-2898 -869,-4326 53,-555 101,-1056 62,-1439l-1 -13 -12 6z"/>
      <path class="fil12" d="M27054 6335c160,223 321,426 362,618 54,255 -38,455 105,764 77,256 414,342 410,581l329 -341c-68,-85 -307,8 -525,-234 -413,-456 133,-878 -681,-1388z"/>
      <path class="fil12" d="M28259 5494c11,196 36,313 3,458 -41,159 -200,291 -215,571 -8,164 277,294 214,461l184 -270c-7,-76 -246,-35 -244,-284 4,-319 276,-379 58,-936z"/>
     </g>
     <path class="fil10" d="M29519 7103c-580,0 -1049,535 -1049,1195 0,660 469,1195 1049,1195 62,0 122,-6 181,-18l0 -2354c-59,-12 -119,-18 -181,-18z"/>
     <path class="fil11" d="M29519 7094c-292,0 -557,135 -749,353 -191,218 -309,519 -309,851 0,332 118,633 309,851 192,218 457,353 749,353 62,0 122,-6 181,-18l0 -18c-59,12 -119,18 -181,18 -287,0 -547,-132 -735,-347 -189,-214 -306,-511 -306,-839 0,-328 117,-624 306,-839 188,-214 448,-347 735,-347 62,0 122,6 181,18l0 -18c-59,-11 -119,-18 -181,-18z"/>
     <path class="fil11" d="M29519 7098c-143,0 -279,33 -403,91 -129,61 -246,150 -343,261 -97,111 -175,243 -229,389 -51,142 -79,297 -79,459 0,163 28,318 79,459 54,147 132,279 229,389 97,111 214,200 343,261 124,59 260,91 403,91 58,0 115,-5 170,-15l11 -3 0 8 -10 2c-55,10 -113,16 -171,16 -144,0 -281,-33 -406,-92 -131,-61 -248,-151 -345,-263 -98,-111 -177,-244 -231,-392 -51,-142 -80,-297 -80,-461 0,-163 29,-319 80,-461 54,-148 133,-281 231,-392 97,-111 214,-201 345,-263 125,-59 262,-91 406,-91 58,0 116,5 171,15l10 2 0 8 -11 -2c-55,-10 -112,-16 -170,-16zm181 2372l-10 2c-55,11 -113,16 -171,16 -141,0 -276,-32 -399,-90 -128,-60 -243,-149 -339,-258 -97,-110 -174,-241 -227,-387 -51,-140 -79,-294 -79,-455 0,-161 28,-315 79,-455 53,-146 130,-277 227,-386 96,-110 211,-198 339,-259 123,-58 258,-90 399,-90 58,0 116,6 171,16l10 2 0 8 -11 -2c-55,-11 -112,-16 -170,-16 -140,0 -274,32 -396,89 -127,60 -241,148 -337,257 -95,109 -173,239 -225,384 -51,139 -79,292 -79,452 0,161 28,313 79,453 52,145 130,275 225,384 96,109 210,196 337,256 122,58 256,90 396,90 58,0 115,-6 170,-16l11 -2 0 7z"/>
     <path class="fil10" d="M29700 4450c-653,95 -1156,677 -1156,1380 0,704 503,1286 1156,1381l0 -2761z"/>
     <path class="fil11" d="M29700 4441c-298,43 -566,187 -768,397 -245,254 -396,605 -396,992 0,388 151,738 396,992 202,211 470,355 768,398l0 -18c-293,-43 -556,-185 -756,-392 -241,-251 -391,-597 -391,-980 0,-382 150,-729 391,-979 200,-208 463,-349 756,-392l0 -18z"/>
    </g>
   </g>
   <path class="fil10" d="M29367 5254c-467,0 -846,378 -846,845 0,467 379,846 846,846 62,-928 140,-846 0,-1691z"/>
  </g>
  <rect class="fil14" x="3322" y="8818" width="424" height="7281"/>
  <circle class="fil15" cx="3534" cy="7684" r="867"/>
  <path class="fil0" d="M3534 6818c192,0 370,62 513,168 55,114 86,241 86,376 0,479 -388,867 -867,867 -192,0 -369,-63 -513,-169 -55,-113 -86,-241 -86,-376 0,-478 388,-866 867,-866z"/>
  <rect class="fil14" x="3049" y="8400" width="971" height="211"/>
  <polygon class="fil14" points="3258,13022 3729,13022 3729,15252 3119,15252 "/>
  <polygon class="fil14" points="3823,13022 3352,13022 3352,15252 3962,15252 "/>
  <rect class="fil14" x="3134" y="8607" width="802" height="211"/>
  <polygon class="fil16" points="29700,15043 0,15043 0,21000 29700,21000 "/>
  <ellipse class="fil17" cx="11819" cy="16560" rx="6992" ry="1199"/>
  <rect class="fil18" transform="matrix(1.5139E-014 -0.226484 0.0744445 7.81193E-016 7857.95 14289)" width="9716" height="3764"/>
  <rect class="fil18" transform="matrix(1.5139E-014 -0.135039 0.0744445 4.65779E-016 7857.95 16125.3)" width="9716" height="3764"/>
  <rect class="fil18" transform="matrix(1.5139E-014 -0.135039 0.0744445 4.65779E-016 15499.4 16125.3)" width="9716" height="3764"/>
  <rect class="fil18" transform="matrix(1.5139E-014 -0.222643 0.0744445 7.67942E-016 15499.4 14289)" width="9716" height="3764"/>
  <rect class="fil19" x="7680" y="12380" width="8278" height="406"/>
  <rect class="fil19" x="7688" y="11785" width="8278" height="406"/>
  <rect class="fil18" transform="matrix(1.5139E-014 -0.206333 0.0744445 7.11685E-016 7354.58 16880.4)" width="9716" height="3764"/>
  <rect class="fil18" transform="matrix(1.5139E-014 -0.206333 0.0744445 7.11685E-016 16002.7 16881.2)" width="9716" height="3764"/>
  <rect class="fil19" x="7149" y="14648" width="9339" height="286"/>
  <polygon class="fil20" points="7679,14135 15958,14135 16488,14648 7149,14648 "/>
  <rect class="fil19" x="7680" y="12972" width="8278" height="406"/>
  <rect class="fil19" x="7680" y="13564" width="8278" height="406"/>
  <g id="_475776744">
   <g>
    <path class="fil0" d="M12128 2760l3780 0c175,0 318,143 318,318l0 0c0,175 -143,318 -318,318l-3780 0c-175,0 -318,-143 -318,-318l0 0c0,-175 143,-318 318,-318z"/>
    <path class="fil0" d="M12954 2470c382,0 691,140 691,312 0,172 -309,312 -691,312 -382,0 -691,-140 -691,-312 0,-172 309,-312 691,-312z"/>
    <path class="fil0" d="M15054 2536c-382,0 -691,140 -691,312 0,172 309,312 691,312 382,0 691,-140 691,-312 0,-172 -309,-312 -691,-312z"/>
    <path class="fil0" d="M14197 2188c513,0 929,224 929,499 0,276 -416,500 -929,500 -513,0 -929,-224 -929,-500 0,-275 416,-499 929,-499z"/>
   </g>
   <g>
    <g>
     <path class="fil0" d="M29700 1555l-3124 0c-290,0 -528,238 -528,528l0 0c0,291 238,529 528,529l3124 0 0 -1057z"/>
     <path class="fil0" d="M27994 1184c634,0 1147,232 1147,517 0,286 -513,518 -1147,518 -634,0 -1148,-232 -1148,-518 0,-285 514,-517 1148,-517z"/>
     <path class="fil0" d="M29417 606c-852,0 -1543,371 -1543,829 0,457 691,828 1543,828 96,0 191,-5 283,-14l0 -1629c-92,-9 -187,-14 -283,-14z"/>
    </g>
    <g>
     <path class="fil0" d="M23862 1883l-5404 0c-250,0 -455,204 -455,454l0 0c0,251 205,455 455,455l5404 0c250,0 455,-204 455,-455l0 0c0,-250 -205,-454 -455,-454z"/>
     <path class="fil0" d="M22681 1468c-546,0 -988,199 -988,446 0,246 442,445 988,445 545,0 988,-199 988,-445 0,-247 -443,-446 -988,-446z"/>
     <path class="fil0" d="M19679 1563c545,0 988,199 988,446 0,246 -443,445 -988,445 -546,0 -989,-199 -989,-445 0,-247 443,-446 989,-446z"/>
     <path class="fil0" d="M20904 1065c-734,0 -1328,320 -1328,714 0,394 594,713 1328,713 733,0 1327,-319 1327,-713 0,-394 -594,-714 -1327,-714z"/>
    </g>
    <g>
     <path class="fil0" d="M899 1422l6503 0c301,0 548,246 548,547l0 0c0,301 -247,548 -548,548l-6503 0c-301,0 -548,-247 -548,-548l0 0c0,-301 247,-547 548,-547z"/>
     <path class="fil0" d="M2320 923c657,0 1189,240 1189,536 0,297 -532,537 -1189,537 -657,0 -1189,-240 -1189,-537 0,-296 532,-536 1189,-536z"/>
     <path class="fil0" d="M5933 1037c-657,0 -1189,240 -1189,537 0,296 532,536 1189,536 657,0 1189,-240 1189,-536 0,-297 -532,-537 -1189,-537z"/>
     <path class="fil0" d="M4459 438c882,0 1598,385 1598,859 0,474 -716,859 -1598,859 -883,0 -1598,-385 -1598,-859 0,-474 715,-859 1598,-859z"/>
    </g>
    <g>
     <path class="fil0" d="M9743 1327l2065 0c96,0 174,78 174,174l0 0c0,95 -78,174 -174,174l-2065 0c-96,0 -174,-79 -174,-174l0 0c0,-96 78,-174 174,-174z"/>
     <path class="fil0" d="M10194 1168c209,0 378,77 378,171 0,94 -169,170 -378,170 -208,0 -377,-76 -377,-170 0,-94 169,-171 377,-171z"/>
     <path class="fil0" d="M11341 1205c-208,0 -377,76 -377,170 0,94 169,170 377,170 209,0 378,-76 378,-170 0,-94 -169,-170 -378,-170z"/>
     <path class="fil0" d="M10873 1015c281,0 508,122 508,272 0,151 -227,273 -508,273 -280,0 -507,-122 -507,-273 0,-150 227,-272 507,-272z"/>
    </g>
    <g>
     <path class="fil0" d="M7000 4255l1596 0c74,0 135,61 135,135l0 0c0,74 -61,134 -135,134l-1596 0c-74,0 -134,-60 -134,-134l0 0c0,-74 60,-135 134,-135z"/>
     <path class="fil0" d="M7349 4133c161,0 292,59 292,132 0,72 -131,131 -292,131 -161,0 -292,-59 -292,-131 0,-73 131,-132 292,-132z"/>
     <path class="fil0" d="M8236 4161c-161,0 -292,59 -292,132 0,72 131,131 292,131 161,0 292,-59 292,-131 0,-73 -131,-132 -292,-132z"/>
     <path class="fil0" d="M7874 4014c217,0 392,94 392,211 0,116 -175,211 -392,211 -217,0 -392,-95 -392,-211 0,-117 175,-211 392,-211z"/>
    </g>
    <g>
     <path class="fil0" d="M9778 5445l1051 0c49,0 88,39 88,88l0 0c0,49 -39,89 -88,89l-1051 0c-48,0 -88,-40 -88,-89l0 0c0,-49 40,-88 88,-88z"/>
     <path class="fil0" d="M10008 5364c106,0 192,39 192,87 0,48 -86,86 -192,86 -106,0 -192,-38 -192,-86 0,-48 86,-87 192,-87z"/>
     <path class="fil0" d="M10592 5383c-107,0 -193,38 -193,86 0,48 86,87 193,87 106,0 192,-39 192,-87 0,-48 -86,-86 -192,-86z"/>
     <path class="fil0" d="M10353 5286c143,0 259,62 259,138 0,77 -116,139 -259,139 -142,0 -258,-62 -258,-139 0,-76 116,-138 258,-138z"/>
    </g>
    <g>
     <path class="fil0" d="M15953 4391l1051 0c48,0 88,40 88,88l0 0c0,49 -40,89 -88,89l-1051 0c-49,0 -88,-40 -88,-89l0 0c0,-48 39,-88 88,-88z"/>
     <path class="fil0" d="M16183 4310c106,0 192,39 192,87 0,48 -86,87 -192,87 -107,0 -193,-39 -193,-87 0,-48 86,-87 193,-87z"/>
     <path class="fil0" d="M16766 4329c-106,0 -192,39 -192,86 0,48 86,87 192,87 106,0 192,-39 192,-87 0,-47 -86,-86 -192,-86z"/>
     <path class="fil0" d="M16528 4232c143,0 258,62 258,139 0,76 -115,138 -258,138 -143,0 -258,-62 -258,-138 0,-77 115,-139 258,-139z"/>
    </g>
    <g>
     <path class="fil0" d="M21549 3771l1596 0c74,0 135,60 135,134l0 0c0,74 -61,134 -135,134l-1596 0c-74,0 -135,-60 -135,-134l0 0c0,-74 61,-134 135,-134z"/>
     <path class="fil0" d="M21898 3648c161,0 292,59 292,132 0,72 -131,131 -292,131 -162,0 -292,-59 -292,-131 0,-73 130,-132 292,-132z"/>
     <path class="fil0" d="M22785 3676c-162,0 -292,59 -292,132 0,73 130,131 292,131 161,0 291,-58 291,-131 0,-73 -130,-132 -291,-132z"/>
     <path class="fil0" d="M22423 3529c216,0 392,95 392,211 0,116 -176,211 -392,211 -217,0 -393,-95 -393,-211 0,-116 176,-211 393,-211z"/>
    </g>
    <polygon class="fil14" points="4245,1039 4446,1039 4446,1039 4245,1039 "/>
   </g>
  </g>
  <path class="fil21" d="M12338 8294c105,683 73,1938 -1057,1887 -1008,-46 -784,-467 -764,-817 21,-350 1717,-1753 1821,-1070z"/>
  <path class="fil22" d="M12483 13906c445,12 -974,-1150 -198,-572 1273,948 1361,939 1351,1076 -20,269 -351,980 -736,972 -144,-3 -447,-64 -880,-260 -589,-267 -1031,-300 -1033,-577 -4,-352 1051,-652 1496,-639z"/>
  <path class="fil23" d="M14588 10361c-334,751 -681,972 -1259,1455 -198,-80 -917,-962 -1068,-1271 -151,-309 -36,-919 536,-127 181,251 170,386 541,773 142,-201 830,-528 1026,-977 145,169 188,37 224,147z"/>
  <path class="fil24" d="M12118 9933c278,138 256,15 313,248 256,1036 -54,935 -179,2067 -164,889 1406,1089 1746,2217 -1114,-405 -2211,665 -3036,657 351,-295 225,-188 -55,-448 -672,-623 -443,-997 0,-2316 99,-297 -351,-2086 -407,-2249 124,-173 254,-145 407,-184 147,-38 1077,-11 1211,8z"/>
  <path class="fil22" d="M11122 9146l858 -114c-145,158 -193,526 -191,750 0,57 300,135 329,151 192,912 -1160,984 -1211,-8 81,-19 334,-119 337,-147 28,-272 -107,-594 -122,-632z"/>
  <path class="fil23" d="M11561 7503c-848,-132 -973,326 -1004,928 -13,253 141,522 370,738 272,257 650,440 985,440 210,-134 476,-413 445,-934 -25,-430 51,-1041 -796,-1172z"/>
  <path class="fil25" d="M11934 9869c-34,260 -186,414 -391,414 -205,0 -380,-166 -436,-429 7,-5 26,-10 28,-12 50,235 218,394 406,394 188,0 331,-152 367,-376 16,6 9,3 26,9z"/>
  <path class="fil21" d="M10946 8493c171,502 889,2022 -731,1580 341,-113 75,-355 75,-657 0,-315 284,-708 235,-1101 -98,-781 494,-967 955,-978 531,-12 934,442 858,957 -10,71 24,-506 -584,-592 -64,361 -397,706 -808,791z"/>
  <path class="fil25" d="M10921 12235c424,54 978,79 1331,13 -11,67 -20,116 0,248 -537,58 -620,53 -1384,-22 30,-90 47,-154 53,-239z"/>
  <path class="fil23" d="M11108 17915l-304 -106c997,-3997 2661,-3817 1994,-2498 -300,591 -1147,1299 -1690,2604z"/>
  <path class="fil23" d="M11917 17735l238 210c2177,-2866 1632,-4428 855,-3228 -349,539 -597,1633 -1093,3018z"/>
  <path class="fil24" d="M10844 17654l320 132c106,283 -4,1181 -502,1259 -318,-261 -215,-1017 182,-1391z"/>
  <path class="fil24" d="M11923 17720l261 190c37,300 -280,1147 -782,1106 -249,-329 47,-1025 521,-1296z"/>
  <path class="fil23" d="M10837 17706l295 122c-22,938 -753,1005 -295,-122z"/>
  <path class="fil23" d="M11910 17774l234 169c-242,907 -1012,839 -234,-169z"/>
  <path class="fil23" d="M13045 12778c-510,-172 -1692,-507 -1883,-814 -315,-507 -845,-1102 -859,-1485 -14,-383 245,-619 718,237 149,270 361,745 659,1000 378,324 867,455 1471,828 4,35 77,4 -106,234z"/>
  <path class="fil23" d="M13882 12631c-92,190 -376,351 -594,274 -585,-208 -156,-433 -2,-377 137,50 146,79 321,21 583,-191 367,-108 275,82z"/>
  <path class="fil23" d="M15099 9758c-45,121 -54,298 -218,422 -23,17 -316,209 -339,218 -413,149 -247,-228 -154,-313 86,-77 314,-156 463,-297 315,-298 328,-250 248,-30z"/>
  <g id="_475752720">
   <path class="fil22" d="M16766 8970c-104,230 55,472 211,554 94,49 170,62 224,44 119,-40 145,-206 113,-298 -26,-78 -229,-24 -279,-133 -42,-92 -146,-227 -83,49 -185,-12 -82,-447 -186,-216z"/>
   <path class="fil22" d="M18596 9976c-286,-227 -867,-401 -1265,-703l-239 250 1553 1097c224,-239 394,-403 577,-663 314,-534 232,-1142 16,-1091 -215,50 -132,-158 -642,1110z"/>
   <path class="fil25" d="M19103 10034c336,-615 370,-1321 142,-1291 -228,30 -229,-105 -669,751l527 540z"/>
   <path class="fil22" d="M18689 17286c236,52 472,-151 415,-299 -7,-24 20,-199 37,-264l-310 -535 -269 444c-225,264 -2097,160 127,654z"/>
   <path class="fil26" d="M17858 17245l975 127c240,31 328,-237 271,-385l-564 -54 162 -121 -140 -180c-106,-22 -702,163 -1027,166 -183,2 -67,397 323,447z"/>
   <path class="fil27" d="M20085 12098l-1006 -19c-10,540 -309,1431 -379,2084 -69,655 -123,1911 -138,2469 381,116 310,67 579,91 186,-896 339,-1860 289,-2402 472,-1075 547,-1563 655,-2223z"/>
   <path class="fil23" d="M20991 17263c226,-85 306,-382 175,-475 -20,-16 -40,-59 -47,-82l-635 -432 76 528c-36,341 -1697,1263 431,461z"/>
   <path class="fil24" d="M20278 17682l882 -426c217,-104 137,-375 6,-468l-500 263 67 -189 -180 -69c-100,39 -530,514 -798,694 -151,101 170,366 523,195z"/>
   <path class="fil0" d="M20420 11916l-200 -45 -790 225c164,550 55,1635 256,2303 196,652 704,1824 867,2394 338,0 503,-33 566,-87 -138,-869 -419,-2029 -643,-2563 0,-495 237,-1804 -56,-2227z"/>
   <path class="fil24" d="M19511 8525c-172,89 -360,121 -475,262 -195,661 -174,1490 -22,2316 70,609 55,874 65,976 149,45 441,44 1123,-33 9,-22 44,-103 46,-121 14,26 64,83 74,107 42,-5 131,-17 150,-19 -168,-869 250,-1710 238,-2490 -5,-343 39,-559 -82,-729 -113,-157 -386,-232 -559,-313 -135,-35 -436,26 -558,44z"/>
   <path class="fil22" d="M20268 7701l-872 137c-94,283 170,530 104,776 60,54 103,102 166,103 110,3 248,-91 397,-218 6,-380 133,-826 205,-798z"/>
   <path class="fil23" d="M19684 6396c773,-120 887,298 915,847 17,337 -1126,1273 -1389,1022 -300,-285 -248,-469 -242,-854 11,-696 -57,-895 716,-1015z"/>
   <path class="fil28" d="M19395 6543c191,-11 483,28 591,209 82,136 126,258 118,401 -4,75 -37,133 -49,212 298,-298 227,187 122,309 -87,100 17,367 91,366 -95,-229 294,-291 352,-837 77,-714 -442,-948 -862,-958 -340,-8 -690,161 -743,500 91,-145 285,-197 380,-202z"/>
   <path class="fil29" d="M19612 8710c40,2 57,18 97,21 -50,157 -102,272 -106,412 -40,-3 -67,-3 -107,-6 14,-202 94,-263 116,-427z"/>
   <path class="fil30" d="M19355 8698c39,-61 112,-123 156,-183 15,91 23,90 155,202 -114,0 -203,-52 -311,-19z"/>
   <path class="fil0" d="M20063 8479c-119,74 -170,212 -419,238 91,63 216,4 363,108 86,-130 65,-229 56,-346z"/>
   <circle class="fil31" cx="19614" cy="8874" r="20"/>
   <circle class="fil31" cx="19644" cy="8763" r="20"/>
   <path class="fil32" d="M19182 7290c616,60 647,-84 955,-303l-1198 -140c-441,251 -373,382 243,443z"/>
   <path class="fil24" d="M19893 6001c-466,-55 -893,324 -954,846l1686 197c61,-522 -267,-989 -732,-1043z"/>
   <g>
    <path class="fil12" d="M18233 8337c13,-58 7,-94 136,-122 -155,-105 -443,75 -318,-238 -185,46 -306,194 -306,195 -173,-111 -480,-122 -567,-113 60,85 69,116 -4,275 -2,6 -99,-58 -271,-57 -171,1 -302,80 -425,132 104,43 263,122 232,263 0,-1 -219,-170 -411,88 120,-14 149,14 240,108 169,24 319,212 544,200 280,-15 1028,-521 1147,-717 4,-8 0,-1 3,-14z"/>
    <path class="fil27" d="M18107 8874c-591,-197 -1050,-228 -1570,-6 842,767 715,627 1068,1307 548,-224 296,-927 502,-1301z"/>
    <path class="fil0" d="M16938 9233c377,-496 741,-785 1295,-896 -262,1109 -237,951 -144,1712 -347,74 -565,-58 -716,-319 -62,-108 -259,-329 -435,-497z"/>
    <polygon class="fil24" points="17373,9730 18027,9511 18035,9614 17422,9819 "/>
    <path class="fil33" d="M16854 8537c1,2 2,4 3,6 -3,4 -7,7 -11,10 -4,-4 -8,-9 -12,-14 7,-1 13,-2 20,-2z"/>
    <path class="fil33" d="M17409 8357c2,-1 4,-3 5,-4 4,2 8,5 12,7 -3,5 -6,10 -9,15 -3,-6 -5,-12 -8,-18z"/>
    <path class="fil33" d="M18011 8289c1,1 3,2 4,3 3,-3 5,-5 7,-8 -2,-3 -6,-6 -9,-8 -1,4 -1,9 -2,13z"/>
    <ellipse class="fil24" transform="matrix(-1.05472 0.475763 -0.475763 -1.05472 16845.8 8543.95)" rx="230" ry="225"/>
    <ellipse class="fil24" transform="matrix(0.70066 0.805627 -0.805627 0.70066 17417.8 8362.68)" rx="230" ry="225"/>
    <ellipse class="fil24" transform="matrix(0.369626 -0.701785 -0.701785 -0.369626 18016.2 8283.9)" rx="230" ry="225"/>
    <ellipse class="fil25" transform="matrix(-0.931886 0.420357 -0.420357 -0.931886 16846.6 8512.12)" rx="230" ry="225"/>
    <ellipse class="fil25" transform="matrix(0.619063 0.711805 -0.711805 0.619063 17389.5 8370.41)" rx="230" ry="225"/>
    <ellipse class="fil25" transform="matrix(0.32658 -0.620056 -0.620056 -0.32658 17994.4 8283.13)" rx="230" ry="225"/>
    <ellipse class="fil24" transform="matrix(-0.787427 0.355194 -0.39576 -0.877357 16824.3 8584.7)" rx="230" ry="225"/>
    <ellipse class="fil24" transform="matrix(0.523097 0.601463 -0.670155 0.582839 17459.6 8370.91)" rx="230" ry="225"/>
    <ellipse class="fil24" transform="matrix(0.275954 -0.523937 -0.583774 -0.30747 18045 8270.85)" rx="230" ry="225"/>
    <ellipse class="fil25" transform="matrix(-0.520408 0.234747 -0.261557 -0.579843 16824.9 8544.22)" rx="230" ry="225"/>
    <ellipse class="fil25" transform="matrix(0.345713 0.397505 -0.442903 0.385196 17423.7 8381.14)" rx="230" ry="225"/>
    <ellipse class="fil25" transform="matrix(0.182377 -0.346268 -0.385815 -0.203206 18017.3 8269.56)" rx="230" ry="225"/>
    <ellipse class="fil24" transform="matrix(-0.34866 0.157274 -0.175236 -0.38848 16862.2 8508.29)" rx="230" ry="225"/>
    <ellipse class="fil24" transform="matrix(0.231619 0.266318 -0.296734 0.258072 17382 8357.68)" rx="230" ry="225"/>
    <ellipse class="fil24" transform="matrix(0.122188 -0.231991 -0.258486 -0.136143 17991.1 8293.62)" rx="230" ry="225"/>
   </g>
   <path class="fil23" d="M17520 9225c179,-283 535,-268 720,-143 112,76 174,156 189,232 33,167 -59,249 -177,277 -99,23 -237,-187 -385,-169 -124,15 -332,-12 1,-131 -131,-208 -526,218 -348,-66z"/>
   <path class="fil23" d="M19864 10104c-323,-263 -991,-459 -1441,-809l-204 298 1692 1245c259,-269 455,-454 667,-748 365,-603 279,-1297 33,-1243 -246,55 -149,-181 -747,1257z"/>
   <path class="fil32" d="M20654 10122c338,-559 275,-1385 -109,-1322 -186,30 -327,341 -608,881l717 441z"/>
  </g>
  <path class="fil23" d="M13253 12618l-103 -85c349,-128 611,-97 103,85z"/>
  <path class="fil23" d="M14685 10010l-119 22c113,-319 288,-484 119,-22z"/>
  <g id="_475768248">
   <path class="fil12" d="M24876 15380c26,-56 28,-94 166,-95 -135,-141 -468,-20 -273,-312 -198,6 -353,131 -353,132 -152,-150 -463,-229 -553,-239 42,99 44,133 -65,280 -3,4 -88,-82 -263,-118 -175,-37 -326,14 -462,41 96,67 241,182 178,319 1,-2 -186,-222 -438,0 126,11 149,47 221,162 168,61 278,286 511,323 288,46 1161,-306 1325,-480 6,-6 0,0 6,-13z"/>
   <path class="fil27" d="M24630 15899c-559,-329 -1020,-462 -1598,-350 690,966 591,796 802,1566 607,-109 504,-879 796,-1216z"/>
   <path class="fil0" d="M23361 16009c492,-423 926,-637 1515,-629 -509,1072 -449,917 -522,1712 -370,0 -562,-182 -659,-482 -39,-123 -192,-391 -334,-601z"/>
   <polygon class="fil24" points="23695,16610 24409,16531 24395,16638 23726,16712 "/>
   <path class="fil33" d="M23428 15282c1,2 1,5 2,7 -5,3 -9,5 -14,7 -3,-5 -6,-11 -9,-17 7,1 14,1 21,3z"/>
   <path class="fil33" d="M24033 15220c2,-1 4,-2 6,-3 3,3 7,6 10,10 -4,4 -8,9 -13,13 -1,-7 -2,-13 -3,-20z"/>
   <path class="fil33" d="M24661 15283c1,1 2,2 4,3 3,-2 5,-4 8,-6 -2,-3 -4,-7 -7,-11 -2,5 -4,9 -5,14z"/>
   <ellipse class="fil24" transform="matrix(-1.17857 0.253534 -0.253534 -1.17857 23417.9 15287)" rx="230" ry="225"/>
   <ellipse class="fil24" transform="matrix(0.537187 0.974121 -0.974121 0.537187 24040.3 15227.7)" rx="230" ry="225"/>
   <ellipse class="fil24" transform="matrix(0.530256 -0.633857 -0.633857 -0.530256 24667.1 15278.5)" rx="230" ry="225"/>
   <ellipse class="fil25" transform="matrix(-1.04132 0.224008 -0.224008 -1.04132 23425.7 15254.8)" rx="230" ry="225"/>
   <ellipse class="fil25" transform="matrix(0.474628 0.860677 -0.860677 0.474628 24009.7 15229.4)" rx="230" ry="225"/>
   <ellipse class="fil25" transform="matrix(0.468504 -0.560039 -0.560039 -0.468504 24645 15273)" rx="230" ry="225"/>
   <ellipse class="fil24" transform="matrix(-0.879894 0.189283 -0.2109 -0.980385 23387 15323.8)" rx="230" ry="225"/>
   <ellipse class="fil24" transform="matrix(0.401052 0.727257 -0.810316 0.446855 24081 15245.2)" rx="230" ry="225"/>
   <ellipse class="fil24" transform="matrix(0.395877 -0.473223 -0.527269 -0.44109 24699.2 15271.6)" rx="230" ry="225"/>
   <ellipse class="fil25" transform="matrix(-0.581519 0.125096 -0.139383 -0.647933 23396.5 15282.7)" rx="230" ry="225"/>
   <ellipse class="fil25" transform="matrix(0.265054 0.480642 -0.535535 0.295325 24042.2 15247.8)" rx="230" ry="225"/>
   <ellipse class="fil25" transform="matrix(0.261634 -0.312752 -0.34847 -0.291515 24671.3 15264.2)" rx="230" ry="225"/>
   <ellipse class="fil24" transform="matrix(-0.389603 0.0838113 -0.0933832 -0.434099 23442.4 15254.3)" rx="230" ry="225"/>
   <ellipse class="fil24" transform="matrix(0.177579 0.322018 -0.358795 0.19786 24004.9 15214.7)" rx="230" ry="225"/>
   <ellipse class="fil24" transform="matrix(0.175288 -0.209536 -0.233466 -0.195307 24639.4 15282.9)" rx="230" ry="225"/>
  </g>
  <g id="_475762728">
   <path class="fil12" d="M23823 15477c25,-53 27,-90 159,-90 -129,-136 -449,-20 -261,-300 -191,6 -339,126 -340,126 -145,-144 -443,-219 -530,-229 40,95 42,127 -62,268 -4,5 -84,-78 -253,-113 -168,-35 -313,14 -443,40 92,64 231,174 171,306 0,-2 -179,-213 -420,0 120,11 142,45 212,155 160,59 267,275 489,311 277,44 1115,-294 1272,-461 6,-6 0,0 6,-13z"/>
   <path class="fil27" d="M23588 15976c-537,-317 -980,-443 -1534,-336 662,927 566,763 769,1502 583,-104 484,-843 765,-1166z"/>
   <path class="fil0" d="M22369 16081c473,-406 889,-612 1454,-604 -488,1029 -431,881 -501,1644 -355,0 -539,-175 -632,-463 -38,-118 -184,-376 -321,-577z"/>
   <polygon class="fil24" points="22690,16658 23375,16582 23361,16685 22719,16756 "/>
   <path class="fil33" d="M22433 15383c1,2 2,5 2,7 -4,3 -9,5 -13,7 -3,-5 -6,-11 -9,-16 7,0 14,1 20,2z"/>
   <path class="fil33" d="M23014 15324c2,-1 4,-2 6,-3 3,3 6,6 9,10 -3,4 -7,8 -12,12 -1,-6 -2,-13 -3,-19z"/>
   <path class="fil33" d="M23616 15384c2,1 3,3 4,4 3,-2 6,-4 9,-6 -3,-4 -5,-7 -7,-11 -2,4 -4,9 -6,13z"/>
   <ellipse class="fil24" transform="matrix(-1.13118 0.243338 -0.243338 -1.13118 22423.8 15388.2)" rx="230" ry="225"/>
   <ellipse class="fil24" transform="matrix(0.515586 0.93495 -0.93495 0.515586 23021.1 15331.3)" rx="230" ry="225"/>
   <ellipse class="fil24" transform="matrix(0.508933 -0.608368 -0.608368 -0.508933 23622.7 15380.1)" rx="230" ry="225"/>
   <ellipse class="fil25" transform="matrix(-0.999443 0.215 -0.215 -0.999443 22431.3 15357.3)" rx="230" ry="225"/>
   <ellipse class="fil25" transform="matrix(0.455542 0.826068 -0.826068 0.455542 22991.8 15332.9)" rx="230" ry="225"/>
   <ellipse class="fil25" transform="matrix(0.449664 -0.537519 -0.537519 -0.449664 23601.5 15374.7)" rx="230" ry="225"/>
   <ellipse class="fil24" transform="matrix(-0.844512 0.181671 -0.202419 -0.940961 22394.1 15423.5)" rx="230" ry="225"/>
   <ellipse class="fil24" transform="matrix(0.384925 0.698012 -0.777731 0.428886 23060.2 15348.1)" rx="230" ry="225"/>
   <ellipse class="fil24" transform="matrix(0.379958 -0.454194 -0.506066 -0.423353 23653.5 15373.4)" rx="230" ry="225"/>
   <ellipse class="fil25" transform="matrix(-0.558135 0.120066 -0.133778 -0.621878 22403.2 15384.1)" rx="230" ry="225"/>
   <ellipse class="fil25" transform="matrix(0.254395 0.461314 -0.514 0.283449 23022.9 15350.5)" rx="230" ry="225"/>
   <ellipse class="fil25" transform="matrix(0.251113 -0.300175 -0.334458 -0.279792 23626.7 15366.3)" rx="230" ry="225"/>
   <ellipse class="fil24" transform="matrix(-0.373936 0.080441 -0.089628 -0.416643 22447.3 15356.8)" rx="230" ry="225"/>
   <ellipse class="fil24" transform="matrix(0.170439 0.309069 -0.344367 0.189904 22987.1 15318.8)" rx="230" ry="225"/>
   <ellipse class="fil24" transform="matrix(0.168239 -0.20111 -0.224078 -0.187454 23596.1 15384.3)" rx="230" ry="225"/>
  </g>
  <g id="_475772184">
   <path class="fil12" d="M25679 15667c25,-54 27,-91 159,-91 -129,-135 -449,-20 -261,-300 -191,6 -339,126 -340,127 -146,-144 -443,-220 -530,-230 40,96 42,128 -62,269 -4,4 -85,-79 -253,-114 -168,-35 -313,15 -443,40 92,64 231,175 171,306 0,-1 -179,-212 -421,0 121,11 143,45 213,156 160,58 266,275 489,310 277,44 1115,-293 1272,-461 6,-6 0,0 6,-12z"/>
   <path class="fil27" d="M25443 16165c-537,-316 -979,-443 -1533,-336 662,927 566,764 769,1503 583,-105 484,-844 764,-1167z"/>
   <path class="fil0" d="M24225 16271c473,-406 889,-612 1454,-604 -489,1029 -431,880 -501,1643 -355,0 -539,-175 -632,-463 -38,-117 -184,-375 -321,-576z"/>
   <polygon class="fil24" points="24546,16847 25231,16772 25217,16874 24575,16945 "/>
   <path class="fil33" d="M24289 15572c1,3 2,5 2,7 -4,3 -9,5 -13,7 -3,-5 -6,-10 -9,-16 7,0 13,1 20,2z"/>
   <path class="fil33" d="M24870 15514c2,-2 4,-3 6,-4 3,3 6,7 9,10 -3,4 -7,8 -12,12 -1,-6 -2,-12 -3,-18z"/>
   <path class="fil33" d="M25472 15574c2,1 3,2 4,3 3,-2 6,-4 9,-6 -3,-4 -5,-7 -8,-10 -1,4 -3,8 -5,13z"/>
   <ellipse class="fil24" transform="matrix(-1.13118 0.243338 -0.243338 -1.13118 24279.7 15577.5)" rx="230" ry="225"/>
   <ellipse class="fil24" transform="matrix(0.515586 0.93495 -0.93495 0.515586 24877 15520.6)" rx="230" ry="225"/>
   <ellipse class="fil24" transform="matrix(0.508933 -0.608368 -0.608368 -0.508933 25478.5 15569.4)" rx="230" ry="225"/>
   <ellipse class="fil25" transform="matrix(-0.999443 0.215 -0.215 -0.999443 24287.2 15546.6)" rx="230" ry="225"/>
   <ellipse class="fil25" transform="matrix(0.455542 0.826068 -0.826068 0.455542 24847.7 15522.2)" rx="230" ry="225"/>
   <ellipse class="fil25" transform="matrix(0.449664 -0.537519 -0.537519 -0.449664 25457.4 15564)" rx="230" ry="225"/>
   <ellipse class="fil24" transform="matrix(-0.844512 0.181671 -0.202419 -0.940961 24250 15612.8)" rx="230" ry="225"/>
   <ellipse class="fil24" transform="matrix(0.384925 0.698012 -0.777731 0.428886 24916.1 15537.4)" rx="230" ry="225"/>
   <ellipse class="fil24" transform="matrix(0.379958 -0.454194 -0.506066 -0.423353 25509.4 15562.7)" rx="230" ry="225"/>
   <ellipse class="fil25" transform="matrix(-0.558135 0.120066 -0.133778 -0.621878 24259.1 15573.4)" rx="230" ry="225"/>
   <ellipse class="fil25" transform="matrix(0.254395 0.461314 -0.514 0.283449 24878.8 15539.8)" rx="230" ry="225"/>
   <ellipse class="fil25" transform="matrix(0.251113 -0.300175 -0.334458 -0.279792 25482.6 15555.6)" rx="230" ry="225"/>
   <ellipse class="fil24" transform="matrix(-0.373936 0.080441 -0.089628 -0.416643 24303.2 15546.1)" rx="230" ry="225"/>
   <ellipse class="fil24" transform="matrix(0.170439 0.309069 -0.344367 0.189904 24843 15508.1)" rx="230" ry="225"/>
   <ellipse class="fil24" transform="matrix(0.168239 -0.20111 -0.224078 -0.187454 25452 15573.6)" rx="230" ry="225"/>
  </g>
  <path class="fil32" d="M25089 15895l-214 623 -1949 0 -219 -639c358,70 780,110 1233,110 418,0 810,-34 1149,-94zm-102 786l281 -822c133,-29 256,-62 367,-99 211,181 366,464 366,776 0,0 0,0 0,0 0,615 -423,1118 -941,1118 -778,0 -1557,0 -2336,0 -517,0 -941,-503 -941,-1118 0,0 0,0 0,0 0,-333 123,-642 319,-828 123,49 266,94 424,132l285 831 37 -5 2139 15z"/>
  <path class="fil24" d="M25089 15894l-214 624 -1948 -1 -219 -639c-181,-36 0,0 -181,-36l285 829 2175 10 282 -823c-180,36 0,0 -180,36z"/>
  <polygon class="fil25" points="22760,16520 25042,16521 24987,16681 22812,16671 "/>
 </g>
</svg>
