<?xml version="1.0" encoding="UTF-8"?>
<!DOCTYPE svg PUBLIC "-//W3C//DTD SVG 1.1//EN" "http://www.w3.org/Graphics/SVG/1.1/DTD/svg11.dtd">
<!-- Creator: CorelDRAW 2018 -->
<svg xmlns="http://www.w3.org/2000/svg" xml:space="preserve" width="297mm" height="210mm" version="1.1" style="shape-rendering:geometricPrecision; text-rendering:geometricPrecision; image-rendering:optimizeQuality; fill-rule:evenodd; clip-rule:evenodd"
viewBox="0 0 29700 21000"
 xmlns:xlink="http://www.w3.org/1999/xlink"
 enable-background="new 0 0 512 512">
 <defs>
  <style type="text/css">
   <![CDATA[
    .str1 {stroke:#CF8627;stroke-width:7.62;stroke-miterlimit:22.9256}
    .str0 {stroke:#FFB34F;stroke-width:7.62;stroke-miterlimit:22.9256}
    .fil23 {fill:#866539}
    .fil20 {fill:#A8793B}
    .fil8 {fill:#BF7515}
    .fil15 {fill:#CF8627}
    .fil13 {fill:#CF892D}
    .fil18 {fill:#D67900}
    .fil2 {fill:#DB9437}
    .fil17 {fill:#E6E6E6}
    .fil7 {fill:#E8901C}
    .fil11 {fill:#EB8500}
    .fil16 {fill:#F0B17E}
    .fil3 {fill:#F5C280}
    .fil22 {fill:#F9AC46}
    .fil4 {fill:#FCBA65}
    .fil9 {fill:#FF9100}
    .fil10 {fill:#FF9B19}
    .fil12 {fill:#FFA530}
    .fil6 {fill:#FFA836}
    .fil1 {fill:#FFB34F}
    .fil21 {fill:#FFB85C}
    .fil5 {fill:#FFC476}
    .fil19 {fill:#FFCE9D}
    .fil0 {fill:#FFE5C4}
    .fil14 {fill:white}
   ]]>
  </style>
 </defs>
 <g id="Слой_x0020_1">
  <metadata id="CorelCorpID_0Corel-Layer"/>
  <polygon class="fil0" points="-0,0 29700,0 29700,21000 -0,21000 "/>
  <g id="_906272384">
   <circle class="fil1" cx="19507.74" cy="7221.69" r="401.83"/>
   <circle class="fil1" cx="20333.8" cy="8209.84" r="401.83"/>
   <circle class="fil1" cx="20091.29" cy="7112.19" r="418.04"/>
   <ellipse class="fil1" cx="19840.87" cy="8321.91" rx="541.34" ry="475.87"/>
   <circle class="fil1" cx="20146.61" cy="7712.11" r="533.7"/>
   <ellipse class="fil1" cx="19340.45" cy="7843.86" rx="493.1" ry="619.63"/>
   <ellipse class="fil1" cx="20481.87" cy="7758.24" rx="529.02" ry="619.63"/>
  </g>
  <path class="fil2" d="M19873.63 7564.2l-111.56 72.23c-134.97,447.55 -412.01,1407.9 -191.95,2079.66 584.21,109.69 0,0 584.21,109.69 -523.74,-601.29 -236.43,-1725.79 -280.7,-2261.58z"/>
  <g id="_906271160">
   <circle class="fil1" cx="27700.14" cy="7001.96" r="401.83"/>
   <circle class="fil1" cx="28526.2" cy="7990.11" r="401.83"/>
   <circle class="fil1 str0" cx="28283.69" cy="6892.46" r="418.04"/>
   <ellipse class="fil1" cx="28033.27" cy="8102.18" rx="541.34" ry="475.87"/>
   <circle class="fil1" cx="28339.01" cy="7492.38" r="533.7"/>
   <ellipse class="fil1" cx="27532.85" cy="7624.13" rx="493.1" ry="619.63"/>
   <ellipse class="fil1" cx="28674.27" cy="7538.51" rx="529.02" ry="619.63"/>
  </g>
  <path class="fil2" d="M28066.03 7344.47l-111.56 72.23c-134.97,447.55 -412.01,1407.9 -191.95,2079.66 584.21,109.69 0,0 584.21,109.69 -523.74,-601.29 -236.43,-1725.79 -280.7,-2261.58z"/>
  <circle class="fil1" cx="25269.96" cy="6792.95" r="401.83"/>
  <circle class="fil1" cx="26096.02" cy="7781.1" r="401.83"/>
  <circle class="fil1" cx="25853.51" cy="6683.45" r="418.04"/>
  <ellipse class="fil1" cx="25603.09" cy="7893.17" rx="541.34" ry="475.87"/>
  <circle class="fil1" cx="25908.83" cy="7283.37" r="533.7"/>
  <ellipse class="fil1" cx="25102.67" cy="7415.12" rx="493.1" ry="619.63"/>
  <ellipse class="fil1" cx="26244.09" cy="7329.5" rx="529.02" ry="619.63"/>
  <path class="fil2" d="M25635.85 7135.46l-111.56 72.23c-134.97,447.55 -412.01,1407.9 -191.95,2079.66 584.21,109.69 0,0 584.21,109.69 -523.74,-601.29 -236.43,-1725.79 -280.7,-2261.58z"/>
  <g id="_906267128">
   <circle class="fil1" cx="23038.87" cy="6577.87" r="401.83"/>
   <circle class="fil1" cx="23864.93" cy="7566.02" r="401.83"/>
   <circle class="fil1" cx="23622.42" cy="6468.37" r="418.04"/>
   <ellipse class="fil1" cx="23372" cy="7678.09" rx="541.34" ry="475.87"/>
   <circle class="fil1" cx="23677.74" cy="7068.29" r="533.7"/>
   <ellipse class="fil1" cx="22871.58" cy="7200.04" rx="493.1" ry="619.63"/>
   <ellipse class="fil1" cx="24013" cy="7114.42" rx="529.02" ry="619.63"/>
  </g>
  <path class="fil2" d="M23404.76 6920.38l-111.56 72.23c-134.97,447.55 -412.01,1407.9 -191.95,2079.66 584.21,109.69 0,0 584.21,109.69 -523.74,-601.29 -236.43,-1725.79 -280.7,-2261.58z"/>
  <g id="_906265232">
   <path class="fil1" d="M29464.64 6714.71c-221.93,0 -401.83,179.91 -401.83,401.84 0,221.92 179.9,401.83 401.83,401.83 87.91,0 169.2,-28.25 235.36,-76.14l0 -651.39c-66.16,-47.89 -147.45,-76.14 -235.36,-76.14z"/>
   <path class="fil1" d="M29700 6775.66c-44.12,66.26 -69.85,145.81 -69.85,231.39 0,85.58 25.73,165.13 69.85,231.39l0 -462.78z"/>
   <path class="fil1" d="M29700 7748.67c-252.3,40.46 -443.56,234.64 -443.56,468.1 0,233.47 191.26,427.65 443.56,468.11l0 -936.21z"/>
   <path class="fil1" d="M29700 7257.65c-81.1,93.61 -130.18,215.74 -130.18,349.32 0,133.58 49.08,255.7 130.18,349.31l0 -698.63z"/>
   <path class="fil1" d="M29297.35 7119.08c-272.33,0 -493.1,277.42 -493.1,619.64 0,342.21 220.77,619.63 493.1,619.63 166.28,0 313.33,-103.42 402.65,-261.87l0 -715.52c-89.32,-158.45 -236.37,-261.88 -402.65,-261.88z"/>
  </g>
  <path class="fil2" d="M29700 7624.15l-11.03 7.14c-134.97,447.55 -412.01,1407.9 -191.95,2079.66l202.98 38.11 0 -2124.91z"/>
  <g id="_906263600">
   <circle class="fil1" cx="21194.41" cy="6899.89" r="401.83"/>
   <circle class="fil1" cx="22020.47" cy="7888.04" r="401.83"/>
   <circle class="fil1" cx="21777.96" cy="6790.39" r="418.04"/>
   <ellipse class="fil1" cx="21527.54" cy="8000.11" rx="541.34" ry="475.87"/>
   <circle class="fil1" cx="21833.28" cy="7390.31" r="533.7"/>
   <ellipse class="fil1" cx="21027.12" cy="7522.06" rx="493.1" ry="619.63"/>
   <ellipse class="fil1" cx="22168.54" cy="7436.44" rx="529.02" ry="619.63"/>
  </g>
  <path class="fil2" d="M21560.3 7242.4l-111.56 72.23c-134.97,447.55 -412.01,1407.9 -191.95,2079.66 584.21,109.69 0,0 584.21,109.69 -523.74,-601.29 -236.43,-1725.79 -280.7,-2261.58z"/>
  <g id="_906260960">
   <circle class="fil1" cx="24211.43" cy="7380.82" r="312.54"/>
   <circle class="fil1" cx="24853.93" cy="8149.39" r="312.54"/>
   <circle class="fil1" cx="24665.31" cy="7295.66" r="325.15"/>
   <ellipse class="fil1" cx="24470.54" cy="8236.56" rx="421.04" ry="370.12"/>
   <circle class="fil1" cx="24708.34" cy="7762.26" r="415.1"/>
   <ellipse class="fil1" cx="24081.32" cy="7864.74" rx="383.53" ry="481.94"/>
   <ellipse class="fil1" cx="24969.1" cy="7798.14" rx="411.47" ry="481.94"/>
  </g>
  <path class="fil2" d="M24496.02 7647.23l-86.77 56.17c-104.98,348.1 -320.46,1095.05 -149.3,1617.53 454.39,85.32 0,0 454.39,85.32 -407.35,-467.67 -183.89,-1342.3 -218.32,-1759.02z"/>
  <g id="_906291560">
   <circle class="fil1" cx="18143.69" cy="7852.48" r="223.25"/>
   <circle class="fil1" cx="18602.63" cy="8401.46" r="223.25"/>
   <circle class="fil1" cx="18467.9" cy="7791.64" r="232.25"/>
   <ellipse class="fil1" cx="18328.78" cy="8463.73" rx="300.75" ry="264.38"/>
   <circle class="fil1" cx="18498.64" cy="8124.94" r="296.51"/>
   <ellipse class="fil1" cx="18050.75" cy="8198.14" rx="273.96" ry="344.25"/>
   <ellipse class="fil1" cx="18684.9" cy="8150.57" rx="293.91" ry="344.25"/>
  </g>
  <path class="fil2" d="M18346.98 8042.77l-61.99 40.12c-74.98,248.65 -228.9,782.2 -106.64,1155.41 324.57,60.94 0,0 324.57,60.94 -290.97,-334.06 -131.35,-958.8 -155.94,-1256.47z"/>
  <g id="_906290120">
   <circle class="fil1" cx="26553.7" cy="7920.54" r="213.36"/>
   <circle class="fil1" cx="26992.32" cy="8445.23" r="213.36"/>
   <circle class="fil1" cx="26863.56" cy="7862.4" r="221.97"/>
   <ellipse class="fil1" cx="26730.59" cy="8504.74" rx="287.44" ry="252.68"/>
   <circle class="fil1" cx="26892.93" cy="8180.94" r="283.38"/>
   <ellipse class="fil1" cx="26464.88" cy="8250.9" rx="261.83" ry="329.01"/>
   <ellipse class="fil1" cx="27070.95" cy="8205.44" rx="280.9" ry="329.01"/>
  </g>
  <path class="fil2" d="M26747.98 8102.41l-59.23 38.35c-71.67,237.64 -218.77,747.57 -101.92,1104.26 310.2,58.24 0,0 310.2,58.24 -278.09,-319.27 -125.54,-916.36 -149.05,-1200.85z"/>
  <rect class="fil3" x="1385.29" y="6109.01" width="1710.52" height="3439.43"/>
  <rect class="fil3" x="5768.04" y="6725.93" width="1710.52" height="2887.65"/>
  <rect class="fil3" x="7274.36" y="7743.2" width="1342.83" height="2887.65"/>
  <rect class="fil3" x="8360.24" y="7150.58" width="1057.43" height="2887.65"/>
  <polygon class="fil3" points="-0,7174.66 1664.73,7174.66 1664.73,10062.32 -0,10062.32 "/>
  <rect class="fil3" x="4193.79" y="5877.97" width="1491.69" height="3570.07"/>
  <rect class="fil3" x="2944.69" y="5013.52" width="1272.86" height="4252.49"/>
  <rect class="fil3" x="7730.01" y="6365.6" width="1038.44" height="4252.49"/>
  <rect class="fil3" x="874.96" y="5603.97" width="1131.37" height="4252.49"/>
  <rect class="fil3" x="4579.75" y="5272.9" width="1272.86" height="4252.49"/>
  <rect class="fil3" x="5828.57" y="5771.38" width="1272.86" height="4252.49"/>
  <polygon class="fil4" points="29700,9045.72 -0,9045.72 -0,21000 29700,21000 "/>
  <path class="fil5" d="M21792.77 21000c410.59,-1321.89 584.2,-3835.95 -943.8,-6991.75 -2076.53,-4288.71 -4551.66,-4962.53 -4551.66,-4962.53 72.23,0.17 0,0 70.29,0 5420.32,463.42 10603.84,7388.61 11981.34,11954.28l-6556.17 0z"/>
  <rect class="fil0" x="1095.04" y="5986.51" width="190.2" height="181.44"/>
  <rect class="fil0" x="8911.66" y="7317.63" width="235.97" height="132.47"/>
  <rect class="fil0" x="3252.73" y="5504.71" width="690.45" height="181.44"/>
  <rect class="fil0" x="125.13" y="7425.56" width="476.66" height="125.26"/>
  <rect class="fil0" x="5989.34" y="6826.14" width="476.66" height="125.26"/>
  <rect class="fil0" x="5259.41" y="5755.57" width="190.2" height="181.44"/>
  <rect class="fil0" x="7954.04" y="8251.73" width="138.06" height="131.7"/>
  <rect class="fil0" x="7053.92" y="6990.21" width="138.06" height="131.7"/>
  <rect class="fil0" x="5220.33" y="6846.38" width="190.2" height="181.44"/>
  <rect class="fil0" x="7982.4" y="7459.94" width="138.06" height="131.7"/>
  <rect class="fil0" x="7025.56" y="7782.01" width="138.06" height="131.7"/>
  <rect class="fil0" x="1413.59" y="5981.39" width="190.2" height="181.44"/>
  <rect class="fil0" x="3785.25" y="6609.75" width="190.2" height="181.44"/>
  <rect class="fil0" x="492.75" y="8188.43" width="131.31" height="125.26"/>
  <rect class="fil0" x="6356.96" y="6063.27" width="131.31" height="125.26"/>
  <rect class="fil0" x="6694.5" y="6055.07" width="131.31" height="125.26"/>
  <rect class="fil0" x="3256.98" y="7583.8" width="190.2" height="181.44"/>
  <rect class="fil0" x="4940.86" y="5750.45" width="190.2" height="181.44"/>
  <rect class="fil0" x="8185.26" y="8255.45" width="138.06" height="131.7"/>
  <rect class="fil0" x="1097.44" y="6542.55" width="463.24" height="181.44"/>
  <rect class="fil0" x="8913.42" y="7723.58" width="338.2" height="132.47"/>
  <rect class="fil0" x="3255.14" y="6060.75" width="463.24" height="181.44"/>
  <rect class="fil0" x="126.79" y="7809.42" width="319.8" height="125.26"/>
  <rect class="fil0" x="5991" y="6442.28" width="319.8" height="125.26"/>
  <rect class="fil0" x="4983.97" y="6311.61" width="463.24" height="181.44"/>
  <rect class="fil0" x="7955.78" y="7848.11" width="336.26" height="131.7"/>
  <rect class="fil0" x="6853.98" y="7393.83" width="336.26" height="131.7"/>
  <rect class="fil0" x="1094.25" y="7093.94" width="749.96" height="181.44"/>
  <rect class="fil0" x="8911.09" y="8126.13" width="196.73" height="132.47"/>
  <rect class="fil0" x="3251.95" y="6612.14" width="383.72" height="181.44"/>
  <rect class="fil0" x="124.59" y="8190.08" width="264.9" height="125.26"/>
  <rect class="fil0" x="5988.8" y="6061.62" width="264.9" height="125.26"/>
  <rect class="fil0" x="1093.78" y="7636.46" width="749.96" height="181.44"/>
  <rect class="fil0" x="3251.48" y="7154.66" width="749.96" height="181.44"/>
  <rect class="fil0" x="5041.15" y="7405.52" width="409.72" height="181.44"/>
  <rect class="fil0" x="7953.13" y="7054.07" width="297.41" height="131.7"/>
  <rect class="fil0" x="6895.49" y="8187.88" width="297.41" height="131.7"/>
  <rect class="fil0" x="1099.24" y="8142.49" width="412.61" height="181.44"/>
  <rect class="fil0" x="5213.12" y="7911.55" width="232.28" height="181.44"/>
  <rect class="fil0" x="7957.09" y="6686.75" width="168.61" height="131.7"/>
  <rect class="fil0" x="7020.32" y="8555.19" width="168.61" height="131.7"/>
  <rect class="fil0" x="1770.87" y="8139.65" width="190.2" height="181.44"/>
  <rect class="fil0" x="4583.58" y="7908.71" width="190.2" height="181.44"/>
  <rect class="fil0" x="8444.61" y="6688.81" width="138.06" height="131.7"/>
  <g id="_906853704">
   <polygon class="fil6" points="-0,12763.63 5864.4,12944.58 4791.25,16159.49 -0,16011.65 "/>
   <polygon class="fil7" points="172.15,12768.93 456.97,12777.72 -0,14146.7 -0,13284.65 "/>
   <rect class="fil7" transform="matrix(0.0252698 0.000779737 -0.164879 0.493937 1073.39 12796.7)" width="11271.26" height="6508.75"/>
   <rect class="fil7" transform="matrix(0.0252698 0.000779737 -0.164879 0.493937 1974.63 12824.6)" width="11271.26" height="6508.75"/>
   <rect class="fil7" transform="matrix(0.0252698 0.000779737 -0.164879 0.493937 2875.87 12852.4)" width="11271.26" height="6508.75"/>
   <rect class="fil7" transform="matrix(0.0252698 0.000779737 -0.164879 0.493937 3777.11 12880.2)" width="11271.26" height="6508.75"/>
   <rect class="fil7" transform="matrix(0.0252698 0.000779737 -0.164879 0.493937 4678.34 12908)" width="11271.26" height="6508.75"/>
   <rect class="fil7" transform="matrix(0.0252698 0.000779737 -0.164879 0.493937 5579.58 12935.8)" width="11271.26" height="6508.75"/>
   <polygon class="fil8" points="-0,15773.81 4869.83,15924.08 4791.25,16159.49 -0,16011.65 "/>
   <polygon class="fil8" points="-0,15021.27 5118.47,15179.21 5039.89,15414.61 -0,15259.1 "/>
   <polygon class="fil8" points="-0,14268.72 5367.11,14434.33 5288.53,14669.74 -0,14506.55 "/>
   <polygon class="fil8" points="-0,13516.17 5615.76,13689.45 5537.18,13924.86 -0,13754 "/>
   <polygon class="fil8" points="-0,12763.63 5864.4,12944.58 5785.82,13179.98 -0,13001.45 "/>
   <path class="fil7" d="M-0 16011.65l0 -237.84 4869.83 150.27 -78.58 235.41 -4791.25 -147.84zm0 -752.55l0 -237.83 5118.47 157.94 -78.58 235.4 -5039.89 -155.51zm0 -752.55l0 -237.83 5367.11 165.61 -78.58 235.41 -5288.53 -163.19zm0 -359.85l0 -392.7 5537.18 170.86 78.58 -235.41 -5615.76 -173.28 0 -231.52 172.15 -515.72 284.82 8.79 -456.97 1368.98zm0 -1145.25l0 -237.82 5864.4 180.95 -78.58 235.4 -5785.82 -178.53zm1073.39 -204.71l284.82 8.79 -1073.16 3214.91 -284.82 -8.79 1073.16 -3214.91zm901.24 27.81l284.82 8.79 -1073.16 3214.91 -284.82 -8.79 1073.16 -3214.91zm901.24 27.81l284.82 8.79 -1073.16 3214.91 -284.82 -8.79 1073.16 -3214.91zm901.24 27.81l284.82 8.79 -1073.16 3214.91 -284.82 -8.79 1073.16 -3214.91zm901.23 27.81l284.83 8.79 -1073.16 3214.91 -284.83 -8.79 1073.16 -3214.91zm901.24 27.81l284.82 8.79 -1073.15 3214.91 -284.83 -8.79 1073.16 -3214.91z"/>
  </g>
  <polygon class="fil9" points="8545.77,14517.57 8676.04,14915.18 8676.04,16319.52 7894.52,16319.52 7894.52,14915.18 7764.25,14517.57 "/>
  <polygon class="fil10" points="7764.25,14517.57 7633.98,14915.18 7633.98,16319.52 8415.5,16319.52 8415.5,14915.18 8545.77,14517.57 "/>
  <polygon class="fil9" points="7764.25,14517.57 7633.98,14915.18 8415.5,14915.18 8545.77,14517.57 "/>
  <polygon class="fil11" points="8545.77,14517.57 8415.5,14915.18 8676.04,14915.18 "/>
  <polygon class="fil2" points="7764.02,14340.3 8545.77,14340.3 8545.77,14517.57 7764.02,14517.57 "/>
  <g id="_906848376">
   <g>
    <g>
     <rect class="fil9" x="7282.06" y="14832.3" width="255.33" height="189.18"/>
     <ellipse class="fil9" cx="7409.73" cy="14832.3" rx="127.66" ry="28.11"/>
    </g>
    <rect class="fil2" x="7057.84" y="14956.89" width="703.78" height="2264.84" rx="351.89" ry="407.46"/>
    <rect class="fil11" x="7057.84" y="15583.95" width="703.78" height="505.36"/>
   </g>
   <g>
    <g>
     <rect class="fil11" x="6195.16" y="14189.84" width="255.33" height="189.18"/>
     <ellipse class="fil11" cx="6322.82" cy="14189.84" rx="127.66" ry="28.11"/>
    </g>
    <rect class="fil9" x="5970.93" y="14314.43" width="703.78" height="2264.84" rx="351.89" ry="407.46"/>
    <rect class="fil2" x="5970.93" y="14941.49" width="703.78" height="505.36"/>
   </g>
   <g>
    <path class="fil12" d="M8660.1 15622.25c-336.57,982.39 -2036.17,991.89 -2381.34,-15.63 357.25,69.97 779.67,110.45 1232.42,110.45 417.95,0 810.08,-34.49 1148.92,-94.82zm179.64 -35.51c133,-29.01 255.81,-62.24 366.46,-99.09 703.22,602.34 313.71,1893.89 -574.43,1893.89 -778.89,0 -1557.8,0 -2336.69,0 -517.21,0 -940.38,-502.82 -940.38,-1117.38 0,0 0,-0.01 0,-0.01 0,-333.37 122.58,-642.58 318.8,-828.73 122.7,49.45 265.4,93.82 424.33,131.92 480.34,1402.06 2284.44,1354.72 2741.91,19.4z"/>
    <path class="fil11" d="M8660.1 15622.25c-336.57,982.39 -2036.17,991.89 -2381.34,-15.63 -28.49,-6.18 -68.63,-14.91 -180.93,-39.28 480.34,1402.06 2284.44,1354.72 2741.91,19.4 -14.34,2.82 -164.07,32.43 -179.64,35.51z"/>
   </g>
  </g>
  <g id="_906848256">
   <rect class="fil13" transform="matrix(0.790878 -0.243509 0.243509 0.790878 2651.72 14192.3)" width="1164.16" height="1164.16"/>
   <rect class="fil2" transform="matrix(0.790878 -0.243509 0.243509 0.790878 2757.06 13993)" width="1164.16" height="1164.16"/>
  </g>
  <g id="_906847056">
  </g>
  <g id="_906846192">
  </g>
  <g id="_906846624">
  </g>
  <g id="_906846144">
  </g>
  <g id="_906845856">
  </g>
  <g id="_906845328">
  </g>
  <g id="_906845352">
  </g>
  <g id="_906844320">
  </g>
  <g id="_906844128">
  </g>
  <g id="_906843648">
  </g>
  <g id="_906843720">
  </g>
  <g id="_906843264">
  </g>
  <g id="_906843024">
  </g>
  <g id="_906842808">
  </g>
  <g id="_906842064">
  </g>
  <path class="fil4" d="M877.32 13374.91l80.06 808.98c0,25.08 20.51,45.59 45.59,45.59l524.33 0c25.08,0 45.58,-20.51 45.58,-45.59l80.07 -808.98 -775.63 0z"/>
  <rect class="fil4" x="797.21" y="13313.1" width="934.68" height="63.01" rx="31.51" ry="31.51"/>
  <path class="fil5" d="M884.1 13580.51l80.07 808.98c0,25.08 20.51,45.59 45.58,45.59l524.33 0c25.08,0 45.59,-20.51 45.59,-45.59l80.06 -808.98 -775.63 0z"/>
  <rect class="fil5" x="803.99" y="13518.7" width="934.68" height="63.01" rx="31.51" ry="31.51"/>
  <g id="_906839448">
   <path class="fil14" d="M15085.43 1284.94l4453.52 0c206.2,0 374.91,168.7 374.91,374.9l0 0.04c0,206.2 -168.71,374.9 -374.91,374.9l-4453.52 0c-206.2,0 -374.9,-168.7 -374.9,-374.9l0 -0.04c0,-206.2 168.7,-374.9 374.9,-374.9z"/>
   <path class="fil14" d="M16058.72 943.21c449.75,0 814.33,164.48 814.33,367.37 0,202.87 -364.58,367.35 -814.33,367.35 -449.75,0 -814.33,-164.48 -814.33,-367.35 0,-202.89 364.58,-367.37 814.33,-367.37z"/>
   <path class="fil14" d="M18532.82 1021.53c-449.74,0 -814.33,164.47 -814.33,367.35 0,202.89 364.59,367.37 814.33,367.37 449.74,0 814.34,-164.48 814.34,-367.37 0,-202.88 -364.6,-367.35 -814.34,-367.35z"/>
   <path class="fil14" d="M17523.25 611.45c604.36,0 1094.3,263.28 1094.3,588.06 0,324.78 -489.94,588.06 -1094.3,588.06 -604.37,0 -1094.3,-263.28 -1094.3,-588.06 0,-324.78 489.93,-588.06 1094.3,-588.06z"/>
  </g>
  <g id="_906838416">
   <path class="fil14" d="M15086.67 2040.63l4453.52 0c206.2,0 374.9,-168.7 374.9,-374.9l0 -0.04c0,-206.2 -168.7,-374.9 -374.9,-374.9l-4453.52 0c-206.21,0 -374.91,168.7 -374.91,374.9l0 0.04c0,206.2 168.7,374.9 374.91,374.9z"/>
   <path class="fil14" d="M16059.96 2382.36c449.74,0 814.33,-164.48 814.33,-367.37 0,-202.87 -364.59,-367.35 -814.33,-367.35 -449.75,0 -814.33,164.48 -814.33,367.35 0,202.89 364.58,367.37 814.33,367.37z"/>
   <path class="fil14" d="M18534.05 2304.04c-449.73,0 -814.33,-164.47 -814.33,-367.35 0,-202.89 364.6,-367.37 814.33,-367.37 449.75,0 814.34,164.48 814.34,367.37 0,202.88 -364.59,367.35 -814.34,367.35z"/>
   <path class="fil14" d="M17524.49 2714.12c604.36,0 1094.29,-263.28 1094.29,-588.06 0,-324.78 -489.93,-588.06 -1094.29,-588.06 -604.37,0 -1094.31,263.28 -1094.31,588.06 0,324.78 489.94,588.06 1094.31,588.06z"/>
  </g>
  <g id="_906836880">
   <path class="fil14" d="M6434.68 975.6l-6434.68 0 0 -975.6 6774.92 0c126.08,100.52 207.24,255.28 207.24,428.1l0 0.02c0,301.12 -246.36,547.48 -547.48,547.48z"/>
   <path class="fil14" d="M5013.38 1474.63c-656.77,0 -1189.18,-240.18 -1189.18,-536.45 0,-296.28 532.41,-536.46 1189.18,-536.46 656.76,0 1189.18,240.18 1189.18,536.46 0,296.27 -532.42,536.45 -1189.18,536.45z"/>
   <path class="fil14" d="M1400.43 1360.27c656.76,0 1189.18,-240.18 1189.18,-536.46 0,-296.27 -532.42,-536.45 -1189.18,-536.45 -656.77,0 -1189.18,240.18 -1189.18,536.45 0,296.28 532.41,536.46 1189.18,536.46z"/>
   <path class="fil14" d="M2874.71 1959.11c-882.56,0 -1598.01,-384.48 -1598.01,-858.75 0,-474.28 715.45,-858.75 1598.01,-858.75 882.56,0 1598.02,384.47 1598.02,858.75 0,474.27 -715.46,858.75 -1598.02,858.75z"/>
  </g>
  <g id="_905560088">
   <g>
    <path class="fil14" d="M24258.29 1476.07l5441.71 0 0 1094.98 -5441.71 0c-301.12,0 -547.48,-246.36 -547.48,-547.48l0 -0.02c0,-301.12 246.36,-547.48 547.48,-547.48z"/>
    <path class="fil14" d="M25679.59 977.04c656.77,0 1189.18,240.18 1189.18,536.45 0,296.28 -532.41,536.46 -1189.18,536.46 -656.76,0 -1189.18,-240.18 -1189.18,-536.46 0,-296.27 532.42,-536.45 1189.18,-536.45z"/>
    <path class="fil14" d="M29292.54 1091.4c-656.76,0 -1189.18,240.18 -1189.18,536.46 0,296.27 532.42,536.45 1189.18,536.45 143.14,0 280.36,-11.41 407.46,-32.32l0 -1008.27c-127.1,-20.91 -264.32,-32.32 -407.46,-32.32z"/>
    <path class="fil14" d="M27818.26 492.56c882.56,0 1598.01,384.48 1598.01,858.75 0,474.28 -715.45,858.75 -1598.01,858.75 -882.56,0 -1598.02,-384.47 -1598.02,-858.75 0,-474.27 715.46,-858.75 1598.02,-858.75z"/>
   </g>
   <g>
    <path class="fil14" d="M29700 2571.05l-5441.7 0c-301.12,0 -547.49,-246.36 -547.49,-547.48l0 -0.02c0,-301.12 246.37,-547.48 547.49,-547.48l5441.7 0 0 1094.98z"/>
    <path class="fil14" d="M29340.51 3070.08c-656.77,0 -1189.18,-240.18 -1189.18,-536.45 0,-296.28 532.41,-536.46 1189.18,-536.46 125.31,0 246.07,8.77 359.49,24.98l0 1022.95c-113.42,16.21 -234.18,24.98 -359.49,24.98z"/>
    <path class="fil14" d="M25727.56 2955.72c656.76,0 1189.18,-240.18 1189.18,-536.46 0,-296.27 -532.42,-536.45 -1189.18,-536.45 -656.77,0 -1189.18,240.18 -1189.18,536.45 0,296.28 532.41,536.46 1189.18,536.46z"/>
    <path class="fil14" d="M27201.84 3554.56c-882.56,0 -1598.01,-384.48 -1598.01,-858.75 0,-474.28 715.45,-858.75 1598.01,-858.75 882.56,0 1598.02,384.47 1598.02,858.75 0,474.27 -715.46,858.75 -1598.02,858.75z"/>
   </g>
  </g>
  <g id="_905559248">
   <path class="fil14" d="M20552.54 807.18l2719.93 0c125.93,0 228.94,103.03 228.94,228.96l0 0.02c0,125.93 -103.01,228.96 -228.94,228.96l-2719.93 0c-125.93,0 -228.96,-103.03 -228.96,-228.96l0 -0.02c0,-125.93 103.03,-228.96 228.96,-228.96z"/>
   <path class="fil14" d="M21146.95 598.48c274.67,0 497.34,100.44 497.34,224.34 0,123.92 -222.67,224.36 -497.34,224.36 -274.67,0 -497.33,-100.44 -497.33,-224.36 0,-123.9 222.66,-224.34 497.33,-224.34z"/>
   <path class="fil14" d="M22657.97 646.31c-274.68,0 -497.33,100.44 -497.33,224.36 0,123.9 222.65,224.34 497.33,224.34 274.67,0 497.34,-100.44 497.34,-224.34 0,-123.92 -222.67,-224.36 -497.34,-224.36z"/>
   <path class="fil14" d="M22041.39 395.84c369.11,0 668.32,160.81 668.32,359.15 0,198.36 -299.21,359.15 -668.32,359.15 -369.1,0 -668.33,-160.79 -668.33,-359.15 0,-198.34 299.23,-359.15 668.33,-359.15z"/>
  </g>
  <g id="_905557904">
   <path class="fil14" d="M12018.2 864.86l-3191.25 0c-147.75,0 -268.61,-120.88 -268.61,-268.63l0 -0.02c0,-147.75 120.86,-268.64 268.61,-268.64l3191.25 0c147.75,0 268.63,120.89 268.63,268.64l0 0.02c0,147.75 -120.88,268.63 -268.63,268.63z"/>
   <path class="fil14" d="M11320.79 1109.73c-322.27,0 -583.53,-117.85 -583.53,-263.22 0,-145.39 261.26,-263.24 583.53,-263.24 322.27,0 583.5,117.85 583.5,263.24 0,145.37 -261.23,263.22 -583.5,263.22z"/>
   <path class="fil14" d="M9547.94 1053.61c322.27,0 583.5,-117.84 583.5,-263.23 0,-145.38 -261.23,-263.22 -583.5,-263.22 -322.27,0 -583.53,117.84 -583.53,263.22 0,145.39 261.26,263.23 583.53,263.23z"/>
   <path class="fil14" d="M10271.36 1347.48c-433.08,0 -784.14,-188.68 -784.14,-421.39 0,-232.73 351.06,-421.38 784.14,-421.38 433.05,0 784.13,188.65 784.13,421.38 0,232.71 -351.08,421.39 -784.13,421.39z"/>
  </g>
  <g id="_905556128">
   <path class="fil14" d="M8865.54 310.2l3191.25 0c147.75,0 268.61,120.88 268.61,268.63l0 0.02c0,147.75 -120.86,268.64 -268.61,268.64l-3191.25 0c-147.75,0 -268.63,-120.89 -268.63,-268.64l0 -0.02c0,-147.75 120.88,-268.63 268.63,-268.63z"/>
   <path class="fil14" d="M9562.95 65.33c322.27,0 583.53,117.85 583.53,263.22 0,145.39 -261.26,263.24 -583.53,263.24 -322.27,0 -583.5,-117.85 -583.5,-263.24 0,-145.37 261.23,-263.22 583.5,-263.22z"/>
   <path class="fil14" d="M11335.8 121.45c-322.27,0 -583.5,117.84 -583.5,263.23 0,145.38 261.23,263.22 583.5,263.22 322.27,0 583.53,-117.84 583.53,-263.22 0,-145.39 -261.26,-263.23 -583.53,-263.23z"/>
   <path class="fil14" d="M11245.01 0c95.22,69.76 151.51,155.83 151.51,248.97 0,232.73 -351.06,421.38 -784.14,421.38 -433.05,0 -784.13,-188.65 -784.13,-421.38 0,-93.14 56.28,-179.21 151.51,-248.97l1265.25 0z"/>
  </g>
  <g id="_905555000">
   <path class="fil14" d="M-0 2489.6l863.92 0c87.86,0 159.73,71.88 159.73,159.74l0 0.02c0,87.86 -71.87,159.74 -159.73,159.74l-863.92 0 0 -319.5z"/>
   <path class="fil14" d="M435.18 2377.36c-191.63,0 -346.98,70.07 -346.98,156.53 0,86.45 155.35,156.53 346.98,156.53 191.64,0 347,-70.08 347,-156.53 0,-86.46 -155.36,-156.53 -347,-156.53z"/>
   <path class="fil14" d="M5 2202.61c257.53,0 466.29,112.2 466.29,250.58 0,138.39 -208.76,250.57 -466.29,250.57l-5 -0.03 0 -501.09 5 -0.03z"/>
  </g>
  <g id="_905554976">
  </g>
  <g id="_905555024">
  </g>
  <g id="_905554304">
  </g>
  <g id="_905553800">
  </g>
  <g id="_905552864">
  </g>
  <g id="_905553176">
  </g>
  <g id="_905553200">
  </g>
  <g id="_905552648">
  </g>
  <g id="_905552384">
  </g>
  <g id="_905551736">
  </g>
  <g id="_905551424">
  </g>
  <g id="_905550656">
  </g>
  <g id="_905551304">
  </g>
  <g id="_905550296">
  </g>
  <g id="_905550512">
  </g>
  <g id="_905549888">
  </g>
  <g id="_905549144">
  </g>
  <g id="_905549720">
  </g>
  <g id="_905548808">
  </g>
  <g id="_905548496">
  </g>
  <g id="_905547608">
  </g>
  <g id="_905547944">
  </g>
  <g id="_905547272">
  </g>
  <g id="_905547416">
  </g>
  <g id="_905546888">
  </g>
  <g id="_905546072">
  </g>
  <g id="_905545904">
  </g>
  <g id="_905545736">
  </g>
  <g id="_905545496">
  </g>
  <g id="_905544536">
  </g>
  <g id="_905543960">
   <path class="fil15" d="M21545.95 11982.55c264.43,0 516.6,53.27 746.49,149.54l549.71 -1066.58c256.21,-312.4 256.21,-312.4 256.21,-312.4 54.47,0 105.01,28.38 133.38,74.89 28.35,46.51 30.43,104.45 5.48,152.87l-273.36 530.41 2254.39 -0.01 227.43 -445.76 -359.66 0c-86.29,0 -156.21,-69.94 -156.21,-156.2 0,-86.26 69.92,-156.2 156.21,-156.2l1024.54 0c86.29,0 156.2,69.94 156.2,156.2 0,86.26 -69.91,156.2 -156.2,156.2l-314.15 0 -303.58 594.99 356.81 552.81c273.1,-147.14 585.26,-230.76 916.62,-230.76 1069.12,0 1938.92,869.78 1938.92,1938.89 0,1069.12 -869.8,1938.92 -1938.92,1938.92 -1016.53,0 -1852.8,-786.37 -1932.6,-1782.71l-458.35 0 178.05 579.37 102.51 0c86.29,0 156.21,69.94 156.21,156.2 0,86.26 -69.92,156.2 -156.21,156.2l-562.33 0.01c-86.28,0 -156.2,-69.94 -156.2,-156.21 0,-86.26 69.92,-156.2 156.2,-156.2l133 0 -205.54 -668.84 -1299.73 -2006.21 -151.4 293.72c548.94,342.77 915,952.28 915,1645.75 0,1069.12 -869.8,1938.92 -1938.94,1938.92 -1069.12,0 -1938.92,-869.8 -1938.92,-1938.92 0.03,-1069.11 869.83,-1938.89 1938.94,-1938.89zm3782.72 -0.31l-909.68 1783 414.69 0c45.02,-562.02 330.77,-1057.14 753.79,-1382.06l-258.8 -400.94zm-181.25 1783l1332.09 0 -721.88 -1118.39c-337.59,267.73 -566.92,666.2 -610.21,1118.39zm1618.84 1782.72c896.88,0 1626.52,-729.64 1626.52,-1626.52 0,-896.85 -729.64,-1626.5 -1626.51,-1626.5 -268.97,0 -522.66,66.02 -746.39,182.09l877.64 1359.69c31.01,48.05 33.28,109.22 5.91,159.43 -27.35,50.22 -79.98,81.48 -137.16,81.48l-1618.85 0c78.89,823.85 774.68,1470.33 1618.84,1470.33zm-2618.44 -1938.65l911.04 -1785.65 -2067.9 0 1156.86 1785.65zm-2601.87 1938.65c896.88,0 1626.54,-729.65 1626.54,-1626.51 0,-572.7 -297.79,-1076.84 -746.41,-1366.74l-741.28 1438.3c-27.74,53.79 -82.35,84.66 -138.98,84.66 -24.09,0 -48.55,-5.6 -71.43,-17.39 -76.71,-39.51 -106.82,-133.71 -67.3,-210.42l741.51 -1438.71c-186.53,-74.69 -389.76,-116.24 -602.65,-116.24 -896.88,0 -1626.51,729.66 -1626.51,1626.51 0,896.9 729.64,1626.54 1626.51,1626.54z"/>
   <rect class="fil15" x="22953.4" y="10750.81" width="878.67" height="312.4" rx="89.93" ry="156.2"/>
   <polygon class="fil15" points="23006.16,10750.81 23289.31,10750.43 23289.31,11062.83 22844.34,11062.83 "/>
  </g>
  <g id="_905568560">
   <path class="fil16" d="M14115.58 7836.78c-209.88,-333.21 -628.62,-315.28 -846.75,-168.13 -131.77,88.88 -204.15,182.58 -222.08,271.97 -39.37,196.55 69.15,292.85 208.04,325.91 116.31,27.69 278.87,-219.6 452.23,-198.26 145.85,17.94 390.62,-14.16 -0.16,-154.2 153.49,-244.27 618.59,255.9 408.72,-77.29z"/>
   <path class="fil11" d="M11578.27 8784.02c201.24,-105.34 388.33,-145.19 603.16,-281.76 278.76,-177.2 531.43,-402.53 856.75,-483.96 93.77,98.13 126.69,149.63 220.46,247.76 -8.08,163.24 -603.27,688.08 -1084.94,961.36 -349.81,198.46 -486.33,282.25 -708.53,362.44 -286.91,-199.35 -464.15,-473.97 -678.86,-779.93 -369.53,-626.97 -187.24,-1480.08 65.97,-1420.61 253.2,59.48 125.85,-96.03 725.99,1394.7z"/>
   <path class="fil11" d="M10926.57 8900.84c-395.29,-723.46 -435.79,-1553.76 -167.53,-1518.47 268.25,35.3 288.69,-194.33 833.72,1473.62l-666.19 44.85z"/>
   <path class="fil16" d="M10148.91 17030.61c-255.24,-49.8 -162.49,-103.41 -203.53,-346.14 10.71,-35.51 7.31,-65.26 7.58,-73.22l595.77 -572.09 14.05 573.65c100.32,355.84 1989.82,886.84 -413.87,417.8z"/>
   <path class="fil17" d="M9830.28 11475.15l208.2 -158.53 916 -10.08c-24.21,855.92 198.37,1852.88 104.86,2598.16 -91.39,728.24 -419.38,2063.36 -490.56,2697.47 -358.77,60.73 -539.3,56.04 -615.83,9.09 -9.82,-947.33 79.63,-2228.98 221.7,-2835.6 -89.07,-526.27 -578.84,-1798.93 -344.37,-2300.51z"/>
   <path class="fil18" d="M11071.41 17341.64c-327.97,-8.52 -400.38,-124.18 -733.59,-145.42l-303.03 -19.3c-123.24,-7.85 -127.01,-125.41 -139.09,-229.14 -12.53,-107.66 -5.56,-191.47 49.69,-263.3 150.14,91.23 380.94,58.72 544.51,-26.05 -7.08,-89.25 -19.29,-113.45 -19.4,-175.03 79.08,-36.54 210.18,-55.74 283.88,-133.5 38.79,33.16 77.83,182.6 62.6,259.02 288.47,188.51 470.27,56.23 605.38,194.55 52.88,54.12 95.91,257.19 84.09,371.32 -6.29,60.69 -85.91,96.97 -161.1,119.72 -51.49,15.6 -197.59,49.11 -273.94,47.13z"/>
   <path class="fil19" d="M9663.6 17296.86c-278.79,-54.4 -177.48,-112.96 -222.31,-378.08 11.69,-38.79 7.98,-71.28 8.28,-79.98l650.74 -624.87 15.33 626.58c109.59,388.67 2173.42,968.65 -452.04,456.35z"/>
   <path class="fil14" d="M9315.56 11228.83l227.41 -173.15 959.67 106.46c-81.67,669.34 257.53,1906.36 155.38,2720.39 -99.81,795.44 -458.08,2253.73 -535.82,2946.35 -391.88,66.33 -589.06,61.2 -672.65,9.93 -10.72,-1034.74 86.98,-2434.63 242.16,-3097.22 -97.29,-574.82 -632.24,-1964.91 -376.15,-2512.76z"/>
   <path class="fil9" d="M10446.35 7126.47c202.21,104.26 423.29,142.42 558.69,307.66 229.12,778.05 245.79,1513.03 66.67,2483.96 -50.45,438.42 -13.91,691.65 -2.28,875.49 20.18,319 -110.25,466.44 -114.96,512.96 -175.09,52.61 -519.32,51.2 -1320.72,-39.09 -318.19,-38.62 23.38,0.4 -318.19,-38.62 10.73,-55.47 -137.34,-157.47 -109.1,-328.39 158.25,-957.85 -184.18,-1732.54 -170.41,-2600.03 6.41,-404 -45.72,-657.37 96.74,-857.15 132.19,-185.38 453.95,-272.84 657.19,-369.15 158.25,-40.17 512.28,31.3 656.37,52.36z"/>
   <path class="fil16" d="M9555.9 6156.87l1025.88 161.01c110.26,333.14 -199.97,623.99 -123.08,912.84 -70.41,63.97 -120.41,119.93 -194.18,121.85 -130.05,3.4 -291.78,-107.7 -467.39,-257.26 -7.14,-446.69 -156.28,-970.43 -241.23,-938.44z"/>
   <path class="fil19" d="M10243 4622.71c-909,-140.98 -1043.7,350.2 -1076.63,995.9 -20.24,396.93 1324.86,1497.18 1634.41,1202.39 352.46,-335.61 291.65,-552.42 284.23,-1004.68 -13.42,-818.23 66.96,-1052.65 -842.01,-1193.61z"/>
   <path class="fil20" d="M10712.19 4829.14c-251.43,918.6 -824.98,375.63 -905.6,932.46 -310.03,-223.35 -336,300.07 -143.61,363.47 125.93,310.46 -19.68,431.6 -107.09,431.07 111.45,-269.63 -351.31,-412.22 -420.18,-1054.92 -89.9,-838.99 487.67,-1098.89 1020.29,-1055.94 544.24,-126.9 812.19,-39.11 928.85,181.91 94.74,179.49 23.9,395.23 43.81,522.56 -107.31,-171.13 -387.04,-428.15 -416.47,-320.61z"/>
   <path class="fil9" d="M10516.97 6878.07c-258.44,17.86 -426.97,1.15 -770.17,-139.47 -91.34,167.9 43.17,335.51 -79.85,388.75 222.71,308.85 693.88,471.1 872.76,42.86 -59.19,-92.94 15.39,-191.74 -22.74,-292.14z"/>
   <path class="fil19" d="M8947.09 11196.17c60.87,0 129.26,5.85 181.16,91.38 87.07,143.56 143,433.26 150.36,723.76 -49.35,14.16 -116.5,-10.89 -146.24,-206.98 -21.54,-141.99 3.82,432.64 -138.3,582.73 -60.8,0 -185.44,-129.75 -202.44,-224.44 -32.05,-178.39 -162.77,-204.63 -127.38,-531.23 19.3,-178.2 57.56,-300.94 110.24,-366.95 44.48,-55.72 97.95,-68.27 172.6,-68.27z"/>
   <path class="fil12" d="M8763.61 8938.54c29.81,-1428.11 232.27,-1459.49 527.63,-1636.45 0,0 278.06,275.86 220.79,831.99 -36.52,354.52 -89.23,477.56 -127.5,1014.86 -60.88,854.68 -61.86,1862.57 -271.21,2113.79l-322.1 -16.84c-223.24,-436.52 -116.44,-1331.71 -27.61,-2307.35z"/>
   <path class="fil9" d="M10671.2 17636.58c-358.23,-9.3 -437.31,-135.64 -801.26,-158.83l-331 -21.09c-134.6,-8.58 -138.72,-136.98 -151.91,-250.28 -13.69,-117.6 -6.08,-209.14 54.26,-287.6 163.99,99.65 416.09,64.15 594.75,-28.45 -7.73,-97.48 -21.07,-123.91 -21.18,-191.17 86.37,-39.92 229.57,-60.88 310.07,-145.83 42.37,36.23 85.01,199.45 68.37,282.92 315.09,205.9 513.66,61.42 661.24,212.5 57.76,59.12 104.76,280.92 91.84,405.58 -6.86,66.29 -93.83,105.92 -175.96,130.77 -56.24,17.04 -215.81,53.64 -299.22,51.48z"/>
  </g>
  <path class="fil16" d="M18372.49 17254.27c237.73,-48.85 277.08,-256.77 159.48,-360.41 -17.84,-17.58 -48.81,-1232.75 -53.2,-1255.78l-616.33 96.2 146.74 1032.46c-60.23,219.47 -975.31,482.84 -733.22,529.96 102.96,20.03 428.68,94.83 1096.53,-42.43z"/>
  <path class="fil17" d="M18530.89 16863.82c-18.26,-18 -1.6,-381.01 -22.81,-378.76 -154.32,16.35 -295.51,42.46 -535.17,26.48l22.65 222.1c-42.17,752.49 730.56,302.23 535.33,130.18z"/>
  <path class="fil18" d="M17511.39 17388.83l960.67 -66.46c130.39,-9.01 196.61,-451.77 33.89,-517.17 -141.81,7.83 -372.95,140.55 -511.2,-6.46 -145.42,148.42 -598.97,138 -869.88,207.65 -243.71,62.66 -108.42,416.67 386.52,382.44z"/>
  <path class="fil16" d="M18477.34 12165.95l-96.75 -34.62 -819.84 103.54c83.74,533.51 26.31,1723.48 130.55,2372.24 101.86,633.92 107.93,695.79 188.78,1247.97 79.08,-36.38 492.42,-52.22 601.05,-19.01 -12.11,-827.38 15.53,-1012.45 -131.05,-1539.14 71.5,-461.38 357.89,-1697.96 127.26,-2130.98z"/>
  <path class="fil17" d="M18525.29 12140.14l-144.7 -8.81 -838.57 86.88c15.12,359.57 73.09,1062.44 87.67,1602.61 203.06,-75.43 603.91,-72.5 805.58,-5.92 103.15,-314.44 239.69,-1393.76 90.02,-1674.76z"/>
  <path class="fil19" d="M18776.88 17382.79c244.6,-44.29 290.59,-256.1 173.11,-364.98 -17.77,-18.41 -16.01,-1262.59 -19.87,-1286.26l-633.31 83.67 121.73 1059.98c-67.68,223.13 -1011.29,470.69 -764.87,524.71 104.8,22.96 436.04,107.31 1123.21,-17.12z"/>
  <path class="fil14" d="M18949.71 16987.05c-18.19,-18.86 8.85,-389.91 -12.92,-388.11 -158.35,13.02 -303.55,36.35 -548.34,14.26l17.06 227.81c-63.86,768.98 739.24,326.77 544.2,146.04z"/>
  <path class="fil9" d="M17892.04 17499.82l984.84 -44.96c133.67,-6.1 213.63,-457.57 48.93,-528.39 -145.34,4.61 -385.5,134.88 -522.92,-18.87 -152.89,148.39 -616.7,126.85 -895.83,191.63 -251.11,58.27 -122.41,423.75 384.98,400.59z"/>
  <path class="fil19" d="M19024.25 12178.63l-98.05 -37.75 -841.75 86.3c71,547.92 -20.53,1764.2 68.27,2430.54 86.77,651.11 91.29,714.56 158.81,1281.52 81.92,-35.33 505.32,-41.62 615.56,-5.04 10.38,-846.91 43.76,-1035.62 -91.73,-1578.07 85.86,-470.41 412.96,-1728.88 188.89,-2177.5z"/>
  <path class="fil14" d="M19074.03 12153.37l-147.83 -12.49 -896.43 71.69c43.14,332.89 81.51,1086.01 81.55,1639.09 209.86,-72.31 619.96,-59.7 824.49,13.26 114.19,-319.28 283.64,-1420.43 138.22,-1711.55z"/>
  <path class="fil16" d="M14686.92 9517.7c31.57,297.67 342.98,427.66 555.33,401.75 128.28,-15.65 215.07,-54.74 260.64,-109.4 100.19,-120.18 56.21,-222.47 -32.88,-292.09 -74.62,-58.3 -282.95,54.53 -401.41,-18.84 -99.66,-61.71 -289.55,-123.01 -55.98,104.84 -200.63,113.85 -357.28,-383.93 -325.7,-86.26z"/>
  <path class="fil16" d="M17098.5 10387.27c-368.24,-233.88 -1058.07,-493.6 -1569.87,-803.51l-160.15 293.41c620.16,338.9 959.92,821.5 1832.3,1022.34 311.54,-208.04 432.81,-449.61 631.41,-760.6 244.92,-634.1 249.68,-1279.13 -7.79,-1203.46 -257.47,75.68 -219.89,-31.28 -725.9,1451.82z"/>
  <path class="fil11" d="M17832.2 10138.92c397.39,-627.42 337.58,-1356.42 -66.57,-1261.44 -195.28,45.89 -324.03,428.65 -491.41,989.05l557.98 272.39z"/>
  <path class="fil9" d="M17927.37 8776.34c-38.29,16.09 -101.63,37.6 -136.09,59.51 -149.99,95.37 -236.53,253.05 -357.33,586.89 -148.57,410.59 108.06,2795.47 108.06,2795.47 177.36,43.41 401.09,49.23 1212.81,-25.3 322.29,-31.88 -23.69,0.33 322.29,-31.88 -94.07,-462.19 -303.67,-675.59 -196.39,-1309.12 213.27,-1259.29 321.41,-1655.3 172.85,-1825.1 -133.89,-153.03 -273.39,-219.83 -479.24,-299.35 -160.28,-33.15 -501.03,31.5 -646.96,48.88z"/>
  <path class="fil16" d="M18724.09 7953.69l-54.9 -25.69 -863.03 177.38c-34.01,100.64 -9.86,172.12 40.88,254.84 28.37,46.24 18.06,111.57 46.78,163.01 91.48,163.88 63.07,294.75 27.95,421.97 66.13,58.85 113.11,110.34 182.39,112.1 122.16,3.13 270.51,-217.02 435.46,-354.61 -11.14,-48.95 -13.98,-206.98 -9.72,-321.48 8.68,-234.08 73.08,-340.62 120.9,-443.93 26.89,-58.12 52.39,8.69 73.29,16.41z"/>
  <path class="fil19" d="M18073.23 6583.4c853.82,-129.71 921.93,327.57 952.82,921.58 7.47,144.01 -103.7,225.13 -356.86,423.02 -49.35,38.58 -72.33,173.11 -125.32,209.22 -364.18,248.23 -789.72,420.53 -943.44,277.17 -225.09,-297.19 -210.02,-428.84 -227.63,-565.94 -16.36,-127.47 9.5,-248.24 -12.34,-419.21 -7.61,-59.62 -18.05,-177.94 -23.36,-229.98 -42.61,-416.96 -22.91,-500.56 736.13,-615.86z"/>
  <path class="fil20" d="M17536.43 6810.8c284.08,-72.71 454.76,178.14 558.64,270.68 178.05,158.59 153.34,304.84 452.62,440.15 300.35,-116.03 277.61,294.94 96.9,353.27 -14.54,24.78 -57.29,190.68 -83.68,246.42 -18.36,38.78 -38.47,216.31 -27.43,317.65 79.82,-246.27 474.99,-357.69 539.64,-948.93 89.61,-819.5 -617.79,-1181.46 -1173.27,-1068.07 -155.04,31.64 -294.28,22.2 -465.44,177.62 -171.14,155.42 -261.81,353.55 -97.83,621 -18.04,-324.78 204.29,-406.12 199.85,-409.79z"/>
  <path class="fil9" d="M17915.49 8566.24c187.05,13.75 394.37,-35.07 614.41,-185.03 10.87,172.35 11.78,399.63 127.35,448.62 -209.19,284.14 -637.28,467.93 -805.29,73.95 61.05,-51.5 115.37,-161.97 63.53,-337.54z"/>
  <g id="_905463960">
   <path class="fil15" d="M16791.04 16024.9l0 -242.51c0,-662.5 -538.98,-1201.48 -1201.48,-1201.48 -662.49,0 -1201.48,538.98 -1201.48,1201.48l0 242.51 -221.1 0 0 -242.51c0,-784.41 638.17,-1422.56 1422.56,-1422.56 784.41,0 1422.58,638.15 1422.58,1422.56l0 242.51 -221.08 0zm0 0z"/>
   <path class="fil2" d="M15589.57 14580.91c-662.5,0 -1201.49,538.98 -1201.49,1201.48l0 242.51 -221.1 0 0 -242.51c0,-784.41 638.17,-1422.56 1422.56,-1422.56l0.03 0 0 221.08z"/>
   <path class="fil9" d="M15069.92 14972.6c-1.09,-19.21 -4.67,-36.94 -9.98,-53.35 -17.22,0.95 -35.06,3.96 -53.36,9.85 -92.2,29.66 -167.41,115.73 -193.26,211.03 -11.16,-30.69 -27.29,-61.47 -50.57,-92.12 -6.12,-8.07 -11.74,-16.39 -21.64,-14.4l0 0c-9.91,1.97 -16.39,11.7 -14.41,21.6 69.29,91.03 68.8,162 71.15,270.04 -25.58,-2.64 -49.9,-9.74 -75.33,-17.18 -44.94,-13.1 -95.91,-27.95 -160.78,-18.07 -108.42,16.53 -237.71,79.52 -237.71,285.73 0,194.84 64.67,461.3 246.9,571.08 47.99,28.89 103.04,20.4 161.34,11.47 28.27,-4.35 57.47,-8.85 86.12,-8.85 28.63,0 57.86,4.5 86.13,8.85 27.97,4.29 55.21,8.49 81.27,8.49 28.24,0 55.14,-4.93 80.07,-19.96 182.23,-109.78 246.89,-376.24 246.89,-571.08 0,-206.21 -129.25,-269.2 -237.7,-285.73 -64.91,-9.89 -115.86,4.99 -160.77,18.07 -25.79,7.54 -50.4,14.73 -76.37,17.28 0.07,-16.64 -0.04,-33.46 -0.71,-50.41 9.89,-1.64 19.96,-4.03 30.18,-7.31 118.9,-38.25 209.58,-170.33 202.54,-295.03z"/>
   <path class="fil9" d="M15740.21 14801.18c17.08,-41.32 42.15,-81.81 80.73,-120.17 7.52,-7.44 14.54,-15.27 24.51,-11.81l0 0.01c9.95,3.51 15.28,14.51 11.77,24.49 -39.98,39.66 -63.29,76.96 -78.65,116.97 112.21,48.31 179.85,256.06 206.75,438.57 85.84,96.66 130.4,228.92 111.13,367.02 -34.93,250.09 -265.98,424.57 -516.12,389.64 -250.11,-34.92 -424.55,-266.01 -389.64,-516.12 19.29,-138.07 98.36,-253.06 207.42,-322.53 80.7,-178.87 213.53,-372.58 342.1,-366.07z"/>
   <g>
    <path class="fil5" d="M16478.87 14821c-86.1,152.53 -181.17,297.09 -324.84,401.38 -144.57,104.94 -321.8,164.35 -500.86,161.13 -146.02,-2.63 -287.7,-51.39 -418.23,-113.88 -26.87,-12.86 -58.17,-30.95 -89.89,-41.01 -42.78,-13.58 -156.2,111.71 -129.03,153.82 58.2,90.19 175.41,196.64 235.05,242.48 102.02,78.44 222.52,132.4 348.47,158.24 70.3,14.47 145.29,20.82 221.31,17.36 76,-3.56 153.03,-16.47 227.13,-39.19 210.5,-64.57 397.05,-207.19 507.01,-398.81 46.16,-80.61 80.07,-169.29 96.16,-260.89 8.22,-46.75 11.69,-94.36 9.47,-141.78 -0.72,-14.87 -3.43,-114.58 -19.11,-120.22 -13.64,-47.05 -62.84,-74.16 -109.89,-60.54 -23.21,6.72 -41.69,22.32 -52.75,41.91z"/>
    <path class="fil18" d="M15145.05 15228.63c-42.78,-13.58 -76.98,-24.88 -120.83,35.44 -43.87,60.33 -35.37,76.26 -8.21,118.37 7.72,11.97 16.51,24.22 26.03,36.58l136.37 -177.25c-10.96,-4.98 -22.13,-9.59 -33.36,-13.14z"/>
    <path class="fil21" d="M16491.63 14842.02c-48.24,168.4 -107.05,331.1 -222.51,465.98 -116.16,135.7 -274.7,234.73 -449.59,273.27 -142.61,31.43 -291.76,16.98 -433.25,-13.4 -29.14,-6.26 -63.78,-16.56 -96.97,-18.97 -44.77,-3.24 -125.92,144.99 -89.69,179.63 77.59,74.15 216.37,150.4 285.04,181.11 117.47,52.54 247.22,76.96 375.74,72.78 71.73,-2.28 146.13,-13.57 219.26,-34.64 73.09,-21.14 145.01,-51.63 211.78,-90.97 189.69,-111.79 337.92,-293.91 400.26,-505.86 26.14,-89.14 38.46,-183.27 32.8,-276.12 -2.9,-47.37 -10.6,-94.48 -23.81,-140.09 -4.15,-14.29 -29.99,-110.62 -46.57,-112.46 -24.19,-42.6 -78.35,-57.5 -120.96,-33.3 -20.99,11.95 -35.34,31.42 -41.53,53.04z"/>
    <path class="fil18" d="M15289.31 15548.9c-44.77,-3.24 -80.65,-6.28 -109.26,62.59 -28.61,68.89 -16.66,82.4 19.57,117.04 10.3,9.83 21.69,19.7 33.83,29.52l91.36 -204.12c-11.81,-2.31 -23.74,-4.18 -35.5,-5.03z"/>
    <path class="fil22" d="M16517.6 14865.71c10.11,174.87 8.33,347.88 -56.09,513.32 -64.82,166.46 -181.73,312.29 -334.08,406.45 -124.23,76.78 -269.78,112.4 -413.36,130.46 -29.56,3.73 -65.66,5.45 -97.8,14.13 -43.31,11.74 -70.94,178.46 -25.3,199.19 97.73,44.36 253.91,70.49 328.86,76.79 128.23,10.77 258.77,-9.04 378.69,-55.43 66.94,-25.86 133.44,-61.09 195.51,-105.13 62,-44.11 119.8,-96.63 169.82,-155.83 142.12,-168.18 221.87,-389.04 210.7,-609.69 -4.79,-92.76 -24.24,-185.67 -60.26,-271.42 -18.38,-43.77 -41.21,-85.7 -68.75,-124.38 -42.23,-59.23 -128.09,-171.85 -206.27,-82.23 -15.87,18.21 -22.97,41.3 -21.67,63.77z"/>
    <path class="fil23" d="M15616.29 15930.07c-43.31,11.74 -78.19,20.72 -82.45,95.18 -4.25,74.47 11.5,83.28 57.14,104.01 12.96,5.88 26.98,11.43 41.68,16.68l18.8 -222.85c-11.91,1.74 -23.8,3.9 -35.17,6.98z"/>
    <path class="fil18" d="M16571.17 14816.95c3.7,-0.69 7.34,-1.67 10.94,-2.96 35.58,-12.71 52.24,-50.39 37.24,-84.16l-46.19 -103.83c-15.02,-33.78 -56.05,-50.86 -91.61,-38.14 -35.59,12.72 -52.25,50.41 -37.22,84.16l46.18 103.84c13.5,30.35 48,47.22 80.66,41.09z"/>
   </g>
   <path class="fil2" d="M17172.69 15768.02c0.45,17.86 0.75,35.75 0.75,53.73 0,720.27 -366.21,1342.48 -896.8,1635.25 -220.97,-2.6 -445.92,-3.96 -674.22,-3.96 -235.69,0 -467.89,1.43 -695.74,4.2 -530.83,-292.67 -897.24,-915.02 -897.24,-1635.49 0,-19.06 0.34,-38.04 0.85,-56.96 466.72,93.83 1009.64,147.65 1589.15,147.65 572.9,0 1110.13,-52.56 1573.25,-144.42z"/>
   <rect class="fil15" x="14487.86" y="16160.25" width="379.52" height="130.99"/>
   <rect class="fil15" x="15102.52" y="16158.99" width="379.52" height="130.99"/>
   <rect class="fil15" x="15717.19" y="16157.73" width="379.52" height="130.99"/>
   <rect class="fil15" x="16331.85" y="16156.47" width="379.52" height="130.99"/>
   <rect class="fil15" x="14486.87" y="16466.32" width="379.52" height="130.99"/>
   <rect class="fil15" x="15101.54" y="16465.06" width="379.52" height="130.99"/>
   <rect class="fil15" x="15716.2" y="16463.8" width="379.52" height="130.99"/>
   <rect class="fil15" x="16330.86" y="16462.54" width="379.52" height="130.99"/>
   <rect class="fil15" x="14486.39" y="16779.6" width="379.52" height="130.99"/>
   <rect class="fil15" x="15101.05" y="16778.34" width="379.52" height="130.99"/>
   <rect class="fil15 str1" x="15101.05" y="17094.44" width="379.52" height="130.99"/>
   <rect class="fil15" x="15715.71" y="16777.08" width="379.52" height="130.99"/>
   <rect class="fil15" x="15715.71" y="17093.18" width="379.52" height="130.99"/>
   <rect class="fil15" x="16330.38" y="16775.82" width="379.52" height="130.99"/>
   <path class="fil15" d="M17171.11 15932.97c-1046.79,68.98 -2095.81,69.01 -3146.86,-0.42 -82.99,-5.49 -145.08,-78.49 -137.13,-161.3 7.61,-79.3 76.89,-138.24 156.39,-132.99 1035.43,68.41 2072.91,68.46 3108.34,0.18 80.53,-5.3 150.31,55.11 156.63,135.53l0.03 0.27c6.43,81.92 -55.37,153.32 -137.4,158.73l0 0zm0 0z"/>
  </g>
  <g id="_905460768">
   <path class="fil18" d="M15626.25 7339.73c-53.64,-61.25 -134.79,-23.42 -79.78,132.99 -36.68,0 -73.36,0 -110.04,0 -10.19,-232.65 247.28,-233.23 189.82,-132.99z"/>
   <g>
    <circle class="fil12" cx="15459.28" cy="8612.78" r="1148.83"/>
    <ellipse class="fil11" cx="15459.28" cy="8612.78" rx="1037.92" ry="1148.83"/>
    <ellipse class="fil12" cx="15461.35" cy="8612.97" rx="879.84" ry="1148.83"/>
    <ellipse class="fil11" cx="15482.43" cy="8612.26" rx="631.57" ry="1148.12"/>
    <ellipse class="fil12" cx="15479.42" cy="8612.97" rx="470.88" ry="1148.83"/>
    <ellipse class="fil11" cx="15482.43" cy="8612.26" rx="121.58" ry="1148.12"/>
   </g>
  </g>
  <path class="fil19" d="M15557.35 9583.31c33.21,313.01 360.65,449.7 583.93,422.44 134.89,-16.45 226.15,-57.55 274.07,-115.02 105.34,-126.37 59.1,-233.93 -34.58,-307.14 -78.46,-61.3 -297.52,57.34 -422.07,-19.8 -104.8,-64.89 -304.47,-129.35 -58.87,110.23 -210.96,119.72 -375.68,-403.7 -342.48,-90.71z"/>
  <path class="fil19" d="M18093.13 10497.67c-387.21,-245.92 -1112.57,-519.02 -1650.72,-844.89l-168.4 308.52c652.11,356.36 1009.36,863.81 1926.67,1074.99 327.58,-218.75 455.09,-472.76 663.92,-799.77 257.54,-666.75 262.54,-1345.01 -8.19,-1265.43 -270.73,79.57 -231.21,-32.9 -763.28,1526.58z"/>
  <path class="fil12" d="M18864.61 10236.53c417.86,-659.74 338.18,-1409.57 -86.79,-1309.69 -205.35,48.26 -323.92,434.01 -499.93,1023.27l586.72 286.42z"/>
 </g>
</svg>
