<?xml version="1.0" encoding="UTF-8"?>
<!DOCTYPE svg PUBLIC "-//W3C//DTD SVG 1.1//EN" "http://www.w3.org/Graphics/SVG/1.1/DTD/svg11.dtd">
<!-- Creator: CorelDRAW X7 -->
<svg xmlns="http://www.w3.org/2000/svg" xml:space="preserve" width="297mm" height="210mm" version="1.1" style="shape-rendering:geometricPrecision; text-rendering:geometricPrecision; image-rendering:optimizeQuality; fill-rule:evenodd; clip-rule:evenodd"
viewBox="0 0 29700 21000"
 xmlns:xlink="http://www.w3.org/1999/xlink">
 <defs>
  <style type="text/css">
   <![CDATA[
    .str0 {stroke:#A36617;stroke-width:7.62}
    .fil27 {fill:#965500}
    .fil6 {fill:#A36617}
    .fil30 {fill:#A65E00}
    .fil2 {fill:#A8712A}
    .fil24 {fill:#AD7225}
    .fil3 {fill:#B37D35}
    .fil12 {fill:#B86F11}
    .fil16 {fill:#BA6900}
    .fil23 {fill:#BA7C2B}
    .fil4 {fill:#BA853F}
    .fil17 {fill:#C77100}
    .fil11 {fill:#CF892D}
    .fil5 {fill:#D19E5C}
    .fil19 {fill:#DB7C00}
    .fil14 {fill:#DBA35A}
    .fil25 {fill:#E07F00}
    .fil13 {fill:#E3AC64}
    .fil20 {fill:#E8BC90}
    .fil10 {fill:#EB9D36}
    .fil26 {fill:#F08800}
    .fil15 {fill:#F5C280}
    .fil18 {fill:#FF9101}
    .fil29 {fill:#FF9A17}
    .fil22 {fill:#FFA024}
    .fil28 {fill:#FFAD42}
    .fil8 {fill:#FFBE69}
    .fil21 {fill:#FFCC99}
    .fil1 {fill:#FFE0B8}
    .fil0 {fill:white}
    .fil9 {fill:white}
    .fil7 {fill:#A36617;fill-rule:nonzero}
   ]]>
  </style>
 </defs>
 <g id="Слой_x0020_1">
  <metadata id="CorelCorpID_0Corel-Layer"/>
  <g id="_500765160">
  </g>
  <g id="_500765448">
  </g>
  <g id="_500765376">
  </g>
  <g id="_500765472">
  </g>
  <g id="_500765832">
  </g>
  <g id="_500766216">
  </g>
  <g id="_500765112">
  </g>
  <g id="_500766384">
  </g>
  <g id="_500766336">
  </g>
  <g id="_500766960">
  </g>
  <g id="_500766816">
  </g>
  <g id="_500764584">
  </g>
  <g id="_500767080">
  </g>
  <g id="_500762832">
  </g>
  <g id="_500763336">
  </g>
  <g id="_514125000">
   <circle class="fil0" cx="11384" cy="4454" r="1610"/>
   <polygon class="fil0" points="11384,7009 9965,5206 12803,5206 "/>
  </g>
  <polygon class="fil1" points="0,0 29700,0 29700,13144 0,13144 "/>
  <g id="_514154088">
   <polygon class="fil2" points="15544,4969 15785,4524 16001,4899 16141,8138 15488,8138 "/>
   <polygon class="fil2" points="12524,8138 15786,8138 15786,4495 "/>
   <polygon class="fil3" points="19047,8138 15786,8138 15786,4495 "/>
   <polygon class="fil4" points="14676,5735 15786,6317 15786,4495 "/>
   <polygon class="fil5" points="16895,5735 15786,6317 15786,4495 "/>
  </g>
  <g id="_514127976">
   <polygon class="fil2" points="12511,4831 12947,3889 13338,4684 13589,11536 12411,11536 "/>
   <polygon class="fil2" points="7058,11536 12949,11536 12949,3830 "/>
   <polygon class="fil3" points="18839,11536 12949,11536 12949,3830 "/>
   <polygon class="fil4" points="10945,6451 12949,7683 12949,3830 "/>
   <polygon class="fil5" points="14952,6451 12949,7683 12949,3830 "/>
  </g>
  <g id="_514128264">
   <polygon class="fil6" points="15303,6884 15786,6317 16321,6884 16321,11564 15303,11564 "/>
   <g>
    <g>
     <path class="fil6" d="M15785 9044l-1898 0c-614,0 -721,-131 -589,-264 1726,-1738 1880,-1861 2487,-2463l0 2727z"/>
     <path class="fil6" d="M15785 10345l-2399 0c-777,0 -912,-166 -746,-334 2183,-2198 2378,-2353 3145,-3114l0 3448z"/>
     <path class="fil6" d="M15785 11564l-2686 0c-870,0 -1021,-186 -835,-374 2444,-2461 2662,-2634 3521,-3486l0 3860z"/>
    </g>
    <g>
     <path class="fil6" d="M15786 9044l1898 0c614,0 721,-131 589,-264 -1726,-1738 -1880,-1861 -2487,-2463l0 2727z"/>
     <path class="fil6" d="M15786 10345l2399 0c777,0 912,-166 746,-334 -2183,-2198 -2378,-2353 -3145,-3114l0 3448z"/>
     <path class="fil6 str0" d="M15786 11564l2686 0c870,0 1021,-186 835,-374 -2444,-2461 -2662,-2634 -3521,-3486l0 3860z"/>
    </g>
   </g>
  </g>
  <g id="_511351160">
   <polygon class="fil6" points="20307,7927 20579,7434 20883,7927 20883,11994 20307,11994 "/>
   <g>
    <g>
     <path class="fil6" d="M20579 9805l-1074 0c-347,0 -408,-115 -333,-230 976,-1511 1064,-1618 1407,-2141l0 2371z"/>
     <path class="fil6" d="M20579 10935l-1358 0c-439,0 -515,-145 -421,-291 1235,-1910 1345,-2045 1779,-2706l0 2997z"/>
     <path class="fil6" d="M20579 11994l-1520 0c-492,0 -577,-162 -472,-325 1382,-2138 1506,-2289 1992,-3030l0 3355z"/>
    </g>
    <g>
     <path class="fil6" d="M20579 9805l1074 0c348,0 408,-115 334,-230 -977,-1511 -1064,-1618 -1408,-2141l0 2371z"/>
     <path class="fil6" d="M20579 10935l1358 0c440,0 516,-145 422,-291 -1235,-1910 -1345,-2045 -1780,-2706l0 2997z"/>
     <path class="fil6 str0" d="M20579 11994l1521 0c491,0 577,-162 472,-325 -1383,-2138 -1507,-2289 -1993,-3030l0 3355z"/>
    </g>
   </g>
  </g>
  <g id="_511332848">
   <polygon class="fil6" points="18156,7901 18428,7408 18732,7901 18732,11968 18156,11968 "/>
   <g>
    <g>
     <path class="fil6" d="M18428 9778l-1074 0c-347,0 -408,-114 -333,-229 976,-1511 1064,-1618 1407,-2141l0 2370z"/>
     <path class="fil6" d="M18428 10909l-1358 0c-439,0 -515,-145 -421,-291 1235,-1910 1345,-2045 1779,-2706l0 2997z"/>
     <path class="fil6" d="M18428 11968l-1520 0c-492,0 -577,-162 -472,-325 1382,-2139 1506,-2290 1992,-3030l0 3355z"/>
    </g>
    <g>
     <path class="fil6" d="M18428 9778l1074 0c348,0 408,-114 334,-229 -977,-1511 -1064,-1618 -1408,-2141l0 2370z"/>
     <path class="fil6" d="M18428 10909l1358 0c440,0 516,-145 422,-291 -1235,-1910 -1345,-2045 -1780,-2706l0 2997z"/>
     <path class="fil6 str0" d="M18428 11968l1521 0c491,0 577,-162 472,-325 -1383,-2139 -1507,-2290 -1993,-3030l0 3355z"/>
    </g>
   </g>
  </g>
  <g id="_511327736">
   <polygon class="fil6" points="25373,7120 25678,6567 26018,7120 26018,11680 25373,11680 "/>
   <g>
    <g>
     <path class="fil6" d="M25678 9225l-1204 0c-390,0 -457,-128 -374,-258 1095,-1694 1193,-1813 1578,-2400l0 2658z"/>
     <path class="fil6" d="M25678 10492l-1522 0c-493,0 -579,-162 -473,-325 1385,-2142 1509,-2293 1995,-3035l0 3360z"/>
     <path class="fil6" d="M25678 11680l-1704 0c-552,0 -648,-181 -529,-364 1550,-2398 1688,-2568 2233,-3398l0 3762z"/>
    </g>
    <g>
     <path class="fil6" d="M25678 9225l1205 0c389,0 457,-128 374,-258 -1095,-1694 -1193,-1813 -1579,-2400l0 2658z"/>
     <path class="fil6" d="M25678 10492l1523 0c493,0 578,-162 473,-325 -1385,-2142 -1509,-2293 -1996,-3035l0 3360z"/>
     <path class="fil6 str0" d="M25678 11680l1705 0c552,0 648,-181 529,-364 -1550,-2398 -1688,-2568 -2234,-3398l0 3762z"/>
    </g>
   </g>
  </g>
  <g id="_511326248">
   <polygon class="fil6" points="29204,8139 29439,7715 29700,8139 29700,11640 29204,11640 "/>
   <g>
    <g>
     <path class="fil6" d="M29439 9756l-924 0c-300,0 -352,-99 -288,-198 841,-1301 916,-1393 1212,-1843l0 2041z"/>
     <path class="fil6" d="M29439 10728l-1169 0c-378,0 -444,-124 -363,-250 1063,-1644 1158,-1760 1532,-2329l0 2579z"/>
     <path class="fil6" d="M29439 11640l-1308 0c-424,0 -498,-139 -407,-280 1190,-1840 1297,-1970 1715,-2608l0 2888z"/>
    </g>
    <g>
     <path class="fil6" d="M29439 9756l261 0 0 -1649c-87,-130 -162,-240 -261,-392l0 2041z"/>
     <path class="fil6" d="M29439 10728l261 0 0 -2186c-83,-124 -162,-243 -261,-393l0 2579z"/>
     <path class="fil6" d="M29439 11640l261 0 0 -2494c-82,-122 -163,-244 -261,-394l0 2888z"/>
     <path class="fil7" d="M29443 11637l257 0 0 7 -261 0 -4 0 0 -4 0 -2888 0 -12 7 10c97,148 177,268 258,389l0 14c-81,-121 -161,-241 -257,-388l0 2872z"/>
    </g>
   </g>
  </g>
  <g id="_511335152">
   <polygon class="fil6" points="2207,7182 2521,6614 2870,7182 2870,11866 2207,11866 "/>
   <g>
    <g>
     <path class="fil6" d="M2521 9344l-1237 0c-400,0 -470,-132 -384,-264 1125,-1740 1225,-1863 1621,-2466l0 2730z"/>
     <path class="fil6" d="M2521 10646l-1564 0c-506,0 -594,-167 -485,-335 1422,-2199 1549,-2355 2049,-3116l0 3451z"/>
     <path class="fil6" d="M2521 11866l-1751 0c-566,0 -665,-187 -543,-375 1592,-2462 1734,-2636 2294,-3489l0 3864z"/>
    </g>
    <g>
     <path class="fil6" d="M2521 9344l1237 0c400,0 470,-132 384,-264 -1125,-1740 -1226,-1863 -1621,-2466l0 2730z"/>
     <path class="fil6" d="M2521 10646l1564 0c506,0 594,-167 485,-335 -1422,-2199 -1549,-2355 -2049,-3116l0 3451z"/>
     <path class="fil6 str0" d="M2521 11866l1751 0c566,0 665,-187 543,-375 -1592,-2462 -1734,-2636 -2294,-3489l0 3864z"/>
    </g>
   </g>
  </g>
  <g id="_511343864">
   <polygon class="fil6" points="8258,7580 8531,7087 8834,7580 8834,11647 8258,11647 "/>
   <g>
    <g>
     <path class="fil6" d="M8531 9457l-1074 0c-348,0 -408,-114 -334,-229 977,-1511 1064,-1618 1408,-2141l0 2370z"/>
     <path class="fil6" d="M8531 10588l-1358 0c-440,0 -516,-145 -422,-291 1235,-1910 1345,-2045 1780,-2706l0 2997z"/>
     <path class="fil6" d="M8531 11647l-1521 0c-491,0 -577,-162 -472,-325 1383,-2139 1507,-2290 1993,-3030l0 3355z"/>
    </g>
    <g>
     <path class="fil6" d="M8531 9457l1074 0c347,0 408,-114 333,-229 -976,-1511 -1064,-1618 -1407,-2141l0 2370z"/>
     <path class="fil6" d="M8531 10588l1358 0c439,0 515,-145 421,-291 -1235,-1910 -1345,-2045 -1779,-2706l0 2997z"/>
     <path class="fil6 str0" d="M8531 11647l1520 0c492,0 577,-162 472,-325 -1382,-2139 -1506,-2290 -1992,-3030l0 3355z"/>
    </g>
   </g>
  </g>
  <circle class="fil8" cx="15503" cy="1813" r="614"/>
  <g id="_511346048">
   <rect class="fil9" x="12001" y="1755" width="3377" height="487" rx="1239" ry="629"/>
   <ellipse class="fil9" cx="12876" cy="1771" rx="529" ry="238"/>
   <ellipse class="fil9" cx="14482" cy="1822" rx="529" ry="238"/>
   <ellipse class="fil9" cx="13826" cy="1699" rx="710" ry="382"/>
  </g>
  <g id="_511339064">
   <g>
    <ellipse class="fil10" cx="10863" cy="8808" rx="958" ry="1329"/>
    <path class="fil11" d="M10863 10136c-529,0 -958,-595 -958,-1328 0,-734 429,-1329 958,-1329l0 2657z"/>
   </g>
   <rect class="fil12" x="10731" y="9351" width="264" height="3389" rx="132" ry="132"/>
  </g>
  <g id="_511352384">
   <g>
    <ellipse class="fil10" cx="21765" cy="8818" rx="958" ry="1329"/>
    <path class="fil11" d="M21765 10146c-529,0 -958,-594 -958,-1328 0,-734 429,-1329 958,-1329l0 2657z"/>
   </g>
   <rect class="fil12" x="21633" y="9361" width="264" height="3389" rx="132" ry="132"/>
  </g>
  <g id="_511353776">
   <g>
    <path class="fil10" d="M0 7614c529,0 958,595 958,1329 0,734 -429,1329 -958,1329l0 0 0 -2658 0 0z"/>
    <polygon class="fil11" points="0,10272 0,10272 0,7614 0,7614 "/>
   </g>
   <path class="fil12" d="M0 9487l0 0c73,0 132,59 132,132l0 3125c0,72 -59,132 -132,132l0 0 0 0 0 -3389 0 0z"/>
  </g>
  <g id="_511333616">
   <g>
    <ellipse class="fil10" cx="9256" cy="9377" rx="736" ry="1021"/>
    <path class="fil11" d="M9256 10398c-407,0 -736,-457 -736,-1021 0,-564 329,-1021 736,-1021l0 2042z"/>
   </g>
   <rect class="fil12" x="9155" y="9795" width="203" height="2605" rx="102" ry="102"/>
  </g>
  <g id="_511338080">
   <g>
    <ellipse class="fil10" cx="28436" cy="8892" rx="736" ry="1021"/>
    <path class="fil11" d="M28436 9913c-407,0 -737,-457 -737,-1021 0,-564 330,-1021 737,-1021l0 2042z"/>
   </g>
   <rect class="fil12" x="28334" y="9310" width="203" height="2605" rx="102" ry="102"/>
  </g>
  <g id="_511340192">
   <g>
    <ellipse class="fil10" cx="19607" cy="9238" rx="736" ry="1021"/>
    <path class="fil11" d="M19607 10260c-407,0 -737,-458 -737,-1022 0,-564 330,-1021 737,-1021l0 2043z"/>
   </g>
   <rect class="fil12" x="19505" y="9656" width="203" height="2605" rx="102" ry="102"/>
  </g>
  <g id="_511347152">
   <g>
    <ellipse class="fil10" cx="20307" cy="9961" rx="515" ry="714"/>
    <path class="fil11" d="M20307 10674c-285,0 -515,-319 -515,-713 0,-395 230,-714 515,-714l0 1427z"/>
   </g>
   <rect class="fil12" x="20236" y="10253" width="142" height="1820" rx="71" ry="71"/>
  </g>
  <g id="_511327712">
   <g>
    <ellipse class="fil10" cx="1621" cy="9934" rx="515" ry="714"/>
    <path class="fil11" d="M1621 10648c-284,0 -515,-320 -515,-714 0,-394 231,-714 515,-714l0 1428z"/>
   </g>
   <rect class="fil12" x="1550" y="10226" width="142" height="1820" rx="71" ry="71"/>
  </g>
  <g id="_511339352">
   <g>
    <ellipse class="fil10" cx="10067" cy="10035" rx="515" ry="714"/>
    <path class="fil11" d="M10067 10748c-284,0 -514,-319 -514,-713 0,-395 230,-714 514,-714l0 1427z"/>
   </g>
   <rect class="fil12" x="9996" y="10327" width="142" height="1820" rx="71" ry="71"/>
  </g>
  <g id="_511325288">
   <polygon class="fil11" points="22709,8585 22909,8222 23132,8585 23132,11575 22709,11575 "/>
   <g>
    <g>
     <path class="fil11" d="M22909 9965l-789 0c-256,0 -300,-84 -246,-169 718,-1111 783,-1189 1035,-1574l0 1743z"/>
     <path class="fil11" d="M22909 10796l-998 0c-323,0 -379,-106 -310,-213 908,-1405 989,-1504 1308,-1990l0 2203z"/>
     <path class="fil11" d="M22909 11575l-1117 0c-362,0 -425,-119 -347,-239 1016,-1572 1107,-1683 1464,-2228l0 2467z"/>
    </g>
    <g>
     <path class="fil10" d="M22909 9965l790 0c255,0 300,-84 245,-169 -718,-1111 -782,-1189 -1035,-1574l0 1743z"/>
     <path class="fil10" d="M22909 10796l999 0c323,0 379,-106 310,-213 -908,-1405 -989,-1504 -1309,-1990l0 2203z"/>
     <path class="fil10" d="M22909 11575l1118 0c362,0 425,-119 347,-239 -1016,-1572 -1107,-1683 -1465,-2228l0 2467z"/>
    </g>
   </g>
  </g>
  <g id="_378494088">
   <polygon class="fil11" points="24230,9360 24380,9089 24547,9360 24547,11599 24230,11599 "/>
   <g>
    <g>
     <path class="fil11" d="M24380 10394l-591 0c-192,0 -225,-63 -184,-127 538,-831 586,-890 775,-1178l0 1305z"/>
     <path class="fil11" d="M24380 11016l-748 0c-241,0 -283,-80 -232,-160 680,-1051 741,-1126 980,-1490l0 1650z"/>
     <path class="fil11" d="M24380 11599l-837 0c-271,0 -318,-89 -260,-179 761,-1177 829,-1260 1097,-1668l0 1847z"/>
    </g>
    <g>
     <path class="fil10" d="M24380 10394l591 0c191,0 224,-63 183,-127 -537,-831 -585,-890 -774,-1178l0 1305z"/>
     <path class="fil10" d="M24380 11016l747 0c242,0 284,-80 232,-160 -679,-1051 -740,-1126 -979,-1490l0 1650z"/>
     <path class="fil10" d="M24380 11599l836 0c271,0 318,-89 260,-179 -761,-1177 -829,-1260 -1096,-1668l0 1847z"/>
    </g>
   </g>
  </g>
  <g id="_378489192">
   <g>
    <ellipse class="fil10" cx="25876" cy="10156" rx="515" ry="714"/>
    <path class="fil11" d="M25876 10870c-284,0 -514,-320 -514,-714 0,-394 230,-713 514,-713l0 1427z"/>
   </g>
   <rect class="fil12" x="25805" y="10448" width="142" height="1820" rx="71" ry="71"/>
  </g>
  <g id="_378488256">
   <g>
    <ellipse class="fil10" cx="27145" cy="9656" rx="515" ry="714"/>
    <path class="fil11" d="M27145 10370c-284,0 -515,-320 -515,-714 0,-394 231,-713 515,-713l0 1427z"/>
   </g>
   <rect class="fil12" x="27074" y="9948" width="142" height="1820" rx="71" ry="71"/>
  </g>
  <g id="_378498264">
   <polygon class="fil11" points="4352,8044 4593,7610 4860,8044 4860,11632 4352,11632 "/>
   <g>
    <g>
     <path class="fil11" d="M4593 9701l-948 0c-306,0 -360,-101 -294,-203 861,-1333 939,-1427 1242,-1888l0 2091z"/>
     <path class="fil11" d="M4593 10698l-1198 0c-388,0 -455,-128 -372,-257 1089,-1684 1187,-1803 1570,-2387l0 2644z"/>
     <path class="fil11" d="M4593 11632l-1341 0c-434,0 -510,-143 -417,-287 1220,-1886 1329,-2019 1758,-2672l0 2959z"/>
    </g>
    <g>
     <path class="fil10" d="M4593 9701l947 0c306,0 360,-101 294,-203 -861,-1333 -939,-1427 -1241,-1888l0 2091z"/>
     <path class="fil10" d="M4593 10698l1197 0c388,0 455,-128 372,-257 -1089,-1684 -1186,-1803 -1569,-2387l0 2644z"/>
     <path class="fil10" d="M4593 11632l1340 0c434,0 510,-143 417,-287 -1220,-1886 -1329,-2019 -1757,-2672l0 2959z"/>
    </g>
   </g>
  </g>
  <g id="_378496296">
   <g>
    <ellipse class="fil10" cx="3521" cy="9330" rx="736" ry="1021"/>
    <path class="fil11" d="M3521 10352c-406,0 -736,-458 -736,-1022 0,-564 330,-1021 736,-1021l0 2043z"/>
   </g>
   <rect class="fil12" x="3420" y="9748" width="203" height="2605" rx="102" ry="102"/>
  </g>
  <g id="_378498432">
   <polygon class="fil11" points="6474,8044 6714,7610 6982,8044 6982,11632 6474,11632 "/>
   <g>
    <g>
     <path class="fil11" d="M6714 9701l-947 0c-307,0 -360,-101 -294,-203 861,-1333 938,-1427 1241,-1888l0 2091z"/>
     <path class="fil11" d="M6714 10698l-1197 0c-388,0 -455,-128 -372,-257 1089,-1684 1186,-1803 1569,-2387l0 2644z"/>
     <path class="fil11" d="M6714 11632l-1341 0c-433,0 -509,-143 -416,-287 1219,-1886 1328,-2019 1757,-2672l0 2959z"/>
    </g>
    <g>
     <path class="fil10" d="M6714 9701l948 0c306,0 360,-101 294,-203 -862,-1333 -939,-1427 -1242,-1888l0 2091z"/>
     <path class="fil10" d="M6714 10698l1198 0c387,0 455,-128 372,-257 -1089,-1684 -1187,-1803 -1570,-2387l0 2644z"/>
     <path class="fil10" d="M6714 11632l1341 0c434,0 510,-143 416,-287 -1219,-1886 -1328,-2019 -1757,-2672l0 2959z"/>
    </g>
   </g>
  </g>
  <polygon class="fil13" points="0,11540 29700,11540 29700,21000 0,21000 "/>
  <polygon class="fil14" points="0,13144 29700,13144 29700,20500 0,20500 "/>
  <polygon class="fil15" points="0,15489 29700,15489 29700,21006 0,21006 "/>
  <g id="_500765160_0">
  </g>
  <g id="_500765448_1">
  </g>
  <g id="_500765376_2">
  </g>
  <g id="_500765472_3">
  </g>
  <g id="_500765832_4">
  </g>
  <g id="_500766216_5">
  </g>
  <g id="_500765112_6">
  </g>
  <g id="_500766384_7">
  </g>
  <g id="_500766336_8">
  </g>
  <g id="_500766960_9">
  </g>
  <g id="_500766816_10">
  </g>
  <g id="_500764584_11">
  </g>
  <g id="_500767080_12">
  </g>
  <g id="_500762832_13">
  </g>
  <g id="_500763336_14">
  </g>
  <path class="fil16" d="M21285 15794c19,32 -6,88 38,119 107,76 333,125 489,202 175,64 321,71 544,304 104,345 -1165,219 -1301,215 -141,-6 -224,-24 -289,-45 -174,-54 -143,-273 -146,-343 6,-66 52,-350 78,-397 81,-97 407,-352 548,-297 30,18 -2,172 39,242z"/>
  <path class="fil17" d="M21106 15929c21,35 -6,95 41,129 116,81 360,135 528,218 190,69 347,77 588,329 113,372 -1258,236 -1405,231 -153,-6 -243,-26 -313,-48 -188,-58 -154,-295 -158,-370 7,-72 57,-379 85,-430 87,-105 439,-379 592,-320 32,19 -2,186 42,261z"/>
  <path class="fil18" d="M19304 13760c-1696,-41 -1437,-183 -2209,46 -24,-263 -33,-665 -159,-1486 -32,-214 -305,-994 -363,-1239 -74,-308 -152,-619 -108,-810 47,-230 462,-635 586,-770 169,-112 338,-123 561,-113 115,5 225,26 332,60 34,-85 47,16 72,25 693,266 1194,1136 1257,2257 54,989 28,1437 -4,1768 -24,257 41,217 35,262z"/>
  <path class="fil0" d="M18329 10598c40,37 183,94 248,106 -33,-174 63,-292 -69,-484 -283,-407 -354,-680 -525,-797 -140,-95 -359,-82 -692,12 -151,43 -168,-62 -219,104 305,185 1007,985 1257,1059z"/>
  <g id="_378660168">
   <polygon class="fil19" points="18441,9685 17965,9402 17965,9402 18355,10232 18355,10232 "/>
   <polygon class="fil19" points="18614,10052 18138,9770 18138,9770 18577,10704 "/>
  </g>
  <path class="fil20" d="M16972 8444l936 -78 66 1057c-22,95 -554,395 -923,78l-79 -1057z"/>
  <ellipse class="fil21" transform="matrix(1.2865 -0.107013 0.0996963 1.19854 17519.6 7903.31)" rx="935" ry="1023"/>
  <path class="fil19" d="M17362 7894l-102 -1227c218,-8 337,-180 825,-135 -293,28 -270,187 -178,172 144,-25 484,-60 603,-1 -188,59 15,51 140,228 -353,5 278,17 64,796 -28,-127 -222,-301 -168,-246 0,0 44,79 -7,211 -155,-222 -493,-43 -795,-67 -369,-29 -658,-152 -680,-188 -248,165 -436,194 -553,515 -14,-18 -46,499 54,658 21,35 -105,-12 -233,-431 -27,-110 -135,-804 266,-1122 -170,-78 -274,-217 -196,-319 221,339 637,-53 858,-71l102 1227z"/>
  <g id="_378662712">
   <polygon class="fil22" points="17278,10214 17051,9501 17051,9501 18024,10268 18024,10268 "/>
   <polygon class="fil22" points="17708,10553 17481,9840 17481,9840 18577,10704 "/>
  </g>
  <rect class="fil23" x="18676" y="14594" width="484" height="2627"/>
  <rect class="fil11" x="18980" y="14594" width="179" height="2627"/>
  <rect class="fil23" x="16700" y="14596" width="484" height="2627"/>
  <rect class="fil11" x="17004" y="14596" width="179" height="2627"/>
  <path class="fil24" d="M19470 14068l-5 359c-2,114 -62,207 -138,207l-2794 0c-76,0 -138,-93 -138,-207l0 -334c0,-167 819,-220 1602,-231 866,-13 1476,37 1473,206z"/>
  <path class="fil25" d="M17497 13209c1236,0 2498,-162 3420,24 381,77 419,1806 485,2723l-695 143 -362 -1872c-1562,34 -3084,601 -2848,-1018z"/>
  <path class="fil26" d="M17069 13183c1291,0 2563,-303 3772,68 306,94 237,1848 306,2807l-726 143 -377 -1956c-1633,36 -3222,628 -2975,-1062z"/>
  <circle class="fil0" transform="matrix(-1.09693 -0.435016 -0.435016 1.09693 12936.9 12970)" r="133"/>
  <path class="fil27" d="M13581 15994c70,116 365,197 595,309 196,94 449,200 477,290 77,250 10,285 -382,274 -214,-5 -527,-15 -967,-29 -148,-6 -235,-25 -303,-47 -181,-55 -150,-285 -154,-358 -2,-68 6,-476 48,-526 83,-103 458,-258 605,-201 115,44 38,215 81,288z"/>
  <polygon class="fil16" points="12686,12093 14159,12137 13581,15994 12874,15972 "/>
  <g id="_378652032">
   <path class="fil0" d="M16206 7142l541 -117 -29 -9c0,0 -258,16 -451,30 -23,37 -45,69 -61,96z"/>
   <path class="fil0" d="M15677 7197c0,0 1,-1 1,-1 -1,1 -1,1 -1,1l429 -92 1 1 -3 -48c-21,1 -36,3 -39,3 -161,10 -293,-91 -302,-99 -36,-38 -97,-55 -155,-40 -41,10 -76,33 -98,66 -23,33 -31,73 -22,110 3,12 8,24 15,35 33,55 104,81 174,64zm-135 -89c-4,-7 -8,-14 -9,-22 -7,-23 -1,-50 15,-72 15,-24 41,-40 71,-48 50,-12 101,6 124,43 4,8 6,15 8,23 7,25 2,50 -14,72 -16,23 -42,41 -71,48 -50,13 -101,-5 -124,-44z"/>
   <path class="fil0" d="M15838 7469c2,0 2,0 2,0 -1,-1 -2,0 -2,0l291 -329 4 1 36 25c-12,17 -20,29 -22,32 -86,138 -63,301 -61,312 15,52 0,112 -43,156 -29,30 -66,48 -106,51 -40,4 -78,-9 -105,-35 -10,-9 -18,-19 -23,-30 -32,-56 -19,-131 29,-183zm10 161c4,7 9,13 14,18 19,18 45,26 71,23 29,-1 56,-15 78,-37 35,-37 45,-91 24,-129 -4,-7 -10,-13 -15,-20 -19,-17 -44,-25 -71,-23 -28,3 -55,16 -77,38 -36,39 -45,91 -24,130z"/>
   <path class="fil0" d="M16143 7204l4 -6c17,-19 352,-555 352,-555l5 -29 -381 443 6 83 -74 84c42,-5 55,-14 88,-20zm17 -148c11,-7 26,-3 33,9 15,28 -25,51 -43,25 -6,-12 -2,-27 10,-34z"/>
  </g>
  <path class="fil21" d="M15883 6814c-219,-27 -419,129 -446,350 -27,219 130,418 349,445 48,6 95,3 140,-8 -65,-82 -90,-158 -84,-283 3,-71 34,-154 62,-204 27,-51 123,-138 178,-178 -10,-22 -49,-103 -199,-122z"/>
  <path class="fil21" d="M14823 8433c63,-283 527,-679 695,-1114l304 88c-154,777 -523,1508 -930,1778 -122,1 -423,-264 -729,-297 -374,-40 -670,102 -959,-60 -320,-177 -504,-575 -188,-823 265,-209 602,76 1228,257 365,105 507,123 579,171z"/>
  <path class="fil28" d="M14823 8441c-121,344 69,701 69,744 -280,-21 -1330,-303 -1778,-722 -274,-255 -359,-694 15,-862 314,-141 577,223 1153,556 335,194 501,220 541,284z"/>
  <path class="fil29" d="M14218 12158c-2268,955 -1507,592 -2113,-64 8,-256 142,-1033 113,-1836 -8,-211 -182,-992 -211,-1233 -37,-304 -77,-612 -13,-791 71,-215 515,-558 650,-674 175,-90 339,-81 552,-46 109,18 213,49 312,94 43,-78 44,20 66,33 637,334 1022,1225 957,2311 -58,957 -134,1386 -202,1700 -51,245 -101,463 -111,506z"/>
  <path class="fil30" d="M13000 15996c70,115 365,197 595,308 196,95 448,201 476,291 78,250 11,284 -381,274 -214,-5 -527,-15 -967,-30 -148,-5 -236,-24 -303,-46 -181,-55 -151,-286 -154,-358 -2,-68 6,-476 47,-526 83,-103 459,-259 606,-202 114,45 38,216 81,289z"/>
  <polygon class="fil17" points="12105,12094 13578,12139 13000,15996 12293,15973 "/>
  <path class="fil0" d="M13620 7665c321,138 658,675 620,932 -280,-100 -453,226 -840,116 -358,-327 -786,-1061 -756,-1153l-219 183c654,544 1315,3081 -203,2763 -1,80 -2,139 -4,206 1235,454 276,2162 245,2313l1555 51c806,-2845 696,-4843 -398,-5411z"/>
  <g id="_500762472">
   <path class="fil20" d="M12687 6534l908 30 -54 1023c-32,90 -578,318 -897,-27l43 -1026z"/>
   <g>
    <ellipse class="fil21" transform="matrix(1.2494 0.041335 -0.0385094 1.16398 13273.5 6074.87)" rx="935" ry="1023"/>
    <path class="fil19" d="M13344 4659c672,23 654,412 1357,195 59,1589 -1431,626 -1644,736 -258,131 39,379 -264,469 -40,12 -121,92 -109,302 8,149 -86,-425 -301,-316 -148,75 -116,377 -14,434 44,25 -113,144 -183,35 -522,-810 297,-1884 1158,-1855z"/>
    <path class="fil19" d="M12683 6313c4,155 632,810 1455,499 52,-20 126,-107 116,-90 -115,218 -66,449 -226,590 -205,180 -731,130 -952,-2 -428,-255 -300,-646 -418,-987 21,-3 19,1 25,-10z"/>
    <path class="fil19" d="M13325 6636c148,419 398,299 563,152 -145,-346 -375,-101 -563,-152z"/>
    <path class="fil19" d="M14283 6677c-145,408 -342,274 -466,118 138,-336 310,-79 466,-118z"/>
   </g>
  </g>
  <path class="fil21" d="M13625 9522c115,-90 652,-126 1150,-230 366,-76 660,-197 685,-162l211 293c11,17 -529,354 -678,421 -336,148 -744,303 -1707,388 -226,-180 -1031,-872 -1270,-1470 -146,-362 -32,-816 397,-810 361,5 450,468 846,1039 233,332 339,443 366,531z"/>
  <path class="fil28" d="M13664 9517c-277,261 -237,715 -378,715 -261,-147 -1042,-868 -1285,-1476 -149,-370 -33,-833 405,-827 367,6 457,477 863,1060 236,340 472,457 395,528z"/>
  <g id="_500765040">
   <path class="fil28" d="M13122 7976c-136,-78 -362,-276 -478,-416 124,123 451,189 720,137l-242 279z"/>
   <path class="fil28" d="M13748 7864c-99,-182 -188,-271 -207,-284 -68,73 -117,90 -177,117l384 167z"/>
  </g>
  <path class="fil0" d="M13424 12130c-220,-201 -697,-398 -39,-741 118,-62 345,23 647,-147 488,-273 344,616 64,834 -143,111 -580,160 -672,54z"/>
  <path class="fil28" d="M13558 11246l196 517 -24 -19c0,0 -126,-226 -219,-395 18,-39 34,-75 47,-103z"/>
  <path class="fil0" d="M13015 11343c114,-260 1648,151 832,735 -467,333 -907,-434 -836,-710 1,-1 5,-29 4,-25z"/>
  <path class="fil28" d="M14216 11112c-317,-11 -634,-21 -951,-32 -234,805 1145,851 951,32z"/>
  <path class="fil29" d="M16166 14398c402,-1381 68,-3164 293,-4150 47,-231 280,-605 592,-747 172,103 827,81 921,-113 695,34 1069,846 1473,1636 502,982 964,1993 1127,2158 -1322,0 -2241,1669 -4406,1216z"/>
  <path class="fil19" d="M17403 7967l0 -1195c675,0 1129,405 1255,814 -216,-393 -596,-445 -1066,-420 -170,9 -383,287 -528,271 -52,45 -128,388 -367,553 -266,184 -90,742 28,837 -409,-367 -413,-699 -413,-944 0,-320 211,-603 482,-821 177,-143 352,-290 609,-290l0 1195z"/>
  <g id="_498465232">
   <path class="fil0" d="M16505 8636c7,18 11,38 -7,45 -1,1 -4,2 -11,5 -5,2 -11,4 -19,8l-603 243 -30 -73 7 -3 -66 -162 24 -10 65 162 20 -8 -65 -162 24 -10 65 163 19 -8 -64 -162 22 -10 65 163 20 -9 -65 -162 23 -9 65 162 20 -7 -65 -162 23 -10 66 162 19 -8 -64 -162 23 -10 65 162 20 -8 -66 -162 25 -9 64 162 21 -8 -65 -163 23 -9 66 162 20 -8 -66 -162 24 -10 65 162 16 -6 -64 -162 22 -9 66 161 20 -8 -66 -162 24 -9 65 162 21 -9 -66 -162 24 -8 65 162 19 -8 -65 -162 24 -10 64 162 21 -9 -65 -162 24 -8 66 162 11 -5c8,-4 12,-5 12,-5 0,0 -49,-124 -56,-143 -8,-18 -5,-35 24,-43 9,23 81,188 87,206z"/>
   <path class="fil0" d="M15363 9098c7,18 19,34 37,27 0,0 4,-2 11,-3 4,-2 11,-5 19,-8l603 -245 -30 -73 -7 2 -66 -162 -23 10 66 162 -21 8 -64 -162 -24 10 66 162 -20 8 -66 -163 -23 10 64 162 -18 7 -66 -161 -23 9 65 162 -20 9 -64 -163 -24 10 65 162 -20 9 -66 -164 -23 10 65 162 -19 8 -66 -162 -23 10 66 162 -21 8 -66 -161 -23 9 65 162 -19 8 -66 -163 -24 10 66 162 -16 7 -66 -162 -23 9 65 163 -20 8 -64 -162 -24 10 65 161 -20 9 -65 -163 -24 10 65 161 -19 8 -66 -161 -23 9 66 162 -21 9 -66 -162 -23 9 65 163 -12 5c-8,2 -12,3 -12,3 0,0 -50,-123 -57,-141 -8,-18 -23,-29 -49,-14 9,23 74,192 81,209z"/>
  </g>
  <path class="fil21" d="M16149 8963c29,234 -137,447 -372,476 -234,29 -448,-139 -477,-373 -6,-51 -2,-102 9,-150 88,70 169,96 302,90 76,-3 165,-36 218,-66 55,-29 148,-131 190,-190 24,11 110,52 130,213z"/>
  <path class="fil19" d="M15531 16951c295,203 448,81 769,100 -263,41 -573,358 -769,-100z"/>
  <path class="fil19" d="M16609 16965c-558,382 -847,153 -1453,188 496,78 1081,676 1453,-188z"/>
  <path class="fil19" d="M14499 17214c-358,23 -292,-163 -580,-50 164,120 274,231 580,50z"/>
  <path class="fil19" d="M14015 17068c342,-169 716,131 1189,-71 -122,149 -347,242 -683,186 -230,-39 -270,-152 -506,-115z"/>
  <path class="fil19" d="M14499 17272c427,28 480,-68 731,-17 -121,68 -441,200 -731,17z"/>
  <path class="fil19" d="M15173 17379c260,14 236,-74 445,-8 -119,70 -223,114 -445,8z"/>
  <g id="_378856704">
   <rect class="fil9" x="1285" y="2638" width="7260" height="1046" rx="2664" ry="1352"/>
   <ellipse class="fil9" cx="3166" cy="2674" rx="1136" ry="513"/>
   <ellipse class="fil9" cx="6618" cy="2783" rx="1136" ry="513"/>
   <ellipse class="fil9" cx="5210" cy="2519" rx="1527" ry="820"/>
  </g>
  <g id="_378845112">
   <rect class="fil9" x="22415" y="1563" width="5402" height="778" rx="1982" ry="1006"/>
   <ellipse class="fil9" cx="23815" cy="1590" rx="845" ry="381"/>
   <ellipse class="fil9" cx="26383" cy="1671" rx="845" ry="381"/>
   <ellipse class="fil9" cx="25335" cy="1474" rx="1136" ry="611"/>
  </g>
  <g id="_378844128">
   <rect class="fil9" x="20802" y="1828" width="3377" height="487" rx="1239" ry="629"/>
   <ellipse class="fil9" cx="21677" cy="1844" rx="529" ry="238"/>
   <ellipse class="fil9" cx="23283" cy="1895" rx="529" ry="238"/>
   <ellipse class="fil9" cx="22628" cy="1772" rx="710" ry="382"/>
  </g>
  <g id="_378834552">
   <rect class="fil9" x="23816" y="1948" width="5402" height="778" rx="1982" ry="1006"/>
   <ellipse class="fil9" cx="25216" cy="1975" rx="845" ry="381"/>
   <ellipse class="fil9" cx="27785" cy="2056" rx="845" ry="381"/>
   <ellipse class="fil9" cx="26737" cy="1859" rx="1136" ry="611"/>
  </g>
  <g id="_378839256">
   <rect class="fil9" x="3866" y="3473" width="5319" height="766" rx="1951" ry="990"/>
   <ellipse class="fil9" cx="5244" cy="3499" rx="832" ry="375"/>
   <ellipse class="fil9" cx="7773" cy="3579" rx="832" ry="375"/>
   <ellipse class="fil9" cx="6741" cy="3385" rx="1119" ry="601"/>
  </g>
  <g id="_378841752">
   <rect class="fil9" x="6942" y="1009" width="2092" height="354" rx="768" ry="457"/>
   <ellipse class="fil9" cx="7484" cy="1021" rx="327" ry="173"/>
   <ellipse class="fil9" cx="8479" cy="1058" rx="327" ry="173"/>
   <ellipse class="fil9" cx="8073" cy="969" rx="440" ry="277"/>
  </g>
  <g id="_378833184">
   <rect class="fil9" x="17995" y="1185" width="1845" height="266" rx="677" ry="343"/>
   <ellipse class="fil9" cx="18473" cy="1194" rx="289" ry="130"/>
   <ellipse class="fil9" cx="19350" cy="1222" rx="289" ry="130"/>
   <ellipse class="fil9" cx="18993" cy="1154" rx="388" ry="208"/>
  </g>
  <g id="_378832416">
   <rect class="fil9" x="14508" y="2656" width="4286" height="618" rx="1572" ry="798"/>
   <ellipse class="fil9" cx="17683" cy="2677" rx="671" ry="303"/>
   <ellipse class="fil9" cx="15645" cy="2742" rx="671" ry="303"/>
   <ellipse class="fil9" cx="16477" cy="2586" rx="901" ry="484"/>
  </g>
  <g id="_378851712">
   <rect class="fil9" x="25743" y="3393" width="3463" height="499" rx="1271" ry="645"/>
   <ellipse class="fil9" cx="26641" cy="3410" rx="542" ry="245"/>
   <ellipse class="fil9" cx="28287" cy="3462" rx="542" ry="245"/>
   <ellipse class="fil9" cx="27615" cy="3336" rx="728" ry="391"/>
  </g>
  <g id="_378848856">
   <rect class="fil9" x="1197" y="4420" width="2457" height="354" rx="901" ry="457"/>
   <ellipse class="fil9" cx="1834" cy="4433" rx="384" ry="173"/>
   <ellipse class="fil9" cx="3002" cy="4469" rx="384" ry="173"/>
   <ellipse class="fil9" cx="2525" cy="4380" rx="517" ry="278"/>
  </g>
  <g id="_376279096">
   <rect class="fil9" x="21596" y="3121" width="2490" height="359" rx="914" ry="464"/>
   <ellipse class="fil9" cx="22241" cy="3134" rx="390" ry="176"/>
   <ellipse class="fil9" cx="23425" cy="3171" rx="390" ry="176"/>
   <ellipse class="fil9" cx="22942" cy="3080" rx="524" ry="281"/>
  </g>
  <polygon class="fil12" points="2272,12740 2475,12441 2677,12740 2677,15489 2272,15489 "/>
  <polygon class="fil12" points="27428,12739 27226,12440 27023,12739 27023,15488 27428,15488 "/>
  <polygon class="fil12" points="3509,12740 3712,12441 3914,12740 3914,15489 3509,15489 "/>
  <polygon class="fil12" points="26191,12739 25989,12440 25786,12739 25786,15488 26191,15488 "/>
  <polygon class="fil12" points="4746,12740 4949,12441 5152,12740 5152,15489 4746,15489 "/>
  <polygon class="fil12" points="24954,12739 24752,12440 24549,12739 24549,15488 24954,15488 "/>
  <polygon class="fil12" points="5983,12740 6186,12441 6389,12740 6389,15489 5983,15489 "/>
  <polygon class="fil12" points="23717,12739 23514,12440 23312,12739 23312,15488 23717,15488 "/>
  <polygon class="fil12" points="7221,12740 7423,12441 7626,12740 7626,15489 7221,15489 "/>
  <polygon class="fil12" points="22480,12739 22277,12440 22075,12739 22075,15488 22480,15488 "/>
  <polygon class="fil12" points="0,12442 0,12441 203,12740 203,15489 0,15489 "/>
  <polygon class="fil12" points="29700,12440 29700,12440 29497,12739 29497,15488 29700,15488 "/>
  <polygon class="fil12" points="1035,12740 1238,12441 1440,12740 1440,15489 1035,15489 "/>
  <polygon class="fil12" points="28665,12739 28463,12440 28260,12739 28260,15488 28665,15488 "/>
  <polygon class="fil12" points="0,13145 7626,13145 7626,13348 0,13348 "/>
  <polygon class="fil12" points="29700,13144 22075,13144 22075,13346 29700,13346 "/>
  <polygon class="fil12" points="0,14882 7382,14882 7382,15085 0,15085 "/>
  <polygon class="fil12" points="29700,14881 22318,14881 22318,15083 29700,15083 "/>
 </g>
</svg>
