<?xml version="1.0" encoding="UTF-8"?>
<!DOCTYPE svg PUBLIC "-//W3C//DTD SVG 1.1//EN" "http://www.w3.org/Graphics/SVG/1.1/DTD/svg11.dtd">
<!-- Creator: CorelDRAW X7 -->
<svg xmlns="http://www.w3.org/2000/svg" xml:space="preserve" width="297mm" height="210mm" version="1.1" style="shape-rendering:geometricPrecision; text-rendering:geometricPrecision; image-rendering:optimizeQuality; fill-rule:evenodd; clip-rule:evenodd"
viewBox="0 0 29700 21000"
 xmlns:xlink="http://www.w3.org/1999/xlink">
 <defs>
  <style type="text/css">
   <![CDATA[
    .str0 {stroke:#CF892D;stroke-width:84.66}
    .str1 {stroke:#E3AC64;stroke-width:20}
    .str2 {stroke:#BD6B00;stroke-width:7.62}
    .fil24 {fill:none}
    .fil3 {fill:#663399}
    .fil23 {fill:#A8793B}
    .fil1 {fill:#AB6811}
    .fil4 {fill:#BA6900}
    .fil18 {fill:#BA7418}
    .fil27 {fill:#BD6B00}
    .fil17 {fill:#CF8423}
    .fil2 {fill:#CF892D}
    .fil21 {fill:#CF892D}
    .fil12 {fill:#DB7C00}
    .fil14 {fill:#E3AC64}
    .fil16 {fill:#E68200}
    .fil6 {fill:#EB8500}
    .fil25 {fill:#EB8603}
    .fil15 {fill:#EB9D36}
    .fil10 {fill:#F0B17E}
    .fil20 {fill:#F0F0F0}
    .fil28 {fill:#F5B767}
    .fil13 {fill:#F5C280}
    .fil8 {fill:#F78C00}
    .fil19 {fill:#FF9100}
    .fil7 {fill:#FF9101}
    .fil5 {fill:#FFA530}
    .fil9 {fill:#FFCC99}
    .fil26 {fill:#FFCE9D}
    .fil0 {fill:#FFE0B8}
    .fil11 {fill:white}
    .fil22 {fill:white}
   ]]>
  </style>
 </defs>
 <g id="Слой_x0020_1">
  <metadata id="CorelCorpID_0Corel-Layer"/>
  <polygon class="fil0" points="16,21000 29676,21000 29676,0 16,0 "/>
  <path class="fil1" d="M9776 5735l2722 0c539,0 915,307 980,675l585 3284c222,1245 -6052,1077 -5860,10l592 -3294c66,-368 441,-675 981,-675z"/>
  <path class="fil2" d="M10737 6154c-311,847 -1253,241 -1348,-173 725,127 0,-2027 1125,-2566 159,-252 30,1552 117,1231 690,535 417,661 106,1508z"/>
  <path class="fil2" d="M11495 6148c310,847 1253,241 1348,-173 -725,127 0,-2027 -1126,-2566 -159,-252 -29,1552 -116,1231 -690,535 -417,661 -106,1508z"/>
  <path class="fil3" d="M10520 6341c68,6 321,17 588,40l0 238c-270,0 -541,0 -811,0 79,-76 142,-155 193,-240 10,-12 20,-25 30,-38zm588 40c320,27 659,70 720,141l1 1c27,32 57,64 90,96 -271,0 -541,0 -811,0l0 -238z"/>
  <polygon class="fil4" points="10341,6271 11864,6271 11919,6965 10426,6923 "/>
  <path class="fil5" d="M10275 8966c-559,-120 -694,-319 -795,-339 -413,-86 529,-1057 734,-1070 172,-12 209,119 206,103 83,-251 227,-1005 18,-1202 -410,230 -638,213 -794,291 -384,150 -70,762 -1125,1809 -35,529 322,408 1756,408z"/>
  <path class="fil6" d="M13234 8808c-728,-251 -1099,-1238 -1304,-1251 -172,-12 -209,119 -206,103 -99,-300 -159,-996 115,-1159 83,121 534,183 661,248 384,150 70,762 1125,1809 366,-325 420,529 -391,250z"/>
  <path class="fil7" d="M10577 6761l242 0 291 0 0 3731 -1379 0c20,-46 579,-1747 448,-1919 -448,-589 -133,-1716 398,-1812l0 0z"/>
  <path class="fil8" d="M11634 6761l-243 0 -290 0 0 3731 1378 0c-19,-46 -578,-1747 -447,-1919 447,-589 132,-1716 -398,-1812l0 0z"/>
  <path class="fil9" d="M10520 6341c148,13 1197,51 1308,181 10,11 110,114 278,99l49 223 -311 161 30 441 -1422 -36c0,-84 99,-426 -111,-559 -146,-92 -276,-217 -221,-232 289,-78 279,-129 400,-278z"/>
  <path class="fil9" d="M10651 5490l457 0 0 1129c-270,0 -541,0 -811,0 295,-288 384,-608 354,-1129zm914 0l-457 0 0 1129c270,0 540,0 811,0 -295,-288 -385,-608 -354,-1129z"/>
  <path class="fil10" d="M11574 5561c-20,72 -34,162 -72,216 -108,152 -196,258 -352,344 -190,-79 -322,-215 -756,-831 489,494 559,405 900,432l-20 -488 20 488c79,-40 206,-116 280,-161z"/>
  <path class="fil9" d="M11150 3371l0 0 0 2557c-658,-198 -947,-746 -1007,-1351 -65,-664 451,-1206 1007,-1206zm1 0l-1 0 0 2557c658,-198 948,-746 1008,-1351 65,-664 -451,-1206 -1007,-1206z"/>
  <path class="fil2" d="M11164 3186c585,0 1073,633 996,1368 -188,-572 -1394,385 -1820,-634 -129,100 -211,328 -195,676 -125,-965 433,-1410 1019,-1410z"/>
  <polygon class="fil11" points="10406,7084 11851,7084 11110,8236 "/>
  <polygon class="fil12" points="10341,6271 10715,7228 9906,6850 "/>
  <polygon class="fil12" points="11864,6271 11496,7227 12303,6850 "/>
  <polygon class="fil12" points="10495,6657 11110,8236 11110,8236 10171,7524 "/>
  <polygon class="fil12" points="11714,6657 11110,8236 12038,7524 "/>
  <polygon class="fil13" points="16,21000 29676,21000 29676,13591 16,13591 "/>
  <ellipse class="fil14" cx="12448" cy="16395" rx="9639" ry="2466"/>
  <rect class="fil15" x="8286" y="13730" width="407" height="1656"/>
  <rect class="fil15" x="13630" y="13730" width="407" height="1656"/>
  <g id="_272058080">
   <path class="fil10" d="M10729 14637c113,3 182,15 245,108 62,90 119,260 137,359 22,130 13,247 -75,331 -80,77 -177,3 -296,3 -101,0 -206,87 -281,29 -110,-84 -139,-137 -139,-288 0,-36 11,-103 21,-140 26,-93 32,-234 95,-294 88,-83 195,-111 293,-108z"/>
   <path class="fil16" d="M10278 15422c305,0 547,-14 852,-14 -169,711 -612,716 -852,14z"/>
   <path class="fil16" d="M10816 15333c1,32 -243,590 -380,416 -292,-368 -179,-819 -8,-1004 0,0 -256,536 388,588z"/>
   <path class="fil16" d="M10587 15337c-1,31 243,589 380,416 292,-369 179,-820 7,-1004 0,0 257,535 -387,588z"/>
  </g>
  <g id="_671884976">
   <path class="fil10" d="M11708 14637c113,3 182,15 245,108 62,90 120,260 137,359 22,130 14,247 -75,331 -80,77 -177,3 -296,3 -101,0 -206,87 -281,29 -110,-84 -138,-137 -138,-288 0,-36 10,-103 20,-140 26,-93 32,-234 95,-294 88,-83 195,-111 293,-108z"/>
   <path class="fil16" d="M11257 15422c305,0 547,-14 852,-14 -169,711 -612,716 -852,14z"/>
   <path class="fil16" d="M11795 15333c1,32 -243,590 -380,416 -292,-368 -179,-819 -7,-1004 0,0 -257,536 387,588z"/>
   <path class="fil16" d="M11566 15337c-1,31 243,589 380,416 292,-369 179,-820 8,-1004 0,0 256,535 -388,588z"/>
  </g>
  <rect class="fil17" x="4285" y="8966" width="13753" height="6023"/>
  <polygon class="fil18" points="4889,14989 17434,9399 4285,8966 "/>
  <rect class="fil15" transform="matrix(0.146848 -0.406168 -0.312936 -0.11314 18465.8 17051.7)" width="7832" height="891" rx="446" ry="446"/>
  <rect class="fil15" transform="matrix(-0.146848 -0.406168 0.312936 -0.11314 23081.7 17051.7)" width="7832" height="891" rx="446" ry="446"/>
  <rect class="fil15" transform="matrix(-0.021827 -0.492627 0.332336 -0.0192059 20976.5 17823.9)" width="7832" height="891" rx="446" ry="446"/>
  <rect class="fil15" transform="matrix(0.0116555 -0.350403 0.332873 0.00241126 20276.5 16553.6)" width="7832" height="891" rx="446" ry="446"/>
  <path class="fil1" d="M21651 9669c1238,-274 1586,-35 1657,483 98,725 -23,1729 -13,2526 23,1879 -3717,1511 -4948,1059 -245,-90 -397,-282 -398,-354 -9,-385 1355,-345 1770,-835 381,-449 478,-720 689,-1300 170,-467 686,-1455 1243,-1579z"/>
  <rect class="fil1" x="4049" y="9060" width="14225" height="339"/>
  <rect class="fil15" x="4049" y="8808" width="14225" height="315"/>
  <rect class="fil15" transform="matrix(2.38157E-014 -0.225935 0.0683736 4.54983E-016 4285.17 16249.6)" width="30321" height="8837"/>
  <rect class="fil15" transform="matrix(2.38157E-014 -0.225935 0.0683736 4.54983E-016 17433.6 16249.6)" width="30321" height="8837"/>
  <path class="fil19" d="M16929 12247c623,3025 1210,3893 959,3996 -417,138 -837,498 -1379,538 -106,7 -72,275 244,269l1925 -35c0,0 70,-47 100,-190 20,-92 27,-232 -21,-304 -535,-805 -470,-2963 -514,-3450 -28,-319 1741,244 2846,-61 473,-130 586,-1068 224,-1168 -580,-161 -3721,-131 -4384,405z"/>
  <path class="fil20" d="M16929 12247c623,3025 1162,3917 911,4020 406,230 311,70 917,254 0,0 -454,-2783 -514,-3450 -28,-319 1741,244 2846,-61 473,-130 586,-1068 224,-1168 -580,-161 -3721,-131 -4384,405z"/>
  <g id="_372695808">
   <path class="fil21 str0" d="M7300 7960l-349 -699c8,-10 13,-22 13,-36 0,-32 -26,-58 -59,-58l-659 0c29,-10 49,-36 49,-68l0 0c0,-39 -31,-70 -70,-70l-26 0c38,-30 63,-77 63,-130 0,-90 -74,-164 -164,-164 -91,0 -165,74 -165,164 0,53 25,100 64,130l-26 0c-39,0 -71,31 -71,70l0 0c0,32 21,58 49,68l-652 0 0 -1 0 1 -7 0c-32,0 -58,26 -58,58 0,16 6,30 15,40l-352 706c-5,11 -7,23 -5,34 0,2 0,5 0,7 20,207 194,369 407,369 212,0 386,-162 406,-369 1,-2 0,-5 0,-7 2,-11 1,-23 -5,-34l-343 -687 664 0 0 1349 -544 0c-66,0 -119,53 -119,118 0,32 25,57 56,57l1371 0c31,0 56,-25 56,-57 0,-65 -53,-118 -118,-118l-544 0 0 -1349 658 0 -338 676c-5,11 -7,22 -5,34 0,2 0,4 0,6 20,208 194,370 407,370 212,0 387,-162 406,-370 1,-2 1,-4 0,-6 2,-12 1,-23 -5,-34zm-2279 12l276 -553 276 553 -552 0zm1602 -11l276 -553 276 553 -552 0z"/>
   <g>
   </g>
   <g>
   </g>
   <g>
   </g>
   <g>
   </g>
   <g>
   </g>
   <g>
   </g>
   <g>
   </g>
   <g>
   </g>
   <g>
   </g>
   <g>
   </g>
   <g>
   </g>
   <g>
   </g>
   <g>
   </g>
   <g>
   </g>
   <g>
   </g>
  </g>
  <path class="fil0" d="M5178 6955l172 0 -24 166c-52,1 -58,2 -58,2l-90 -168z"/>
  <path class="fil9" d="M14411 7333c717,-199 668,-77 1050,-701 -190,40 -462,170 -609,152 -303,-38 -469,94 -556,197 -29,34 -51,69 -64,103 -57,159 56,301 179,249z"/>
  <path class="fil6" d="M14586 7287c-153,238 -503,1101 -744,1440 -240,339 -1065,-57 -837,-157 227,-101 505,-303 1227,-1486 61,98 228,169 354,203z"/>
  <polygon class="fil22" points="10870,9075 12842,9075 12629,8808 11035,8808 "/>
  <path class="fil9" d="M10428 8562c744,26 668,-81 1185,436 -194,6 -489,-57 -627,-5 -286,108 -480,21 -587,-62 -189,-145 -127,-394 29,-369z"/>
  <path class="fil5" d="M10399 8931c-281,-40 -1217,73 -1628,-3 -143,-27 -216,-86 -235,-160 -37,-138 94,-312 282,-376 288,-98 234,3 1610,170 -64,97 -51,241 -29,369z"/>
  <rect class="fil23" x="25014" y="2085" width="3515" height="1467"/>
  <path class="fil24 str1" d="M26743 1299l481 679m-478 -679l-481 679"/>
  <g id="_629404448">
   <rect class="fil15" x="24838" y="1966" width="421" height="1797"/>
   <rect class="fil15" x="28233" y="1966" width="421" height="1797"/>
   <rect class="fil15" transform="matrix(5.89091E-014 -1.25754 1.2317 1.85339E-014 25156.4 2387.23)" width="335" height="2575"/>
   <rect class="fil15" transform="matrix(5.89091E-014 -1.25754 1.2317 1.85339E-014 25156.4 3762.49)" width="335" height="2575"/>
   <rect class="fil2" x="24838" y="1966" width="211" height="1797"/>
   <rect class="fil2" transform="matrix(3.35862E-014 -0.628769 1.40712 1.84776E-014 25030.6 2176.51)" width="335" height="2575"/>
  </g>
  <circle class="fil14" cx="26742" cy="1299" r="32"/>
  <path class="fil10" d="M18757 11893c-73,52 -210,231 -302,234 -91,3 31,-77 10,-163 -9,-36 -209,-99 -474,-61 -265,39 -249,-14 -70,-154 424,-331 852,-308 852,-308 573,-98 380,140 183,308 -80,67 -176,128 -199,144z"/>
  <path class="fil25" d="M20763 11029c-245,164 -379,243 -627,322 -284,91 -691,197 -1180,398 -29,-106 -82,-212 -183,-308 0,0 520,-540 785,-617 506,-146 137,-2324 872,-2573 585,-198 995,2332 333,2778z"/>
  <path class="fil19" d="M21905 7910l-957 0c0,0 -643,39 -834,604 -546,1625 145,3164 121,4019 734,0 803,342 2113,214 -72,-95 76,-599 46,-762 -214,-1129 405,-3269 22,-3676 -386,-410 -511,-399 -511,-399z"/>
  <polygon class="fil12" points="20435,7773 20530,8057 20229,8133 "/>
  <path class="fil4" d="M20765 8753c-60,-161 16,-881 26,-1015l-359 28 333 987z"/>
  <path class="fil10" d="M21270 6505c-323,48 -536,658 -585,1207 -6,64 92,108 88,169 -9,125 -110,580 -8,872 138,-155 481,-517 818,-717 128,-76 310,-99 322,-125 11,-24 -13,-10 -97,-179 -108,-217 -43,-945 -56,-1023 -83,-384 12,-278 -482,-204z"/>
  <path class="fil26" d="M21406 4942c-554,-217 -1207,123 -1460,760 -101,255 32,373 -23,833 -42,347 121,662 186,889 70,251 27,367 298,342 510,158 1291,-639 1543,-1276 253,-637 9,-1330 -544,-1548z"/>
  <path class="fil27" d="M22049 5201c-254,-271 -356,-127 -1070,-493 -715,-365 -1458,724 -1061,1087 131,-416 373,-375 619,-109 189,203 650,358 912,319 570,-84 854,-534 600,-804z"/>
  <path class="fil27" d="M21457 6137c12,77 33,241 154,398 -23,-635 457,-492 417,-602 -471,-1296 -617,-93 -571,204z"/>
  <path class="fil27 str2" d="M21814 5042c-333,-85 -629,30 -717,446 -16,72 499,-254 359,256 -22,82 159,259 134,346 -24,87 -109,252 12,423 121,171 233,36 149,356 -59,274 -59,353 -7,475 123,-674 552,-978 543,-1587 -3,-235 -154,-634 -473,-715z"/>
  <path class="fil5" d="M17606 12328c663,3215 1286,4137 1019,4247 -443,147 -889,529 -1466,571 -112,9 -76,293 260,287l2046 -37c0,0 74,-51 106,-202 21,-98 29,-247 -22,-324 -569,-855 -500,-3148 -546,-3666 -31,-339 1850,260 3024,-65 503,-138 623,-1135 238,-1242 -616,-170 -3954,-139 -4659,431z"/>
  <path class="fil11" d="M17606 12328c663,3215 1235,4163 968,4273 432,244 331,74 975,269 0,0 -482,-2958 -546,-3666 -31,-339 1850,260 3024,-65 503,-138 623,-1135 238,-1242 -616,-170 -3954,-139 -4659,431z"/>
  <path class="fil28" d="M19106 12051c-103,41 -317,214 -427,191 -109,-23 58,-82 58,-191 0,-44 -68,-105 -607,77 -326,111 -92,-119 136,-279 604,-425 990,-330 990,-330 709,48 411,276 128,418 -114,58 -247,102 -278,114z"/>
  <path class="fil5" d="M21742 11603c-339,125 -521,180 -839,202 -364,26 -879,34 -1519,132 -3,-134 -37,-275 -128,-418 0,0 1743,-817 2081,-832 338,-14 126,-1731 126,-1731 0,-300 -35,-729 682,-821 751,-97 514,3128 -403,3468z"/>
  <polygon class="fil4" points="21535,7710 21764,7564 21941,7919 21567,8060 "/>
  <polygon class="fil4" points="20765,8753 21149,7910 21484,8099 "/>
  <polygon class="fil12" points="21764,7564 21149,7910 21578,8186 "/>
 </g>
</svg>
