<svg xmlns="http://www.w3.org/2000/svg" viewBox="0 0 29700 21000" shape-rendering="geometricPrecision" text-rendering="geometricPrecision" image-rendering="optimizeQuality" fill-rule="evenodd" clip-rule="evenodd"><defs><style>.fil22{fill:#cf892d}.fil16{fill:#e38100}.fil18{fill:#f0b17e}.fil17{fill:#ff9100}.fil21{fill:#ffce9d}.fil13{fill:#fff}</style></defs><g id="Слой_x0020_1"><g id="_507558432"><path fill="#ffefd9" d="M0 0h29700v21000H0z"/><path fill="#ffddb0" d="M0 7761h29700v13239H0z"/><path d="M0 21000h29700v-9412c-312-92-1085 243-2023 250-1099 8-4444-790-5568-727-1860 104-2456 730-4496 743-2217 15-4279-758-5431-665-2166 175-3411 800-4903 737-3358-143-1700-594-7279-1356v10430z" fill="#ffd59e"/><path d="M0 21000h29700v-5422c-1863 184-1677-71-3373-284-819-103-2194 447-3417 491-3499 128-2855-1546-7817-748-5504 886-12871-657-15093 1250v4713z" fill="#f7cc94"/><path fill="#dbb88a" d="M22341 3561l508-590 454 498 292 4292h-1370z"/><path fill="#f7dab4" d="M15997 7761h6852V2934z"/><path fill="#f2d4ac" d="M29700 7761h-6851V2934z"/><path fill="#ffe9cc" d="M20518 4576l2331 771V2934z"/><path fill="#fce3c2" d="M25179 4576l-2330 771V2934z"/><path d="M0 7761h25167c-255-208-1866-677-3323-677-1718 0-2610-1155-4401-1222-679-26-2271-175-3184-206-857-29-1557-158-2431-376-1959-488-4109-13-5560 132C3091 5729 1233 4368 0 4609c0 285-1 1392 0 3152z" fill="#e6c498"/><path d="M0 21000h29700c-3644-752-4870-4215-7786-3807-2927 408-6574-3750-9331-3325-2601 402-5557-2125-7963-3089-501-201-1628-92-2507-787C1069 9166 300 9009 0 8934v12066z" fill="#f0b86e"/><ellipse cx="8593" cy="16425" rx="6943" ry="1347" fill="#e0a65a"/><circle cx="24734" cy="1914" r="738" fill="#ffcc8a"/><rect class="fil13" x="25187" y="2502" width="3678" height="524" rx="443" ry="500"/><rect class="fil13" x="24473" y="2123" width="3678" height="524" rx="443" ry="500"/><rect class="fil13" x="25010" y="1854" width="2262" height="524" rx="273" ry="500"/><rect class="fil13" x="3443" y="3025" width="2294" height="290" rx="276" ry="276"/><rect class="fil13" x="3907" y="2816" width="2294" height="290" rx="276" ry="276"/><rect class="fil13" x="4456" y="2667" width="1410" height="290" rx="170" ry="276" stroke="#fff" stroke-width="7.62"/><path class="fil13" d="M3033 2156H0v476h3033c184 0 334-108 334-238 0-131-150-238-334-238z"/><path class="fil13" d="M4110 1751H0v476h4110c184 0 335-107 335-238s-151-238-335-238z"/><rect class="fil13" x="419" y="1567" width="3254" height="476" rx="392" ry="454"/><rect class="fil13" x="16152" y="3878" width="1963" height="265" rx="237" ry="253"/><rect class="fil13" x="15771" y="3686" width="1963" height="265" rx="237" ry="253"/><rect class="fil13" x="16058" y="3550" width="1207" height="265" rx="145" ry="253"/><rect class="fil13" x="9252" y="1752" width="3464" height="361" rx="418" ry="344"/><rect class="fil13" x="9924" y="1491" width="3464" height="361" rx="418" ry="344"/><rect class="fil13" x="10753" y="1306" width="2130" height="361" rx="257" ry="344"/><path d="M0 7761h25167c-255-151-1866-490-3323-490-1718 0-2610-838-4401-886-679-19-2271-127-3184-149-857-21-1557-115-2431-273-1959-353-4109-9-5560 96-3177 229-5035-757-6268-582 0 206-1 1009 0 2284z" fill="#f0c895"/><path d="M0 7761h25167c-255-104-1866-338-3323-338-1718 0-2610-578-4401-612-679-12-2271-87-3184-103-857-14-1557-79-2431-188-1959-243-4109-6-5560 66-3177 159-5035-521-6268-401 0 142-1 696 0 1576z" fill="#f7d4a6"/><path class="fil16" d="M6582 10553c657-13 1314-15 1971-13v6524c-44-2-91-6-138-12-3520-461-1623-1804-1600-3696 10-853-71-1754-233-2803z"/><path class="fil17" d="M10506 10550c-657-13-1314-15-1971-13v6523c45-2 91-5 139-12 3519-460 1622-1804 1599-3695-10-853 72-1754 233-2803z"/><path class="fil17" d="M13197 13624c-2839 430-3387 3150-6359 3360 706 0 2343 183 3834-1 1597-196 2406-459 2818-709 702-426 1056-598 1235-978 423-898-565-1817-1528-1672z"/><path class="fil16" d="M3988 13666c2839 430 3387 3150 6359 3359-706 0-2343 184-3834 0-1597-196-2406-459-2818-709-701-426-1056-598-1235-978-422-898 565-1817 1528-1672zM8553 11733c-44 3-90 4-138 4-1094 0-1351-164-1765-714-366-487-661-1077-1044-1358 678-495 1202-388 2045-803 127-62 432-76 707-78 61 0 127-2 195-4l483 512-483 2441z"/><path class="fil18" d="M9437 7598h-902v1777c311 14 902-135 902-516-107-420-140-868 0-1261z"/><path class="fil17" d="M9437 8859c-631 699-1578 911-2018 1169v4975l2945-133-927-6011z"/><path d="M6650 11023c-281 1389-87 1720 175 2405 327 856 924 1312 1400 1745 257 234-414 853-655 775-2029-654-3212-5412-1964-6283 352 209 848 1073 1044 1358z" fill="#d67900"/><path class="fil18" d="M7651 7601h902l3 1773c-312 15-794-230-905-512 107-420 140-867 0-1261z"/><path class="fil17" d="M8535 11730c45 3 91 4 139 4 1093 0 1160-624 1715-1032 316-234 1395-158 1395-457 0-792-1503-971-2347-1386 117 102-207 494-451 608-55 26-364 324-433 322l-18 1941z"/><path d="M11017 9563c-421 45-860 449-716 846 478 1328 269 2401-38 3015-409 821-924 1312-1400 1745-257 234 414 853 655 775 2430-783 3375-6582 1499-6381z" fill="#ffa733"/><path class="fil17" d="M8535 11730c45 2 91 4 139 4 1093 0 1350-165 1764-715 366-486 661-1076 1044-1358-678-495-1201-387-2045-802-212 933-1058 715-1192 1405l290 1466z" stroke="#ff9100" stroke-width="7.62"/><g><circle class="fil18" cx="8552" cy="15538" r="965"/><path class="fil21" d="M8553 14573c532 0 964 432 964 965s-432 965-964 965c-313 0-490-292-475-506 14-215 193-404 337-475 417-208 543-324 524-541-30-356-344-406-386-408z"/></g><ellipse class="fil18" cx="7239" cy="6366" rx="264" ry="440"/><ellipse class="fil18" cx="9866" cy="6366" rx="264" ry="440"/><path class="fil21" d="M8554 4645h-1v3567c746 0 1351-781 1351-1744 0-448-20-966-213-1289-292-490-738-534-1137-534zm-3 0h2v3567c-747 0-1352-781-1352-1744 0-448 21-966 213-1289 292-490 738-534 1137-534z"/><path class="fil22" d="M8553 7414c-471-335-567 374-934 107-41-29-110-84-188-363-14-49-91-217-98-428-13-361-137-102-122 48 15 157 25 317 63 544 39 239 139 483 173 741 273 457 460 742 1072 968 15 5 35 0 42 0 3-164-13-253-15-426s28-568 32-745c-323-4-436-75-425-145 10-64 151-7 400 1 0-61 9-260 0-302z"/><path class="fil22" d="M9052 8001c-14-36 64-265-66-353-141-95-494-48-635-47-369 3-608 401-370 906 101 213 273 257 488 358 248 116 797-592 583-864zM7224 5897c-24-897 497-1266 1187-1268 956-2 1374 285 1441 947 5 42 98 819 47 1160-11 69-5 21-31 35-17 9-38 86-49 43-24-95-47-430-49-816-1-338 8-834-429-835-366-1-667-322-1260-247-495 85-812 517-764 1201 22 310-14 472-9 771 1 49-28-147-54-102-108 188-29-852-30-889z"/><circle class="fil13" cx="7638" cy="10155" r="68"/><path class="fil22" d="M8550 7414c470-335 567 374 934 107 41-29 109-84 188-363 13-49 90-217 98-428 13-361 137-102 122 48-16 157-26 317-63 544-40 239-139 483-173 741-273 457-461 742-1072 968-15 5-36 0-43 0-3-164 14-253 15-426 2-173-27-568-31-745 322-4 435-75 424-145-9-64-146-7-396 1 1-61-13-260-3-302z"/><path class="fil21" d="M8553 7620c249 0 452-7 452 96s-203 186-452 186c-250 0-452-83-452-186s202-96 452-96z"/></g></g></svg>