<?xml version="1.0" encoding="UTF-8"?>
<!DOCTYPE svg PUBLIC "-//W3C//DTD SVG 1.1//EN" "http://www.w3.org/Graphics/SVG/1.1/DTD/svg11.dtd">
<!-- Creator: CorelDRAW X7 -->
<svg xmlns="http://www.w3.org/2000/svg" xml:space="preserve" width="297mm" height="210mm" version="1.1" style="shape-rendering:geometricPrecision; text-rendering:geometricPrecision; image-rendering:optimizeQuality; fill-rule:evenodd; clip-rule:evenodd"
viewBox="0 0 29700 21000"
 xmlns:xlink="http://www.w3.org/1999/xlink">
 <defs>
  <style type="text/css">
   <![CDATA[
    .str2 {stroke:#BD6B00;stroke-width:5.39}
    .str4 {stroke:#CC9933;stroke-width:5.39}
    .str0 {stroke:#CF892D;stroke-width:5.39}
    .str1 {stroke:#FF9100;stroke-width:5.39}
    .str3 {stroke:#E3AC64;stroke-width:14.14}
    .fil14 {fill:none}
    .fil13 {fill:#91642A}
    .fil12 {fill:#A8793B}
    .fil11 {fill:#BD6B00}
    .fil17 {fill:#BF8104}
    .fil10 {fill:#C48D44}
    .fil16 {fill:#CC9933}
    .fil3 {fill:#CF892D}
    .fil18 {fill:#D18B00}
    .fil2 {fill:#E3AC64}
    .fil21 {fill:#EB8500}
    .fil4 {fill:#EB9D36}
    .fil6 {fill:#F0B17E}
    .fil1 {fill:#F5C280}
    .fil15 {fill:#FAAD14}
    .fil7 {fill:#FF9100}
    .fil9 {fill:#FFA530}
    .fil19 {fill:#FFBE69}
    .fil20 {fill:#FFCE8F}
    .fil8 {fill:#FFCE9D}
    .fil0 {fill:#FFE5C4}
    .fil5 {fill:white}
   ]]>
  </style>
 </defs>
 <g id="Слой_x0020_1">
  <metadata id="CorelCorpID_0Corel-Layer"/>
  <g id="_483056544">
   <polygon class="fil0" points="0,0 29700,0 29700,21000 0,21000 "/>
   <polygon class="fil1" points="0,13834 29700,13834 29700,21000 0,21000 "/>
   <ellipse class="fil2" cx="15429" cy="17396" rx="7192" ry="3223"/>
   <polygon class="fil3" points="21656,7081 28108,7081 28108,13812 21656,13812 "/>
   <path class="fil4" d="M22042 7491l5651 0 0 1252 -5651 0 0 -1252zm0 1551l5651 0 0 1253 -5651 0 0 -1253zm15 1552l5652 0 0 1252 -5652 0 0 -1252zm0 1552l5652 0 0 1252 -5652 0 0 -1252z"/>
   <ellipse class="fil3" cx="24868" cy="8116" rx="228" ry="203"/>
   <ellipse class="fil3" cx="24868" cy="9668" rx="228" ry="203"/>
   <ellipse class="fil3" cx="24882" cy="11220" rx="228" ry="203"/>
   <ellipse class="fil3" cx="24882" cy="12926" rx="228" ry="203"/>
   <polygon class="fil3" points="26728,4437 27557,4437 27557,5675 26272,5675 "/>
   <polygon class="fil3" points="27565,4437 26737,4437 26737,5675 28022,5675 "/>
   <polygon class="fil3" points="27084,5351 27209,5351 27209,6976 27084,6976 "/>
   <polygon class="fil3" points="26598,7092 26598,6964 27700,6964 27700,7092 "/>
   <polygon class="fil3" points="27564,5604 27601,5604 27601,6648 27564,6648 "/>
   <ellipse class="fil3" cx="27583" cy="6648" rx="63" ry="64"/>
   <polygon class="fil3" points="23923,5398 24689,5398 24689,7089 23923,7089 "/>
   <polygon class="fil3" points="23676,5572 24164,5745 23684,7134 23196,6961 "/>
   <polygon class="fil3" points="22913,5398 23430,5398 23430,7089 22913,7089 "/>
   <polygon class="fil3" points="22790,5310 23094,5310 23094,7089 22790,7089 "/>
   <polygon class="fil3" points="22338,5426 22488,5398 22789,7061 22639,7089 "/>
   <path class="fil3" d="M22043 5310l304 0 0 1779 -304 0 0 -1779zm-20454 3651l10120 0 0 457 -10120 0 0 -457zm0 4441l10120 0 0 980 -10120 0 0 -980z"/>
   <polygon class="fil3" points="1589,15663 1589,9175 2041,9175 2041,15663 "/>
   <polygon class="fil3" points="11256,15692 11256,9204 11709,9204 11709,15692 "/>
   <polygon class="fil3" points="6422,15692 6422,9204 6875,9204 6875,15692 "/>
   <polygon class="fil3" points="3173,15692 3173,9204 3625,9204 3625,15692 "/>
   <polygon class="fil3 str0" points="4798,15692 4798,9204 5250,9204 5250,15692 "/>
   <polygon class="fil3" points="10116,15676 10116,9188 9664,9188 9664,15676 "/>
   <polygon class="fil3" points="8491,15676 8491,9188 8039,9188 8039,15676 "/>
   <path class="fil3" d="M3528 13402c-604,0 -1115,-265 -1279,-565 197,-346 675,-564 1279,-564l0 1129 0 0z"/>
   <path class="fil3" d="M3519 13402c604,0 1115,-265 1279,-565 -197,-346 -675,-564 -1279,-564l0 1129 0 0zm15464 -3865c690,0 1251,566 1251,1265 0,699 -561,1266 -1251,1266 -692,0 -1252,-567 -1252,-1266 0,-699 560,-1265 1252,-1265zm-382 698c-72,0 -129,59 -129,131 0,73 57,131 129,131 71,0 130,-58 130,-131 0,-72 -59,-131 -130,-131zm714 0c-72,0 -130,59 -130,131 0,73 58,131 130,131 72,0 130,-58 130,-131 0,-72 -58,-131 -130,-131zm-331 373c183,0 331,101 331,227 0,125 -148,227 -331,227 -183,0 -331,-102 -331,-227 0,-126 148,-227 331,-227zm-533 670c44,159 210,249 366,197 79,-26 135,-81 166,-147 -7,-15 -14,-32 -18,-48l-20 0 0 -44c-12,78 -64,150 -148,178 -127,42 -260,-36 -288,-166 -13,9 -27,17 -41,22 -5,3 -12,5 -17,8zm1065 0c-44,159 -210,249 -366,197 -98,-33 -161,-108 -185,-195l55 0 0 -47c12,79 64,153 150,181 126,42 259,-36 287,-166 14,9 27,17 42,22 5,3 11,5 17,8l0 0zm-571 2l0 -218 75 0 0 218 -75 0z"/>
   <ellipse class="fil3" cx="19946" cy="9765" rx="561" ry="567"/>
   <path class="fil3" d="M17955 9198c309,0 560,254 560,567 0,312 -251,567 -560,567 -309,0 -561,-255 -561,-567 0,-313 252,-567 561,-567zm1007 2483c670,0 922,468 1212,1434 147,488 205,952 49,1179 -154,222 -510,264 -1261,254 -1450,-19 -1556,-365 -1213,-1433 345,-1070 543,-1434 1213,-1434z"/>
   <ellipse class="fil3" transform="matrix(1.91864 -0.867685 0.858129 1.94001 20136.7 12089.1)" rx="427" ry="146"/>
   <ellipse class="fil3" transform="matrix(-1.91864 -0.867689 -0.858133 1.94001 17862.9 12089.2)" rx="427" ry="146"/>
   <ellipse class="fil3" cx="20569" cy="14238" rx="898" ry="311"/>
   <ellipse class="fil3" transform="matrix(-2.10182 1.48478E-005 1.46843E-005 2.12522 17585.5 14238.2)" rx="427" ry="146"/>
   <path class="fil5" d="M15179 8765c216,171 495,263 1059,255 -41,130 -45,161 -80,291 -492,-26 -792,-86 -1092,-297 45,-24 64,-55 79,-97 36,-40 47,-92 29,-141l5 -11 0 0z"/>
   <path class="fil5" d="M15137 8987c-224,51 1361,-201 595,-649 -648,-380 -542,483 -756,327 -43,94 -86,259 -8,262 276,7 274,-769 652,-526 592,382 -814,459 -550,543l67 43 0 0z"/>
   <path class="fil5" d="M15089 9039c-150,106 953,-554 208,-666 -630,-95 -229,525 -449,472 3,83 32,220 92,199 212,-75 -80,-661 296,-590 589,113 -444,588 -214,573l67 12 0 0z"/>
   <path class="fil6" d="M13779 13051c687,3375 932,3275 655,3391 -284,155 -1333,369 -1622,513 -106,52 -12,172 129,172l2338 0c0,0 -171,-816 -174,-1562 -5,-1144 136,-2515 -123,-2745 -426,-380 -1203,231 -1203,231l0 0z"/>
   <path class="fil7" d="M13329 16783c-311,85 -382,105 -517,172 -106,52 -12,172 129,172l2338 0c0,0 -28,-134 -62,-345 -623,141 -1768,173 -1888,1l0 0z"/>
   <path class="fil8" d="M13938 13128c687,3374 932,3275 655,3390 -284,156 -1333,370 -1622,514 -106,53 -11,173 129,173l2339 0c0,0 -172,-816 -175,-1563 -4,-1144 136,-2515 -123,-2745 -425,-381 -1203,231 -1203,231l0 0z"/>
   <path class="fil9 str1" d="M13488 16859c-311,85 -382,105 -517,173 -106,52 -11,173 129,173l2339 0c0,0 -29,-136 -62,-347 -623,142 -1769,174 -1889,1l0 0z"/>
   <path class="fil7" d="M14884 6061l-779 -1c0,0 -388,103 -677,497 -815,1109 208,1564 0,2649 -88,456 -537,3977 -488,3900 49,-76 1204,906 3046,0 125,-61 286,-125 239,-185 -167,-220 -429,-716 -89,-1664 326,-910 -167,-2054 -743,-2308 -685,-304 259,-2178 -94,-2561 -312,-339 -415,-327 -415,-327l0 0z"/>
   <path class="fil5" d="M15138 8645c-551,333 -777,550 -1682,264 -8,134 -15,165 -28,297 753,185 1079,152 1871,-327l-161 -234 0 0z"/>
   <path class="fil5" d="M14848 9051c-592,109 -806,212 -1404,7 -193,840 -318,1605 -397,2439 646,-225 1117,319 1801,0 -264,-688 274,-2013 0,-2446l0 0z"/>
   <path class="fil6" d="M11929 6310c51,29 75,48 83,50 16,3 7,2 151,-78 45,-24 120,-63 220,-105 57,-25 244,-262 393,-117 -113,33 -181,65 -102,124 -4,11 -153,78 -217,132 -43,37 -160,152 -330,232 -146,67 -307,25 -416,-58 -270,-207 -119,-368 218,-180l0 0z"/>
   <path class="fil7" d="M11527 7524c50,-215 722,-312 921,43 66,120 125,205 206,294 86,13 181,24 233,46 86,37 122,124 -132,218 -333,122 -455,-476 -981,-283 -143,53 -264,-342 -247,-318z"/>
   <path class="fil5" d="M11532 6162c-264,26 -458,8 -531,271 -37,133 -37,391 -12,650 73,777 537,645 930,645 444,0 432,-290 356,-565 -81,-293 -248,-576 -343,-731 -118,-192 -114,-299 -400,-270l0 0z"/>
   <path class="fil6" d="M11636 5900c-155,-2 -265,-3 -419,-5 32,156 2,293 -17,390 547,293 420,-221 436,-385z"/>
   <ellipse class="fil8" cx="11516" cy="5673" rx="507" ry="462"/>
   <path class="fil10" d="M11316 5099c507,-154 833,249 690,418 -353,20 -504,-11 -764,-118 -2,-1 -68,219 -248,367 -308,-320 124,-683 322,-667l0 0z"/>
   <ellipse class="fil8" cx="11069" cy="5680" rx="131" ry="120"/>
   <path class="fil8" d="M11500 6595c48,54 65,85 76,91 17,10 7,6 216,-33 64,-12 171,-30 309,-41 80,-7 415,-216 521,13 -148,-5 -244,7 -178,107 -11,12 -220,33 -321,73 -69,26 -263,119 -503,147 -205,24 -375,-87 -464,-227 -220,-348 38,-482 344,-130l0 0z"/>
   <path class="fil9" d="M11619 7387c163,-179 858,96 858,545 0,151 10,264 39,392 76,61 162,124 200,173 63,82 50,185 -243,136 -384,-65 -180,-704 -787,-807 -165,-29 -70,-471 -67,-439l0 0z"/>
   <path class="fil8" d="M14030 7620c-197,652 -294,691 -294,691l-1454 -330c0,0 -84,-249 -149,-306 -64,-57 -103,-126 -133,-241 -36,-143 -151,23 -102,285 0,0 -264,78 -534,-44 -270,-122 -238,-150 -238,-150 0,0 -122,204 275,438 397,235 691,272 691,272 0,0 1492,802 1850,734 358,-67 892,-1189 892,-1189l-804 -160 0 0z"/>
   <path class="fil9" d="M14847 6060c-391,0 -692,272 -761,608 -90,443 -64,603 -54,849 128,95 725,219 870,173 397,-432 493,-588 493,-980 0,-392 -157,-650 -548,-650z"/>
   <path class="fil5" d="M14902 7690c-460,-63 -566,-62 -872,-217 0,66 9,102 0,147 109,115 510,186 791,186 41,-60 36,-64 81,-116zm-1026 -1533c-6,-4 2,-54 26,-97 30,-53 78,-98 102,-87 16,-3 19,27 -4,59 -9,13 15,16 13,28 -9,53 -16,95 -137,97l0 0z"/>
   <path class="fil6" d="M14367 4905c-401,61 -432,765 -376,1116 56,351 219,142 622,27 331,-95 256,12 107,-273 -93,-176 -102,-355 -112,-419 -68,-316 161,-512 -241,-451l0 0z"/>
   <path class="fil8" d="M14478 3614c-451,-159 -981,89 -1187,554 -206,464 -53,1094 358,1316 493,174 1066,-279 1271,-743 206,-464 7,-969 -442,-1127z"/>
   <path class="fil11" d="M15001 3833c-113,-285 -552,-433 -980,-333 -428,101 -793,443 -746,736 124,310 727,392 1155,291 429,-100 684,-411 571,-694l0 0z"/>
   <path class="fil11" d="M14464 4731c-12,62 -13,233 9,330 53,242 179,432 149,342 -64,-196 335,-557 335,-672 -6,-1134 -447,-244 -493,0z"/>
   <path class="fil11 str2" d="M14809 3702c-271,-71 -511,25 -582,366 -13,60 405,-209 291,211 -18,67 128,212 109,285 -52,205 -245,332 -79,376 271,69 550,-152 621,-493 72,-342 -89,-675 -360,-745z"/>
   <ellipse class="fil11" cx="14987" cy="3759" rx="541" ry="491"/>
   <path class="fil5" d="M14521 6348c505,-121 405,-601 258,-516 -299,172 -533,183 -673,212 -98,21 -69,16 -114,31 -45,15 23,-17 7,5 -68,99 184,311 522,268z"/>
   <polygon class="fil12" points="17409,2377 21058,2377 21058,3888 17409,3888 "/>
   <path class="fil13" d="M17409 3413c1217,0 2434,-419 3649,-419l0 894 -3649 0 0 -475 0 0z"/>
   <path class="fil14 str3" d="M19205 1552l499 714m-496 -714l-499 714"/>
   <g>
    <path class="fil4" d="M17226 2252l437 0 0 1886 -437 0 0 -1886zm3526 0l437 0 0 1886 -437 0 0 -1886z"/>
    <polygon class="fil4" points="17558,2694 17558,2252 20851,2252 20851,2694 "/>
    <polygon class="fil4" points="17558,4138 17558,3696 20851,3696 20851,4138 "/>
    <polygon class="fil3" points="17226,2252 17445,2252 17445,4138 17226,4138 "/>
    <polygon class="fil3" points="17427,2473 17427,2252 21189,2252 21189,2473 "/>
   </g>
   <ellipse class="fil2" cx="19204" cy="1552" rx="33" ry="34"/>
   <polygon class="fil4" points="3430,4154 5848,4154 5848,7432 3430,7432 "/>
   <polygon class="fil3" points="3822,3869 3949,3940 3328,5078 3201,5007 "/>
   <polygon class="fil4" points="7149,1598 9566,1598 9566,4875 7149,4875 "/>
   <polygon class="fil3" points="7076,2204 6726,1966 7225,1216 7575,1454 "/>
   <polygon class="fil3" points="9641,2204 9991,1966 9492,1216 9142,1454 "/>
   <polygon class="fil3" points="9491,5250 9142,5012 9641,4262 9990,4500 "/>
   <polygon class="fil3" points="7226,5250 7576,5012 7076,4262 6727,4500 "/>
   <path class="fil15" d="M5585 6834l57 -203 -305 -198 -232 103 -95 -53 -133 53 -142 -205 -160 205 -123 -103 -133 103 -113 -205c-83,68 -166,137 -250,205l-173 -205 -107 205 -246 -70 0 368 2155 0z"/>
   <path class="fil13" d="M4494 5558l206 0c27,-18 40,108 14,243 -19,93 20,236 21,306 2,131 -38,175 -46,287 -2,42 23,140 25,189l-395 0c42,-52 64,-170 105,-241 73,-124 126,-216 118,-399 -3,-99 -118,-260 -48,-385z"/>
   <g>
    <path class="fil16" d="M4878 4584c195,0 353,145 353,324 0,178 -158,323 -353,323 -195,0 -354,-145 -354,-323 0,-180 159,-324 354,-324z"/>
    <path class="fil16" d="M4539 4678c196,0 354,146 354,325 0,179 -158,324 -354,324 -195,0 -354,-145 -354,-324 0,-179 159,-325 354,-325z"/>
    <path class="fil16 str4" d="M4318 4864c152,0 275,113 275,252 0,140 -123,253 -275,253 -151,0 -275,-113 -275,-253 0,-139 124,-252 275,-252z"/>
    <path class="fil16" d="M4921 4908c197,0 354,145 354,323 0,180 -157,325 -354,325 -195,0 -353,-145 -353,-325 0,-178 158,-323 353,-323z"/>
    <path class="fil16" d="M4475 5103c160,0 289,119 289,266 0,146 -129,264 -289,264 -160,0 -290,-118 -290,-264 0,-147 130,-266 290,-266z"/>
    <path class="fil16 str4" d="M4764 5208c160,0 289,119 289,266 0,146 -129,264 -289,264 -159,0 -289,-118 -289,-264 0,-147 130,-266 289,-266z"/>
   </g>
   <path class="fil17" d="M3430 6884l0 -327 157 -74 292 103 120 -55 168 55 180 -207 202 207 154 -103 168 103 143 -207c105,69 211,137 316,207l217 -207 137 207 165 -74 7 372 -2426 0z"/>
   <path class="fil18" d="M5849 7432l0 -556 -211 -203 -291 195 -121 -103 -168 103 -179 -392 -202 392 -155 -195 -167 195 -143 -392c-106,131 -210,262 -316,392l-217 -392 -136 392 -113 -159 0 723 2419 0z"/>
   <polygon class="fil3" points="5965,6485 6092,6556 5471,7694 5344,7623 "/>
   <ellipse class="fil19" cx="8330" cy="2996" rx="330" ry="334"/>
   <ellipse class="fil19" cx="7953" cy="2398" rx="233" ry="235"/>
   <ellipse class="fil19" cx="8328" cy="2389" rx="254" ry="257"/>
   <ellipse class="fil19" cx="8640" cy="2614" rx="293" ry="296"/>
   <ellipse class="fil19" cx="7842" cy="2846" rx="289" ry="292"/>
   <ellipse class="fil20" cx="8221" cy="2688" rx="233" ry="235"/>
   <ellipse class="fil20" cx="9028" cy="3856" rx="220" ry="223"/>
   <ellipse class="fil20" cx="8769" cy="3473" rx="155" ry="156"/>
   <ellipse class="fil20 str4" cx="9020" cy="3468" rx="169" ry="171"/>
   <ellipse class="fil20 str4" cx="9226" cy="3618" rx="195" ry="197"/>
   <ellipse class="fil20" cx="8735" cy="3764" rx="192" ry="194"/>
   <ellipse class="fil21" cx="8948" cy="3666" rx="155" ry="156"/>
   <ellipse class="fil21" cx="7950" cy="4000" rx="264" ry="267"/>
   <ellipse class="fil21" cx="7649" cy="3521" rx="186" ry="188"/>
   <ellipse class="fil21" cx="7949" cy="3515" rx="203" ry="206"/>
   <ellipse class="fil21" cx="8197" cy="3694" rx="235" ry="237"/>
   <ellipse class="fil21" cx="7561" cy="3879" rx="230" ry="233"/>
   <ellipse class="fil19" cx="7863" cy="3753" rx="186" ry="188"/>
  </g>
 </g>
</svg>
