<?xml version="1.0" encoding="UTF-8"?>
<!DOCTYPE svg PUBLIC "-//W3C//DTD SVG 1.1//EN" "http://www.w3.org/Graphics/SVG/1.1/DTD/svg11.dtd">
<!-- Creator: CorelDRAW X7 -->
<svg xmlns="http://www.w3.org/2000/svg" xml:space="preserve" width="297mm" height="210mm" version="1.1" style="shape-rendering:geometricPrecision; text-rendering:geometricPrecision; image-rendering:optimizeQuality; fill-rule:evenodd; clip-rule:evenodd"
viewBox="0 0 29700 21000"
 xmlns:xlink="http://www.w3.org/1999/xlink">
 <defs>
  <style type="text/css">
   <![CDATA[
    .str0 {stroke:#EB8500;stroke-width:7.62}
    .fil28 {fill:#7D5827}
    .fil10 {fill:#7D5A2C}
    .fil27 {fill:#91642A}
    .fil17 {fill:#9F6D2C}
    .fil14 {fill:#BD6B00}
    .fil19 {fill:#CC9933}
    .fil29 {fill:#CF892D}
    .fil21 {fill:#D18B00}
    .fil25 {fill:#DE993E}
    .fil18 {fill:#DEB259}
    .fil12 {fill:#E68507}
    .fil22 {fill:#EB8500}
    .fil5 {fill:#EBAE5E}
    .fil30 {fill:#EBB46C}
    .fil26 {fill:#ED9E37}
    .fil2 {fill:#EDB976}
    .fil8 {fill:#F0B17E}
    .fil13 {fill:#F2F2F2}
    .fil15 {fill:#F7BC81}
    .fil3 {fill:#F7C17B}
    .fil20 {fill:#FAAD14}
    .fil7 {fill:#FF9100}
    .fil6 {fill:#FFA530}
    .fil23 {fill:#FFBE69}
    .fil9 {fill:#FFCA94}
    .fil24 {fill:#FFCB96}
    .fil16 {fill:#FFCC99}
    .fil1 {fill:#FFD9A8}
    .fil31 {fill:#FFDEB2}
    .fil11 {fill:white}
    .fil0 {fill:white}
    .fil4 {fill:#FCE1BD;fill-rule:nonzero}
   ]]>
  </style>
 </defs>
 <g id="Слой_x0020_1">
  <metadata id="CorelCorpID_0Corel-Layer"/>
  <rect class="fil0" x="-6183" y="-2896" width="6181" height="27446"/>
  <g id="_392126888">
   <polygon class="fil1" points="-2,-2 29712,-2 29712,20984 -2,20984 "/>
   <polygon class="fil2" points="-2,12149 29712,12149 29712,13881 -2,13881 "/>
   <polygon class="fil3" points="-2,12882 29712,12882 29712,20984 -2,20984 "/>
   <path class="fil4" d="M21305 2861c816,-1426 1633,-2140 3265,-2140 1803,0 3266,1278 3266,2854 0,2853 -3266,5706 -6531,8560 -3266,-2854 -6531,-5707 -6531,-8560 0,-1576 1463,-2854 3265,-2854 1633,0 2450,714 3266,2140z"/>
   <ellipse class="fil5" cx="7253" cy="17100" rx="6394" ry="1229"/>
   <ellipse class="fil5" cx="21613" cy="16984" rx="6604" ry="736"/>
   <path class="fil6" d="M21956 6748c-600,587 -37,2636 -2108,1779 0,0 -69,110 -83,198 -5,31 -78,113 -96,148 -3,6 -22,7 -25,9 0,1 -1,0 0,0 407,321 2349,1626 2724,-1338 135,-1063 -356,-837 -412,-796z"/>
   <path class="fil7" d="M22186 6687c-180,345 -405,1019 -304,1696 147,978 266,908 336,1717 42,484 83,1209 129,1542 21,152 108,126 269,122 1188,-28 2371,377 2248,84 -119,-283 19,-287 19,-383 0,-528 -104,-1441 71,-2669 251,-1762 111,-1909 -447,-2101 -149,-51 -202,52 -393,53 -288,1 -638,-50 -1060,-78 -148,-10 -649,55 -868,17z"/>
   <path class="fil8" d="M22632 5688c265,-8 1039,-22 1304,-29 -109,282 -166,763 -143,1018l-983 8c45,-257 -42,-770 -178,-997z"/>
   <path class="fil9" d="M23363 3519c-568,0 -1198,556 -1028,1316 170,760 354,1239 922,1239 568,0 851,-436 1135,-1239 284,-804 -461,-1316 -1029,-1316z"/>
   <path class="fil10" d="M23571 2947c-516,-89 -891,-101 -1341,228 -353,259 -483,36 -480,166 7,281 -15,1408 1366,730 1447,-709 1165,1472 1366,410 23,-122 75,-481 -70,-826 -118,-280 -325,-619 -841,-708z"/>
   <polygon class="fil11" points="22349,6677 24328,6677 23176,9079 "/>
   <polygon class="fil12" points="23187,9095 22194,8244 22506,7336 21882,6712 22506,6637 "/>
   <path class="fil6" d="M24367 6850c-484,978 986,3148 -1809,3102 0,0 -39,164 -21,274 6,40 -48,172 -56,222 -2,9 -23,19 -26,22 0,1 -1,0 0,1 608,189 3425,827 2713,-2869 -256,-1327 -751,-828 -801,-752z"/>
   <polygon class="fil12" points="23146,9147 24263,8371 24101,7291 24817,6703 24164,6624 "/>
   <polygon class="fil13" points="22722,6255 23420,6684 22722,6685 "/>
   <polygon class="fil13" points="23875,6254 23177,6684 23875,6685 "/>
   <path class="fil7" d="M22885 6573l408 294 -424 177 16 -471zm815 0l-407 294 423 177 -16 -471z"/>
   <circle class="fil7" cx="23270" cy="7289" r="83"/>
   <circle class="fil7" cx="23270" cy="7866" r="83"/>
   <path class="fil6" d="M22401 12069l832 0c4,0 8,3 8,6l400 4941c1,4 -2,6 -6,6l-833 0c-4,0 -7,-2 -8,-6l-400 -4941c0,-3 3,-6 7,-6z"/>
   <path class="fil6" d="M24883 11465c-273,201 -1434,534 -1708,735 1060,-61 1053,621 1137,961l976 3933 771 0c-422,-1602 -1176,-3883 -1176,-5629z"/>
   <path class="fil6" d="M22328 11482l2555 -17c1,320 11,604 -27,720 94,445 -544,-8 -2453,-13 -23,-200 -41,-410 -75,-690z"/>
   <path class="fil14" d="M18873 3952c349,-1178 3419,306 2112,2020 -375,492 -105,1320 322,842 112,-125 -126,1426 -1396,848 -1050,-478 -668,-608 -807,-946 -397,-967 -321,-2215 -231,-2764z"/>
   <path class="fil8" d="M20280 9412c-544,-1177 -1020,-1989 -774,-2022 61,-8 272,-98 515,57 229,147 512,883 645,1565 66,342 172,464 304,627 134,166 361,310 553,397 6,3 4,0 5,-6 1,-7 5,-16 19,-10 385,164 691,239 131,383 -154,40 -1088,-294 -1398,-991z"/>
   <path class="fil8" d="M22185 10568c-291,61 -575,-126 -635,-417 -41,-196 31,-389 170,-512 88,251 350,404 617,349 95,-20 179,-63 247,-123 8,22 14,45 19,68 60,291 -127,575 -418,635z"/>
   <path class="fil15" d="M22120 9354c330,0 597,268 597,598 0,222 -121,416 -301,519 -38,-293 -289,-519 -592,-519 -108,0 -209,28 -296,78 -4,-25 -5,-52 -5,-78 0,-330 267,-598 597,-598z"/>
   <path class="fil12" d="M25255 17099c43,-366 354,-650 731,-650 378,0 689,284 731,650l-1462 0zm-3311 1c48,-297 404,-528 835,-528 431,0 787,231 835,528l-1670 0z"/>
   <path class="fil8" d="M18784 6264l869 0c-151,308 -92,612 50,894 29,56 57,144 91,198 107,257 625,771 54,944 -1266,385 -1120,-699 -1266,-699 136,-276 505,-973 202,-1337z"/>
   <path class="fil15" d="M18582 6264c411,0 0,309 1124,899 22,56 221,428 351,602 172,234 122,435 -209,535 -1266,385 -1120,-699 -1266,-699 136,-276 303,-973 0,-1337z"/>
   <ellipse class="fil16" cx="19352" cy="5394" rx="989" ry="1229"/>
   <path class="fil11" d="M19746 8329c-382,-251 -577,-290 -1026,-364 -309,603 128,1137 142,1316 15,194 -102,545 -227,689 -212,243 -436,610 -626,1183 -190,574 -797,4536 -1233,5683 1629,611 4529,248 4333,-224 -694,-1666 -982,-4722 -656,-7274 50,-390 80,-494 70,-837 -13,-425 -259,-479 -466,-736 -130,205 -260,399 -311,564z"/>
   <path class="fil15" d="M17796 9285c249,-2259 1412,-2522 769,-307 -168,580 -369,486 564,1271 118,100 634,422 761,447 82,16 94,-1 -173,113 -54,24 -137,6 -237,-7 -259,-35 -978,-292 -1251,-565 -342,-343 -448,-325 -433,-952z"/>
   <path class="fil14" d="M19848 4269c-349,-1178 -3419,306 -2111,2020 375,492 -438,1410 -409,801 28,-604 -1258,692 782,696 677,2 1240,-742 772,-1322 -434,-539 -383,-1229 -98,-1397 776,-458 1064,-466 1064,-798z"/>
   <path class="fil17" d="M20205 8598c253,565 330,1276 -58,2033l-239 -404c352,-673 275,-686 297,-1629z"/>
   <path class="fil18" d="M19814 8598c252,624 62,1390 339,1887l-39 144c-58,-100 -625,-1091 -300,-2031z"/>
   <path class="fil19" d="M20674 8798c-355,600 -125,967 -484,1439l-9 395c334,-347 697,-846 493,-1834z"/>
   <path class="fil20" d="M19518 8886c-189,572 95,1004 569,1743l94 -418c-429,-657 -534,-388 -663,-1325z"/>
   <path class="fil21" d="M20167 8887c-311,540 -313,891 -6,1680l132 -481c-280,-701 -203,-258 -126,-1199z"/>
   <ellipse class="fil22" cx="20418" cy="9751" rx="234" ry="220"/>
   <ellipse class="fil22" cx="20378" cy="9639" rx="174" ry="163"/>
   <ellipse class="fil22" cx="20503" cy="9606" rx="163" ry="153"/>
   <ellipse class="fil22" cx="20522" cy="9817" rx="163" ry="153"/>
   <ellipse class="fil22" cx="20589" cy="9728" rx="191" ry="179"/>
   <ellipse class="fil23" cx="20512" cy="9727" rx="194" ry="182"/>
   <ellipse class="fil23" cx="20451" cy="9674" rx="194" ry="182"/>
   <ellipse class="fil23" cx="20412" cy="9775" rx="145" ry="136"/>
   <ellipse class="fil22" cx="20473" cy="9728" rx="163" ry="153"/>
   <ellipse class="fil23" cx="20523" cy="9649" rx="145" ry="136"/>
   <ellipse class="fil22" cx="20510" cy="9653" rx="119" ry="111"/>
   <ellipse class="fil22 str0" cx="20427" cy="9639" rx="119" ry="111"/>
   <ellipse class="fil23" cx="20473" cy="9619" rx="95" ry="89"/>
   <ellipse class="fil22" cx="20455" cy="9647" rx="66" ry="62"/>
   <ellipse class="fil22" cx="20111" cy="9168" rx="208" ry="195"/>
   <ellipse class="fil22" cx="20075" cy="9069" rx="155" ry="145"/>
   <ellipse class="fil22" cx="20186" cy="9039" rx="144" ry="135"/>
   <ellipse class="fil22" cx="20203" cy="9227" rx="144" ry="135"/>
   <ellipse class="fil22" cx="20262" cy="9148" rx="169" ry="158"/>
   <ellipse class="fil23" cx="20194" cy="9147" rx="172" ry="161"/>
   <ellipse class="fil23" cx="20140" cy="9100" rx="172" ry="161"/>
   <ellipse class="fil23" cx="20106" cy="9189" rx="129" ry="121"/>
   <ellipse class="fil22" cx="20160" cy="9148" rx="144" ry="135"/>
   <ellipse class="fil23" cx="20204" cy="9078" rx="129" ry="121"/>
   <ellipse class="fil22" cx="20193" cy="9081" rx="105" ry="99"/>
   <ellipse class="fil22 str0" cx="20119" cy="9069" rx="105" ry="99"/>
   <ellipse class="fil23" cx="20160" cy="9051" rx="84" ry="79"/>
   <ellipse class="fil22" cx="20143" cy="9076" rx="58" ry="55"/>
   <g>
    <ellipse class="fil22" cx="19668" cy="9644" rx="279" ry="261"/>
    <ellipse class="fil22" cx="19620" cy="9511" rx="207" ry="194"/>
    <ellipse class="fil22" cx="19768" cy="9471" rx="193" ry="181"/>
    <ellipse class="fil22" cx="19791" cy="9723" rx="193" ry="181"/>
    <ellipse class="fil22" cx="19871" cy="9617" rx="227" ry="213"/>
    <ellipse class="fil23" cx="19779" cy="9616" rx="231" ry="216"/>
    <ellipse class="fil23 str0" cx="19707" cy="9552" rx="231" ry="216"/>
    <ellipse class="fil23" cx="19661" cy="9673" rx="173" ry="162"/>
    <ellipse class="fil22" cx="19733" cy="9617" rx="193" ry="181"/>
    <ellipse class="fil23" cx="19793" cy="9523" rx="173" ry="162"/>
    <ellipse class="fil22 str0" cx="19777" cy="9528" rx="141" ry="133"/>
    <ellipse class="fil22 str0" cx="19678" cy="9510" rx="141" ry="133"/>
    <ellipse class="fil23" cx="19733" cy="9487" rx="113" ry="106"/>
    <ellipse class="fil22" cx="19711" cy="9521" rx="78" ry="73"/>
   </g>
   <path class="fil15" d="M20434 10248c366,205 247,125 356,462 12,37 26,82 -48,65 -357,-82 -311,-53 -465,-40 -242,21 -179,106 -426,183 -48,-3 -430,-38 -343,-295 87,-256 561,-579 926,-375z"/>
   <path class="fil8" d="M7790 7775l-799 0c47,387 -4,714 -40,1014 -1487,731 2092,1300 809,96 13,-323 88,-751 30,-1110z"/>
   <path class="fil24" d="M7850 5852c-558,-15 -1845,-177 -1139,904 70,107 -143,162 -143,303 0,50 141,271 145,320 57,696 536,1043 1048,1026 598,-20 809,-502 803,-991 -4,-317 -63,-503 -39,-828 34,-470 -323,-725 -675,-734z"/>
   <path class="fil25" d="M8669 6034c70,97 282,201 389,190 87,-9 -256,215 -568,278 -620,124 -861,-391 -1350,-121 -20,57 41,847 -148,805 -150,-404 -332,-198 -364,-97 -28,86 78,265 132,279 -1,40 11,309 5,316 -109,-156 -163,-357 -415,-703 -270,-371 -285,-1163 439,-1146 1155,-1108 1606,-180 1880,199z"/>
   <path class="fil13" d="M7856 9134c427,-336 721,429 1049,591 313,154 636,-157 785,-1590l658 158c-144,1492 -593,2206 -1184,2275 -845,97 -1800,-1047 -1308,-1434z"/>
   <path class="fil26" d="M6834 13884c31,891 1929,-169 2757,272 201,107 414,624 279,1387 -147,413 -291,658 -201,769 0,0 173,71 331,17 368,-127 957,-1681 411,-2570 -165,-268 -943,-940 -2215,-895 -1272,44 -1393,129 -1362,1020z"/>
   <path class="fil6" d="M6271 12836c-1054,0 121,1934 -434,2746 -135,197 -754,392 -1651,231 -482,-162 -766,-314 -901,-228 0,0 -91,170 -33,330 135,372 1947,1015 3019,500 324,-156 1150,-910 1150,-2182 0,-1273 -95,-1397 -1150,-1397z"/>
   <path class="fil12" d="M8002 9006c1508,424 -708,2148 180,3811 167,312 -1789,1150 -2332,491 -351,-427 -779,-1805 -295,-3075 321,-843 656,-1460 1340,-1459 88,0 40,127 185,324 139,188 167,269 480,190 118,-30 213,-436 251,-355l191 73z"/>
   <path class="fil11" d="M6964 8780c-71,-186 -583,465 -412,417 291,-80 456,80 786,140 179,32 -316,-405 -374,-557z"/>
   <path class="fil13" d="M7745 8915c15,-30 8,-59 39,-51 151,40 508,424 366,389 -291,-70 -421,-13 -739,78 -187,54 276,-283 334,-416z"/>
   <path class="fil27" d="M10104 7198c-83,21 -155,49 -308,-3 -150,-52 -98,-144 -480,-93 -231,30 -252,155 -356,219 -102,62 -160,51 -336,71 -108,12 -185,114 -171,223l94 715c15,108 114,174 223,171 486,-16 1007,-85 1480,-195 106,-25 185,-114 171,-223l-94 -715c-15,-108 -115,-185 -223,-170z"/>
   <circle class="fil28" transform="matrix(-1.00784 0.1325 0.12449 0.94693 9518.89 7857.35)" r="514"/>
   <circle class="fil29" transform="matrix(-1.00784 0.1325 0.1325 1.00784 9686.48 7821.67)" r="514"/>
   <circle class="fil30" transform="matrix(-0.84816 0.1115 0.1115 0.84816 9693.64 7821.67)" r="514"/>
   <path class="fil31" d="M10042 7958c51,-176 -15,-369 -145,-444 -22,-12 -47,-32 -85,-19 -37,12 -46,37 -38,59 117,60 230,232 143,438 -10,23 30,40 67,28 38,-13 51,-38 58,-62z"/>
   <g>
    <path class="fil15" d="M8446 7548c-287,0 -346,9 -346,110 0,101 59,110 346,110 286,0 463,-9 463,-110 0,-101 -177,-110 -463,-110z"/>
    <path class="fil15" d="M8446 7730c-287,0 -346,9 -346,110 0,101 59,110 346,110 286,0 463,-9 463,-110 0,-101 -177,-110 -463,-110z"/>
    <path class="fil15" d="M8446 7912c-287,0 -346,9 -346,110 0,101 59,110 346,110 286,0 463,-9 463,-110 0,-101 -177,-110 -463,-110z"/>
    <path class="fil15" d="M8176 7562c-96,0 -186,245 -186,537 0,194 10,347 84,441 38,48 10,78 177,96 497,54 488,-364 380,-572 -109,-209 -359,-502 -455,-502z"/>
   </g>
   <path class="fil11" d="M6164 9317c427,-336 722,428 1049,590 313,154 637,-157 785,-1589l658 158c-143,1491 -592,2205 -1183,2274 -845,98 -1801,-1047 -1309,-1433z"/>
   <g>
    <path class="fil8" d="M10356 7463c83,-11 101,-6 113,81 11,87 -5,97 -88,108 -83,11 -136,10 -147,-77 -12,-87 39,-101 122,-112z"/>
    <path class="fil8" d="M10377 7619c83,-10 101,-5 112,82 12,87 -4,97 -88,108 -83,11 -135,9 -147,-77 -11,-87 39,-102 123,-113z"/>
    <path class="fil8" d="M10397 7776c83,-11 101,-5 113,81 11,87 -5,97 -88,108 -83,11 -136,10 -147,-77 -11,-86 39,-101 122,-112z"/>
   </g>
   <path class="fil12" d="M3429 16113c-260,580 215,271 373,548 35,61 55,400 -37,418 -169,33 -514,45 -688,10 -318,-65 -376,-789 -367,-1451 1,-69 350,-77 523,-82 174,-5 -23,214 41,370 65,157 170,153 155,187zm6760 68c422,370 644,-27 937,187 78,57 164,164 190,299 31,165 22,205 -212,205 -353,-1 -830,55 -1485,-45 -68,-11 -28,-357 -8,-529 19,-173 208,52 372,10 164,-42 178,-151 206,-127z"/>
  </g>
 </g>
</svg>
