<?xml version="1.0" encoding="UTF-8"?>
<!DOCTYPE svg PUBLIC "-//W3C//DTD SVG 1.1//EN" "http://www.w3.org/Graphics/SVG/1.1/DTD/svg11.dtd">
<!-- Creator: CorelDRAW X7 -->
<svg xmlns="http://www.w3.org/2000/svg" xml:space="preserve" width="297mm" height="210mm" version="1.1" style="shape-rendering:geometricPrecision; text-rendering:geometricPrecision; image-rendering:optimizeQuality; fill-rule:evenodd; clip-rule:evenodd"
viewBox="0 0 29700 21000"
 xmlns:xlink="http://www.w3.org/1999/xlink">
 <defs>
  <style type="text/css">
   <![CDATA[
    .str0 {stroke:#FF9100;stroke-width:7.62}
    .str1 {stroke:white;stroke-width:7.62}
    .fil5 {fill:#00CCFF}
    .fil30 {fill:#91642A}
    .fil31 {fill:#9E6D2E}
    .fil24 {fill:#A8793B}
    .fil19 {fill:#B37626}
    .fil25 {fill:#BF6C00}
    .fil12 {fill:#C7924D}
    .fil11 {fill:#CC9A58}
    .fil1 {fill:#CF892D}
    .fil9 {fill:#CF974F}
    .fil4 {fill:#D49E57}
    .fil20 {fill:#D67900}
    .fil8 {fill:#DBA35A}
    .fil21 {fill:#E0E0E0}
    .fil3 {fill:#E3AC64}
    .fil13 {fill:#E3B271}
    .fil28 {fill:#E88300}
    .fil16 {fill:#EB8500}
    .fil2 {fill:#EB9D36}
    .fil27 {fill:#F09824}
    .fil22 {fill:#F0B17E}
    .fil29 {fill:#F0F0F0}
    .fil15 {fill:#F5B767}
    .fil14 {fill:#F5BC70}
    .fil10 {fill:#F5C280}
    .fil17 {fill:#FF9100}
    .fil18 {fill:#FFA530}
    .fil26 {fill:#FFB14A}
    .fil7 {fill:#FFBE69}
    .fil23 {fill:#FFCE9D}
    .fil0 {fill:#FFE5C4}
    .fil6 {fill:white}
   ]]>
  </style>
 </defs>
 <g id="Слой_x0020_1">
  <metadata id="CorelCorpID_0Corel-Layer"/>
  <rect class="fil0" width="29700" height="21000"/>
  <circle class="fil1" cx="26070" cy="11698" r="1062"/>
  <circle class="fil2" cx="25988" cy="12234" r="837"/>
  <circle class="fil1" cx="24814" cy="12607" r="1156"/>
  <polygon class="fil3" points="0,21000 29700,21000 29700,11880 0,11880 "/>
  <polygon class="fil4" points="500,21000 29700,21000 29700,15587 500,15587 "/>
  <g id="_536730712">
   <path class="fil1" d="M28453 9487c454,0 879,120 1247,330l0 4383c-368,210 -793,330 -1247,330 -1392,0 -2521,-1129 -2521,-2521 0,-1393 1129,-2522 2521,-2522z"/>
   <circle class="fil1" cx="24448" cy="13176" r="2008"/>
   <circle class="fil2" cx="27237" cy="13176" r="2395"/>
   <circle class="fil2" cx="24603" cy="14190" r="1583"/>
   <path class="fil5" d="M29700 15938c-226,-325 -358,-720 -358,-1146 0,-425 132,-820 358,-1145l0 2291z"/>
   <path class="fil1" d="M29700 16920c-1461,-343 -2548,-1654 -2548,-3219 0,-1565 1087,-2876 2548,-3219l0 6438z"/>
   <circle class="fil1" cx="26822" cy="14894" r="2185"/>
  </g>
  <g id="_496365160">
   <path class="fil1" d="M0 14251c965,-240 1681,-1112 1681,-2152 0,-1039 -716,-1912 -1681,-2151l0 4303z"/>
   <circle class="fil1" cx="2986" cy="13126" r="1766"/>
   <path class="fil2" d="M534 11020c-185,0 -364,24 -534,68l0 4076c170,44 349,68 534,68 1163,0 2106,-943 2106,-2106 0,-1163 -943,-2106 -2106,-2106z"/>
   <circle class="fil2" cx="2850" cy="14017" r="1392"/>
   <path class="fil1" d="M0 15367c381,-492 608,-1109 608,-1779 0,-671 -227,-1288 -608,-1780l0 3559z"/>
   <path class="fil1" d="M898 12715c-324,0 -630,80 -898,222l0 3398c268,142 574,223 898,223 1061,0 1922,-861 1922,-1922 0,-1061 -861,-1921 -1922,-1921z"/>
  </g>
  <g id="_496365136">
   <rect class="fil6" x="1480" y="2854" width="7260" height="1046" rx="2664" ry="1352"/>
   <ellipse class="fil6" cx="3361" cy="2890" rx="1136" ry="513"/>
   <ellipse class="fil6" cx="6813" cy="2999" rx="1136" ry="513"/>
   <ellipse class="fil6" cx="5404" cy="2735" rx="1527" ry="820"/>
  </g>
  <circle class="fil7" cx="14855" cy="2309" r="770"/>
  <g id="_496378720">
   <rect class="fil6" x="20678" y="3691" width="7523" height="1084" rx="2760" ry="1401"/>
   <ellipse class="fil6" cx="26252" cy="3728" rx="1177" ry="531"/>
   <ellipse class="fil6" cx="22675" cy="3842" rx="1177" ry="531"/>
   <ellipse class="fil6" cx="24135" cy="3568" rx="1582" ry="850"/>
  </g>
  <g id="_496359736">
   <rect class="fil6" x="15212" y="2129" width="4373" height="630" rx="1604" ry="814"/>
   <ellipse class="fil6" cx="18452" cy="2150" rx="684" ry="309"/>
   <ellipse class="fil6" cx="16373" cy="2216" rx="684" ry="309"/>
   <ellipse class="fil6" cx="17222" cy="2057" rx="920" ry="494"/>
  </g>
  <polygon class="fil8" points="10,13762 29700,13762 29700,21000 10,21000 "/>
  <rect class="fil9" x="510" y="16621" width="29180" height="3879"/>
  <circle class="fil10" transform="matrix(0.998148 0.0608401 -0.0608401 0.998148 18555.2 15381.2)" r="922"/>
  <circle class="fil11" transform="matrix(0.940747 0.0573414 -0.0573414 0.940747 19232.2 15344)" r="922"/>
  <circle class="fil11" transform="matrix(0.798579 0.0486758 -0.0486758 0.798579 17646.2 15536.8)" r="922"/>
  <circle class="fil12" transform="matrix(0.549112 0.03347 -0.03347 0.549112 19968.9 15678.4)" r="922"/>
  <circle class="fil10" transform="matrix(0.549112 0.03347 -0.03347 0.549112 17101.8 15734.5)" r="922"/>
  <circle class="fil13" transform="matrix(0.824078 0.05023 -0.044828 0.735452 18512 15650.5)" r="922"/>
  <circle class="fil10" transform="matrix(0.776688 0.0473415 -0.0422501 0.693158 19070.5 15626.8)" r="922"/>
  <circle class="fil14" transform="matrix(0.659313 0.0401871 -0.0358651 0.588406 17762.7 15760.4)" r="922"/>
  <circle class="fil15" transform="matrix(0.453351 0.0276331 -0.0246613 0.404595 19680.3 15877.3)" r="922"/>
  <circle class="fil13" transform="matrix(0.293861 0.0179117 -0.0179117 0.293861 17711 16142.8)" r="922"/>
  <path class="fil10" d="M0 16164l12885 0c85,1013 934,1810 1970,1810 1036,0 1885,-797 1970,-1810l12865 0 10 4836 -29700 0 0 -4836z"/>
  <g id="_496352824">
   <polygon class="fil16" points="7148,15081 7048,14911 5764,15638 5766,16230 "/>
   <g>
    <path class="fil17" d="M4240 14567l787 -3c69,0 -63,344 -56,419l188 1905c8,76 11,273 -58,273l-968 3c-69,0 -131,-62 -126,-138l149 -2162c5,-76 14,-297 84,-297z"/>
    <path class="fil17 str0" d="M5627 14560l-787 2c-69,0 65,343 58,419l-178 1906c-7,76 -9,272 60,272l968 -3c69,0 131,-62 125,-138l-161 -2161c-6,-76 -16,-297 -85,-297z"/>
   </g>
   <ellipse class="fil18" transform="matrix(0.37325 -0.00102042 0.000879774 0.321805 4936.43 14611.5)" rx="1984" ry="494"/>
   <path class="fil16" d="M4651 14554c-26,-582 -1206,-622 -779,530 16,42 134,260 218,394 23,36 27,44 32,53 0,7 -1,8 -2,22 -14,186 -34,451 -41,542 -18,-25 -19,-21 -73,-97 -339,-478 -835,-1475 -227,-1952 418,-327 1148,-24 1097,469 -13,128 -222,107 -225,39z"/>
   <g>
    <path class="fil17" d="M7011 14052c-328,200 -266,637 -39,990 226,353 636,533 912,356 0,-226 -207,-606 -286,-728 -111,-175 -329,-514 -587,-618z"/>
    <path class="fil16" d="M7011 14052c-115,285 384,1227 873,1346 0,-226 -207,-606 -286,-728 -111,-175 -329,-514 -587,-618z"/>
    <rect class="fil18" transform="matrix(0.264464 -0.169663 0.162633 0.253506 7276.35 14738.8)" width="106" height="503" rx="300" ry="300"/>
    <rect class="fil18" transform="matrix(0.264464 -0.169663 0.162633 0.253506 7084.23 14223.8)" width="106" height="503" rx="300" ry="300"/>
    <rect class="fil18" transform="matrix(0.264464 -0.169663 0.162633 0.253506 7664.39 15128.1)" width="106" height="503" rx="300" ry="300"/>
    <rect class="fil18" transform="matrix(0.264464 -0.169663 0.162633 0.253506 7179.1 14494.8)" width="106" height="503" rx="300" ry="300"/>
    <rect class="fil18" transform="matrix(0.264464 -0.169663 0.162633 0.253506 7374.31 14675.9)" width="106" height="503" rx="300" ry="300"/>
    <rect class="fil18" transform="matrix(0.264464 -0.169663 0.162633 0.253506 7472.27 14613.1)" width="106" height="503" rx="300" ry="300"/>
    <rect class="fil18" transform="matrix(0.264464 -0.169663 0.162633 0.253506 7284.55 14427.1)" width="106" height="503" rx="300" ry="300"/>
    <rect class="fil18" transform="matrix(0.264464 -0.169663 0.162633 0.253506 7460.81 14926.8)" width="106" height="503" rx="300" ry="300"/>
    <rect class="fil18" transform="matrix(0.264464 -0.169663 0.162633 0.253506 7566.26 14859.1)" width="106" height="503" rx="300" ry="300"/>
   </g>
   <ellipse class="fil16" transform="matrix(0.612024 -0.0016732 0.00117167 0.428577 5291.27 14615.6)" rx="395" ry="159"/>
  </g>
  <path class="fil1" d="M22702 15400l-508 -74 -1 2c57,372 -1445,532 -1057,836l933 0c211,0 421,0 632,0 200,-100 80,-514 1,-764z"/>
  <path class="fil19" d="M19813 13335l-516 -258c-53,434 -1727,63 -1420,523l994 327c225,74 449,148 674,222 248,-37 265,-520 268,-814z"/>
  <path class="fil17" d="M21258 10401l1094 -201c75,-69 74,21 118,91 -5,49 -32,108 -78,126l-1094 200 -40 -216z"/>
  <rect class="fil20" x="20832" y="10400" width="1112" height="723"/>
  <path class="fil20" d="M20082 10324l1860 644c-71,564 -84,207 -270,483 -103,154 -1518,-294 -2201,-549 261,650 415,1455 334,2684 -255,-570 -519,-402 -508,-509 164,-1612 -2886,-3956 785,-2753z"/>
  <path class="fil21" d="M19956 9342l-298 1432 314 111 562 -1438c-15,-325 -53,-626 -69,-952 -80,-629 -250,-1339 -604,-1113 -304,193 -287,613 95,1960z"/>
  <path class="fil16" d="M19434 7310c-137,1233 551,1313 1102,1994 497,614 175,1149 268,1280 654,-50 959,-150 1666,-293 -68,-3910 -2894,-4265 -3036,-2981z"/>
  <path class="fil22" d="M19908 6413l-858 73c9,254 406,510 437,610 211,41 442,-149 534,-428 -90,-123 -106,-217 -113,-255z"/>
  <path class="fil23" d="M18668 5154c573,-483 875,-198 1171,237 190,279 19,735 69,1022 -67,145 -360,500 -483,536 -343,99 -454,-77 -613,-263 -134,-157 -101,-135 -224,-345 -338,-575 -493,-704 80,-1187z"/>
  <path class="fil24" d="M18368 5962c-32,-77 -49,-114 -63,-177 -19,-83 -35,-213 107,-383 263,-315 593,-327 705,-268 182,95 179,291 393,405 13,-68 75,-92 105,-92 89,-2 259,287 121,336 46,40 148,221 173,277 41,-266 49,-456 -99,-771 -293,-622 -808,-496 -1157,-295 -281,162 -362,459 -377,519 -36,146 -62,200 -26,299 35,99 105,119 118,150z"/>
  <path class="fil6 str1" d="M21813 7683c-246,126 -201,1045 -386,1593 122,53 161,37 332,124 240,-707 595,-922 567,-1884 18,-247 -2105,-1714 -2273,-829 -91,480 104,435 1760,996z"/>
  <circle class="fil23" transform="matrix(0.966969 -0.124645 0.124645 0.966969 14533 10482.8)" r="265"/>
  <g id="_537267944">
   <path class="fil1" d="M15488 4287c0,584 -297,1097 -612,1506l182 8201 -542 0c55,-2631 109,-5262 164,-7893 15,-757 -102,-1387 -604,-1389 538,-148 801,996 802,996 341,-506 568,-1000 610,-1421z"/>
   <path class="fil1" d="M14759 7760c-3,0 414,-143 635,-968 177,-661 165,-1818 131,-434 -21,838 -478,1329 -766,1402z"/>
   <path class="fil1" d="M14735 9265c-4,0 560,-7 1158,-922 479,-733 927,-2143 332,-475 -360,1010 -1111,1424 -1490,1397z"/>
   <path class="fil1" d="M13651 7225c-3,1 315,-109 483,-738 135,-504 126,-1386 100,-331 -16,639 -364,1014 -583,1069z"/>
   <path class="fil1" d="M15338 7087c-2,0 234,-49 412,-481 142,-346 216,-973 101,-226 -70,453 -352,688 -513,707z"/>
   <path class="fil1" d="M16170 7842c-1,0 110,19 250,-134 111,-122 233,-375 76,-78 -95,179 -252,231 -326,212z"/>
   <path class="fil1" d="M13491 6507c1,0 -198,-41 -348,-406 -119,-292 -182,-822 -85,-191 59,383 297,580 433,597z"/>
   <path class="fil1" d="M14812 8778c5,2 -775,-267 -1188,-1812 -331,-1237 -309,-3402 -245,-811 39,1568 894,2488 1433,2623z"/>
   <path class="fil1" d="M15488 6585c1,0 -123,-25 -217,-252 -74,-182 -113,-512 -53,-119 37,238 185,361 270,371z"/>
   <path class="fil1" d="M14555 13755c-33,-70 -18,78 -36,96 -437,427 -468,910 -438,976 50,-260 134,-779 470,-761 0,0 -306,458 -233,1059 -30,-728 476,-1138 503,-649 27,489 -207,211 -102,796 -53,-400 160,-475 156,-641 -9,-405 116,-904 192,-70 36,400 77,445 309,482 -299,-1 -280,-412 -268,-845 143,-31 542,72 457,753 45,-155 24,-400 -56,-623 -82,-228 -397,-285 -454,-442 -7,-315 -282,-225 -500,-131z"/>
   <path class="fil1" d="M15228 5203c-1,0 123,-25 216,-252 74,-182 114,-512 53,-119 -37,238 -185,361 -269,371z"/>
   <path class="fil1" d="M15411 4757c0,1 -57,-40 -55,-176 1,-109 53,-286 -2,-72 -33,129 16,225 57,248z"/>
   <path class="fil1" d="M14500 4938c0,1 -43,-55 -179,-46 -109,7 -283,68 -72,2 128,-40 225,4 251,44z"/>
   <path class="fil1" d="M14449 4852c0,0 -40,-14 -61,-93 -17,-63 -16,-174 -13,-41 2,80 46,127 74,134z"/>
   <g>
    <path class="fil1" d="M12484 5878c193,-78 558,-132 619,223 -349,228 -538,-25 -619,-223z"/>
    <path class="fil2" d="M12484 5878c193,-78 558,-132 619,223 -209,-26 -322,-155 -619,-223z"/>
   </g>
   <g>
    <path class="fil1" d="M16203 5830c-204,22 -532,151 -368,517 420,42 421,-289 368,-517z"/>
    <path class="fil2" d="M16203 5830c-204,22 -532,151 -368,517 154,-128 167,-306 368,-517z"/>
   </g>
   <g>
    <path class="fil1" d="M13236 7453c190,-77 540,-119 569,281 -351,236 -508,-56 -569,-281z"/>
    <path class="fil2" d="M13236 7453c190,-77 540,-119 569,281 -197,-40 -292,-190 -569,-281z"/>
   </g>
   <g>
    <path class="fil1" d="M15699 7690c197,60 494,248 265,576 -421,-37 -359,-363 -265,-576z"/>
    <path class="fil2" d="M15699 7690c197,60 494,248 265,576 -128,-154 -107,-331 -265,-576z"/>
   </g>
   <g>
    <path class="fil1" d="M13119 4895c139,36 361,156 249,376 -286,-18 -285,-234 -249,-376z"/>
    <path class="fil2" d="M13119 4895c139,36 361,156 249,376 -105,-100 -113,-217 -249,-376z"/>
   </g>
   <g>
    <path class="fil2" d="M13545 5018c15,89 4,248 -151,241 -64,-169 60,-225 151,-241z"/>
    <path class="fil1" d="M13545 5018c15,89 4,248 -151,241 30,-86 95,-122 151,-241z"/>
   </g>
   <g>
    <path class="fil1" d="M15738 4788c-98,-30 -274,-35 -271,165 185,102 250,-50 271,-165z"/>
    <path class="fil2" d="M15738 4788c-98,-30 -274,-35 -271,165 96,-28 137,-107 271,-165z"/>
   </g>
   <g>
    <path class="fil1" d="M16043 6467c-98,-30 -274,-36 -271,164 185,103 250,-49 271,-164z"/>
    <path class="fil2" d="M16043 6467c-98,-30 -274,-36 -271,164 96,-28 137,-107 271,-164z"/>
   </g>
   <g>
    <path class="fil1" d="M16656 7650c-62,-41 -183,-79 -220,61 108,108 184,15 220,-61z"/>
    <path class="fil2" d="M16656 7650c-62,-41 -183,-79 -220,61 72,-1 116,-48 220,-61z"/>
   </g>
   <g>
    <path class="fil1" d="M16439 7491c46,22 110,80 41,150 -101,-26 -72,-102 -41,-150z"/>
    <path class="fil2" d="M16439 7491c46,22 110,80 41,150 -25,-42 -12,-84 -41,-150z"/>
   </g>
   <g>
    <path class="fil1" d="M13980 5922c116,10 304,80 214,290 -239,28 -242,-160 -214,-290z"/>
    <path class="fil2" d="M13980 5922c116,10 304,80 214,290 -89,-71 -98,-172 -214,-290z"/>
   </g>
   <g>
    <path class="fil1" d="M15322 6115c23,51 37,146 -71,157 -68,-94 10,-139 71,-157z"/>
    <path class="fil2" d="M15322 6115c23,51 37,146 -71,157 9,-54 49,-81 71,-157z"/>
   </g>
   <g>
    <path class="fil1" d="M15124 6119c44,-1 117,17 93,100 -89,20 -98,-50 -93,-100z"/>
    <path class="fil2" d="M15124 6119c44,-1 117,17 93,100 -37,-23 -45,-61 -93,-100z"/>
   </g>
   <g>
    <path class="fil1" d="M15734 6350c42,7 107,38 69,110 -86,3 -82,-64 -69,-110z"/>
    <path class="fil2" d="M15734 6350c42,7 107,38 69,110 -30,-28 -30,-64 -69,-110z"/>
   </g>
   <g>
    <path class="fil1" d="M16446 8376c-119,-114 -369,-249 -509,42 192,281 397,109 509,-42z"/>
    <path class="fil2" d="M16446 8376c-119,-114 -369,-249 -509,42 159,29 275,-56 509,-42z"/>
   </g>
   <g>
    <path class="fil2" d="M14263 7211c95,214 155,610 -299,658 -282,-391 45,-581 299,-658z"/>
    <path class="fil1" d="M14263 7211c95,214 155,610 -299,658 38,-226 206,-340 299,-658z"/>
   </g>
   <g>
    <path class="fil2" d="M14452 6535c-27,126 -127,321 -344,196 1,-263 206,-243 344,-196z"/>
    <path class="fil1" d="M14452 6535c-27,126 -127,321 -344,196 89,-88 200,-84 344,-196z"/>
   </g>
   <g>
    <path class="fil1" d="M15454 4773c26,12 62,43 25,83 -57,-14 -42,-56 -25,-83z"/>
    <path class="fil2" d="M15454 4773c26,12 62,43 25,83 -15,-24 -8,-47 -25,-83z"/>
   </g>
  </g>
  <circle class="fil23" transform="matrix(0.992222 -0.124479 0.124479 0.992222 21487.1 9613.08)" r="365"/>
  <circle class="fil22" cx="19709" cy="11122" r="365"/>
  <rect class="fil25" transform="matrix(0.598678 0.54131 -0.370341 0.40959 21389.2 9551.51)" width="369" height="9463" rx="5000" ry="5000"/>
  <path class="fil18" d="M17476 12824l1271 1150c-426,405 -924,1142 -1857,835 -297,-754 -52,-1271 586,-1985z"/>
  <path class="fil17" d="M18111 13399l636 575c-426,405 -924,1142 -1857,835 382,-443 606,-709 1221,-1410z"/>
  <path class="fil26" d="M18486 12764l-677 748c-40,44 -69,184 -26,251l0 0c43,67 207,-7 246,-51l677 -749c-39,44 -122,35 -182,-20l0 0c-61,-55 -78,-135 -38,-179z"/>
  <path class="fil16" d="M18266 13228l-338 374c-39,44 -145,161 -145,161l0 0c43,67 207,-7 246,-51l677 -749c-39,44 -122,35 -182,-20l0 0c0,0 -298,328 -258,285z"/>
  <path class="fil17" d="M22470 10291l-1051 218c0,653 28,1637 179,2396 152,760 595,1711 595,2423 14,-7 169,72 509,72 -150,-965 -213,-2079 -456,-2671l224 -2438z"/>
  <path class="fil23" d="M14672 10520c64,86 -1238,1322 -2233,260 -84,-89 -109,-266 30,-350 468,-284 599,1040 1938,-17 83,-65 169,-23 265,107z"/>
  <path class="fil18" d="M12261 13616l-479 -117c-107,688 -102,1311 -580,2170 160,40 136,34 296,73 451,-830 666,-1438 763,-2126z"/>
  <path class="fil27" d="M13055 13505l-493 -22c29,696 154,1306 -147,2242 164,7 139,6 304,13 281,-901 374,-1539 336,-2233z"/>
  <polygon class="fil28" points="13193,12884 12225,12654 12429,13737 13141,13640 "/>
  <polygon class="fil17" points="11646,12884 12682,12884 12350,13747 11649,13679 "/>
  <path class="fil29" d="M12499 10399c183,-124 557,225 642,324l-414 429c-66,-74 -324,-362 -323,-556 1,-98 11,-139 95,-197z"/>
  <path class="fil6" d="M12334 10365c51,-12 108,-19 157,0 1177,438 513,2121 702,2519l-1547 0c7,-320 171,-519 240,-1092 68,-573 -12,-450 68,-1051 28,-203 144,-324 380,-376z"/>
  <path class="fil23" d="M11944 8421c521,-240 1431,878 898,1455 -63,68 -141,136 -223,186 -102,62 -119,211 -67,335 75,177 -466,253 -402,-14 16,-69 1,-117 -32,-121 -416,-50 -761,-393 -811,-843 -58,-522 116,-757 637,-998z"/>
  <path class="fil23" d="M12747 8839c41,62 79,94 150,82 71,-11 40,185 -5,190 -46,5 -88,-41 -94,-102 -7,-61 -91,-233 -51,-170z"/>
  <path class="fil30" d="M12108 10326c10,-45 -18,-54 -44,-63 -76,-26 -153,-35 -214,-57 -251,-90 -426,-277 -554,-524 -28,-55 -91,-259 -88,-412 5,-212 188,-411 214,-475 188,-475 782,-635 1191,-204 88,92 73,102 88,139 -117,293 -490,393 -635,464 -161,78 -293,294 -222,402 125,189 -5,374 173,516 16,12 93,68 115,141 10,33 -23,65 -24,73z"/>
  <path class="fil23" d="M14488 11274c18,106 -1286,690 -2176,45 -99,-72 -76,-262 56,-352 391,-269 36,523 1907,165 172,-33 161,-167 213,142z"/>
  <path class="fil29" d="M12183 10736c188,-128 573,232 660,333l-425 440c-68,-76 -334,-371 -332,-571 1,-100 11,-143 97,-202z"/>
  <path class="fil31" d="M11275 15531c63,89 199,75 274,116 116,64 137,158 251,237 235,162 180,569 -100,444l-592 -265c19,-234 65,-394 167,-532z"/>
  <path class="fil30" d="M12438 15651c91,52 210,-25 297,-19 135,10 180,88 317,111 284,49 369,421 55,421l-665 0c-74,-143 -78,-344 -4,-513z"/>
  <path class="fil23" d="M14482 10893c35,-26 74,-42 114,-50 -7,47 4,97 34,138 61,83 178,100 260,40 6,-5 11,-9 16,-13 50,117 16,257 -91,336 -125,92 -300,65 -392,-59 -92,-125 -66,-300 59,-392z"/>
  <path class="fil22" d="M12573 10077c-20,21 -48,79 -51,98 -10,56 -3,77 -188,-61 -18,-14 48,-7 118,-12 46,-4 96,-19 121,-25z"/>
 </g>
</svg>
