<?xml version="1.0" encoding="UTF-8"?>
<!DOCTYPE svg PUBLIC "-//W3C//DTD SVG 1.1//EN" "http://www.w3.org/Graphics/SVG/1.1/DTD/svg11.dtd">
<!-- Creator: CorelDRAW X7 -->
<svg xmlns="http://www.w3.org/2000/svg" xml:space="preserve" width="297mm" height="210mm" version="1.1" style="shape-rendering:geometricPrecision; text-rendering:geometricPrecision; image-rendering:optimizeQuality; fill-rule:evenodd; clip-rule:evenodd"
viewBox="0 0 29700 21000"
 xmlns:xlink="http://www.w3.org/1999/xlink">
 <defs>
  <style type="text/css">
   <![CDATA[
    .fil14 {fill:none}
    .fil33 {fill:#91642A}
    .fil41 {fill:#9B5408}
    .fil51 {fill:#A8793B}
    .fil44 {fill:#AC5B0F}
    .fil36 {fill:#B37626}
    .fil48 {fill:#B56E10}
    .fil46 {fill:#B86B07}
    .fil43 {fill:#B9620F}
    .fil19 {fill:#BF7515}
    .fil47 {fill:#C97B16}
    .fil17 {fill:#CC9042}
    .fil42 {fill:#CE6E0F}
    .fil29 {fill:#CF8627}
    .fil20 {fill:#CF892D}
    .fil35 {fill:#D17600}
    .fil15 {fill:#D49B51}
    .fil45 {fill:#D67900}
    .fil11 {fill:#D69B4D}
    .fil13 {fill:#DBA35A}
    .fil21 {fill:#DE922F}
    .fil18 {fill:#E0A455}
    .fil50 {fill:#E0E0E0}
    .fil40 {fill:#E28710}
    .fil4 {fill:#E29D42}
    .fil49 {fill:#E38203}
    .fil12 {fill:#E3AC64}
    .fil5 {fill:#E6A146}
    .fil6 {fill:#E8A449}
    .fil28 {fill:#EB8500}
    .fil23 {fill:#EB8500}
    .fil30 {fill:#EB9D36}
    .fil16 {fill:#EBAF61}
    .fil26 {fill:#EDEDED}
    .fil9 {fill:#EFA543}
    .fil7 {fill:#F0AC53}
    .fil31 {fill:#F0B17E}
    .fil38 {fill:#F0F0F0}
    .fil8 {fill:#F9AC46}
    .fil10 {fill:#F9B75F}
    .fil3 {fill:#FABA66}
    .fil2 {fill:#FBBE6E}
    .fil25 {fill:#FF9100}
    .fil24 {fill:#FF970F}
    .fil37 {fill:#FF9914}
    .fil39 {fill:#FF9E1F}
    .fil34 {fill:#FFA530}
    .fil1 {fill:#FFA834}
    .fil22 {fill:#FFAC40}
    .fil0 {fill:#FFC476}
    .fil32 {fill:#FFCE9D}
    .fil27 {fill:white}
   ]]>
  </style>
 </defs>
 <g id="Слой_x0020_1">
  <metadata id="CorelCorpID_0Corel-Layer"/>
  <g id="_505940832">
   <polygon class="fil0" points="0,21000 29700,21000 29700,0 0,0 "/>
   <circle class="fil1" cx="24956" cy="4264" r="770"/>
   <path class="fil2" d="M23205 5617c2432,-749 4803,-1173 6495,-1004l0 5433c-223,42 -469,68 -742,68 -1111,0 -12996,364 -13013,-1180 -15,-1399 1151,-1955 5695,-3441 472,-154 1018,292 1565,124z"/>
   <path class="fil3" d="M12999 4739c-6921,-177 -11495,-129 -12999,1355l0 3189c367,734 924,1578 1681,2551 1073,395 945,621 3637,621 1937,0 16402,1404 24382,1221l0 -5351c-4080,-1827 -10135,-3418 -16701,-3586z"/>
   <polygon class="fil4" points="23376,3396 23553,3014 23711,3336 23813,6114 23336,6114 "/>
   <polygon class="fil4" points="21165,6114 23554,6114 23554,2990 "/>
   <polygon class="fil5" points="25942,6114 23554,6114 23554,2990 "/>
   <polygon class="fil6" points="22741,4052 23554,4552 23554,2990 "/>
   <polygon class="fil7" points="24366,4052 23554,4552 23554,2990 "/>
   <polygon class="fil5" points="28850,5032 28926,4868 28994,5006 29038,6200 28832,6200 "/>
   <polygon class="fil4" points="27900,6200 28926,6200 28926,4858 "/>
   <polygon class="fil5" points="29700,6200 28926,6200 28926,4858 29700,5870 "/>
   <polygon class="fil6" points="28577,5314 28926,5529 28926,4858 "/>
   <polygon class="fil7" points="29275,5314 28926,5529 28926,4858 "/>
   <polygon class="fil5" points="27610,4808 27693,4629 27767,4780 27814,6079 27591,6079 "/>
   <polygon class="fil4" points="26576,6079 27693,6079 27693,4618 "/>
   <polygon class="fil5" points="28810,6079 27693,6079 27693,4618 "/>
   <polygon class="fil6" points="27313,5115 27693,5349 27693,4618 "/>
   <polygon class="fil7" points="28073,5115 27693,5349 27693,4618 "/>
   <polygon class="fil5" points="25866,4149 25991,3877 26104,4106 26176,6079 25837,6079 "/>
   <polygon class="fil4" points="24295,6079 25992,6079 25992,3860 "/>
   <polygon class="fil5" points="27688,6079 25992,6079 25992,3860 "/>
   <polygon class="fil6" points="25415,4615 25992,4970 25992,3860 "/>
   <polygon class="fil7" points="26569,4615 25992,4970 25992,3860 "/>
   <path class="fil8" d="M23901 5033c119,181 149,218 487,741 22,33 11,66 -62,76 54,82 116,179 191,294 28,44 12,88 -93,98 49,75 104,160 167,257 36,56 6,112 -164,112l-421 0 -105 0 -94 0 -432 0c-170,0 -200,-56 -163,-112 62,-97 117,-182 166,-257 -105,-10 -121,-54 -92,-98 74,-115 137,-212 190,-294 -72,-10 -83,-43 -62,-76 338,-523 369,-560 487,-741z"/>
   <path class="fil9" d="M24603 5041c123,188 154,226 506,770 22,34 11,69 -65,79 56,86 121,186 198,306 30,45 13,91 -96,102 51,78 108,166 173,266 38,59 7,117 -170,117l-438 0 -108 0 -99 0 -448 0c-177,0 -208,-58 -170,-117 64,-100 122,-188 172,-266 -108,-11 -125,-57 -96,-102 78,-120 143,-220 198,-306 -75,-10 -86,-45 -64,-79 351,-544 383,-582 507,-770z"/>
   <path class="fil8" d="M26770 5113c141,215 178,259 579,881 25,39 13,78 -73,90 63,98 137,213 226,349 34,53 14,105 -110,117 58,90 123,190 198,305 43,67 8,134 -195,134l-500 0 -125 0 -112 0 -513 0c-202,0 -238,-67 -194,-134 74,-115 139,-215 197,-305 -124,-12 -143,-64 -110,-117 89,-136 163,-251 227,-349 -86,-12 -99,-51 -74,-90 402,-622 438,-666 579,-881z"/>
   <path class="fil9" d="M27440 5505c123,188 155,227 506,771 22,34 11,68 -64,79 55,85 121,186 198,305 29,46 13,91 -96,103 51,78 108,166 173,266 38,59 7,117 -171,117l-437 0 -109 0 -99 0 -448 0c-177,0 -208,-58 -170,-117 64,-100 122,-188 172,-266 -108,-12 -125,-57 -96,-103 78,-119 143,-220 198,-305 -75,-11 -86,-45 -64,-79 351,-544 383,-583 507,-771z"/>
   <path class="fil9" d="M25811 5259c123,188 155,226 506,770 22,35 11,69 -64,79 55,86 120,186 198,306 29,46 13,91 -96,102 50,78 108,166 173,267 38,58 7,117 -171,117l-437 0 -109 0 -99 0 -448 0c-177,0 -208,-59 -170,-117 64,-101 122,-189 172,-267 -108,-11 -125,-56 -96,-102 78,-120 143,-220 198,-306 -75,-10 -86,-44 -64,-79 351,-544 383,-582 507,-770z"/>
   <path class="fil8" d="M25160 4881c149,228 188,274 613,933 27,42 14,83 -78,96 68,103 147,225 240,370 36,55 16,110 -116,124 62,94 131,201 209,323 46,71 9,142 -206,142l-530 0 -132 0 -119 0 -544 0c-214,0 -252,-71 -206,-142 79,-122 148,-229 210,-323 -132,-14 -152,-69 -117,-124 94,-145 173,-267 240,-370 -91,-13 -105,-54 -78,-96 426,-659 464,-705 614,-933z"/>
   <path class="fil8" d="M29299 5586c109,168 147,217 401,609l0 1032 -292 0 -109 0 -99 0 -448 0c-177,0 -208,-58 -171,-117 65,-100 123,-188 173,-266 -108,-11 -125,-57 -96,-103 78,-119 143,-220 198,-305 -75,-11 -86,-45 -64,-79 351,-544 383,-582 507,-771z"/>
   <path class="fil9" d="M28712 5640c123,188 155,227 506,770 22,35 11,69 -64,80 55,85 120,185 198,305 29,46 12,91 -96,102 50,78 108,166 172,266 38,59 7,118 -170,118l-437 0 -109 0 -98 0 -449 0c-177,0 -208,-59 -170,-118 65,-100 122,-188 173,-266 -109,-11 -126,-56 -96,-102 77,-120 142,-220 198,-305 -76,-11 -87,-45 -65,-80 351,-543 383,-582 507,-770z"/>
   <path class="fil8" d="M28018 5585c113,173 142,208 464,707 20,31 10,62 -59,72 51,79 111,171 182,280 27,42 11,84 -89,94 47,72 100,153 159,245 35,53 6,107 -156,107l-401 0 -100 0 -91 0 -411 0c-163,0 -191,-54 -156,-107 59,-92 112,-173 158,-245 -99,-10 -115,-52 -88,-94 71,-109 131,-201 182,-280 -69,-10 -80,-41 -59,-72 322,-499 351,-534 465,-707z"/>
   <path class="fil9" d="M22590 4795c164,251 207,302 674,1026 30,45 15,91 -85,105 74,114 160,247 264,407 39,61 16,121 -128,136 67,104 143,221 230,355 50,78 9,155 -227,155l-583 0 -145 0 -130 0 -598 0c-235,0 -277,-77 -226,-155 86,-134 162,-251 230,-355 -145,-15 -167,-75 -128,-136 103,-160 190,-293 264,-407 -101,-14 -116,-60 -86,-105 468,-724 510,-775 674,-1026z"/>
   <path class="fil8" d="M21430 4828c190,291 240,350 783,1191 34,53 17,106 -100,123 86,132 187,287 307,472 45,71 20,141 -149,158 79,121 167,257 268,412 58,91 10,182 -264,182l-677 0 -168 0 -152 0 -694 0c-274,0 -322,-91 -263,-182 100,-155 188,-291 267,-412 -168,-17 -194,-87 -149,-158 120,-185 221,-340 307,-472 -117,-17 -134,-70 -100,-123 543,-841 593,-900 784,-1191z"/>
   <path class="fil10" d="M21484 6635c3770,-128 6612,-72 8216,652l0 6145c-745,364 -656,572 -2528,572 -1871,0 -21213,1420 -21241,-979 -28,-2399 7336,-6111 15553,-6390z"/>
   <polygon class="fil11" points="2644,9152 2880,8823 3115,9152 3115,12176 2644,12176 "/>
   <polygon class="fil11" points="4084,9152 4320,8823 4555,9152 4555,12176 4084,12176 "/>
   <polygon class="fil11" points="5523,9152 5760,8823 5996,9152 5996,12176 5523,12176 "/>
   <polygon class="fil11" points="6963,9152 7199,8823 7436,9152 7436,12176 6963,12176 "/>
   <polygon class="fil11" points="0,8824 236,9152 236,12176 0,12176 "/>
   <polygon class="fil11" points="1204,9152 1440,8823 1675,9152 1675,12176 1204,12176 "/>
   <polygon class="fil11" points="0,11508 8591,11508 8591,11732 0,11732 "/>
   <polygon class="fil11" points="0,9597 8875,9597 8875,9821 0,9821 "/>
   <polygon class="fil11" points="8404,9152 8639,8823 8875,9152 8875,12176 8404,12176 "/>
   <polygon class="fil11" points="11283,9151 11520,8822 11755,9151 11755,12175 11283,12175 "/>
   <polygon class="fil11" points="12723,9151 12960,8822 13195,9151 13195,12175 12723,12175 "/>
   <polygon class="fil11" points="14163,9151 14399,8822 14636,9151 14636,12175 14163,12175 "/>
   <polygon class="fil11" points="15603,9151 15839,8822 16075,9151 16075,12175 15603,12175 "/>
   <polygon class="fil11" points="8639,8823 8639,8822 8875,9151 8875,12175 8639,12175 "/>
   <polygon class="fil11" points="9844,9151 10080,8822 10315,9151 10315,12175 9844,12175 "/>
   <polygon class="fil11" points="8639,11507 17231,11507 17231,11731 8639,11731 "/>
   <polygon class="fil11" points="8639,9596 17515,9596 17515,9820 8639,9820 "/>
   <polygon class="fil11" points="17044,9151 17279,8822 17515,9151 17515,12175 17044,12175 "/>
   <polygon class="fil12" points="0,11409 29700,11409 29700,20869 0,20869 "/>
   <polygon class="fil13" points="0,13297 29700,13297 29700,16651 0,16651 "/>
   <polyline class="fil14" points="15939,13297 15688,16651 0,17103 0,13297 "/>
   <polygon class="fil15" points="0,16651 29700,16651 29700,20985 0,20985 "/>
   <path class="fil16" d="M10446 14875c91,67 756,380 1774,637 2966,750 9457,1922 17480,1972l0 3516 -16233 0c-3606,-1586 -6597,-3639 -6905,-5777 -45,-316 -368,-252 -326,-338 328,-671 2415,-517 3590,-212 271,70 490,141 620,202z"/>
   <polygon class="fil17" points="12220,15512 23796,11409 12220,11409 "/>
   <path class="fil18" d="M29700 21000l-1339 -1527 -2019 -43 -1087 1570 4445 0zm-4736 0l-950 -1608 -1958 31 -3018 1577 5926 0zm-7205 0l-260 -1606 -1912 209 -1043 1397 3215 0zm-3298 0l795 -1391 -359 -21 -2960 1412 2524 0z"/>
   <polygon class="fil19" points="0,7672 12220,7672 12220,15512 0,15512 "/>
   <polygon class="fil20" points="4833,1491 13267,7672 0,7672 0,5033 "/>
   <polygon class="fil21" points="4833,2259 12220,7672 0,7672 0,5800 "/>
   <polygon class="fil22" points="4833,4484 7066,6120 2600,6120 "/>
   <polygon class="fil23" points="4833,4712 6499,5932 3167,5932 "/>
   <polygon class="fil24" points="4833,4712 4833,5932 3167,5932 "/>
   <polygon class="fil22" points="0,9367 4133,9367 4133,12554 0,12554 "/>
   <polygon class="fil23" points="0,9611 3858,9611 3858,12309 0,12309 "/>
   <polygon class="fil24" points="0,9611 3858,9611 0,11942 "/>
   <rect class="fil22" x="2279" y="9531" width="275" height="2939"/>
   <rect class="fil22" x="695" y="9544" width="275" height="2939"/>
   <path class="fil25" d="M19956 9103c107,66 140,206 73,313 -14,23 -32,43 -53,61l91 387 -71 114 -114 -70 43 -69 -69 -42 43 -68 -69 -42 -39 -166c-24,-6 -50,-16 -75,-31 -107,-66 -140,-206 -74,-314 66,-107 207,-140 314,-73zm-184 169c39,24 86,13 110,-26 24,-38 13,-86 -26,-110 -38,-24 -86,-13 -110,26 -24,39 -13,86 26,110z"/>
   <path class="fil26" d="M25145 12917l-1478 298c-199,722 -467,2361 -540,3248 -83,994 81,1695 -20,2043 134,37 192,247 291,323 130,99 327,-48 391,-255 321,-1039 214,-1457 321,-2433l1035 -3224z"/>
   <path class="fil27" d="M25813 13098l-639 -591 -975 276c167,734 231,2231 481,3090 272,936 1623,1455 2091,2166 73,111 381,267 573,243 180,-23 159,-287 117,-401 -368,-1003 -932,-1450 -1863,-2172l215 -2611z"/>
   <path class="fil28" d="M22943 10570c-455,-807 -1111,-1720 -1478,-1141 -112,0 -94,368 684,1206 170,183 442,614 660,883 807,-296 2133,-1754 1083,-2555 -368,-282 -244,172 -949,1607z"/>
   <ellipse class="fil29" cx="25748" cy="10666" rx="1706" ry="2141"/>
   <path class="fil29" d="M25748 8470c943,0 1734,861 1645,1602 -90,740 -938,-597 -1881,-597 -942,0 -1470,2319 -1470,1137 0,-1183 764,-2142 1706,-2142z"/>
   <circle class="fil30" cx="27259" cy="10113" r="75"/>
   <path class="fil29" d="M27000 10666c498,0 563,-15 563,421 0,436 -308,1306 -806,1306 -498,0 -723,-617 -723,-1054 0,-436 468,-673 966,-673z"/>
   <path class="fil29" d="M23899 8920c101,32 242,218 247,279 -939,118 -519,897 -498,1447 88,233 136,402 35,370 -566,-698 -823,-2148 216,-2096z"/>
   <path class="fil25" d="M25704 9179c-527,-448 -1736,-848 -2182,-118 -375,613 4,1555 -43,2708 -20,491 -124,957 188,1446 721,-8 1425,-110 2146,-117 380,-1384 163,-2027 -109,-3919z"/>
   <path class="fil31" d="M24583 7943l-621 49c0,244 101,554 135,827 154,149 561,68 791,-115 -52,-158 -96,-338 25,-636 93,-230 -99,-125 -330,-125z"/>
   <path class="fil32" d="M24354 6553c744,-89 839,315 847,841 6,338 -214,529 -382,823 -99,173 -530,316 -748,307 -135,-5 -278,-20 -289,-107 -20,-161 -154,-376 -147,-498 11,-208 -12,-219 1,-462 35,-666 -26,-816 718,-904z"/>
   <path class="fil33" d="M23647 7224c-2,-392 363,-109 593,-202 271,-110 234,438 472,674 185,-304 274,124 114,245 -17,226 758,185 148,529 138,-154 19,-314 83,-451 96,-207 349,-749 199,-1147 -86,-229 -230,-352 -666,-449 -324,-71 -715,172 -761,214 -126,117 -197,314 -182,587z"/>
   <path class="fil28" d="M25201 8724c-161,-214 -370,-311 -362,-234 8,81 9,138 -139,201 -108,46 -370,2 -558,161 -85,-146 -75,-366 -98,-224 -11,70 -145,-34 -82,222 15,60 -5,268 70,386 771,-606 1528,-40 1169,-512z"/>
   <path class="fil29" d="M25287 8909c106,0 296,136 320,193 -861,394 -226,1011 -41,1529 155,196 204,364 98,364 -638,-458 -1384,-1823 -377,-2086z"/>
   <path class="fil34" d="M25701 11118c-86,354 -372,956 -483,1194 -198,422 -427,505 -382,763 10,59 72,191 225,242 162,55 348,-4 404,-84 144,-205 217,-516 453,-879 213,-328 434,-977 462,-1282 54,-573 -633,-2737 -1267,-1815 -214,312 461,1357 588,1861z"/>
   <path class="fil30" d="M23824 7398c631,62 663,-86 978,-310l-1226 -143c-452,256 -383,391 248,453z"/>
   <path class="fil29" d="M24552 6078c-477,-55 -914,333 -976,867l1726 202c63,-535 -273,-1013 -750,-1069z"/>
   <path class="fil28" d="M23982 8970c36,0 24,0 60,0 -76,219 -131,228 -107,573 -36,0 -10,1 -45,1 0,-322 -16,-238 92,-574z"/>
   <path class="fil28" d="M24227 9041c36,0 24,0 60,0 -76,218 -131,228 -107,573 -36,0 -10,0 -46,0 0,-321 -15,-237 93,-573z"/>
   <path class="fil28" d="M23926 9584c-14,0 -13,0 -28,0 -3,-120 -1,-43 1,-52 7,-62 28,-43 27,52z"/>
   <path class="fil28" d="M24171 9655c-14,0 -13,0 -28,0 -3,-121 -1,-43 1,-53 7,-61 28,-43 27,53z"/>
   <path class="fil32" d="M20666 9217c-6,-169 389,77 690,-4 300,-81 416,-50 411,155 -11,480 -936,483 -1101,-151z"/>
   <path class="fil32" d="M21196 9090c18,-67 144,72 272,72 129,0 171,25 144,105 -64,189 -429,91 -416,-177z"/>
   <path class="fil32" d="M24687 13950c143,218 186,-91 201,-221 13,-114 143,-179 293,-215 172,-41 329,-203 160,-363 -397,-377 -1043,165 -654,799z"/>
   <path class="fil28" d="M27106 18161c364,228 221,-393 395,-261 42,32 214,31 339,216 70,103 42,128 127,220 191,207 37,291 -234,416 -57,26 -148,-59 -242,-14 -71,33 -130,165 -170,212 -42,48 -92,64 -99,65 -134,26 -125,71 -166,94 -49,27 -97,2 -134,11 -54,12 -47,80 -87,104 -110,66 -104,8 -148,21 -55,18 -57,73 -95,98 -74,47 -57,-91 -174,53 -90,110 -583,-50 -329,-245 231,-179 400,-421 558,-657 178,-265 122,-147 124,-455 1,-164 377,-6 335,122z"/>
   <path class="fil35" d="M23332 18649c220,368 376,-249 471,-53 23,48 176,126 204,347 15,124 -22,133 12,254 76,271 -99,276 -398,264 -62,-3 -104,-120 -209,-124 -78,-2 -190,89 -248,112 -59,24 -111,15 -117,14 -132,-39 -143,5 -190,7 -56,2 -88,-42 -125,-51 -54,-14 -78,50 -125,53 -128,9 -96,-41 -141,-48 -58,-10 -84,38 -129,43 -88,9 -10,-107 -180,-32 -130,57 -496,-310 -181,-368 287,-54 548,-192 796,-330 279,-155 176,-76 318,-349 75,-145 338,167 242,261z"/>
   <path class="fil25" d="M27178 16231l531 0c-31,790 -137,1677 205,2740 -186,8 -158,7 -345,15 -319,-1023 -435,-1967 -391,-2755z"/>
   <path class="fil36" d="M27888 18887c-103,59 -382,-120 -368,-23 19,121 -186,277 -342,303 -322,55 -406,302 -50,302l755 0c84,-162 88,-390 5,-582z"/>
   <path class="fil37" d="M27664 16231l677 -9c-32,790 -283,1716 60,2779 -187,8 -159,7 -345,15 -320,-1023 -435,-1997 -392,-2785z"/>
   <path class="fil32" d="M25104 13940c-73,74 489,745 1050,868 221,49 742,-295 870,-461 165,-215 370,-302 -133,-432 -89,-23 -52,-41 -137,57 -96,111 -458,410 -529,408 -500,-11 -739,-482 -884,-634 -76,-79 -64,21 -237,194z"/>
   <path class="fil32" d="M25241 13417c-40,-30 -84,-49 -129,-58 7,54 -6,110 -41,157 -70,93 -202,111 -295,41 -7,-5 -12,-10 -18,-15 -59,132 -21,292 99,383 141,106 340,78 446,-62 106,-141 78,-340 -62,-446z"/>
   <path class="fil38" d="M27503 13483c-213,-145 -796,309 -894,424l430 543c77,-86 576,-511 574,-738 -1,-114 -12,-162 -110,-229z"/>
   <path class="fil29" d="M27374 13450c62,19 148,134 151,171 -577,72 -319,551 -306,888 55,143 84,247 22,227 -348,-428 -506,-1318 133,-1286z"/>
   <ellipse class="fil29" transform="matrix(0.476193 -0.126348 0.126348 0.476193 28330 14377.6)" rx="1706" ry="2141"/>
   <path class="fil29" d="M28053 13332c448,-119 934,191 985,555 51,364 -522,-165 -971,-46 -449,119 -407,1290 -556,727 -150,-564 93,-1117 542,-1236z"/>
   <circle class="fil30" transform="matrix(0.225167 -0.0597433 0.0597433 0.225167 28979.6 13923.7)" r="159"/>
   <path class="fil29" d="M28926 14219c237,-63 267,-78 322,130 55,208 18,661 -219,724 -238,63 -422,-203 -478,-411 -55,-208 138,-380 375,-443z"/>
   <path class="fil27" d="M27686 13406c-540,-57 -679,460 -673,928 8,720 71,1702 -59,2024 448,-184 828,107 1511,-138 -8,-362 -1,-366 -79,-1017 -78,-651 -2,-646 -93,-1328 -24,-178 -247,-513 -429,-609 -88,-46 -104,147 -178,140z"/>
   <path class="fil20" d="M28366 18891c-103,59 -382,-120 -367,-23 18,121 -186,276 -342,303 -322,55 -407,302 -51,302l755 0c85,-162 89,-390 5,-582z"/>
   <path class="fil32" d="M27268 11264c-399,-17 -575,236 -606,1061 -9,239 -83,262 229,791 49,82 290,0 385,29 28,9 82,200 85,339 4,260 382,-45 465,-118 120,-106 -36,-99 1,-272 90,-424 573,-676 444,-1127 -150,-523 -410,-678 -1003,-703z"/>
   <path class="fil33" d="M27862 13151c-28,-40 -4,-59 18,-78 62,-54 132,-94 182,-139 205,-184 298,-432 323,-720 5,-63 -15,-283 -78,-428 -88,-201 -342,-319 -392,-371 -367,-380 -999,-299 -1220,275 -48,123 -30,126 -29,167 119,-190 188,-228 307,-51 79,116 240,224 590,361 356,138 376,615 301,743 -10,17 -61,102 -54,180 4,36 48,54 52,61z"/>
   <path class="fil31" d="M27278 13141c28,11 42,86 53,103 32,49 70,26 193,-179 11,-20 -53,16 -122,40 -41,14 -75,27 -124,36z"/>
   <path class="fil29" d="M28045 13368c146,0 194,185 209,219 -830,53 -349,647 -220,802 94,121 189,296 124,296 -472,-55 -986,-1028 -113,-1317z"/>
   <path class="fil32" d="M28738 16358c103,11 71,-1319 -273,-2264 -61,-166 -76,-61 -194,-202 -362,-434 -568,-231 -304,372 160,367 498,934 498,1956 -27,198 -81,99 273,138z"/>
   <path class="fil38" d="M27865 13591c-246,148 2,721 83,859l678 -222c-59,-106 -228,-570 -471,-655 -121,-42 -177,-50 -290,18z"/>
   <path class="fil32" d="M28289 16304c-24,43 -37,89 -40,135 52,-14 109,-9 160,20 101,57 137,186 80,288 -4,6 -8,13 -12,19 138,41 292,-18 366,-149 87,-153 33,-347 -120,-434 -153,-86 -348,-32 -434,121z"/>
   <rect class="fil39" x="7066" y="9611" width="3088" height="5901"/>
   <polygon class="fil40" points="7066,9611 9271,9611 9279,12773 7066,15512 7220,13011 "/>
   <ellipse class="fil41" cx="9138" cy="13072" rx="1340" ry="518"/>
   <rect class="fil42" x="7730" y="9965" width="1540" height="978"/>
   <polygon class="fil43" points="9121,10830 9271,10944 7730,10944 7880,10830 8540,10429 "/>
   <polygon class="fil43" points="7880,10079 7730,9965 9271,9965 9121,10079 8461,10480 "/>
   <rect class="fil44" x="7880" y="10079" width="1242" height="750"/>
   <rect class="fil45" x="8501" y="11363" width="255" height="1648"/>
   <path class="fil46" d="M9278 12554c674,27 1200,247 1200,515 0,286 -600,518 -1340,518 -173,0 -339,-12 -491,-36l632 -781 -1 -216z"/>
   <rect class="fil45" x="8628" y="12223" width="2181" height="550"/>
   <rect class="fil23" x="9520" y="11750" width="1429" height="473" rx="104" ry="136"/>
   <rect class="fil23" x="9730" y="11750" width="943" height="473"/>
   <rect class="fil23" x="8806" y="11918" width="549" height="305" rx="69" ry="152"/>
   <polygon class="fil47" points="7066,9611 7615,10320 7615,14837 7066,15512 "/>
   <rect class="fil48" x="7453" y="12485" width="122" height="305"/>
   <path class="fil42" d="M8958 11918l244 0c29,0 52,6 75,19l0 266c-22,13 -46,20 -75,20l-244 0c-84,0 -152,-69 -152,-153l0 0c0,-84 68,-152 152,-152z"/>
   <rect class="fil43" x="8501" y="11363" width="255" height="1648"/>
   <polygon class="fil43" points="8628,12223 9275,12223 9275,12773 8628,12773 "/>
   <rect class="fil19" x="10154" y="9547" width="1604" height="5901"/>
   <path class="fil36" d="M15674 18666l665 -83c44,218 392,329 736,593 76,57 326,10 405,48 61,29 72,54 96,102 -34,68 -174,128 -541,210 -444,-3 -418,-9 -708,-3 -90,-52 21,-102 -331,-152 0,155 -1,-100 -1,152 -357,1 0,0 -357,1 -60,-239 -4,-170 -23,-249 -48,-211 74,-439 59,-619z"/>
   <path class="fil20" d="M14934 18741l665 -82c44,217 392,329 737,592 75,58 325,11 404,49 61,29 72,54 96,102 -34,67 -174,128 -541,209 -444,-3 -418,-8 -708,-2 -90,-53 22,-102 -331,-152 0,155 -1,-100 0,152 -358,0 0,0 -358,0 -60,-239 -4,-169 -22,-248 -49,-211 73,-439 58,-620z"/>
   <path class="fil49" d="M16492 12804l-1150 29c-247,664 213,1650 102,2960 -86,1017 182,2041 230,2873 375,2 690,-22 665,-83 -235,-567 139,-5159 153,-5779z"/>
   <path class="fil25" d="M15926 12710l-1242 123c-247,664 213,1650 102,2960 -86,1017 192,2066 148,2948 472,4 679,15 665,-98 -229,-1819 265,-3189 327,-5933z"/>
   <path class="fil32" d="M19921 9022c-231,-266 -630,-208 -825,-58 -118,90 -179,179 -187,258 -20,174 175,304 311,319 114,12 164,-277 332,-276 141,0 372,-53 -14,-134 124,-227 615,158 383,-109z"/>
   <path class="fil50" d="M17292 10146c364,-297 1109,-529 1617,-924l311 319 -1982 1434c-292,-304 -514,-513 -753,-845 -412,-681 -315,-1465 -37,-1403 278,62 168,-205 844,1419z"/>
   <path class="fil28" d="M15878 8525c252,-57 557,-10 683,135 422,486 110,1902 -46,2747 -153,830 48,1241 -23,1397 -697,80 -1037,37 -1808,29 179,-958 50,-2526 136,-3291 40,-350 -11,-708 113,-882 115,-161 401,-150 543,-186 138,-35 276,33 402,51z"/>
   <path class="fil31" d="M15438 8178l825 -410c133,237 -88,691 -61,800 -169,154 -486,110 -726,-94 15,-162 -23,-257 -38,-296z"/>
   <path class="fil32" d="M15871 6340c-792,-123 -909,305 -937,867 -19,360 390,682 504,971 142,96 607,257 739,221 368,-100 371,-322 413,-580 36,-218 18,-180 14,-440 -12,-712 58,-917 -733,-1039z"/>
   <path class="fil51" d="M16678 6980c-30,-35 -83,-70 -66,-155 27,-134 -53,-138 -73,-169 -57,-87 -133,-153 -372,-166 -60,-4 -362,20 -407,173 -36,122 -179,110 -91,282 -177,-127 91,-357 -45,-338 -140,19 -152,78 -186,134 -112,188 10,195 -122,419 -50,-55 -119,-43 -147,-27 -83,48 -77,407 76,374 -101,165 -35,313 -4,349 -185,-220 -298,-389 -337,-758 -79,-731 461,-903 891,-913 348,-8 586,218 633,265 114,113 150,107 241,197 47,48 16,108 2,175 -12,61 5,141 7,158z"/>
   <path class="fil32" d="M11131 10975c207,175 574,227 728,35 414,-512 -76,-607 -187,-477 -99,118 -137,201 -337,217 -665,55 -411,49 -204,225z"/>
   <polygon class="fil27" points="15476,8474 15867,8656 15614,8883 "/>
   <polygon class="fil50" points="16203,8508 16092,8635 16305,8713 "/>
   <path class="fil27" d="M13500 9951c1133,-1177 1303,-1468 1676,-1276 435,225 63,841 -524,1292 -319,206 -600,421 -918,628l-1779 278 -73 -382 1618 -540z"/>
  </g>
 </g>
</svg>
