<svg xmlns="http://www.w3.org/2000/svg" viewBox="0 0 29700 21000" shape-rendering="geometricPrecision" text-rendering="geometricPrecision" image-rendering="optimizeQuality" fill-rule="evenodd" clip-rule="evenodd"><defs><style>.str0,.str1{stroke:#eb9d36;stroke-width:7.62}.str0{stroke:#fff}.fil6{fill:#b5792a}.fil7{fill:#cf8627}.fil4{fill:#cf892d}.fil14{fill:#dbdbdb}.fil3{fill:#e3ac64}.fil13{fill:#e88300}.fil5{fill:#eb9d36}.fil17{fill:#f0b17e}.fil22{fill:#f0f0f0}.fil15{fill:#ff9100}.fil11{fill:#ffce9d}.fil1{fill:#fff}.fil8{fill:#cf8627;fill-rule:nonzero}</style></defs><g id="Слой_x0020_1"><g id="_377340016"><path fill="#ffe5c4" d="M6 20990h29700V-10H6z"/><rect class="fil1" x="25054" y="3842" width="4164" height="1224" rx="500" ry="717"/><ellipse class="fil1" cx="26502" cy="3808" rx="699" ry="604"/><ellipse class="fil1 str0" cx="27641" cy="3520" rx="971" ry="838"/><ellipse class="fil1" cx="28517" cy="3955" rx="370" ry="319"/><path fill="#f5c280" d="M6 20990h29694v-9889H6z"/><ellipse class="fil3" cx="8685" cy="19586" rx="2617" ry="647"/><ellipse class="fil3" cx="16552" cy="19601" rx="2833" ry="647"/><rect class="fil4" x="2327" y="9979" width="212" height="1623" rx="500" ry="469"/><ellipse class="fil5" cx="1882" cy="9749" rx="843" ry="848"/><ellipse class="fil5" cx="3016" cy="9649" rx="961" ry="967"/><ellipse class="fil5" cx="1444" cy="9007" rx="613" ry="617"/><ellipse class="fil5 str1" cx="2548" cy="8677" rx="803" ry="808"/><path class="fil6" d="M2404 11598c-44-12-77-53-77-101v-1412c0-48 33-89 77-101v1614z"/><path class="fil7" d="M1882 8902c198 0 379 68 522 182v1332c-143 114-324 182-522 182-465 0-842-380-842-848 0-469 377-848 842-848z"/><path class="fil7" d="M2404 10396c-213-178-349-446-349-746 0-301 136-569 349-747v1493zM1444 8391c339 0 613 276 613 617 0 340-274 616-613 616-338 0-612-276-612-616 0-341 274-617 612-617z"/><path class="fil7" d="M2404 9472c-374-68-658-398-658-795 0-396 284-726 658-795v1590z"/><path class="fil8" d="M2404 9476c-165-30-312-110-426-225-146-147-236-350-236-574s90-427 236-574c114-114 261-195 426-224v7c-162 30-308 110-420 223-145 145-234 346-234 568s89 423 234 569c112 113 258 192 420 222v8z"/><rect class="fil4" x="21766" y="10026" width="212" height="1623" rx="500" ry="469"/><ellipse class="fil5" cx="21322" cy="9796" rx="843" ry="848"/><ellipse class="fil5" cx="22455" cy="9696" rx="961" ry="967"/><ellipse class="fil5" cx="20883" cy="9054" rx="613" ry="617"/><ellipse class="fil5 str1" cx="21988" cy="8723" rx="803" ry="808"/><path class="fil6" d="M21844 11645c-44-13-77-54-77-102v-1411c0-48 33-89 77-102v1615z"/><path class="fil7" d="M21322 8948c197 0 378 68 522 182v1333c-144 114-325 182-522 182-466 0-843-380-843-848 0-469 377-849 843-849z"/><path class="fil7" d="M21844 10443c-214-178-350-446-350-747 0-300 136-569 350-746v1493zM20884 8438c338 0 613 276 613 616 0 341-275 617-613 617-339 0-613-276-613-617 0-340 274-616 613-616z"/><path class="fil7" d="M21844 9519c-375-69-659-398-659-795s284-727 659-795v1590z"/><path class="fil8" d="M21844 9523c-165-30-313-111-426-225-146-147-237-350-237-574s91-427 237-574c113-114 261-195 426-225v8c-163 30-309 109-421 222-144 146-234 347-234 569s90 423 234 568c112 113 258 193 421 223v8z"/><rect class="fil4" x="28738" y="10021" width="212" height="1623" rx="500" ry="469"/><ellipse class="fil5" cx="28294" cy="9791" rx="843" ry="848"/><path class="fil5" d="M29427 8724c97 0 191 14 279 41v1852c-88 27-182 42-279 42-531 0-961-434-961-968s430-967 961-967z"/><ellipse class="fil5" cx="27855" cy="9049" rx="613" ry="617"/><path class="fil5" d="M28960 7911c339 0 629 212 746 511v593c-117 300-407 512-746 512-444 0-803-362-803-808s359-808 803-808z"/><path d="M28960 7907c222 0 424 91 570 238 75 76 135 166 176 267v21c-40-107-103-203-182-283-144-145-344-235-564-235-221 0-421 90-565 235-145 146-234 347-234 569s89 423 234 568c144 146 344 236 565 236 220 0 420-90 564-236 79-79 142-175 182-282v21c-41 100-101 191-176 267-146 147-348 237-570 237-223 0-425-90-571-237s-236-350-236-574 90-427 236-574 348-238 571-238z" fill="#eb9d36" fill-rule="nonzero"/><path class="fil6" d="M28816 11641c-44-13-77-54-77-102v-1411c0-49 33-90 77-102v1615z"/><path class="fil7" d="M28294 8944c197 0 378 68 522 182v1332c-144 114-325 182-522 182-465 0-843-379-843-848 0-468 378-848 843-848z"/><path class="fil7" d="M28816 10438c-214-177-350-446-350-746 0-301 136-569 350-746v1492zM27856 8433c338 0 613 276 613 617s-275 617-613 617c-339 0-613-276-613-617s274-617 613-617z"/><path class="fil7" d="M28816 9514c-375-68-659-398-659-794 0-397 284-727 659-795v1589z"/><path class="fil8" d="M28816 9518c-165-30-313-110-426-225-146-146-237-349-237-573 0-225 91-427 237-574 113-115 261-195 426-225v8c-163 29-309 109-421 222-144 146-234 347-234 569s90 423 234 568c112 113 258 193 421 222v8z"/><rect class="fil4" x="5758" y="9900" width="212" height="1623" rx="500" ry="469"/><ellipse class="fil5" cx="5881" cy="8922" rx="1094" ry="1525"/><ellipse class="fil5" cx="5881" cy="7397" rx="811" ry="808"/><ellipse class="fil5" cx="5881" cy="6441" rx="460" ry="664"/><path class="fil6" d="M5833 11519c-43-13-75-54-75-102v-1411c0-48 32-88 75-101v1614z"/><path class="fil7" d="M5833 10446c-581-35-1046-704-1046-1524s465-1489 1046-1524v3048z"/><path class="fil7" d="M5833 8203c-425-25-763-376-763-806 0-431 338-782 763-807v1613z"/><path class="fil7" d="M5833 7101c-231-34-411-317-411-660 0-344 180-626 411-661v1321z"/><rect class="fil4" x="25226" y="9910" width="212" height="1623" rx="500" ry="469"/><ellipse class="fil5" cx="25350" cy="8931" rx="1094" ry="1525"/><ellipse class="fil5" cx="25350" cy="7406" rx="811" ry="808"/><ellipse class="fil5" cx="25350" cy="6450" rx="460" ry="664"/><path class="fil6" d="M25302 11528c-44-13-76-54-76-102v-1411c0-48 32-88 76-101v1614z"/><path class="fil7" d="M25302 10455c-582-35-1046-704-1046-1524s464-1489 1046-1524v3048z"/><path class="fil7" d="M25302 8212c-426-25-763-376-763-806 0-431 337-782 763-807v1613z"/><path class="fil7" d="M25302 7110c-231-34-412-317-412-660 0-344 181-626 412-660v1320z"/><path fill="#e8b776" d="M15 14486h29691v-3387H15z"/><path class="fil11" d="M19023 5060c1110 163 877 775 762 1572-51 354-474 791-614 1083-78 164-137 399-70 650 56 208-105 423-192 479-359 233-1034 1-959-279 78-289 105-730 133-854 59-268-366-350-477-499-168-226 69-622-23-773-81-131-103-213-10-273 632-408 339-1269 1450-1106z"/><path d="M19120 4968c558 83 989 408 1181 1014 64 202-208 870-468 1062-605 446-663 701-655 644 3-20-173-534 148-754 204-140 132-359-66-369-43-3 221-437 107-778-115-342-782-732-1129-551 49-101 324-350 882-268z" fill="#bd6b00"/><path class="fil11" d="M16581 7297c144 10 109 201-44 337-161 143-291 317-305 336-233-11-488-30-439-104 68-101 86-504 104-592 8-41 63-347 377-327 451 27 129 155 307 350z"/><path class="fil13" d="M18019 8371c-346-65-1844 784-2101 652 142-310 83-776 327-1069-258 0-293-12-445-74-62-25-331 355-544 834-206 464-61 811 90 1025 10 14 2182 336 2596-428 427-787 422-876 77-940z"/><path class="fil14" d="M17329 12305c526 0 908 80 1433 80 0 1826-481 4797-481 6623-525 0 51 13-475 13 0-1826-234-4897-477-6716z"/><path class="fil1" d="M17700 12305c521-67 1026 61 1547-7 356 1798-10 5010 63 6803-549 26-65-28-548-5-111-1900-455-4828-1062-6791z"/><path class="fil15" d="M19192 8237c470 0 470 1337 167 2071-222 810-281 1040-103 2041l-1927-45c-126-1405-172-1468-268-2566 85-1249 628-1501 2131-1501z"/><g><path class="fil15" d="M15947 7188c248-249 482-482 731-731 207-84 686 421 533 542l-811 641c-143 113-597-309-453-452z"/><path class="fil1" d="M16013 7211c174-176 348-353 522-529 21 149 554 328 428 427l-592 460c-101 79-459-256-358-358z"/></g><path class="fil11" d="M16655 7386c25-111 87-179 120-182 46-4 46 215 26 295-13 53-110 52-185 105-53 38-125 61-252 205-99-43 61-162 68-194 50-216 217-203 223-229z"/><g><path class="fil11" d="M16405 6752c67 67 136 240 97 305-40 66-138-106-205-173-67-68-95-102-55-168 40-65 96-31 163 36z"/><path class="fil11" d="M16325 6869c63 92 105 306 44 374-61 69-136-150-199-242-64-91-88-137-27-206 61-68 118-18 182 74z" stroke="#ffce9d" stroke-width="7.62"/><path class="fil11" d="M16220 6967c60 87 100 290 42 355-57 65-129-143-189-230-59-86-82-130-25-195 58-64 113-16 172 70z"/><path class="fil11" d="M16086 7076c43 62 71 209 30 255-42 47-93-103-136-165s-60-94-18-140c41-47 80-13 124 50z"/></g><path class="fil11" d="M19084 13056c69-98 91-200 334-300 244-100 599-12 752 279 152 291 31 655-201 777-231 121-332 85-485 29 49-26 0 0 116-61 115-61 182-298 91-487-91-188-302-283-360-293-59-11-108-17-247 56z"/><path d="M18636 8832c37 502 322 793 546 1232 129 251 239 248 149 901-42 304 106 1303 133 1743 5 87 451 112 475 83 55-68 122-317 187-952 116-1119-59-1316-111-1989-66-878-401-1497-761-1607-254-78-655 105-618 589z" fill="#ffaf47"/><path class="fil17" d="M18050 7512c107 93 45 212 50 301 14 256-195 360 553-158 84-57-396-68-603-143z"/><g><circle cx="23229" cy="2734" r="1824" fill="#ffd399"/><circle cx="23229" cy="2734" r="1232" fill="#ffc06e"/><circle class="fil15" cx="23229" cy="2734" r="808"/></g><g><rect class="fil1" x="18026" y="2420" width="2386" height="701" rx="286" ry="411"/><ellipse class="fil1" cx="18855" cy="2401" rx="401" ry="346"/><ellipse class="fil1" cx="19509" cy="2236" rx="556" ry="480"/><ellipse class="fil1" cx="20010" cy="2485" rx="212" ry="183"/></g><g><rect class="fil1" x="10871" y="1852" width="3993" height="829" rx="479" ry="486"/><ellipse class="fil1" cx="13475" cy="1830" rx="670" ry="409"/><ellipse class="fil1" cx="12382" cy="1634" rx="931" ry="568"/><ellipse class="fil1" cx="11543" cy="1929" rx="355" ry="216"/></g><g><rect class="fil1" x="1282" y="1745" width="1922" height="391" rx="231" ry="229"/><ellipse class="fil1" cx="2536" cy="1735" rx="323" ry="193"/><ellipse class="fil1 str0" cx="2010" cy="1643" rx="448" ry="268"/><ellipse class="fil1" cx="1606" cy="1782" rx="171" ry="102"/></g><g><rect class="fil1" x="4085" y="3612" width="4130" height="1111" rx="496" ry="651"/><ellipse class="fil1" cx="6779" cy="3582" rx="693" ry="548"/><ellipse class="fil1" cx="5648" cy="3320" rx="963" ry="761"/><ellipse class="fil1" cx="4780" cy="3715" rx="367" ry="290"/></g><path class="fil11" d="M12747 11141c94 127-1821 1943-3283 383-123-131-160-392 44-515 688-417 881 1528 2849-25 123-96 248-34 390 157z"/><path d="M9204 15691l-704-172c-159 1012-151 1926-853 3190 234 57 199 49 434 106 663-1219 980-2112 1123-3124z" fill="#ffa530"/><path d="M10458 15453l-719 92c215 1001 550 1852 348 3284 240-31 204-27 444-57 181-1376 156-2323-73-3319z" fill="#f09824"/><path class="fil13" d="M10573 14615l-1423-338 485 1592 1016-171z"/><path class="fil15" d="M8299 14615h1523l-488 1269-1030-101z"/><path class="fil22" d="M9553 10978c268-183 819 331 943 476l-608 630c-97-109-477-532-474-817 1-144 15-204 139-289z"/><path class="fil1" d="M9310 10913h232c1311 0 954 2925 1031 3702H8299c21-1115-411-3702 1011-3702z"/><path class="fil11" d="M8737 8057c766-354 2104 1290 1319 2137-92 100-207 200-327 273-150 91-175 311-98 493 110 260-685 372-591-20 24-101 1-173-46-178-612-73-1119-577-1193-1240-86-767 171-1111 936-1465z"/><path class="fil11" d="M9917 8670c60 92 116 139 220 122 105-18 59 270-7 278-66 7-128-60-138-150-10-89-134-342-75-250z"/><path d="M8978 10856c15-67-26-79-65-92-111-38-225-52-314-84-369-132-626-407-814-771-41-80-134-380-129-605 6-312 276-604 313-698 277-698 1150-933 1752-300 128 135 107 149 128 204-171 431-719 578-933 682-235 115-431 432-326 591 184 277-8 550 255 758 22 17 136 100 168 207 15 49-33 97-35 108z" fill="#91642a"/><path class="fil11" d="M11245 14518c-42 173-2999-178-2699-2573 25-201 216-390 479-333 778 171-691 1867 2075 2455 173 36 209 190 145 451z"/><path class="fil22" d="M9026 11300c345 72 358 886 338 1092h-947c12-157 56-771 280-983 113-107 170-142 329-109z"/><path class="fil1" d="M7754 18505c92 131 292 111 402 171 172 94 202 233 369 348 346 238 264 836-146 652l-870-389c28-344 96-579 245-782z"/><path class="fil22" d="M10106 18682c134 77 309-37 437-27 198 14 264 128 466 163 417 71 542 617 81 617h-977c-109-209-115-504-7-753z"/><path class="fil11" d="M11181 13849c62-15 124-15 183-2-37 60-51 133-33 207 34 147 182 237 328 203 10-3 20-5 29-9 1 188-127 357-317 402-221 53-443-84-496-305-52-222 85-444 306-496z"/><circle class="fil11" transform="matrix(1.42111 -.18318 .18318 1.42111 12542.1 11086.3)" r="265"/><path d="M16810 19445h1356c247 0 208-557 118-702l-479 5c-110 1-955 230-1276 310-182 45-60 387 281 387z" fill="#d67900"/><path class="fil15" d="M17724 19731h1465c267 0 215-576 117-725l-548 8c-119 1-991 236-1338 319-196 46-64 398 304 398z"/><path class="fil1" d="M18839 19175c13 10 16 32 4 54-12 23-34 39-47 28-92-75-201-127-327-168-25-8-25-13-15-15 22-6 66-16 77-18 48-9 222 54 308 119zM18617 19228c13 10 16 32 4 55-11 22-34 38-47 28-92-76-201-128-327-168-25-8-25-14-15-16 22-6 66-16 77-18 48-9 222 54 308 119z"/><path class="fil14" d="M17879 18912c13 9 16 31 4 54-11 22-34 38-46 28-93-76-202-128-327-168-26-8-26-13-16-16 22-5 66-16 77-18 48-9 222 54 308 120zM17663 18966c13 10 16 32 4 54-12 23-34 39-47 28-92-75-201-127-327-167-25-9-25-14-15-16 22-6 66-16 77-18 48-9 221 54 308 119z"/><path class="fil17" d="M9662 10490c-30 30-70 116-76 144-15 82-3 113-276-90-26-20 70-10 174-18 68-5 142-28 178-36z"/><g><path class="fil15" d="M13037 10302c188-34 416-61 626-62v2296l-530-4c-434-402-402-852-111-1242 199-266 83-750 15-988zm1251 0c-188-34-416-61-625-62v2296l529-4c435-402 402-852 111-1242-199-266-82-750-15-988z"/><path class="fil15" d="M12588 10734c-136 257-87 605 110 777s466 102 602-156c5-9 10-19 14-28-122 205-328 272-472 147-149-131-173-420-53-647 109-207 300-290 446-204-14-16-29-31-45-45-196-172-466-102-602 156zM12993 10143c439 11 850 0 1275 0 284 0 102 39 77 77l-18 28c-25 38-33 64-59 64h-1228c-15-56-102-170-47-169z"/><ellipse class="fil15" cx="13661" cy="12536" rx="542" ry="61"/></g><path class="fil15" d="M13056 10169h1176c-67 485-132 930 0 1093-267 927-651 990-1176 0 260-409 167-772 0-1093z"/><path class="fil1" d="M13291 12402c-333-216-324-704-81-980 233 177 579-97 817 0 284 117 373 609 78 936-98 109-676 133-814 44z"/></g></g></svg>