<?xml version="1.0" encoding="UTF-8"?>
<!DOCTYPE svg PUBLIC "-//W3C//DTD SVG 1.1//EN" "http://www.w3.org/Graphics/SVG/1.1/DTD/svg11.dtd">
<!-- Creator: CorelDRAW X7 -->
<svg xmlns="http://www.w3.org/2000/svg" xml:space="preserve" width="145.997mm" height="210mm" version="1.1" style="shape-rendering:geometricPrecision; text-rendering:geometricPrecision; image-rendering:optimizeQuality; fill-rule:evenodd; clip-rule:evenodd"
viewBox="0 0 14600 21000"
 >
 <defs>
  <style type="text/css">
   <![CDATA[
    .str0 {stroke:white;stroke-width:20}
    .str2 {stroke:#CF892D;stroke-width:7.62}
    .str1 {stroke:#EB9D36;stroke-width:7.62}
    .fil16 {fill:#965500}
    .fil17 {fill:#A65E00}
    .fil10 {fill:#AD7225}
    .fil0 {fill:#BA6900}
    .fil14 {fill:#BA7C2B}
    .fil1 {fill:#C77100}
    .fil8 {fill:#CF892D}
    .fil4 {fill:#DB7C00}
    .fil11 {fill:#E07F00}
    .fil5 {fill:#E8BC90}
    .fil9 {fill:#EB9D36}
    .fil12 {fill:#F08800}
    .fil2 {fill:#FF9101}
    .fil13 {fill:#FF9A17}
    .fil7 {fill:#FFA024}
    .fil15 {fill:#FFAD42}
    .fil6 {fill:#FFCC99}
    .fil3 {fill:white}
    .fil18 {fill:#CF8627;fill-rule:nonzero}
   ]]>
  </style>
 </defs>
 <g id="Слой_x0020_1">
  <metadata id="CorelCorpID_0Corel-Layer"/>
  <g id="_511345136">
   <path class="fil0" d="M11718 15080c10,31 -22,72 9,106 74,82 252,165 367,257 132,86 251,119 393,353 22,304 -1004,-35 -1115,-64 -116,-31 -182,-62 -232,-91 -133,-77 -67,-252 -57,-311 18,-53 109,-280 139,-314 85,-65 402,-215 508,-143 21,20 -33,142 -12,207z"/>
   <path class="fil1" d="M11545 15159c10,33 -23,77 9,114 81,89 273,178 397,278 143,92 272,129 424,381 25,329 -1084,-38 -1204,-69 -126,-34 -196,-67 -250,-98 -144,-83 -72,-273 -62,-336 20,-58 118,-302 150,-339 92,-71 434,-232 549,-155 23,22 -36,153 -13,224z"/>
   <path class="fil2" d="M10458 13030c-1395,-349 -1154,-418 -1836,-372 30,-222 97,-556 146,-1258 13,-183 -68,-879 -70,-1092 -4,-268 -11,-540 61,-690 81,-182 499,-439 628,-527 160,-62 302,-39 484,10 94,26 182,63 264,111 44,-64 36,23 54,35 524,348 777,1160 620,2099 -138,828 -244,1194 -331,1461 -68,209 -7,188 -20,223z"/>
   <path class="fil3" d="M10239 10235c26,38 134,112 185,133 6,-149 107,-229 33,-412 -158,-390 -166,-628 -286,-757 -97,-104 -281,-135 -574,-119 -133,8 -127,-82 -200,46 218,209 649,1001 842,1109z"/>
   <g>
    <polygon class="fil4" points="10502,9501 10161,9178 10161,9178 10329,9938 10329,9938 "/>
    <polygon class="fil4" points="10576,9836 10235,9514 10235,9514 10424,10368 "/>
   </g>
   <path class="fil5" d="M9517 8201l788 110 -141 886c-36,75 -532,224 -777,-106l130 -890z"/>
   <ellipse class="fil6" transform="matrix(1.08356 0.150621 -0.140322 1.00947 10070.5 7856.49)" rx="935" ry="1023"/>
   <path class="fil4" d="M9943 7819l143 -1033c181,34 312,-86 707,42 -247,-31 -258,104 -179,109 123,6 411,40 499,111 -167,14 2,45 73,215 -292,-61 227,65 -95,670 1,-110 -128,-291 -93,-235 0,0 21,74 -45,173 -87,-212 -400,-127 -645,-203 -300,-93 -516,-248 -527,-282 -236,91 -397,79 -553,324 -9,-18 -131,403 -78,553 11,33 -84,-29 -113,-399 -1,-96 38,-690 429,-878 -126,-96 -186,-231 -103,-301 120,321 537,75 723,101l-143 1033z"/>
   <g>
    <polygon class="fil7" points="9441,9722 9387,9091 9387,9091 10048,9905 10048,9905 "/>
    <polygon class="fil7" points="9734,10082 9679,9451 9679,9451 10424,10368 "/>
   </g>
   <rect class="fil8" transform="matrix(0.975654 0.219313 -0.311071 1.38385 9123.55 13387.8)" width="464" height="1141"/>
   <rect class="fil9" transform="matrix(0.416043 0.0935206 -0.311071 1.38385 9389.95 13447.7)" width="464" height="1141"/>
   <path class="fil10" d="M10874 13397l-74 306c-24,97 -98,164 -169,148l-2617 -588c-71,-16 -111,-109 -89,-206l64 -286c32,-142 810,-15 1545,140 813,171 1374,342 1340,486z"/>
   <path class="fil11" d="M9066 12239c1022,230 2095,330 2823,656 301,134 11,1570 -105,2341l-601 -11 49 -1615c-1299,-263 -2662,-76 -2166,-1371z"/>
   <path class="fil12" d="M8717 12138c1067,239 2175,226 3106,757 236,135 -147,1572 -269,2378l-627 -17 52 -1687c-1356,-274 -2780,-79 -2262,-1431z"/>
   <path class="fil13" d="M7744 12974c589,-1066 645,-2603 1014,-3376 82,-182 344,-448 629,-507 122,116 668,220 782,77 568,157 726,898 913,1626 234,906 428,1828 531,1994 -1093,-245 -2162,964 -3869,186z"/>
   <polygon class="fil8" points="9245,14986 9978,15524 9956,15615 7955,15164 7975,15074 8788,14882 "/>
   <polygon class="fil8" points="8901,14908 8304,15242 7955,15164 7975,15074 8788,14882 "/>
   <polygon class="fil9" points="9247,14986 9976,15522 9953,15614 7952,15162 9514,15516 9054,14942 "/>
   <rect class="fil14" transform="matrix(1.14976 0.25845 -0.0444741 0.197851 7974.95 15073.7)" width="1742" height="458"/>
   <path class="fil4" d="M9962 7887l222 -988c559,126 859,545 887,906 -105,-365 -410,-478 -804,-545 -142,-24 -369,166 -486,126 -51,28 -178,297 -407,389 -254,103 -212,597 -132,697 -270,-379 -212,-654 -166,-857 59,-264 287,-459 551,-589 173,-85 345,-175 557,-127l-222 988z"/>
  </g>
  <g id="_378649128">
   <path class="fil10" d="M1130 12022l2696 -1092c117,-47 274,68 351,259l1767 4362c78,190 45,383 -71,430l-2696 1093c-117,47 -274,-69 -351,-259l-1768 -4363c-77,-190 -45,-383 72,-430z"/>
   <path class="fil10" d="M1532 11859l2640 -1069c114,-47 270,70 347,260l1767 4362c77,191 47,383 -67,429l-2640 1070c-114,46 -270,-71 -347,-261l-1767 -4362c-77,-190 -47,-382 67,-429z"/>
   <path class="fil8" d="M1668 12196l2641 -1070c114,-46 265,60 337,238l1650 4071c72,178 37,360 -77,406l-2640 1070c-114,46 -265,-60 -337,-238l-1650 -4071c-72,-178 -38,-360 76,-406z"/>
   <path class="fil9" d="M1262 12361l2640 -1070c115,-47 266,60 338,238l1650 4071c72,178 37,359 -77,405l-2640 1070c-115,47 -266,-60 -338,-237l-1649 -4072c-72,-177 -38,-359 76,-405z"/>
   <path class="fil14" d="M1641 12196l2345 -950c102,-41 242,70 314,248l1654 4079c72,178 48,356 -54,397l-2344 950c-102,41 -243,-70 -315,-248l-1653 -4079c-72,-178 -48,-356 53,-397z"/>
   <g>
    <path class="fil7" d="M2424 11323l-110 343c-10,32 9,51 42,41l811 -219c33,-9 69,-42 79,-74l109 -343c11,-32 -9,-50 -42,-41l-810 219c-34,9 -69,43 -79,74z"/>
    <path class="fil2" d="M2356 11707l810 -219c34,-9 69,-43 80,-75l109 -343c11,-31 -9,-50 -42,-40 -51,37 -566,408 -957,677z"/>
   </g>
   <rect class="fil1" transform="matrix(1.19843 -0.485623 0.375553 0.926801 828.72 10695.7)" width="103" height="188"/>
   <polygon class="fil0" points="829,10696 890,10671 961,10845 899,10870 "/>
   <g>
    <rect class="fil7" transform="matrix(0.593632 -0.240548 0.144467 0.356519 975.34 11508.3)" width="736" height="1389"/>
    <path class="fil7" d="M931 10846l52 -21c106,-43 237,31 291,165l224 552c54,135 12,278 -95,322l-51 20c-106,43 -237,-30 -291,-165l-224 -552c-54,-134 -12,-278 95,-321z"/>
   </g>
   <g>
    <polygon class="fil2" points="975,11508 1194,11420 1395,11915 1176,12004 "/>
    <path class="fil2" d="M932 10846l25 -10 421 1038 -26 10c-106,43 -228,-8 -271,-114l-264 -653c-43,-106 8,-228 115,-271z"/>
   </g>
   <rect class="fil1" transform="matrix(0.759876 -0.307913 0.238122 0.587645 1336.22 11020.2)" width="103" height="188"/>
   <polygon class="fil0" points="1336,11020 1375,11004 1420,11115 1381,11131 "/>
   <g>
    <rect class="fil7" transform="matrix(0.376397 -0.152521 0.0916002 0.226054 1429.19 11535.4)" width="736" height="1389"/>
    <path class="fil7" d="M1401 11115l33 -13c67,-27 150,20 185,105l141 350c35,85 8,176 -59,204l-33 13c-67,27 -150,-20 -185,-105l-142 -350c-34,-85 -7,-176 60,-204z"/>
   </g>
   <g>
    <polygon class="fil2" points="1429,11535 1568,11479 1695,11793 1557,11849 "/>
    <path class="fil2" d="M1401 11115l17 -6 267 658 -17 7c-67,27 -144,-6 -171,-73l-168 -414c-28,-67 5,-144 72,-172z"/>
   </g>
  </g>
  <g id="_378640608">
   <circle class="fil3" cx="2837" cy="7452" r="1610"/>
   <polygon class="fil3" points="2837,10007 1418,8204 4256,8204 "/>
  </g>
  <polygon class="fil3" points="2479,6702 3232,6702 3010,7558 3190,8412 2509,8412 2671,7558 "/>
  <polygon class="fil15" points="2685,7457 3084,7442 3010,7558 3108,7754 3023,8069 2685,8066 2619,7702 2671,7558 2647,7450 "/>
  <path class="fil15" d="M3301 8412l-460 0 0 -856 169 0c291,303 291,571 291,856zm-460 -1711l0 855 169 0c291,-302 291,-570 291,-855l-460 0zm-461 1711l461 0 0 -856 -170 0c-291,303 -291,571 -291,856zm461 -1711l0 855 -170 0c-291,-302 -291,-570 -291,-855l461 0z"/>
  <path class="fil3 str0" d="M2841 7090c169,0 0,0 307,0 0,169 -138,307 -307,307 -170,0 -307,-138 -307,-307 344,-3 137,0 307,0z"/>
  <path class="fil3" d="M3198 8370l-357 0 0 -301 336 0c21,100 21,200 21,301zm-695 -301l338 0 0 301 -358 0c0,-101 0,-201 20,-301z"/>
  <circle class="fil3" cx="2836" cy="7556" r="72"/>
  <circle class="fil3" cx="2836" cy="7761" r="72"/>
  <path class="fil15" d="M2838 6669l0 0c312,0 565,26 565,59l0 0c0,33 -253,60 -565,60l0 0c-312,0 -564,-27 -564,-60l0 0c0,-33 252,-59 564,-59z"/>
  <path class="fil15" d="M2836 8373l0 0c312,0 565,27 565,60l0 0c0,33 -253,60 -565,60l0 0c-311,0 -564,-27 -564,-60l0 0c0,-33 253,-60 564,-60z"/>
  <g id="_378648120">
   <circle class="fil3" transform="matrix(-0.9593 -0.289187 -0.289899 0.955035 6492.15 11728.6)" r="133"/>
   <path class="fil16" d="M7253 14232c68,92 323,140 526,217 173,66 394,138 424,212 83,205 29,239 -304,257 -181,11 -447,25 -820,44 -126,6 -201,-4 -260,-18 -157,-34 -148,-230 -155,-291 -7,-57 -29,-401 2,-446 63,-93 369,-251 498,-213 100,29 47,179 89,238z"/>
   <polygon class="fil0" points="6218,11007 7467,10940 7253,14232 6653,14262 "/>
   <g>
    <path class="fil13" d="M8843 6586l450 -135 -26 -6c0,0 -217,31 -379,57 -17,32 -33,61 -45,84z"/>
    <path class="fil13" d="M8399 6671c0,0 1,-1 1,-1 -1,1 -1,1 -1,1l357 -108 1 0 -7 -40c-17,3 -29,5 -32,6 -135,19 -254,-57 -262,-63 -34,-29 -86,-39 -135,-22 -33,11 -61,33 -78,63 -17,29 -21,63 -10,93 3,10 8,20 14,29 32,44 94,61 152,42zm-120 -66c-4,-5 -8,-11 -9,-18 -8,-19 -5,-42 7,-61 12,-21 32,-37 56,-46 42,-14 87,-2 109,28 4,6 6,12 9,18 7,21 5,42 -7,62 -12,21 -33,38 -57,45 -42,15 -86,3 -108,-28z"/>
    <path class="fil13" d="M8555 6888c2,0 2,0 2,0 -1,-1 -2,0 -2,0l223 -297 3 0 32 18c-9,16 -14,27 -16,29 -63,123 -32,258 -30,268 17,42 9,94 -24,134 -23,27 -53,45 -87,51 -33,5 -66,-2 -91,-23 -9,-6 -16,-14 -21,-23 -32,-45 -26,-109 11,-157zm20 135c4,6 9,11 14,15 16,13 39,18 61,14 24,-3 46,-17 63,-37 27,-34 32,-79 11,-111 -4,-5 -9,-10 -14,-15 -17,-13 -38,-18 -62,-14 -23,4 -45,17 -62,37 -27,35 -32,80 -11,111z"/>
    <path class="fil13" d="M8794 6643l3 -5c13,-17 259,-492 259,-492l2 -25 -291 400 11 70 -57 75c35,-7 45,-15 73,-23zm4 -125c9,-7 21,-5 28,5 15,23 -16,45 -34,24 -6,-9 -4,-22 6,-29z"/>
   </g>
   <path class="fil6" d="M8546 6333c-187,-7 -345,139 -352,326 -7,187 140,344 327,351 41,2 81,-4 118,-17 -61,-64 -87,-126 -91,-232 -3,-60 17,-132 37,-176 20,-45 95,-125 138,-163 -10,-18 -49,-83 -177,-89z"/>
   <path class="fil6" d="M7764 7773c34,-244 399,-610 510,-989l263 53c-75,666 -335,1308 -660,1564 -103,10 -377,-193 -638,-199 -320,-7 -560,134 -816,18 -283,-128 -468,-449 -218,-681 210,-195 515,21 1057,130 317,63 438,68 502,104z"/>
   <path class="fil15" d="M7766 7779c-78,299 108,586 111,622 -238,2 -1147,-161 -1557,-483 -249,-195 -352,-559 -48,-727 255,-141 504,147 1015,387 297,140 440,150 479,201z"/>
   <path class="fil13" d="M7518 10954c-1851,965 -1233,605 -1792,95 -12,-216 46,-880 -36,-1555 -22,-177 -225,-823 -266,-1024 -53,-254 -109,-510 -67,-666 44,-186 396,-507 501,-613 142,-89 282,-93 465,-78 93,7 184,26 270,57 31,-69 39,14 58,23 563,236 953,960 975,1880 19,811 -15,1177 -50,1447 -26,210 -52,397 -58,434z"/>
   <path class="fil17" d="M6762 14274c67,92 322,140 525,218 173,65 394,137 424,211 83,205 29,239 -304,258 -181,11 -447,24 -820,43 -125,6 -201,-4 -260,-18 -157,-33 -147,-230 -155,-290 -7,-58 -29,-402 2,-447 63,-92 369,-250 498,-212 100,29 48,179 90,237z"/>
   <polygon class="fil1" points="5726,11049 6975,10983 6762,14274 6162,14305 "/>
   <path class="fil3" d="M6692 7210c282,94 605,523 591,741 -244,-64 -367,223 -702,158 -326,-251 -742,-839 -723,-918l-171 169c592,413 1332,2504 25,2342 4,68 8,118 11,175 1077,295 387,1802 372,1931l1320 -66c479,-2454 243,-4131 -723,-4532z"/>
   <g id="_500762472">
    <path class="fil5" d="M5821 6323l771 -39 27 866c-20,78 -466,309 -761,41l-37 -868z"/>
    <g>
     <ellipse class="fil6" transform="matrix(1.06025 -0.053311 0.0504254 0.98356 6285.25 5894.53)" rx="935" ry="1023"/>
     <path class="fil4" d="M6244 4696c571,-28 583,301 1162,69 163,1335 -1166,629 -1338,736 -209,129 60,316 -190,414 -33,13 -96,86 -71,262 17,126 -103,-352 -278,-245 -119,74 -70,326 20,367 39,18 -85,129 -152,42 -500,-645 116,-1608 847,-1645z"/>
     <path class="fil4" d="M5802 6136c15,131 593,639 1267,319 43,-21 99,-100 93,-84 -83,191 -24,383 -150,513 -160,166 -609,161 -806,65 -380,-184 -300,-523 -424,-802 17,-4 16,0 20,-11z"/>
     <path class="fil4" d="M6369 6364c155,342 358,223 487,88 -147,-281 -324,-58 -487,-88z"/>
     <path class="fil4" d="M7182 6330c-93,355 -269,256 -386,133 94,-293 258,-88 386,-133z"/>
    </g>
   </g>
   <path class="fil6" d="M6829 8775c90,-85 542,-153 957,-276 303,-90 544,-212 568,-184l199 232c11,14 -422,336 -544,402 -273,149 -607,308 -1416,448 -205,-136 -935,-663 -1180,-1149 -149,-295 -85,-686 278,-711 306,-21 414,363 790,816 221,264 318,349 348,422z"/>
   <path class="fil15" d="M6861 8768c-216,239 -149,619 -268,629 -232,-106 -944,-658 -1194,-1153 -152,-302 -87,-700 285,-726 311,-21 420,370 806,832 223,270 432,353 371,418z"/>
   <g id="_500765040">
    <path class="fil15" d="M6293 7507c-121,-56 -327,-207 -435,-316 114,94 396,127 619,64l-184 252z"/>
    <path class="fil15" d="M6815 7368c-97,-146 -179,-214 -196,-224 -52,66 -93,84 -142,111l338 113z"/>
   </g>
   <path class="fil3" d="M6844 10986c-200,-153 -617,-286 -85,-621 95,-61 293,-5 537,-169 393,-265 334,494 114,698 -114,103 -480,175 -566,92z"/>
   <path class="fil15" d="M6895 10232l203 422 -22 -15c0,0 -123,-181 -213,-317 12,-34 23,-66 32,-90z"/>
   <path class="fil3" d="M6442 10352c79,-228 1406,11 757,561 -372,313 -799,-302 -758,-539 0,-1 2,-26 1,-22z"/>
   <path class="fil15" d="M7442 10073c-269,13 -538,26 -807,40 -141,695 1030,636 807,-40z"/>
   <g id="_498465232">
    <path class="fil13" d="M9203 7825c7,14 11,31 -3,38 -1,1 -3,2 -9,5 -4,2 -9,5 -16,8l-493 248 -30 -60 6 -3 -68 -132 20 -10 66 132 17 -8 -67 -132 19 -10 67 133 16 -8 -66 -132 19 -10 66 132 16 -8 -66 -132 18 -10 67 132 16 -7 -66 -132 18 -10 68 132 16 -9 -67 -132 19 -9 67 131 16 -8 -67 -132 20 -9 67 132 16 -8 -66 -132 19 -10 67 132 16 -9 -67 -131 19 -10 67 132 14 -6 -67 -132 19 -10 67 132 16 -9 -67 -131 19 -10 67 132 17 -9 -68 -132 20 -9 67 132 16 -8 -67 -132 19 -10 67 132 16 -8 -66 -132 19 -9 68 131 9 -5c7,-3 10,-5 10,-5 0,0 -50,-101 -58,-116 -8,-15 -6,-29 17,-38 10,19 82,153 89,168z"/>
    <path class="fil13" d="M8269 8295c8,14 19,27 33,20 0,0 4,-2 10,-4 3,-2 8,-4 15,-8l493 -248 -31 -60 -5 2 -68 -131 -19 9 68 132 -17 9 -67 -133 -19 11 67 131 -16 8 -68 -132 -18 10 66 132 -15 7 -67 -131 -19 9 66 133 -16 8 -66 -132 -20 10 68 131 -17 9 -67 -133 -20 10 68 132 -16 8 -68 -132 -18 10 67 132 -17 8 -67 -131 -19 9 67 133 -17 8 -66 -133 -20 10 67 132 -13 6 -67 -131 -19 9 66 132 -16 9 -66 -132 -20 10 68 131 -17 9 -67 -133 -20 10 68 132 -16 8 -68 -132 -18 10 67 132 -17 8 -67 -131 -19 9 66 132 -9 6c-7,2 -11,4 -11,4 0,0 -51,-101 -58,-115 -8,-15 -21,-23 -42,-9 9,19 76,157 83,171z"/>
   </g>
   <path class="fil6" d="M8925 8125c41,195 -84,387 -281,428 -196,40 -389,-86 -430,-281 -9,-42 -10,-85 -3,-127 79,53 149,69 262,55 64,-9 137,-42 179,-71 44,-29 116,-122 148,-174 20,7 97,36 125,170z"/>
  </g>
  <g id="_378660264">
   <circle class="fil3" cx="11132" cy="16663" r="133"/>
   <g>
    <circle class="fil3" cx="12156" cy="19103" r="133"/>
    <circle class="fil3" cx="9325" cy="20723" r="133"/>
    <circle class="fil3" cx="4964" cy="16530" r="133"/>
    <path class="fil3" d="M12669 20923c0,-105 -85,-190 -190,-190 -105,0 -190,85 -190,190 0,27 6,53 16,77l348 0c10,-24 16,-50 16,-77z"/>
    <g id="_388423056">
     <g>
      <path class="fil8" d="M2825 16691l0 0c-8,9 20,48 64,85l116 100c44,37 87,60 95,50l0 0c9,-10 -20,-49 -64,-86l-116 -99c-44,-38 -86,-60 -95,-50z"/>
      <ellipse class="fil8" transform="matrix(-0.190706 0.223133 0.199808 0.170771 2656.45 16551.8)" rx="830" ry="1293"/>
      <ellipse class="fil8" transform="matrix(-0.141391 0.165433 0.105819 0.090441 2398.02 16331)" rx="830" ry="1293"/>
      <ellipse class="fil8" transform="matrix(-0.0801339 0.0937596 0.0869527 0.0743163 2236.07 16192.6)" rx="830" ry="1293"/>
     </g>
     <g>
      <path class="fil9" d="M3104 16920c4,-10 1,-21 -7,-28l-239 -204c-8,-7 -19,-7 -28,-2l274 234z"/>
      <path class="fil9" d="M2922 16764c78,-103 32,-279 -107,-397 -139,-119 -319,-137 -410,-44l517 441z"/>
      <path class="fil9" d="M2542 16440c57,-76 47,-184 -26,-246 -73,-63 -182,-56 -247,12l273 234z"/>
      <path class="fil9" d="M2355 16280c28,-44 6,-116 -52,-165 -58,-50 -132,-60 -172,-26l224 191z"/>
     </g>
    </g>
    <g id="_388428600">
     <g>
      <polygon class="fil9" points="12280,17284 12030,17415 11935,17234 "/>
      <polygon class="fil8" points="12280,17282 12030,17414 12125,17596 "/>
     </g>
     <g>
      <polygon class="fil9" points="13111,17560 12228,18025 11890,17383 "/>
      <polygon class="fil8" points="13109,17556 12225,18021 12563,18663 "/>
     </g>
     <g>
      <polygon class="fil9" points="12944,18311 12501,18544 12331,18222 "/>
      <polygon class="fil8" points="12943,18308 12500,18542 12669,18864 "/>
     </g>
    </g>
    <g id="_388424232">
     <g>
      <polygon class="fil8" points="6361,14401 6438,14896 6078,14952 "/>
      <polygon class="fil9" points="6359,14401 6435,14896 6795,14841 "/>
     </g>
     <g>
      <polygon class="fil8" points="6860,14602 6910,14880 6708,14916 "/>
      <polygon class="fil9" points="6859,14602 6909,14880 7111,14844 "/>
     </g>
    </g>
    <g id="_498476608">
     <g>
      <path class="fil9" d="M1978 17871l0 0c6,-16 69,-7 141,20l189 71c72,27 125,62 119,78l0 0c-6,17 -69,8 -141,-19l-189 -72c-72,-27 -125,-62 -119,-78z"/>
      <ellipse class="fil9" transform="matrix(0.109589 -0.290524 0.290524 0.109589 1856.6 17999.4)" rx="803" ry="808"/>
      <ellipse class="fil9" transform="matrix(0.124977 -0.331317 0.331317 0.124977 1947.16 17675.3)" rx="803" ry="808"/>
      <ellipse class="fil9" transform="matrix(0.0796642 -0.211193 0.211193 0.0796642 1605.55 18043.2)" rx="803" ry="808"/>
      <ellipse class="fil9 str1" transform="matrix(0.10435 -0.276636 0.276636 0.10435 1629.35 17703.3)" rx="803" ry="808"/>
     </g>
     <path class="fil8" d="M2423 18048c-8,11 -23,16 -36,11l-391 -148c-13,-5 -21,-18 -20,-32l447 169z"/>
     <path class="fil8" d="M1622 17911c21,-55 59,-98 105,-126l369 140c16,51 16,108 -4,163 -49,129 -193,193 -323,145 -129,-49 -195,-193 -147,-322z"/>
     <path class="fil8" d="M2090 17922c-71,41 -159,51 -243,19 -83,-31 -143,-97 -170,-174l413 155z"/>
     <path class="fil8" d="M1436 17979c35,-94 140,-141 234,-105 94,35 142,140 107,234 -36,93 -141,140 -235,105 -94,-36 -142,-141 -106,-234z"/>
     <path class="fil8" d="M1835 17826c-58,97 -179,141 -289,99 -110,-41 -171,-154 -151,-265l440 166z"/>
     <path class="fil18" d="M1836 17826c-26,43 -63,75 -107,95 -56,25 -121,29 -183,5 -62,-23 -109,-69 -134,-125 -20,-43 -27,-93 -18,-141l2 1c-9,48 -2,96 18,139 25,55 71,101 133,124 61,23 126,20 181,-5 43,-19 80,-51 106,-93l2 0z"/>
    </g>
    <g id="_498474568">
     <g>
      <path class="fil9" d="M1651 19279l0 0c1,-14 51,-19 111,-12l157 19c59,7 106,23 105,37l0 0c-2,13 -51,18 -111,11l-157 -18c-60,-7 -107,-24 -105,-37z"/>
      <ellipse class="fil9" transform="matrix(0.0284942 -0.241337 0.241337 0.0284942 1582.83 19399.1)" rx="803" ry="808"/>
      <ellipse class="fil9" transform="matrix(0.0324952 -0.275224 0.275224 0.0324952 1590.55 19135.8)" rx="803" ry="808"/>
      <ellipse class="fil9" transform="matrix(0.0207135 -0.175437 0.175437 0.0207135 1400.38 19479.6)" rx="803" ry="808"/>
      <ellipse class="fil9 str1" transform="matrix(0.0271321 -0.2298 0.2298 0.0271321 1354.41 19216.9)" rx="803" ry="808"/>
     </g>
     <path class="fil8" d="M2022 19329c-4,10 -14,16 -25,15l-324 -38c-12,-1 -20,-10 -22,-21l371 44z"/>
     <path class="fil8" d="M1388 19376c6,-45 26,-85 56,-115l307 36c22,36 33,80 27,125 -12,107 -110,183 -218,171 -107,-13 -184,-110 -172,-217z"/>
     <path class="fil8" d="M1746 19297c-47,44 -112,68 -181,60 -69,-8 -127,-47 -162,-101l343 41z"/>
     <path class="fil8" d="M1259 19463c9,-78 80,-133 159,-124 78,9 134,80 125,157 -10,78 -80,134 -159,124 -78,-9 -134,-79 -125,-157z"/>
     <path class="fil8" d="M1534 19272c-26,84 -110,140 -201,129 -91,-10 -159,-85 -165,-173l366 44z"/>
     <path class="fil18" d="M1535 19272c-12,37 -34,68 -64,91 -37,30 -86,45 -138,39 -51,-6 -96,-32 -125,-70 -24,-29 -38,-65 -41,-104l2 0c3,39 17,74 40,103 29,37 73,63 124,69 51,6 100,-9 137,-38 29,-23 51,-54 63,-91l2 1z"/>
    </g>
    <g id="_498470488">
     <g>
      <path class="fil9" d="M1660 19979l0 0c-1,-9 33,-19 76,-22l113 -7c42,-2 77,4 78,13l0 0c1,10 -33,20 -76,22l-113 7c-43,3 -78,-3 -78,-13z"/>
      <ellipse class="fil9" transform="matrix(-0.010483 -0.172937 0.172937 -0.010483 1627.12 20072.4)" rx="803" ry="808"/>
      <ellipse class="fil9" transform="matrix(-0.011955 -0.19722 0.19722 -0.011955 1599.29 19886.7)" rx="803" ry="808"/>
      <ellipse class="fil9" transform="matrix(-0.0076205 -0.125714 0.125714 -0.0076205 1509.27 20151.9)" rx="803" ry="808"/>
      <ellipse class="fil9 str1" transform="matrix(-0.0099819 -0.16467 0.16467 -0.0099819 1443.84 19973.4)" rx="803" ry="808"/>
     </g>
     <path class="fil8" d="M1927 19968c-2,7 -8,13 -16,14l-233 14c-8,0 -15,-5 -17,-12l266 -16z"/>
     <path class="fil8" d="M1488 20081c-2,-33 7,-63 25,-88l219 -13c20,22 33,51 35,84 5,77 -54,142 -131,147 -77,5 -143,-54 -148,-130z"/>
     <path class="fil8" d="M1729 19980c-27,37 -70,62 -120,65 -49,3 -95,-17 -126,-50l246 -15z"/>
     <path class="fil8 str2" d="M1408 20158c-3,-56 40,-104 96,-107 56,-3 104,39 107,95 4,55 -39,103 -95,107 -56,3 -104,-39 -108,-95z"/>
     <path class="fil8" d="M1577 19989c-8,63 -59,113 -125,117 -65,3 -122,-40 -137,-101l262 -16z"/>
     <path class="fil18" d="M1577 19989c-3,28 -15,53 -33,73 -22,25 -55,42 -92,44 -37,2 -71,-10 -97,-33 -20,-18 -34,-41 -41,-68l1 0c7,26 22,50 41,67 26,22 60,35 96,33 37,-2 69,-19 92,-44 17,-20 29,-45 32,-72l1 0z"/>
    </g>
    <g id="_498468904">
     <g>
      <path class="fil8" d="M13055 20190l0 0c-1,6 -26,11 -56,10l-80 -4c-30,-1 -55,-8 -54,-14l0 0c0,-7 25,-12 55,-10l80 3c31,1 55,8 55,15z"/>
      <ellipse class="fil8" transform="matrix(-0.00648926 0.154013 -0.137914 -0.00581091 13168.6 20196.5)" rx="830" ry="1293"/>
      <ellipse class="fil8" transform="matrix(-0.00481119 0.114187 -0.0730396 -0.00307748 13346.9 20204)" rx="830" ry="1293"/>
      <ellipse class="fil8" transform="matrix(-0.00272676 0.0647158 -0.0600174 -0.0025288 13458.7 20208.7)" rx="830" ry="1293"/>
     </g>
     <g>
      <path class="fil9" d="M12865 20178c2,-5 7,-8 13,-8l165 7c5,0 10,4 11,9l-189 -8z"/>
      <path class="fil9" d="M12991 20183c7,-67 87,-118 183,-114 96,4 172,61 173,129l-356 -15z"/>
      <path class="fil9" d="M13253 20194c5,-49 48,-87 98,-85 51,2 90,44 91,93l-189 -8z"/>
      <path class="fil9" d="M13382 20200c5,-27 39,-47 79,-45 40,2 73,24 76,51l-155 -6z"/>
     </g>
    </g>
    <g id="_498467944">
     <path class="fil8" d="M7403 14791c3052,0 5527,2474 5527,5527 0,231 -14,459 -42,682l-10970 0c-28,-223 -42,-451 -42,-682 0,-3053 2474,-5527 5527,-5527z"/>
     <path class="fil9" d="M10891 16030c-176,-101 -848,-269 -1165,-6 -114,95 -1985,509 140,509 975,0 -1308,881 -1411,902 -6,1 -923,1250 142,620 1090,-645 3872,1227 2226,657 -1708,-591 -3228,-916 -3322,1462 -19,496 670,795 1302,770 4,0 27,19 62,56l3440 0c37,-134 59,-395 59,-906 321,23 521,717 522,906l0 0c15,-142 65,-637 28,-1098 -71,-879 -348,-1705 -724,-2349 -500,-856 -1124,-1422 -1299,-1523z"/>
     <path class="fil9" d="M3968 16358c275,0 1496,-899 1437,-107 -10,138 -600,39 -396,1331 -65,71 -1074,-12 -1686,1158 -284,544 -744,-185 -628,760 29,236 -30,371 -11,480 49,285 162,250 278,255 240,9 243,-501 893,328 405,518 65,-221 707,437l-2149 0c30,-243 167,-373 30,-554 -79,-103 -167,-220 -193,-283 -99,-240 -383,-181 -348,-393 40,-236 71,-615 190,-989 134,-420 312,-918 566,-1300 121,-181 231,-361 372,-544 101,-131 219,-257 357,-416 40,-47 165,-145 279,-156 135,-12 299,-7 302,-7z"/>
     <path class="fil9" d="M8182 14950c58,7 -2315,-382 -2370,627 50,400 386,-164 312,292 -37,225 132,401 230,300 196,-201 299,137 611,-100 41,-30 195,-286 438,-360 311,-95 787,-50 1084,-188 996,-462 -318,-572 -305,-571z"/>
    </g>
   </g>
  </g>
  <rect class="fil15" x="2496" y="6776" width="716" height="301"/>
 </g>
</svg>
