<?xml version="1.0" encoding="UTF-8"?>
<!DOCTYPE svg PUBLIC "-//W3C//DTD SVG 1.1//EN" "http://www.w3.org/Graphics/SVG/1.1/DTD/svg11.dtd">
<!-- Creator: CorelDRAW X7 -->
<svg xmlns="http://www.w3.org/2000/svg" xml:space="preserve" width="145.997mm" height="210mm" version="1.1" style="shape-rendering:geometricPrecision; text-rendering:geometricPrecision; image-rendering:optimizeQuality; fill-rule:evenodd; clip-rule:evenodd"
viewBox="0 0 14600 21000"
 >
 <defs>
  <style type="text/css">
   <![CDATA[
    .str0 {stroke:#FF9101;stroke-width:211.62}
    .str2 {stroke:#CF892D;stroke-width:7.62}
    .str1 {stroke:#EB9D36;stroke-width:7.62}
    .fil5 {fill:#965500}
    .fil6 {fill:#A65E00}
    .fil7 {fill:#BA6900}
    .fil8 {fill:#C77100}
    .fil17 {fill:#CF892D}
    .fil12 {fill:#DB7C00}
    .fil15 {fill:#E07F00}
    .fil11 {fill:#E8BC90}
    .fil18 {fill:#EB9D36}
    .fil16 {fill:#F08800}
    .fil13 {fill:#F28900}
    .fil2 {fill:#FF9100}
    .fil0 {fill:#FF9101}
    .fil4 {fill:#FF9A17}
    .fil14 {fill:#FF9E1F}
    .fil9 {fill:#FFA024}
    .fil10 {fill:#FFAD42}
    .fil3 {fill:#FFCC99}
    .fil1 {fill:white}
    .fil19 {fill:#CF8627;fill-rule:nonzero}
   ]]>
  </style>
 </defs>
 <g id="Слой_x0020_1">
  <metadata id="CorelCorpID_0Corel-Layer"/>
  <circle class="fil0" cx="5757" cy="7644" r="150"/>
  <circle class="fil0" cx="9217" cy="7644" r="150"/>
  <g id="_498466384">
   <circle class="fil0 str0" cx="7487" cy="7125" r="706"/>
   <path class="fil1" d="M7200 6720c-27,18 -82,89 -49,140 135,204 272,413 432,657l98 -65c-160,-244 -321,-488 -481,-732z"/>
   <circle class="fil1" transform="matrix(-0.130154 0.0855692 0.0855692 0.130154 7768.24 7418.7)" r="1337"/>
   <circle class="fil2" transform="matrix(-0.0707157 0.0464919 0.0464919 0.0707157 7768.24 7418.7)" r="1337"/>
   <circle class="fil1" transform="matrix(0.130154 0.0855692 -0.0855692 0.130154 7201.74 7418.7)" r="1337"/>
   <path class="fil1" d="M7769 6719c27,17 82,89 49,139 -134,204 -272,413 -432,657l-98 -64c161,-244 321,-488 481,-732z"/>
   <path class="fil2" d="M7470 7048l2 -3c9,-14 35,-13 57,1l35 23c22,15 33,38 24,52l-2 4c-10,14 -35,13 -58,-2l-34 -23c-23,-14 -33,-38 -24,-52z"/>
   <path class="fil2" d="M7533 6953l2 -4c9,-14 35,-13 58,1l34 23c22,15 33,38 24,52l-2 4c-10,14 -35,13 -58,-2l-34 -23c-22,-14 -33,-38 -24,-51z"/>
   <path class="fil2" d="M7596 6857l2 -4c9,-14 35,-13 58,2l34 22c22,15 33,38 24,52l-2 4c-9,14 -35,13 -58,-2l-34 -22c-22,-15 -33,-38 -24,-52z"/>
   <path class="fil2" d="M7659 6761l2 -4c10,-14 35,-13 58,2l34 22c23,15 33,38 24,52l-2 4c-9,14 -35,13 -57,-2l-35 -22c-22,-15 -33,-38 -24,-52z"/>
   <circle class="fil2" transform="matrix(0.0707157 0.0464919 -0.0464919 0.0707157 7201.74 7418.7)" r="1337"/>
   <circle class="fil2" transform="matrix(-0.0230128 0.0151298 0.0151298 0.0230128 7484.34 7259.53)" r="1337"/>
  </g>
  <g id="_494852848">
   <path class="fil3" d="M11708 9385c58,-109 -187,-296 -249,-1169l-362 -8c-17,-1 -47,479 -31,969 13,406 323,803 455,782 570,67 1110,-649 1275,-820 6,-148 -21,-365 -331,-395 -330,95 -679,651 -757,641z"/>
   <g>
    <circle class="fil3" transform="matrix(-0.586412 -0.210395 -0.210395 0.586412 11132.2 8053.39)" r="594"/>
    <path class="fil3" d="M10701 7958c-80,93 -114,195 -76,229 39,33 135,-15 216,-107 80,-93 114,-195 76,-229 -17,-15 -13,-83 -43,-62 -37,25 -128,118 -173,169z"/>
   </g>
  </g>
  <path class="fil4" d="M10642 11653c1488,1461 1002,937 1684,610 74,-204 211,-858 485,-1482 72,-163 453,-724 551,-905 124,-228 252,-458 257,-619 12,-192 -231,-601 -301,-734 -110,-126 -242,-170 -421,-209 -91,-20 -183,-28 -275,-23 -9,-75 -41,2 -62,5 -606,64 -1188,646 -1476,1522 -253,772 -327,1133 -372,1402 -36,209 -65,396 -70,433z"/>
  <g id="_494854288">
   <g>
    <path class="fil5" d="M10095 14947c-91,69 -349,41 -565,57 -184,14 -416,18 -466,80 -139,173 -97,221 215,335 170,63 420,153 771,279 118,42 193,54 253,58 160,13 208,-178 233,-234 23,-53 144,-377 127,-429 -33,-107 -280,-347 -414,-348 -104,-1 -97,158 -154,202z"/>
    <path class="fil6" d="M10402 15057c-91,69 -349,41 -565,57 -184,13 -416,18 -466,80 -139,173 -97,221 215,335 170,63 420,153 771,279 118,42 193,54 253,58 160,13 208,-178 233,-234 23,-53 144,-377 127,-429 -33,-107 -280,-347 -414,-348 -104,-1 -97,158 -154,202z"/>
   </g>
   <g>
    <polygon class="fil7" points="11771,12064 10642,11651 10096,14946 10402,15057 "/>
    <polygon class="fil8" points="12326,12263 11152,11838 10402,15057 10966,15260 "/>
   </g>
  </g>
  <path class="fil1" d="M12516 8301c-296,8 -729,326 -779,540 251,9 286,320 625,354 384,-146 951,-590 956,-672l115 212c-685,225 -1998,2017 -703,2240 -24,64 -42,110 -61,164 -1115,-28 -893,1617 -916,1745l-1241 -445c254,-2493 965,-4033 2004,-4138z"/>
  <g id="_500763768">
   <g>
    <path class="fil9" d="M10444 8076l-313 206c-29,19 -37,58 -18,86l457 697c19,28 58,37 87,18l313 -206c29,-19 37,-58 18,-87l-457 -696c-19,-29 -58,-37 -87,-18z"/>
    <path class="fil0" d="M10113 8368l457 696c19,29 58,37 87,18l313 -206c29,-18 37,-58 18,-86 -47,-21 -524,-242 -875,-422z"/>
   </g>
   <g>
    <path class="fil3" d="M10055 8632c-33,197 100,384 298,417 197,33 384,-101 417,-298 7,-43 6,-86 -2,-127 -77,56 -146,75 -259,65 -64,-6 -138,-37 -182,-64 -45,-27 -120,-117 -154,-168 -20,8 -95,40 -118,175z"/>
    <path class="fil3" d="M11932 9762c-62,-107 -474,-303 -834,-541 -264,-174 -458,-361 -489,-341l-258 165c-14,10 306,444 403,543 218,222 491,471 1223,839 235,-71 1085,-365 1460,-761 228,-240 280,-633 -60,-762 -286,-109 -500,228 -991,554 -287,189 -405,243 -454,304z"/>
    <path class="fil10" d="M11903 9746c137,292 -37,637 74,681 252,-34 1092,-358 1474,-761 233,-245 286,-646 -61,-778 -291,-110 -509,233 -1011,565 -292,194 -515,213 -476,293z"/>
   </g>
  </g>
  <g id="_474342368">
   <g id="_500762472">
    <path class="fil11" d="M13605 7701l-725 -260 -277 823c-3,81 356,431 715,259l287 -822z"/>
    <g>
     <ellipse class="fil3" transform="matrix(-0.997123 -0.357752 -0.333291 0.928947 13285.6 7156.62)" rx="935" ry="1023"/>
     <path class="fil12" d="M13673 6019c-537,-192 -644,120 -1130,-270 -543,1233 931,940 1065,1093 162,184 -149,286 61,452 28,22 67,110 -8,272 -53,115 200,-308 336,-155 93,105 -27,333 -125,346 -42,6 44,149 133,85 665,-475 355,-1577 -332,-1823z"/>
     <path class="fil12" d="M13677 7528c-52,121 -751,441 -1302,-61 -35,-32 -66,-124 -64,-107 23,207 -88,374 -6,535 105,206 535,331 751,296 416,-67 438,-415 637,-647 -15,-9 -15,-5 -16,-16z"/>
     <path class="fil12" d="M13070 7582c-247,284 -407,111 -491,-56 222,-227 327,38 491,56z"/>
     <path class="fil12" d="M12303 7315c-14,367 183,323 330,239 -4,-308 -220,-159 -330,-239z"/>
    </g>
   </g>
   <g id="_500765040">
    <path class="fil10" d="M12811 8701c132,-19 372,-104 507,-178 -136,58 -415,8 -610,-117l103 295z"/>
    <path class="fil10" d="M12353 8417c135,-112 233,-154 252,-159 31,79 64,108 103,148l-355 11z"/>
   </g>
  </g>
  <g id="_388422384">
   <path class="fil7" d="M4614 14987c93,71 360,40 583,56 190,13 430,17 482,81 144,178 100,227 -220,347 -177,65 -434,159 -795,291 -123,44 -200,57 -261,62 -166,14 -216,-183 -242,-241 -25,-55 -151,-389 -134,-443 34,-110 288,-359 426,-361 108,-2 102,163 161,208z"/>
   <path class="fil8" d="M4297 15102c94,71 360,40 584,56 190,13 429,17 481,81 144,178 101,227 -220,347 -176,65 -433,159 -795,291 -122,44 -199,57 -261,62 -166,14 -215,-183 -242,-241 -24,-55 -150,-389 -134,-443 35,-110 288,-359 427,-361 107,-2 101,163 160,208z"/>
   <g>
    <path class="fil13" d="M2921 9251c-61,-112 192,-307 251,-1209l374 -10c18,0 51,495 37,1002 -12,419 -330,830 -466,808 -588,73 -1149,-664 -1321,-840 -7,-153 20,-377 340,-409 341,96 705,668 785,658z"/>
    <path class="fil0" d="M4033 11588c-1530,1516 -1031,972 -1736,638 -78,-210 -223,-885 -509,-1528 -74,-168 -471,-745 -573,-932 -129,-235 -262,-472 -269,-638 -13,-199 236,-622 308,-760 113,-130 249,-176 433,-218 95,-21 190,-29 285,-25 9,-77 42,3 64,5 626,63 1230,662 1531,1565 265,796 343,1169 391,1446 38,216 70,409 75,447z"/>
    <path class="fil1" d="M2543 8980c41,21 171,36 226,31 -65,-135 -13,-253 -164,-380 -322,-270 -441,-477 -607,-535 -135,-46 -312,13 -563,164 -114,69 -151,-13 -156,134 291,83 1043,581 1264,586z"/>
    <g>
     <polygon class="fil12" points="2431,8208 1979,8083 1979,8083 2483,8675 2483,8675 "/>
     <polygon class="fil12" points="2654,8470 2202,8345 2202,8345 2769,9011 "/>
    </g>
    <path class="fil11" d="M953 7521l748 -272 290 849c3,83 -365,447 -737,270l-301 -847z"/>
    <ellipse class="fil3" transform="matrix(1.02798 -0.374236 0.348648 0.957691 1280.35 6957.36)" rx="935" ry="1023"/>
    <path class="fil12" d="M1150 6984l-357 -980c554,-201 1154,-205 1425,543 -851,318 -1134,-72 -1272,87 -166,191 22,437 -3,726 -13,154 60,333 230,630 147,257 -135,354 -171,414 211,-304 -50,-314 -255,-463 -320,-233 -443,-500 -517,-701 -158,-434 32,-1043 563,-1236l357 980z"/>
    <g>
     <polygon class="fil9" points="1598,8900 1254,8368 1254,8368 2220,8778 2220,8778 "/>
     <polygon class="fil9" points="2025,9081 1681,8549 1681,8549 2769,9011 "/>
    </g>
    <path class="fil0" d="M4217 7894l325 211c30,19 38,59 19,89l-469 721c-19,30 -59,39 -89,19l-325 -211c-30,-19 -39,-59 -19,-89l469 -721c19,-30 59,-39 89,-19z"/>
    <path class="fil14" d="M2691 9642c64,-111 488,-315 859,-563 272,-182 471,-376 503,-355l267 170c16,10 -313,459 -413,562 -224,231 -505,489 -1259,873 -242,-72 -1123,-373 -1511,-779 -237,-248 -293,-653 58,-788 295,-114 517,233 1026,567 297,195 419,250 470,313z"/>
    <path class="fil3" d="M4624 8465c35,204 -102,397 -305,432 -204,35 -397,-101 -432,-305 -8,-45 -7,-89 1,-132 79,58 151,78 268,66 65,-7 142,-38 187,-66 46,-28 124,-122 158,-174 21,7 99,40 123,179z"/>
    <polygon class="fil15" points="2868,12018 4032,11586 4612,14986 4297,15102 "/>
    <polygon class="fil16" points="2297,12226 3507,11781 4297,15102 3716,15315 "/>
    <circle class="fil3" transform="matrix(0.604557 -0.22009 0.22009 0.604557 3508.44 7873.07)" r="594"/>
    <path class="fil3" d="M3954 7773c83,95 119,201 79,235 -39,35 -139,-14 -223,-109 -83,-95 -119,-201 -80,-236 18,-15 14,-86 45,-65 38,27 132,122 179,175z"/>
   </g>
   <path class="fil13" d="M2921 9251c-61,-112 192,-307 251,-1209l374 -10c18,0 51,495 37,1002 -12,419 -330,830 -466,808 -588,73 -1149,-664 -1321,-840 -7,-153 20,-377 340,-409 341,96 705,668 785,658z"/>
   <path class="fil0" d="M4033 11588c-1530,1516 -1031,972 -1736,638 -78,-210 -223,-885 -509,-1528 -74,-168 -471,-745 -573,-932 -129,-235 -262,-472 -269,-638 -13,-199 236,-622 308,-760 113,-130 249,-176 433,-218 95,-21 190,-29 285,-25 9,-77 42,3 64,5 626,63 1230,662 1531,1565 265,796 343,1169 391,1446 38,216 70,409 75,447z"/>
   <path class="fil1" d="M2543 8980c41,21 171,36 226,31 -65,-135 -13,-253 -164,-380 -322,-270 -441,-477 -607,-535 -135,-46 -312,13 -563,164 -114,69 -151,-13 -156,134 291,83 1043,581 1264,586z"/>
   <g>
    <polygon class="fil12" points="2431,8208 1979,8083 1979,8083 2483,8675 2483,8675 "/>
    <polygon class="fil12" points="2654,8470 2202,8345 2202,8345 2769,9011 "/>
   </g>
   <path class="fil11" d="M953 7521l748 -272 290 849c3,83 -365,447 -737,270l-301 -847z"/>
   <ellipse class="fil3" transform="matrix(1.02798 -0.374236 0.348648 0.957691 1280.35 6957.36)" rx="935" ry="1023"/>
   <path class="fil12" d="M1150 6984l-357 -980c176,-55 235,-222 644,-294 -233,88 -179,213 -107,180 112,-52 382,-157 493,-135 -141,90 23,38 165,155 -287,83 231,-48 230,637 -51,-98 -249,-197 -192,-164 0,0 53,55 41,174 -553,-371 -180,-35 -256,101 -168,-59 -752,-153 -865,-24 -166,190 84,477 60,766 -255,-188 80,230 167,590 69,287 -135,354 -171,414 211,-304 -50,-314 -255,-463 -118,-86 -292,-280 -219,-62 -188,-80 -343,-523 -359,-657 -24,-200 70,-653 -100,-605 59,-125 205,-115 210,-144 -156,-26 -213,-119 -172,-220 256,228 509,-185 686,-249l357 980z"/>
   <g>
    <polygon class="fil9" points="1598,8900 1254,8368 1254,8368 2220,8778 2220,8778 "/>
    <polygon class="fil9" points="2025,9081 1681,8549 1681,8549 2769,9011 "/>
   </g>
   <path class="fil9" d="M4217 7894l325 211c30,19 38,59 19,89l-469 721c-19,30 -59,39 -89,19l-325 -211c-30,-19 -39,-59 -19,-89l469 -721c19,-30 59,-39 89,-19z"/>
   <path class="fil0" d="M4560 8194l-468 721c-19,30 -60,38 -90,19l-324 -211c-30,-19 -38,-60 -19,-90 49,-21 540,-252 901,-439z"/>
   <path class="fil14" d="M2691 9642c64,-111 488,-315 859,-563 272,-182 471,-376 503,-355l267 170c16,10 -313,459 -413,562 -224,231 -505,489 -1259,873 -242,-72 -1123,-373 -1511,-779 -237,-248 -293,-653 58,-788 295,-114 517,233 1026,567 297,195 419,250 470,313z"/>
   <path class="fil3" d="M4624 8465c35,204 -102,397 -305,432 -204,35 -397,-101 -432,-305 -8,-45 -7,-89 1,-132 79,58 151,78 268,66 65,-7 142,-38 187,-66 46,-28 124,-122 158,-174 21,7 99,40 123,179z"/>
   <polygon class="fil15" points="2868,12018 4032,11586 4612,14986 4297,15102 "/>
   <polygon class="fil16" points="2297,12226 3507,11781 4297,15102 3716,15315 "/>
   <circle class="fil3" transform="matrix(0.604557 -0.22009 0.22009 0.604557 3508.44 7873.07)" r="594"/>
   <path class="fil3" d="M3954 7773c83,95 119,201 79,235 -39,35 -139,-14 -223,-109 -83,-95 -119,-201 -80,-236 18,-15 14,-86 45,-65 38,27 132,122 179,175z"/>
  </g>
  <g id="_474131776">
   <circle class="fil1" cx="12155" cy="19103" r="133"/>
   <circle class="fil1" cx="9324" cy="20723" r="133"/>
   <circle class="fil1" cx="4963" cy="16530" r="133"/>
   <path class="fil1" d="M12668 20923c0,-105 -85,-190 -190,-190 -105,0 -190,85 -190,190 0,27 6,53 16,77l348 0c10,-24 16,-50 16,-77z"/>
   <g id="_388423056">
    <g>
     <path class="fil17" d="M2824 16691l0 0c-8,9 20,48 64,85l116 100c44,37 87,60 95,50l0 0c9,-10 -20,-49 -64,-86l-116 -99c-44,-38 -86,-60 -95,-50z"/>
     <ellipse class="fil17" transform="matrix(-0.190706 0.223133 0.199808 0.170771 2655.84 16551.8)" rx="830" ry="1293"/>
     <ellipse class="fil17" transform="matrix(-0.141391 0.165433 0.105819 0.090441 2397.48 16331)" rx="830" ry="1293"/>
     <ellipse class="fil17" transform="matrix(-0.0801339 0.0937596 0.0869527 0.0743163 2235.53 16192.6)" rx="830" ry="1293"/>
    </g>
    <g>
     <path class="fil18" d="M3103 16920c4,-10 1,-21 -7,-28l-239 -204c-8,-7 -19,-7 -28,-2l274 234z"/>
     <path class="fil18" d="M2921 16764c78,-103 32,-279 -107,-397 -139,-119 -319,-137 -410,-44l517 441z"/>
     <path class="fil18" d="M2541 16440c57,-76 47,-184 -26,-246 -73,-63 -182,-56 -247,12l273 234z"/>
     <path class="fil18" d="M2354 16280c28,-44 6,-116 -52,-165 -58,-50 -132,-60 -172,-26l224 191z"/>
    </g>
   </g>
   <g id="_388428600">
    <g>
     <polygon class="fil18" points="12279,17284 12029,17415 11934,17234 "/>
     <polygon class="fil17" points="12279,17282 12029,17414 12124,17596 "/>
    </g>
    <g>
     <polygon class="fil18" points="13110,17560 12227,18025 11889,17383 "/>
     <polygon class="fil17" points="13108,17556 12224,18021 12562,18663 "/>
    </g>
    <g>
     <polygon class="fil18" points="12943,18311 12500,18544 12330,18222 "/>
     <polygon class="fil17" points="12942,18308 12499,18542 12668,18864 "/>
    </g>
   </g>
   <g id="_388424232">
    <g>
     <polygon class="fil17" points="6360,14401 6437,14896 6077,14952 "/>
     <polygon class="fil18" points="6358,14401 6434,14896 6794,14841 "/>
    </g>
    <g>
     <polygon class="fil17" points="6859,14602 6909,14880 6707,14916 "/>
     <polygon class="fil18" points="6858,14602 6908,14880 7110,14844 "/>
    </g>
   </g>
   <g id="_498476608">
    <g>
     <path class="fil18" d="M1977 17871l0 0c6,-16 69,-7 141,20l189 71c72,27 125,62 119,78l0 0c-6,17 -69,8 -141,-19l-189 -72c-72,-27 -125,-62 -119,-78z"/>
     <ellipse class="fil18" transform="matrix(0.109589 -0.290524 0.290524 0.109589 1856.06 17999.4)" rx="803" ry="808"/>
     <ellipse class="fil18" transform="matrix(0.124977 -0.331317 0.331317 0.124977 1946.62 17675.3)" rx="803" ry="808"/>
     <ellipse class="fil18" transform="matrix(0.0796642 -0.211193 0.211193 0.0796642 1605.01 18043.2)" rx="803" ry="808"/>
     <ellipse class="fil18 str1" transform="matrix(0.10435 -0.276636 0.276636 0.10435 1628.81 17703.3)" rx="803" ry="808"/>
    </g>
    <path class="fil17" d="M2422 18048c-8,11 -23,16 -36,11l-391 -148c-13,-5 -21,-18 -20,-32l447 169z"/>
    <path class="fil17" d="M1621 17911c21,-55 59,-98 105,-126l369 140c16,51 16,108 -4,163 -49,129 -193,193 -323,145 -129,-49 -195,-193 -147,-322z"/>
    <path class="fil17" d="M2089 17922c-71,41 -159,51 -243,19 -83,-31 -143,-97 -170,-174l413 155z"/>
    <path class="fil17" d="M1435 17979c35,-94 140,-141 234,-105 94,35 142,140 107,234 -36,93 -141,140 -235,105 -94,-36 -142,-141 -106,-234z"/>
    <path class="fil17" d="M1834 17826c-58,97 -179,141 -289,99 -110,-41 -171,-154 -151,-265l440 166z"/>
    <path class="fil19" d="M1835 17826c-26,43 -63,75 -107,95 -56,25 -121,29 -183,5 -62,-23 -109,-69 -134,-125 -20,-43 -27,-93 -18,-141l2 1c-9,48 -2,96 18,139 25,55 71,101 133,124 61,23 126,20 181,-5 43,-19 80,-51 106,-93l2 0z"/>
   </g>
   <g id="_498474568">
    <g>
     <path class="fil18" d="M1650 19279l0 0c1,-14 51,-19 111,-12l157 19c59,7 106,23 105,37l0 0c-2,13 -51,18 -111,11l-157 -18c-60,-7 -107,-24 -105,-37z"/>
     <ellipse class="fil18" transform="matrix(0.0284942 -0.241337 0.241337 0.0284942 1582.29 19399.1)" rx="803" ry="808"/>
     <ellipse class="fil18" transform="matrix(0.0324952 -0.275224 0.275224 0.0324952 1590.01 19135.8)" rx="803" ry="808"/>
     <ellipse class="fil18" transform="matrix(0.0207135 -0.175437 0.175437 0.0207135 1399.84 19479.6)" rx="803" ry="808"/>
     <ellipse class="fil18 str1" transform="matrix(0.0271321 -0.2298 0.2298 0.0271321 1353.87 19216.9)" rx="803" ry="808"/>
    </g>
    <path class="fil17" d="M2021 19329c-4,10 -14,16 -25,15l-324 -38c-12,-1 -20,-10 -22,-21l371 44z"/>
    <path class="fil17" d="M1387 19376c6,-45 26,-85 56,-115l307 36c22,36 33,80 27,125 -12,107 -110,183 -218,171 -107,-13 -184,-110 -172,-217z"/>
    <path class="fil17" d="M1745 19297c-47,44 -112,68 -181,60 -69,-8 -127,-47 -162,-101l343 41z"/>
    <path class="fil17" d="M1258 19463c9,-78 80,-133 159,-124 78,9 134,80 125,157 -10,78 -80,134 -159,124 -78,-9 -134,-79 -125,-157z"/>
    <path class="fil17" d="M1533 19272c-26,84 -110,140 -201,129 -91,-10 -159,-85 -165,-173l366 44z"/>
    <path class="fil19" d="M1534 19272c-12,37 -34,68 -64,91 -37,30 -86,45 -138,39 -51,-6 -96,-32 -125,-70 -24,-29 -38,-65 -41,-104l2 0c3,39 17,74 40,103 29,37 73,63 124,69 51,6 100,-9 137,-38 29,-23 51,-54 63,-91l2 1z"/>
   </g>
   <g id="_498470488">
    <g>
     <path class="fil18" d="M1659 19979l0 0c-1,-9 33,-19 76,-22l113 -7c42,-2 77,4 78,13l0 0c1,10 -33,20 -76,22l-113 7c-43,3 -78,-3 -78,-13z"/>
     <ellipse class="fil18" transform="matrix(-0.010483 -0.172937 0.172937 -0.010483 1626.58 20072.4)" rx="803" ry="808"/>
     <ellipse class="fil18" transform="matrix(-0.011955 -0.19722 0.19722 -0.011955 1598.75 19886.7)" rx="803" ry="808"/>
     <ellipse class="fil18" transform="matrix(-0.0076205 -0.125714 0.125714 -0.0076205 1508.73 20151.9)" rx="803" ry="808"/>
     <ellipse class="fil18 str1" transform="matrix(-0.0099819 -0.16467 0.16467 -0.0099819 1443.3 19973.4)" rx="803" ry="808"/>
    </g>
    <path class="fil17" d="M1926 19968c-2,7 -8,13 -16,14l-233 14c-8,0 -15,-5 -17,-12l266 -16z"/>
    <path class="fil17" d="M1487 20081c-2,-33 7,-63 25,-88l219 -13c20,22 33,51 35,84 5,77 -54,142 -131,147 -77,5 -143,-54 -148,-130z"/>
    <path class="fil17" d="M1728 19980c-27,37 -70,62 -120,65 -49,3 -95,-17 -126,-50l246 -15z"/>
    <path class="fil17 str2" d="M1407 20158c-3,-56 40,-104 96,-107 56,-3 104,39 107,95 4,55 -39,103 -95,107 -56,3 -104,-39 -108,-95z"/>
    <path class="fil17" d="M1576 19989c-8,63 -59,113 -125,117 -65,3 -122,-40 -137,-101l262 -16z"/>
    <path class="fil19" d="M1576 19989c-3,28 -15,53 -33,73 -22,25 -55,42 -92,44 -37,2 -71,-10 -97,-33 -20,-18 -34,-41 -41,-68l1 0c7,26 22,50 41,67 26,22 60,35 96,33 37,-2 69,-19 92,-44 17,-20 29,-45 32,-72l1 0z"/>
   </g>
   <g id="_498468904">
    <g>
     <path class="fil17" d="M13054 20190l0 0c-1,6 -26,11 -56,10l-80 -4c-30,-1 -55,-8 -54,-14l0 0c0,-7 25,-12 55,-10l80 3c31,1 55,8 55,15z"/>
     <ellipse class="fil17" transform="matrix(-0.00648926 0.154013 -0.137914 -0.00581091 13168 20196.5)" rx="830" ry="1293"/>
     <ellipse class="fil17" transform="matrix(-0.00481119 0.114187 -0.0730396 -0.00307748 13346.4 20204)" rx="830" ry="1293"/>
     <ellipse class="fil17" transform="matrix(-0.00272676 0.0647158 -0.0600174 -0.0025288 13458.1 20208.7)" rx="830" ry="1293"/>
    </g>
    <g>
     <path class="fil18" d="M12864 20178c2,-5 7,-8 13,-8l165 7c5,0 10,4 11,9l-189 -8z"/>
     <path class="fil18" d="M12990 20183c7,-67 87,-118 183,-114 96,4 172,61 173,129l-356 -15z"/>
     <path class="fil18" d="M13252 20194c5,-49 48,-87 98,-85 51,2 90,44 91,93l-189 -8z"/>
     <path class="fil18" d="M13381 20200c5,-27 39,-47 79,-45 40,2 73,24 76,51l-155 -6z"/>
    </g>
   </g>
   <g id="_498467944">
    <path class="fil17" d="M7402 14791c3052,0 5527,2474 5527,5527 0,231 -14,459 -42,682l-10970 0c-28,-223 -42,-451 -42,-682 0,-3053 2474,-5527 5527,-5527z"/>
    <path class="fil18" d="M10890 16030c-176,-101 -848,-269 -1165,-6 -114,95 -1985,509 140,509 975,0 -1308,881 -1411,902 -6,1 -923,1250 142,620 1090,-645 3872,1227 2226,657 -1708,-591 -3228,-916 -3322,1462 -19,496 670,795 1302,770 4,0 27,19 62,56l3441 0c36,-134 58,-395 58,-906 321,23 521,717 523,906l0 0c15,-142 64,-637 27,-1098 -71,-879 -348,-1705 -724,-2349 -500,-856 -1124,-1422 -1299,-1523z"/>
    <path class="fil18" d="M3967 16358c275,0 1496,-899 1437,-107 -10,138 -600,39 -396,1331 -65,71 -1074,-12 -1686,1158 -284,544 -744,-185 -628,760 29,236 -30,371 -11,480 49,285 162,250 278,255 240,9 243,-501 893,328 406,518 65,-221 707,437l-2149 0c31,-243 168,-373 30,-554 -79,-103 -167,-220 -193,-283 -99,-240 -383,-181 -348,-393 40,-236 71,-615 190,-989 134,-420 312,-918 566,-1300 121,-181 231,-361 372,-544 101,-131 219,-257 357,-416 40,-47 165,-145 279,-156 135,-12 299,-7 302,-7z"/>
    <path class="fil18" d="M8181 14950c58,7 -2315,-382 -2370,627 50,400 386,-164 312,292 -37,225 132,401 230,300 196,-201 299,137 611,-100 41,-30 195,-286 438,-360 311,-95 787,-50 1084,-188 996,-462 -318,-572 -305,-571z"/>
   </g>
  </g>
  <g id="_474132616">
   <g id="_498465688">
    <path class="fil4" d="M11054 11420c9,9 22,17 31,8 1,0 3,-2 7,-6 2,-2 6,-6 10,-10l357 -345c0,2 0,4 0,6 -2,21 30,556 30,556l11 22 45 -493 -45 -54 9 -86 279 -270c10,-10 16,-16 17,-16 9,-10 2,-23 -7,-32 -10,-10 -100,-100 -113,-113 -17,14 -14,25 -5,36 10,10 76,78 76,78 0,0 -2,2 -7,6l-8 9 -86 -89 -13 12 86 89 -11 11 -86 -90 -13 13 86 89 -9 9 -86 -89 -13 12 86 89 -11 11 -86 -89 -13 12 87 89 -12 11 -86 -89 -13 12 87 90 -11 10 -86 -88c0,-3 1,-5 1,-7 9,-61 -20,-120 -71,-142 -9,-4 -19,-7 -29,-8 -32,-5 -64,5 -90,28 -26,22 -43,53 -48,88 -7,52 13,102 51,130 4,4 21,22 40,51l-6 6 27 28c8,14 15,29 22,45l-61 -62 -13 12 87 90 -11 10 -86 -89 -13 12 86 89 -9 9 -86 -89 -13 13 86 89 -11 10 -86 -89 -13 13 86 89 -11 10 -86 -89 -13 13 86 89 -11 10 -86 -89 -13 13 86 89 -10 10 -86 -89 -13 12 86 89 -11 11 -86 -89 -13 12 86 89 -11 11 -86 -89 -13 13 86 89 -11 10 -86 -89 -13 13 86 89 -11 11 -86 -89 -13 12 86 89 -11 11 -86 -89 -13 12 86 89 -9 9 -86 -89 -13 12 87 89 -11 11 -87 -89 -12 12 86 89 -11 11 -87 -89 -12 12 86 90 -11 10 -86 -89 -13 12 86 90 -11 10 -86 -89 -13 13 86 89 -7 7c-4,4 -7,6 -7,6 0,0 -66,-68 -75,-78 -10,-10 -22,-13 -36,4 13,12 100,106 109,116zm466 -243c-4,10 -16,15 -27,10 -10,-5 -15,-17 -10,-27 4,-10 16,-15 27,-11 10,5 15,17 10,28zm-2 -246l0 -2 1 1 -1 1zm14 -14l-11 -12 2 -19 20 21 -11 10zm24 -23l-31 -31 2 -17 38 40 -9 8zm22 -21l-49 -50 3 -20 57 60 -11 10zm24 -23l-68 -70 2 -16 75 77 -9 9zm-262 -145c3,-25 16,-48 34,-64 17,-15 39,-22 60,-19 6,1 12,3 18,5 35,16 55,57 49,101 -4,26 -16,49 -34,65 -18,15 -39,21 -60,18 -6,0 -13,-2 -19,-5 -34,-15 -54,-57 -48,-101z"/>
    <path class="fil10" d="M11446 11141l-316 346 25 -8c0,0 170,-138 296,-242 -2,-37 -3,-70 -5,-96z"/>
    <path class="fil4" d="M11784 10842c0,0 0,1 0,1 0,-1 0,-1 0,-1l-251 275 -1 0 26 31c14,-11 23,-19 25,-21 106,-86 247,-81 257,-80 44,8 94,-10 127,-49 23,-27 36,-60 35,-94 0,-34 -14,-65 -39,-86 -8,-7 -17,-13 -27,-17 -50,-22 -112,-5 -152,41zm137 -5c6,3 12,6 17,11 16,13 25,34 25,57 1,24 -9,48 -25,68 -29,33 -73,46 -107,31 -7,-3 -12,-7 -17,-11 -17,-14 -26,-34 -26,-57 0,-24 9,-49 26,-68 28,-34 72,-46 107,-31z"/>
    <path class="fil1" d="M11788 10594c-1,0 -199,-75 -225,-79 -361,-56 -533,84 -685,417 -131,287 -112,424 137,580 78,50 56,-50 173,-128 69,-45 145,-196 208,-219 4,-1 192,-193 234,-220 38,-25 223,-207 204,-252 0,-1 -27,-139 -46,-99z"/>
    <path class="fil4" d="M11539 10734c-1,1 -1,1 -1,1 1,0 1,-1 1,-1l-39 370 -3 1 -37 1c0,-18 -1,-30 -1,-33 -8,-138 -104,-239 -111,-246 -36,-28 -55,-77 -47,-128 5,-35 22,-66 48,-88 26,-22 58,-32 90,-27 11,1 21,4 30,9 50,23 78,81 70,141zm-86 -106c-6,-3 -13,-5 -19,-6 -21,-3 -43,4 -60,19 -19,15 -31,38 -35,64 -6,43 13,85 47,101 6,3 13,4 20,6 21,3 42,-4 60,-19 18,-16 30,-38 34,-64 6,-44 -13,-85 -47,-101z"/>
   </g>
   <g id="_498465232">
    <path class="fil4" d="M11245 11387c16,0 33,-4 33,-20 0,-1 0,-4 0,-10 0,-5 0,-10 0,-18l-6 -551 -67 1 0 6 -148 1 0 22 148 -2 0 19 -148 1 0 22 149 -2 0 18 -148 2 0 21 148 -2 0 18 -148 2 0 21 148 -2 1 18 -148 2 0 21 148 -1 0 18 -148 2 0 21 148 -1 0 18 -148 1 1 22 148 -2 0 19 -148 2 0 21 148 -1 0 18 -148 1 0 22 148 -2 1 15 -148 2 0 21 148 -1 0 18 -148 1 0 22 148 -2 0 19 -148 1 1 22 148 -2 0 18 -148 1 0 22 148 -2 0 19 -148 2 1 21 148 -1 0 11c0,7 0,11 0,11 0,0 -113,2 -130,2 -17,0 -29,8 -26,33 21,0 174,2 190,1z"/>
    <path class="fil4" d="M11235 10343c16,0 33,4 33,20 0,0 0,4 1,10 0,4 0,10 0,17l5 552 -67 0 -1 -6 -148 1 0 -21 148 -1 0 -19 -148 2 0 -22 148 -1 0 -18 -149 1 0 -21 148 -2 0 -17 -148 1 0 -21 148 -2 0 -18 -148 2 0 -22 148 -1 0 -19 -149 2 0 -22 148 -1 0 -18 -148 1 0 -21 148 -1 0 -19 -148 1 0 -21 148 -2 0 -18 -149 2 0 -22 148 -1 0 -15 -148 1 0 -21 148 -2 0 -18 -148 2 0 -22 148 -1 0 -19 -149 2 0 -22 148 -1 0 -18 -148 1 0 -21 148 -1 0 -19 -148 1 0 -21 148 -2 0 -11c-1,-7 -1,-11 -1,-11 0,0 -113,1 -129,1 -17,0 -30,-8 -27,-33 21,-1 174,-5 190,-5z"/>
   </g>
  </g>
  <path class="fil1" d="M11068 11119c253,90 506,181 759,272 -67,707 -1168,312 -759,-272z"/>
  <path class="fil10" d="M10970 10830c253,90 506,181 759,272 -67,707 -1168,312 -759,-272z"/>
 </g>
</svg>
