<?xml version="1.0" encoding="UTF-8"?>
<!DOCTYPE svg PUBLIC "-//W3C//DTD SVG 1.1//EN" "http://www.w3.org/Graphics/SVG/1.1/DTD/svg11.dtd">
<!-- Creator: CorelDRAW X7 -->
<svg xmlns="http://www.w3.org/2000/svg" xml:space="preserve" width="145.997mm" height="210mm" version="1.1" style="shape-rendering:geometricPrecision; text-rendering:geometricPrecision; image-rendering:optimizeQuality; fill-rule:evenodd; clip-rule:evenodd"
viewBox="0 0 14600 21000"
 >
 <defs>
  <style type="text/css">
   <![CDATA[
    .str1 {stroke:#CF892D;stroke-width:7.62}
    .str0 {stroke:#EB9D36;stroke-width:7.62}
    .fil4 {fill:#965500}
    .fil5 {fill:#A65E00}
    .fil6 {fill:#BA6900}
    .fil7 {fill:#C77100}
    .fil16 {fill:#CF892D}
    .fil11 {fill:#DB7C00}
    .fil14 {fill:#E07F00}
    .fil10 {fill:#E8BC90}
    .fil19 {fill:#EB8500}
    .fil17 {fill:#EB9D36}
    .fil15 {fill:#F08800}
    .fil12 {fill:#F28900}
    .fil9 {fill:#FF9101}
    .fil3 {fill:#FF9A17}
    .fil13 {fill:#FF9E1F}
    .fil8 {fill:#FFA024}
    .fil2 {fill:#FFAD42}
    .fil1 {fill:#FFCC99}
    .fil0 {fill:white}
    .fil18 {fill:#CF8627;fill-rule:nonzero}
   ]]>
  </style>
 </defs>
 <g id="Слой_x0020_1">
  <metadata id="CorelCorpID_0Corel-Layer"/>
  <circle class="fil0" cx="3311" cy="13703" r="133"/>
  <circle class="fil0" cx="11398" cy="12688" r="133"/>
  <circle class="fil0" cx="11132" cy="16663" r="133"/>
  <g id="_488016888">
   <path class="fil1" d="M11396 8047c44,-106 -46,-520 -76,-920 -22,-293 5,-542 -27,-553l-268 -96c-15,-5 -152,477 -170,604 -39,287 -67,629 78,1376 185,132 884,590 1388,641 306,31 625,-154 527,-477 -83,-272 -452,-238 -971,-414 -301,-103 -408,-159 -481,-161z"/>
   <path class="fil2" d="M11391 8017c-136,266 -489,334 -458,441 168,166 883,599 1396,651 313,32 638,-156 538,-486 -85,-277 -461,-242 -990,-423 -308,-104 -449,-257 -486,-183z"/>
  </g>
  <path class="fil3" d="M10643 11653c1488,1461 1002,937 1684,610 74,-204 211,-858 485,-1482 72,-163 453,-724 551,-905 124,-228 252,-458 257,-619 12,-192 -231,-601 -301,-734 -110,-126 -242,-170 -421,-209 -91,-20 -183,-28 -275,-23 -9,-75 -41,2 -62,5 -606,64 -1188,646 -1476,1522 -253,772 -327,1133 -372,1402 -36,209 -65,396 -70,433z"/>
  <g id="_494854288">
   <g>
    <path class="fil4" d="M10096 14947c-91,69 -349,41 -565,57 -184,14 -416,18 -466,80 -139,173 -97,221 215,335 170,63 420,153 771,279 118,42 193,54 253,58 160,13 208,-178 233,-234 23,-53 144,-377 127,-429 -33,-107 -280,-347 -414,-348 -104,-1 -97,158 -154,202z"/>
    <path class="fil5" d="M10403 15057c-91,69 -349,41 -565,57 -184,13 -416,18 -466,80 -139,173 -97,221 215,335 170,63 420,153 771,279 118,42 193,54 253,58 160,13 208,-178 233,-234 23,-53 144,-377 127,-429 -33,-107 -280,-347 -414,-348 -104,-1 -97,158 -154,202z"/>
   </g>
   <g>
    <polygon class="fil6" points="11772,12064 10643,11651 10097,14946 10403,15057 "/>
    <polygon class="fil7" points="12327,12263 11153,11838 10403,15057 10967,15260 "/>
   </g>
  </g>
  <path class="fil0" d="M12517 8301c-296,8 -729,326 -779,540 251,9 286,320 625,354 384,-146 951,-590 956,-672l115 212c-685,225 -1998,2017 -703,2240 -24,64 -42,110 -61,164 -1115,-28 -893,1617 -916,1745l-1241 -445c254,-2493 965,-4033 2004,-4138z"/>
  <g id="_500763768">
   <g>
    <path class="fil8" d="M10445 8076l-313 206c-29,19 -37,58 -18,86l457 697c19,28 58,37 87,18l313 -206c29,-19 37,-58 18,-87l-457 -696c-19,-29 -58,-37 -87,-18z"/>
    <path class="fil9" d="M10114 8368l457 696c19,29 58,37 87,18l313 -206c29,-18 37,-58 18,-86 -47,-21 -524,-242 -875,-422z"/>
   </g>
   <g>
    <path class="fil1" d="M10056 8632c-33,197 100,384 298,417 197,33 384,-101 417,-298 7,-43 6,-86 -2,-127 -77,56 -146,75 -259,65 -64,-6 -138,-37 -182,-64 -45,-27 -120,-117 -154,-168 -20,8 -95,40 -118,175z"/>
    <path class="fil1" d="M11933 9762c-62,-107 -474,-303 -834,-541 -264,-174 -458,-361 -489,-341l-258 165c-14,10 306,444 403,543 218,222 491,471 1223,839 235,-71 1085,-365 1460,-761 228,-240 280,-633 -60,-762 -286,-109 -500,228 -991,554 -287,189 -405,243 -454,304z"/>
    <path class="fil2" d="M11904 9746c137,292 -37,637 74,681 252,-34 1092,-358 1474,-761 233,-245 286,-646 -61,-778 -291,-110 -509,233 -1011,565 -292,194 -515,213 -476,293z"/>
   </g>
  </g>
  <path class="fil10" d="M13606 7701l-725 -260 -277 823c-3,81 356,431 715,259l287 -822z"/>
  <g id="_488008344">
   <ellipse class="fil1" transform="matrix(-0.921806 -0.522029 -0.486336 0.85878 13255.8 7147.48)" rx="935" ry="1023"/>
   <path class="fil11" d="M13831 6093c-497,-281 -655,8 -1068,-459 -745,1123 758,1085 864,1259 128,208 -196,256 -17,455 24,27 47,120 -54,267 -72,104 249,-270 357,-96 74,120 -83,324 -182,320 -42,-1 18,154 117,106 736,-355 618,-1493 -17,-1852z"/>
   <path class="fil11" d="M13578 7580c-72,111 -815,307 -1273,-281 -29,-38 -44,-134 -44,-116 -13,207 -151,353 -97,526 68,221 471,417 689,419 422,5 503,-334 738,-529 -13,-12 -14,-8 -13,-19z"/>
   <path class="fil11" d="M12971 7530c-292,238 -420,41 -475,-138 258,-186 316,93 475,138z"/>
   <path class="fil11" d="M12260 7137c-76,359 126,349 285,291 48,-304 -190,-194 -285,-291z"/>
  </g>
  <g id="_500765040">
   <path class="fil2" d="M12812 8701c132,-19 372,-104 507,-178 -136,58 -415,8 -610,-117l103 295z"/>
   <path class="fil2" d="M12354 8417c135,-112 233,-154 252,-159 31,79 64,108 103,148l-355 11z"/>
  </g>
  <path class="fil0" d="M11287 11879c236,-89 673,-96 262,-571 -74,-86 -279,-90 -464,-318 -299,-368 -463,378 -311,637 78,132 407,307 513,252z"/>
  <path class="fil6" d="M4615 14987c93,71 360,40 583,56 190,13 430,17 482,81 144,178 100,227 -220,347 -177,65 -434,159 -795,291 -123,44 -200,57 -261,62 -166,14 -216,-183 -242,-241 -25,-55 -151,-389 -134,-443 34,-110 288,-359 426,-361 108,-2 102,163 161,208z"/>
  <path class="fil7" d="M4298 15102c94,71 360,40 584,56 190,13 429,17 481,81 144,178 101,227 -220,347 -176,65 -433,159 -795,291 -122,44 -199,57 -261,62 -166,14 -215,-183 -242,-241 -24,-55 -150,-389 -134,-443 35,-110 288,-359 427,-361 107,-2 101,163 160,208z"/>
  <path class="fil12" d="M2953 8183c17,-118 102,-327 24,-1227l368 -67c14,-2 426,1481 -116,1898 -615,312 -1454,93 -1675,-91 -123,-103 -199,-532 112,-612 385,31 1165,137 1287,99z"/>
  <path class="fil9" d="M4034 11588c-1530,1516 -1031,972 -1736,638 -78,-210 -223,-885 -509,-1528 -74,-168 -471,-745 -573,-932 -129,-235 -262,-472 -269,-638 -13,-199 236,-622 308,-760 113,-130 249,-176 433,-218 95,-21 190,-29 285,-25 9,-77 42,3 64,5 626,63 1230,662 1531,1565 265,796 343,1169 391,1446 38,216 70,409 75,447z"/>
  <path class="fil0" d="M2544 8980c41,21 171,36 226,31 -65,-135 -13,-253 -164,-380 -322,-270 -441,-477 -607,-535 -135,-46 -312,13 -563,164 -114,69 -151,-13 -156,134 291,83 1043,581 1264,586z"/>
  <g id="_380411560">
   <polygon class="fil11" points="2432,8208 1980,8083 1980,8083 2484,8675 2484,8675 "/>
   <polygon class="fil11" points="2655,8470 2203,8345 2203,8345 2770,9011 "/>
  </g>
  <path class="fil10" d="M954 7521l748 -272 290 849c3,83 -365,447 -737,270l-301 -847z"/>
  <ellipse class="fil1" transform="matrix(0.952513 -0.538065 0.501275 0.887384 1281.47 6953.92)" rx="935" ry="1023"/>
  <g id="_380411200">
   <polygon class="fil8" points="1599,8900 1255,8368 1255,8368 2221,8778 2221,8778 "/>
   <polygon class="fil8" points="2026,9081 1682,8549 1682,8549 2770,9011 "/>
  </g>
  <path class="fil8" d="M4218 7894l325 211c30,19 38,59 19,89l-469 721c-19,30 -59,39 -89,19l-325 -211c-30,-19 -39,-59 -19,-89l469 -721c19,-30 59,-39 89,-19z"/>
  <path class="fil9" d="M4561 8194l-468 721c-19,30 -60,38 -90,19l-324 -211c-30,-19 -38,-60 -19,-90 49,-21 540,-252 901,-439z"/>
  <path class="fil13" d="M2692 9642c64,-111 488,-315 859,-563 272,-182 471,-376 503,-355l267 170c16,10 -313,459 -413,562 -224,231 -505,489 -1259,873 -242,-72 -1123,-373 -1511,-779 -237,-248 -293,-653 58,-788 295,-114 517,233 1026,567 297,195 419,250 470,313z"/>
  <path class="fil1" d="M4625 8465c35,204 -102,397 -305,432 -204,35 -397,-101 -432,-305 -8,-45 -7,-89 1,-132 79,58 151,78 268,66 65,-7 142,-38 187,-66 46,-28 124,-122 158,-174 21,7 99,40 123,179z"/>
  <polygon class="fil14" points="2869,12018 4033,11586 4613,14986 4298,15102 "/>
  <polygon class="fil15" points="2298,12226 3508,11781 4298,15102 3717,15315 "/>
  <path class="fil1" d="M3497 6800c-57,122 -177,210 -320,220 -211,15 -393,-144 -408,-355 -14,-210 145,-393 355,-407 106,-8 204,29 278,93 -58,53 -92,131 -86,215 8,111 82,201 181,234z"/>
  <g id="_380426968">
   <circle class="fil0" cx="12156" cy="19103" r="133"/>
   <circle class="fil0" cx="9325" cy="20723" r="133"/>
   <circle class="fil0" cx="4964" cy="16530" r="133"/>
   <path class="fil0" d="M12669 20923c0,-105 -85,-190 -190,-190 -105,0 -190,85 -190,190 0,27 6,53 16,77l348 0c10,-24 16,-50 16,-77z"/>
   <g id="_388423056">
    <g>
     <path class="fil16" d="M2825 16691l0 0c-8,9 20,48 64,85l116 100c44,37 87,60 95,50l0 0c9,-10 -20,-49 -64,-86l-116 -99c-44,-38 -86,-60 -95,-50z"/>
     <ellipse class="fil16" transform="matrix(-0.190706 0.223133 0.199808 0.170771 2656.55 16551.8)" rx="830" ry="1293"/>
     <ellipse class="fil16" transform="matrix(-0.141391 0.165433 0.105819 0.090441 2398.19 16331)" rx="830" ry="1293"/>
     <ellipse class="fil16" transform="matrix(-0.0801339 0.0937596 0.0869527 0.0743163 2236.24 16192.6)" rx="830" ry="1293"/>
    </g>
    <g>
     <path class="fil17" d="M3104 16920c4,-10 1,-21 -7,-28l-239 -204c-8,-7 -19,-7 -28,-2l274 234z"/>
     <path class="fil17" d="M2922 16764c78,-103 32,-279 -107,-397 -139,-119 -319,-137 -410,-44l517 441z"/>
     <path class="fil17" d="M2542 16440c57,-76 47,-184 -26,-246 -73,-63 -182,-56 -247,12l273 234z"/>
     <path class="fil17" d="M2355 16280c28,-44 6,-116 -52,-165 -58,-50 -132,-60 -172,-26l224 191z"/>
    </g>
   </g>
   <g id="_388428600">
    <g>
     <polygon class="fil17" points="12280,17284 12030,17415 11935,17234 "/>
     <polygon class="fil16" points="12280,17282 12030,17414 12125,17596 "/>
    </g>
    <g>
     <polygon class="fil17" points="13111,17560 12228,18025 11890,17383 "/>
     <polygon class="fil16" points="13109,17556 12225,18021 12563,18663 "/>
    </g>
    <g>
     <polygon class="fil17" points="12944,18311 12501,18544 12331,18222 "/>
     <polygon class="fil16" points="12943,18308 12500,18542 12669,18864 "/>
    </g>
   </g>
   <g id="_388424232">
    <g>
     <polygon class="fil16" points="6361,14401 6438,14896 6078,14952 "/>
     <polygon class="fil17" points="6359,14401 6435,14896 6795,14841 "/>
    </g>
    <g>
     <polygon class="fil16" points="6860,14602 6910,14880 6708,14916 "/>
     <polygon class="fil17" points="6859,14602 6909,14880 7111,14844 "/>
    </g>
   </g>
   <g id="_498476608">
    <g>
     <path class="fil17" d="M1978 17871l0 0c6,-16 69,-7 141,20l189 71c72,27 125,62 119,78l0 0c-6,17 -69,8 -141,-19l-189 -72c-72,-27 -125,-62 -119,-78z"/>
     <ellipse class="fil17" transform="matrix(0.109589 -0.290524 0.290524 0.109589 1856.77 17999.4)" rx="803" ry="808"/>
     <ellipse class="fil17" transform="matrix(0.124977 -0.331317 0.331317 0.124977 1947.33 17675.3)" rx="803" ry="808"/>
     <ellipse class="fil17" transform="matrix(0.0796642 -0.211193 0.211193 0.0796642 1605.72 18043.2)" rx="803" ry="808"/>
     <ellipse class="fil17 str0" transform="matrix(0.10435 -0.276636 0.276636 0.10435 1629.52 17703.3)" rx="803" ry="808"/>
    </g>
    <path class="fil16" d="M2423 18048c-8,11 -23,16 -36,11l-391 -148c-13,-5 -21,-18 -20,-32l447 169z"/>
    <path class="fil16" d="M1622 17911c21,-55 59,-98 105,-126l369 140c16,51 16,108 -4,163 -49,129 -193,193 -323,145 -129,-49 -195,-193 -147,-322z"/>
    <path class="fil16" d="M2090 17922c-71,41 -159,51 -243,19 -83,-31 -143,-97 -170,-174l413 155z"/>
    <path class="fil16" d="M1436 17979c35,-94 140,-141 234,-105 94,35 142,140 107,234 -36,93 -141,140 -235,105 -94,-36 -142,-141 -106,-234z"/>
    <path class="fil16" d="M1835 17826c-58,97 -179,141 -289,99 -110,-41 -171,-154 -151,-265l440 166z"/>
    <path class="fil18" d="M1836 17826c-26,43 -63,75 -107,95 -56,25 -121,29 -183,5 -62,-23 -109,-69 -134,-125 -20,-43 -27,-93 -18,-141l2 1c-9,48 -2,96 18,139 25,55 71,101 133,124 61,23 126,20 181,-5 43,-19 80,-51 106,-93l2 0z"/>
   </g>
   <g id="_498474568">
    <g>
     <path class="fil17" d="M1651 19279l0 0c1,-14 51,-19 111,-12l157 19c59,7 106,23 105,37l0 0c-2,13 -51,18 -111,11l-157 -18c-60,-7 -107,-24 -105,-37z"/>
     <ellipse class="fil17" transform="matrix(0.0284942 -0.241337 0.241337 0.0284942 1583 19399.1)" rx="803" ry="808"/>
     <ellipse class="fil17" transform="matrix(0.0324952 -0.275224 0.275224 0.0324952 1590.72 19135.8)" rx="803" ry="808"/>
     <ellipse class="fil17" transform="matrix(0.0207135 -0.175437 0.175437 0.0207135 1400.55 19479.6)" rx="803" ry="808"/>
     <ellipse class="fil17 str0" transform="matrix(0.0271321 -0.2298 0.2298 0.0271321 1354.58 19216.9)" rx="803" ry="808"/>
    </g>
    <path class="fil16" d="M2022 19329c-4,10 -14,16 -25,15l-324 -38c-12,-1 -20,-10 -22,-21l371 44z"/>
    <path class="fil16" d="M1388 19376c6,-45 26,-85 56,-115l307 36c22,36 33,80 27,125 -12,107 -110,183 -218,171 -107,-13 -184,-110 -172,-217z"/>
    <path class="fil16" d="M1746 19297c-47,44 -112,68 -181,60 -69,-8 -127,-47 -162,-101l343 41z"/>
    <path class="fil16" d="M1259 19463c9,-78 80,-133 159,-124 78,9 134,80 125,157 -10,78 -80,134 -159,124 -78,-9 -134,-79 -125,-157z"/>
    <path class="fil16" d="M1534 19272c-26,84 -110,140 -201,129 -91,-10 -159,-85 -165,-173l366 44z"/>
    <path class="fil18" d="M1535 19272c-12,37 -34,68 -64,91 -37,30 -86,45 -138,39 -51,-6 -96,-32 -125,-70 -24,-29 -38,-65 -41,-104l2 0c3,39 17,74 40,103 29,37 73,63 124,69 51,6 100,-9 137,-38 29,-23 51,-54 63,-91l2 1z"/>
   </g>
   <g id="_498470488">
    <g>
     <path class="fil17" d="M1660 19979l0 0c-1,-9 33,-19 76,-22l113 -7c42,-2 77,4 78,13l0 0c1,10 -33,20 -76,22l-113 7c-43,3 -78,-3 -78,-13z"/>
     <ellipse class="fil17" transform="matrix(-0.010483 -0.172937 0.172937 -0.010483 1627.29 20072.4)" rx="803" ry="808"/>
     <ellipse class="fil17" transform="matrix(-0.011955 -0.19722 0.19722 -0.011955 1599.46 19886.7)" rx="803" ry="808"/>
     <ellipse class="fil17" transform="matrix(-0.0076205 -0.125714 0.125714 -0.0076205 1509.44 20151.9)" rx="803" ry="808"/>
     <ellipse class="fil17 str0" transform="matrix(-0.0099819 -0.16467 0.16467 -0.0099819 1444.01 19973.4)" rx="803" ry="808"/>
    </g>
    <path class="fil16" d="M1927 19968c-2,7 -8,13 -16,14l-233 14c-8,0 -15,-5 -17,-12l266 -16z"/>
    <path class="fil16" d="M1488 20081c-2,-33 7,-63 25,-88l219 -13c20,22 33,51 35,84 5,77 -54,142 -131,147 -77,5 -143,-54 -148,-130z"/>
    <path class="fil16" d="M1729 19980c-27,37 -70,62 -120,65 -49,3 -95,-17 -126,-50l246 -15z"/>
    <path class="fil16 str1" d="M1408 20158c-3,-56 40,-104 96,-107 56,-3 104,39 107,95 4,55 -39,103 -95,107 -56,3 -104,-39 -108,-95z"/>
    <path class="fil16" d="M1577 19989c-8,63 -59,113 -125,117 -65,3 -122,-40 -137,-101l262 -16z"/>
    <path class="fil18" d="M1577 19989c-3,28 -15,53 -33,73 -22,25 -55,42 -92,44 -37,2 -71,-10 -97,-33 -20,-18 -34,-41 -41,-68l1 0c7,26 22,50 41,67 26,22 60,35 96,33 37,-2 69,-19 92,-44 17,-20 29,-45 32,-72l1 0z"/>
   </g>
   <g id="_498468904">
    <g>
     <path class="fil16" d="M13055 20190l0 0c-1,6 -26,11 -56,10l-80 -4c-30,-1 -55,-8 -54,-14l0 0c0,-7 25,-12 55,-10l80 3c31,1 55,8 55,15z"/>
     <ellipse class="fil16" transform="matrix(-0.00648926 0.154013 -0.137914 -0.00581091 13168.8 20196.5)" rx="830" ry="1293"/>
     <ellipse class="fil16" transform="matrix(-0.00481119 0.114187 -0.0730396 -0.00307748 13347.2 20204)" rx="830" ry="1293"/>
     <ellipse class="fil16" transform="matrix(-0.00272676 0.0647158 -0.0600174 -0.0025288 13458.8 20208.7)" rx="830" ry="1293"/>
    </g>
    <g>
     <path class="fil17" d="M12865 20178c2,-5 7,-8 13,-8l165 7c5,0 10,4 11,9l-189 -8z"/>
     <path class="fil17" d="M12991 20183c7,-67 87,-118 183,-114 96,4 172,61 173,129l-356 -15z"/>
     <path class="fil17" d="M13253 20194c5,-49 48,-87 98,-85 51,2 90,44 91,93l-189 -8z"/>
     <path class="fil17" d="M13382 20200c5,-27 39,-47 79,-45 40,2 73,24 76,51l-155 -6z"/>
    </g>
   </g>
   <g id="_498467944">
    <path class="fil16" d="M7403 14791c3052,0 5527,2474 5527,5527 0,231 -14,459 -42,682l-10970 0c-28,-223 -42,-451 -42,-682 0,-3053 2474,-5527 5527,-5527z"/>
    <path class="fil17" d="M10891 16030c-176,-101 -848,-269 -1165,-6 -114,95 -1985,509 140,509 975,0 -1308,881 -1411,902 -6,1 -923,1250 142,620 1090,-645 3872,1227 2226,657 -1708,-591 -3228,-916 -3322,1462 -19,496 670,795 1302,770 4,0 27,19 62,56l3441 0c36,-134 58,-395 58,-906 321,23 521,717 523,906l0 0c15,-142 64,-637 27,-1098 -71,-879 -348,-1705 -724,-2349 -500,-856 -1124,-1422 -1299,-1523z"/>
    <path class="fil17" d="M3968 16358c275,0 1496,-899 1437,-107 -10,138 -600,39 -396,1331 -65,71 -1074,-12 -1686,1158 -284,544 -744,-185 -628,760 29,236 -30,371 -11,480 49,285 162,250 278,255 240,9 243,-501 893,328 406,518 65,-221 707,437l-2149 0c31,-243 168,-373 30,-554 -79,-103 -167,-220 -193,-283 -99,-240 -383,-181 -348,-393 40,-236 71,-615 190,-989 134,-420 312,-918 566,-1300 121,-181 231,-361 372,-544 101,-131 219,-257 357,-416 40,-47 165,-145 279,-156 135,-12 299,-7 302,-7z"/>
    <path class="fil17" d="M8182 14950c58,7 -2315,-382 -2370,627 50,400 386,-164 312,292 -37,225 132,401 230,300 196,-201 299,137 611,-100 41,-30 195,-286 438,-360 311,-95 787,-50 1084,-188 996,-462 -318,-572 -305,-571z"/>
   </g>
  </g>
  <g id="_380402944">
   <g id="_498465688">
    <path class="fil3" d="M11055 11420c9,9 22,17 31,8 1,0 3,-2 7,-6 2,-2 6,-6 10,-10l357 -345c0,2 0,4 0,6 -2,21 30,556 30,556l11 22 45 -493 -45 -54 9 -86 279 -270c10,-10 16,-16 17,-16 9,-10 2,-23 -7,-32 -10,-10 -100,-100 -113,-113 -17,14 -14,25 -5,36 10,10 76,78 76,78 0,0 -2,2 -7,6l-8 9 -86 -89 -13 12 86 89 -11 11 -86 -90 -13 13 86 89 -9 9 -86 -89 -13 12 86 89 -11 11 -86 -89 -13 12 87 89 -12 11 -86 -89 -13 12 87 90 -11 10 -86 -88c0,-3 1,-5 1,-7 9,-61 -20,-120 -71,-142 -9,-4 -19,-7 -29,-8 -32,-5 -64,5 -90,28 -26,22 -43,53 -48,88 -7,52 13,102 51,130 4,4 21,22 40,51l-6 6 27 28c8,14 15,29 22,45l-61 -62 -13 12 87 90 -11 10 -86 -89 -13 12 86 89 -9 9 -86 -89 -13 13 86 89 -11 10 -86 -89 -13 13 86 89 -11 10 -86 -89 -13 13 86 89 -11 10 -86 -89 -13 13 86 89 -10 10 -86 -89 -13 12 86 89 -11 11 -86 -89 -13 12 86 89 -11 11 -86 -89 -13 13 86 89 -11 10 -86 -89 -13 13 86 89 -11 11 -86 -89 -13 12 86 89 -11 11 -86 -89 -13 12 86 89 -9 9 -86 -89 -13 12 87 89 -11 11 -87 -89 -12 12 86 89 -11 11 -87 -89 -12 12 86 90 -11 10 -86 -89 -13 12 86 90 -11 10 -86 -89 -13 13 86 89 -7 7c-4,4 -7,6 -7,6 0,0 -66,-68 -75,-78 -10,-10 -22,-13 -36,4 13,12 100,106 109,116zm466 -243c-4,10 -16,15 -27,10 -10,-5 -15,-17 -10,-27 4,-10 16,-15 27,-11 10,5 15,17 10,28zm-2 -246l0 -2 1 1 -1 1zm14 -14l-11 -12 2 -19 20 21 -11 10zm24 -23l-31 -31 2 -17 38 40 -9 8zm22 -21l-49 -50 3 -20 57 60 -11 10zm24 -23l-68 -70 2 -16 75 77 -9 9zm-262 -145c3,-25 16,-48 34,-64 17,-15 39,-22 60,-19 6,1 12,3 18,5 35,16 55,57 49,101 -4,26 -16,49 -34,65 -18,15 -39,21 -60,18 -6,0 -13,-2 -19,-5 -34,-15 -54,-57 -48,-101z"/>
    <path class="fil2" d="M11447 11141l-316 346 25 -8c0,0 170,-138 296,-242 -2,-37 -3,-70 -5,-96z"/>
    <path class="fil3" d="M11785 10842c0,0 0,1 0,1 0,-1 0,-1 0,-1l-251 275 -1 0 26 31c14,-11 23,-19 25,-21 106,-86 247,-81 257,-80 44,8 94,-10 127,-49 23,-27 36,-60 35,-94 0,-34 -14,-65 -39,-86 -8,-7 -17,-13 -27,-17 -50,-22 -112,-5 -152,41zm137 -5c6,3 12,6 17,11 16,13 25,34 25,57 1,24 -9,48 -25,68 -29,33 -73,46 -107,31 -7,-3 -12,-7 -17,-11 -17,-14 -26,-34 -26,-57 0,-24 9,-49 26,-68 28,-34 72,-46 107,-31z"/>
    <path class="fil0" d="M11789 10594c-1,0 -199,-75 -225,-79 -361,-56 -533,84 -685,417 -131,287 -112,424 137,580 78,50 56,-50 173,-128 69,-45 145,-196 208,-219 4,-1 192,-193 234,-220 38,-25 223,-207 204,-252 0,-1 -27,-139 -46,-99z"/>
    <path class="fil3" d="M11540 10734c-1,1 -1,1 -1,1 1,0 1,-1 1,-1l-39 370 -3 1 -37 1c0,-18 -1,-30 -1,-33 -8,-138 -104,-239 -111,-246 -36,-28 -55,-77 -47,-128 5,-35 22,-66 48,-88 26,-22 58,-32 90,-27 11,1 21,4 30,9 50,23 78,81 70,141zm-86 -106c-6,-3 -13,-5 -19,-6 -21,-3 -43,4 -60,19 -19,15 -31,38 -35,64 -6,43 13,85 47,101 6,3 13,4 20,6 21,3 42,-4 60,-19 18,-16 30,-38 34,-64 6,-44 -13,-85 -47,-101z"/>
   </g>
   <g id="_498465232">
    <path class="fil3" d="M11246 11387c16,0 33,-4 33,-20 0,-1 0,-4 0,-10 0,-5 0,-10 0,-18l-6 -551 -67 1 0 6 -148 1 0 22 148 -2 0 19 -148 1 0 22 149 -2 0 18 -148 2 0 21 148 -2 0 18 -148 2 0 21 148 -2 1 18 -148 2 0 21 148 -1 0 18 -148 2 0 21 148 -1 0 18 -148 1 1 22 148 -2 0 19 -148 2 0 21 148 -1 0 18 -148 1 0 22 148 -2 1 15 -148 2 0 21 148 -1 0 18 -148 1 0 22 148 -2 0 19 -148 1 1 22 148 -2 0 18 -148 1 0 22 148 -2 0 19 -148 2 1 21 148 -1 0 11c0,7 0,11 0,11 0,0 -113,2 -130,2 -17,0 -29,8 -26,33 21,0 174,2 190,1z"/>
    <path class="fil3" d="M11236 10343c16,0 33,4 33,20 0,0 0,4 1,10 0,4 0,10 0,17l5 552 -67 0 -1 -6 -148 1 0 -21 148 -1 0 -19 -148 2 0 -22 148 -1 0 -18 -149 1 0 -21 148 -2 0 -17 -148 1 0 -21 148 -2 0 -18 -148 2 0 -22 148 -1 0 -19 -149 2 0 -22 148 -1 0 -18 -148 1 0 -21 148 -1 0 -19 -148 1 0 -21 148 -2 0 -18 -149 2 0 -22 148 -1 0 -15 -148 1 0 -21 148 -2 0 -18 -148 2 0 -22 148 -1 0 -19 -149 2 0 -22 148 -1 0 -18 -148 1 0 -21 148 -1 0 -19 -148 1 0 -21 148 -2 0 -11c-1,-7 -1,-11 -1,-11 0,0 -113,1 -129,1 -17,0 -30,-8 -27,-33 21,-1 174,-5 190,-5z"/>
   </g>
  </g>
  <path class="fil0" d="M11855 11387c-9,-241 -1346,-396 -885,319 264,408 850,-58 880,-298 0,-1 5,-25 5,-21z"/>
  <path class="fil2" d="M10971 10830c253,90 506,181 759,272 -67,707 -1168,312 -759,-272z"/>
  <path class="fil11" d="M1189 6989l-432 -951c546,-272 994,-96 1271,214 -427,-319 -517,577 -1299,438 -26,54 37,355 -93,573 -145,242 180,632 308,665 -458,-143 -564,-416 -653,-611 -192,-422 -49,-1045 466,-1279l432 951z"/>
  <path class="fil1" d="M10766 6420c44,127 153,226 295,251 208,37 406,-102 442,-310 37,-208 -102,-406 -310,-443 -104,-18 -206,8 -286,64 52,59 77,140 63,223 -20,109 -103,191 -204,215z"/>
  <g id="_380428480">
   <circle class="fil0" cx="4174" cy="3583" r="1610"/>
   <polygon class="fil0" points="4174,6138 2755,4335 5592,4335 "/>
  </g>
  <rect class="fil9" x="3583" y="3488" width="829" height="762"/>
  <g id="_399639288">
   <path class="fil1" d="M4061 3491l-16 8 12 -360c-54,-500 782,112 4,352z"/>
   <circle class="fil1" transform="matrix(11.9478 1.62355 -1.62355 11.9479 4455.25 3765.25)" r="41"/>
  </g>
  <g id="_380413768">
   <circle class="fil8" cx="7535" cy="7136" r="750"/>
   <path class="fil9" d="M7480 6370c413,0 749,336 749,749 0,414 -336,750 -749,750l0 -1499z"/>
   <g>
    <g>
     <path class="fil19" d="M7480 6293c-458,0 -827,369 -827,826 0,452 369,827 827,827 457,0 827,-369 827,-827 0,-457 -370,-826 -827,-826zm0 1515c-381,0 -689,-308 -689,-689 0,-380 308,-689 689,-689 380,0 689,309 689,689 0,381 -309,689 -689,689z"/>
    </g>
   </g>
   <path class="fil11" d="M7480 6293l0 0 0 137c380,0 689,309 689,689 0,381 -309,689 -689,689l0 138c457,-5 827,-369 827,-827 0,-457 -370,-826 -827,-826z"/>
   <path class="fil11" d="M7673 7390c-33,38 -88,60 -149,66l0 99 -83 0 0 -99c-110,-11 -176,-72 -204,-188l127 -33c11,72 55,110 121,110 28,0 55,-11 66,-27 17,-11 22,-33 22,-55 0,-22 -5,-39 -22,-50 -11,-11 -44,-27 -99,-44 -44,-16 -77,-33 -105,-50 -27,-11 -44,-33 -60,-60 -17,-28 -28,-61 -28,-99 0,-50 17,-94 44,-133 28,-38 72,-60 138,-71l0 -78 83 0 0 78c88,11 149,66 176,160l-110 44c-22,-61 -61,-94 -105,-94 -22,0 -44,5 -55,22 -16,11 -22,28 -22,50 0,22 6,38 17,49 16,11 44,22 88,39 49,22 88,38 116,55 33,16 55,38 71,66 17,28 22,61 22,99 0,55 -16,105 -49,144z"/>
  </g>
  <circle class="fil9" cx="5215" cy="7634" r="150"/>
  <circle class="fil9" cx="5756" cy="7634" r="150"/>
  <g id="_380426896">
   <circle class="fil0" cx="10473" cy="3596" r="1610"/>
   <polygon class="fil0" points="10473,6152 11892,4349 9054,4349 "/>
  </g>
  <rect class="fil9" x="10235" y="3502" width="829" height="762"/>
  <g id="_399639288_0">
   <path class="fil1" d="M10586 3505l15 8 -11 -361c54,-499 -783,113 -4,353z"/>
   <circle class="fil1" transform="matrix(-11.9478 1.62355 1.62355 11.9479 10191.1 3779)" r="41"/>
  </g>
  <circle class="fil9" cx="9215" cy="7634" r="150"/>
 </g>
</svg>
