<?xml version="1.0" encoding="UTF-8"?>
<!DOCTYPE svg PUBLIC "-//W3C//DTD SVG 1.1//EN" "http://www.w3.org/Graphics/SVG/1.1/DTD/svg11.dtd">
<!-- Creator: CorelDRAW X7 -->
<svg xmlns="http://www.w3.org/2000/svg" xml:space="preserve" width="297mm" height="210mm" version="1.1" style="shape-rendering:geometricPrecision; text-rendering:geometricPrecision; image-rendering:optimizeQuality; fill-rule:evenodd; clip-rule:evenodd"
viewBox="0 0 29700 21000"
 >
 <defs>
  <style type="text/css">
   <![CDATA[
    .fil0 {fill:#334968}
    .fil1 {fill:white}
    .fil2 {fill:white}
   ]]>
  </style>
    <mask id="id0">
  <linearGradient id="id1" gradientUnits="userSpaceOnUse" x1="4133.41" y1="3661.3" x2="4183.09" y2="3555.06">
   <stop offset="0" style="stop-opacity:1; stop-color:white"/>
   <stop offset="0.45098" style="stop-opacity:-59.2353; stop-color:white"/>
   <stop offset="1" style="stop-opacity:0; stop-color:white"/>
  </linearGradient>
     <rect style="fill:url(#id1)" x="3948" y="3539" width="420" height="138"/>
    </mask>
    <mask id="id2">
  <linearGradient id="id3" gradientUnits="userSpaceOnUse" x1="5738.95" y1="4269.94" x2="9432.33" y2="676.56">
   <stop offset="0" style="stop-opacity:1; stop-color:white"/>
   <stop offset="0.329412" style="stop-opacity:-59.2353; stop-color:white"/>
   <stop offset="1" style="stop-opacity:0; stop-color:white"/>
  </linearGradient>
     <rect style="fill:url(#id3)" x="4000" y="1296" width="7171" height="2354"/>
    </mask>
 </defs>
 <g id="Слой_x0020_1">
  <metadata id="CorelCorpID_0Corel-Layer"/>
  <polygon class="fil0" points="1,0 29701,0 29701,21000 1,21000 "/>
  <circle class="fil1" cx="11056" cy="2555" r="190"/>
  <circle class="fil1" cx="12487" cy="3246" r="133"/>
  <circle class="fil1" cx="17697" cy="2365" r="190"/>
  <circle class="fil1" cx="16078" cy="3356" r="133"/>
  <circle class="fil1" cx="16697" cy="4339" r="133"/>
  <circle class="fil1" cx="18536" cy="3255" r="133"/>
  <circle class="fil1" cx="12487" cy="3246" r="133"/>
  <circle class="fil1" cx="14282" cy="3869" r="133"/>
  <circle class="fil1" cx="24721" cy="1652" r="190"/>
  <circle class="fil1" cx="4760" cy="4662" r="190"/>
  <circle class="fil1" cx="13704" cy="1485" r="190"/>
  <circle class="fil1" cx="22447" cy="11844" r="190"/>
  <circle class="fil1" cx="15240" cy="923" r="133"/>
  <circle class="fil1" cx="6694" cy="1463" r="190"/>
  <circle class="fil1" cx="20466" cy="1710" r="133"/>
  <circle class="fil1" cx="22314" cy="2744" r="133"/>
  <circle class="fil1" cx="28248" cy="1785" r="133"/>
  <circle class="fil1" cx="28371" cy="8232" r="190"/>
  <circle class="fil1" cx="26976" cy="3834" r="133"/>
  <circle class="fil1" cx="26269" cy="6757" r="133"/>
  <circle class="fil1" cx="27893" cy="6903" r="133"/>
  <circle class="fil1" cx="24810" cy="9634" r="133"/>
  <circle class="fil1" cx="26519" cy="10552" r="133"/>
  <circle class="fil1" cx="27941" cy="9517" r="133"/>
  <circle class="fil1" cx="1512" cy="1900" r="190"/>
  <circle class="fil1" cx="2467" cy="5383" r="133"/>
  <circle class="fil1" cx="4352" cy="8264" r="190"/>
  <circle class="fil1" cx="2573" cy="8786" r="133"/>
  <circle class="fil1" cx="4604" cy="16354" r="190"/>
  <circle class="fil1" cx="1132" cy="11731" r="190"/>
  <circle class="fil1" cx="1512" cy="18823" r="190"/>
  <circle class="fil1" cx="2467" cy="14181" r="133"/>
  <circle class="fil1" cx="5397" cy="12053" r="133"/>
  <circle class="fil1" cx="24839" cy="17060" r="190"/>
  <circle class="fil1" cx="28311" cy="12436" r="190"/>
  <circle class="fil1" cx="27931" cy="19529" r="190"/>
  <circle class="fil1" cx="26976" cy="14886" r="133"/>
  <circle class="fil1" cx="24046" cy="12758" r="133"/>
  <circle class="fil1" cx="14339" cy="11464" r="190"/>
  <circle class="fil1" cx="8816" cy="14620" r="133"/>
  <circle class="fil1" transform="matrix(0.862921 -0.396318 0.396318 0.862921 5053.42 1756.07)" r="109"/>
  <circle class="fil1" cx="6884" cy="19719" r="190"/>
  <circle class="fil1" cx="21641" cy="19719" r="133"/>
  <circle class="fil1" cx="16401" cy="9840" r="190"/>
  <circle class="fil1" cx="21991" cy="5383" r="190"/>
  <circle class="fil1" cx="10862" cy="13703" r="133"/>
  <circle class="fil1" cx="9215" cy="3834" r="133"/>
  <circle class="fil1" cx="8949" cy="18680" r="133"/>
  <circle class="fil1" cx="11132" cy="7852" r="190"/>
  <circle class="fil1" cx="8550" cy="11541" r="133"/>
  <circle class="fil1" cx="14027" cy="9251" r="133"/>
  <rect class="fil1" transform="matrix(0.909002 0.416792 -0.41679 0.909003 11147.9 2613.99)" width="1428.88" height="19.36"/>
  <rect class="fil1" transform="matrix(0.940454 0.339921 -0.33992 0.940454 12526.5 3244.52)" width="1854.02" height="19.36"/>
  <rect class="fil1" transform="matrix(0.958748 -0.284256 -0.0378478 1.05425 14270.7 3873.85)" width="1825.91" height="18.35"/>
  <rect class="fil1" transform="matrix(0.533391 0.845869 -0.600141 0.923074 16115.5 3357.95)" width="1183.86" height="17.58"/>
  <rect class="fil1" transform="matrix(0.848796 -0.52872 0.243556 1.02643 16104.9 3335.99)" width="1825.9" height="18.35"/>
  <rect class="fil1" transform="matrix(0.693312 0.720638 -0.401235 1.0253 17715.5 2370.59)" width="1183.86" height="17.58"/>
  <rect class="fil1" transform="matrix(0.852737 -0.522341 0.235852 1.02822 16705.1 4353.53)" width="2104.15" height="21.14"/>
  <rect class="fil1" transform="matrix(0.958748 -0.284256 -0.0378478 1.05425 2590.24 8791.57)" width="1825.91" height="18.35"/>
  <rect class="fil1" transform="matrix(0.887318 0.461159 -0.0686607 1.09131 24813.1 9640.95)" width="1837.99" height="17.7"/>
  <rect class="fil1" transform="matrix(0.99695 0.0780417 0.359718 1.03122 26333.1 6755.07)" width="1494.67" height="17.65"/>
  <rect class="fil1" transform="matrix(0.337063 0.941482 -0.829297 0.650417 27934.8 6932.9)" width="1382.96" height="17.7"/>
  <rect class="fil1" transform="matrix(-0.323559 0.946208 -1.0539 -0.0086309 28383.6 8245.14)" width="1382.96" height="17.7"/>
  <rect class="fil1" transform="matrix(0.79384 -0.608127 0.959276 0.524839 26444.1 10628.6)" width="1837.99" height="17.7"/>
  <g id="_379862336">
   <path class="fil1" style="mask:url(#id0)" d="M4361 3548c-20,-14 -127,2 -239,35 -112,33 -187,71 -167,85 21,14 128,-1 240,-34 112,-34 186,-72 166,-86z"/>
   <path class="fil2" style="mask:url(#id2)" d="M4001 3627c772,-436 4187,-1654 7022,-2330l148 102c-2103,504 -5501,1645 -6884,2203 -204,82 -240,37 -286,25z"/>
  </g>
  <g id="_500765160">
  </g>
  <g id="_500765448">
  </g>
  <g id="_500765376">
  </g>
  <g id="_500765472">
  </g>
  <g id="_500765832">
  </g>
  <g id="_500766216">
  </g>
  <g id="_500765112">
  </g>
  <g id="_500766384">
  </g>
  <g id="_500766336">
  </g>
  <g id="_500766960">
  </g>
  <g id="_500766816">
  </g>
  <g id="_500764584">
  </g>
  <g id="_500767080">
  </g>
  <g id="_500762832">
  </g>
  <g id="_500763336">
  </g>
  <circle class="fil1" cx="18949" cy="12688" r="133"/>
  <circle class="fil1" cx="18683" cy="16663" r="133"/>
 </g>
</svg>
